/* XPM */
static char *_f6eb2830b4543c3ceaeae832970d66b4dAljZNKJTgsitbV[] = {
/* columns rows colors chars-per-pixel */
"64 64 30 1 ",
"  c black",
". c #140814",
"X c #110711",
"o c #020002",
"O c #020102",
"+ c #953E95",
"@ c #943E94",
"# c #933D93",
"$ c #813681",
"% c #100610",
"& c #100710",
"* c #833683",
"= c #963E96",
"- c #973F97",
"; c #A645A6",
": c #A946A9",
"> c #AA47AA",
", c #250F25",
"< c #220E22",
"1 c #853785",
"2 c #983F98",
"3 c #260F26",
"4 c #120712",
"5 c #A846A8",
"6 c #A544A5",
"7 c #973E97",
"8 c #843784",
"9 c #A745A7",
"0 c #130713",
"q c white",
/* pixels */
"                                                                ",
".............XooX............XooX............XooX............XO ",
"+@##########@$%&*=##########@$%&*=##########@$%&*=##########@$X ",
"@-;:::::::::>-,<12;:::::::::>-,<12;:::::::::>-,<12;:::::::::>-34",
"4,=:555555555678<,=:555555555678<,=:555555555678<,=:5555555556=#",
" .#:5555555595>@04#:5555555595>@04#:5555555595>@04#:5555555595::",
" .@>::::::::::>@00@>::::::::::>@00@>::::::::::>@00@>::::::::::::",
" X$@##########@$%%$@##########@$%%$@##########@$%%$@############",
" o%040..0444440%oo%040..0444440%oo%040..0444440%oo%040..04444444",
"..040%oo%0444440..040%oo%0444440..040%oo%0444440..040%oo%0444444",
"####@$%&*=##########@$%&*=##########@$%&*=##########@$%&*=######",
"::::>-,<12;:::::::::>-,<12;:::::::::>-,<12;:::::::::>-,<12;:::::",
"55555678<,=:555555555678<,=:555555555678<,=:555555555678<,=:5555",
"555595>@04#:5555555595>@04#:5555555595>@04#:5555555595>@04#:5555",
"::::::>@00@>::::::::::>@00@>::::::::::>@00@>::::::::::>@00@>::::",
"######@$%%$@##########@$%%$@##########@$%%$@##########@$%%$@####",
"4444440%oo%040..0444440%oo%040..0444440%oo%040..0444440%oo%040..",
"44444440..040%oo%0444440..040%oo%0444440..040%oo%0444440..040%o ",
"+@##########@$%&*=##########@$%&*=##########@$%&*=##########@$X ",
"@-;:::::::::>-,<12;:::::::::>-,<12;:::::::::>-,<12;:::::::::>-34",
"4,=:555555555678<,=:555555555678<,=:555555555678<,=:5555555556=#",
" .#:5555555595>@04#:5555555595>@04#:5555555595>@04#:5555555595::",
" .@>::::::::::>@00@>::::::::::>@00@>::::::::::>@00@>::::::::::::",
" X$@##########@$%%$@##########@$%%$@##########@$%%$@############",
" o%040..0444440%oo%040..0444440%oo%040..0444440%oo%040..04444444",
"..040%oo%0444440..040%oo%0444440..040%oo%0444440..040%oo%0444444",
"####@$%&*=##########@$%&*=##########@$%&*=##########@$%&*=######",
"::::>-,<12;:::::::::>-,<12;:::::::::>-,<12;:::::::::>-,<12;:::::",
"55555678<,=:555555555678<,=:555555555678<,=:555555555678<,=:5555",
"555595>@04#:5555555595>@04#:5555555595>@04#:5555555595>@04#:5555",
"::::::>@00@>::::::::::>@00@>::::::::::>@00@>::::::::::>@00@>::::",
"######@$%%$@##########@$%%$@##########@$%%$@##########@$%%$@####",
"4444440%oo%040..0444440%oo%040..0444440%oo%040..0444440%oo%040..",
"44444440..040%oo%0444440..040%oo%0444440..040%oo%0444440..040%o ",
"+@##########@$%&*=##########@$%&*=##########@$%&*=##########@$X ",
"@-;:::::::::>-,<12;:::::::::>-,<12;:::::::::>-,<12;:::::::::>-34",
"4,=:555555555678<,=:555555555678<,=:555555555678<,=:5555555556=#",
" .#:5555555595>@04#:5555555595>@04#:5555555595>@04#:5555555595::",
" .@>::::::::::>@00@>::::::::::>@00@>::::::::::>@00@>::::::::::::",
" X$@##########@$%%$@##########@$%%$@##########@$%%$@############",
" o%040..0444440%oo%040..0444440%oo%040..0444440%oo%040..04444444",
"..040%oo%0444440..040%oo%0444440..040%oo%0444440..040%oo%0444444",
"####@$%&*=##########@$%&*=##########@$%&*=##########@$%&*=######",
"::::>-,<12;:::::::::>-,<12;:::::::::>-,<12;:::::::::>-,<12;:::::",
"55555678<,=:555555555678<,=:555555555678<,=:555555555678<,=:5555",
"555595>@04#:5555555595>@04#:5555555595>@04#:5555555595>@04#:5555",
"::::::>@00@>::::::::::>@00@>::::::::::>@00@>::::::::::>@00@>::::",
"######@$%%$@##########@$%%$@##########@$%%$@##########@$%%$@####",
"4444440%oo%040..0444440%oo%040..0444440%oo%040..0444440%oo%040..",
"44444440..040%oo%0444440..040%oo%0444440..040%oo%0444440..040%o ",
"+@##########@$%&*=##########@$%&*=##########@$%&*=##########@$X ",
"@-;:::::::::>-,<12;:::::::::>-,<12;:::::::::>-,<12;:::::::::>-34",
"4,=:555555555678<,=:555555555678<,=:555555555678<,=:5555555556=#",
" .#:5555555595>@04#:5555555595>@04#:5555555595>@04#:5555555595::",
" .@>::::::::::>@00@>::::::::::>@00@>::::::::::>@00@>::::::::::::",
" X$@##########@$%%$@##########@$%%$@##########@$%%$@############",
" o%040..0444440%oo%040..0444440%oo%040..0444440%oo%040..04444444",
"..040%oo%0444440..040%oo%0444440..040%oo%0444440..040%oo%0444444",
"####@$%&*=##########@$%&*=##########@$%&*=##########@$%&*=######",
"::::>-,<12;:::::::::>-,<12;:::::::::>-,<12;:::::::::>-,<12;:::::",
"55555678<,=:555555555678<,=:555555555678<,=:555555555678<,=:5555",
"555595>@04#:5555555595>@04#:5555555595>@04#:5555555595>@04#:5555",
"555555:#44#:5555555555:#44#:5555555555:#44#:5555555555:#44#:5555",
"555555:#44#:5555555555:#44#:5555555555:#44#:5555555555:#44#:5555"
};
