/* XPM */
static char *frisk_walking_left_64_floor_11757298843[] = {
/* columns rows colors chars-per-pixel */
"64 64 256 2 ",
"   c #0D0700",
".  c #150E00",
"X  c #371E1A",
"o  c #2F1711",
"O  c #3C2B04",
"+  c #3C2B0C",
"@  c #382508",
"#  c #3D3100",
"$  c #3C2A12",
"%  c #36241C",
"&  c #3B251D",
"*  c #3B291D",
"=  c #362817",
"-  c #343219",
";  c #3B1D29",
":  c #3D1E3D",
">  c #1B3232",
",  c #2E2D2A",
"<  c #362423",
"1  c #3C2624",
"2  c #3C2923",
"3  c #3D252A",
"4  c #3D2A2A",
"5  c #352828",
"6  c #2B3328",
"7  c #2C2B35",
"8  c #382536",
"9  c #323432",
"0  c #422D02",
"q  c #432D0C",
"w  c #443301",
"e  c #4A3C01",
"r  c #483807",
"t  c #432A19",
"y  c #463416",
"u  c #54360B",
"i  c #441C2A",
"p  c #4A1D35",
"a  c #491D37",
"s  c #511E3C",
"d  c #422325",
"f  c #412A25",
"g  c #4A2A24",
"h  c #43242B",
"j  c #422B2B",
"k  c #4B262B",
"l  c #463326",
"z  c #432332",
"x  c #4C2335",
"c  c #4B233C",
"v  c #4D2A3B",
"b  c #452837",
"n  c #51233C",
"m  c #522B3C",
"M  c #5A313E",
"N  c #502826",
"B  c #512B23",
"V  c #3E4114",
"C  c #4C4503",
"Z  c #5B5705",
"A  c #554C0F",
"S  c #675D06",
"D  c #695A17",
"F  c #756918",
"G  c #746D0B",
"H  c #5C4927",
"J  c #796B23",
"K  c #756726",
"L  c #776532",
"P  c #75712E",
"I  c #6A5A26",
"U  c #3F1E4C",
"Y  c #193859",
"T  c #183442",
"R  c #382B48",
"E  c #293848",
"W  c #33384A",
"Q  c #2B3854",
"!  c #363755",
"~  c #332951",
"^  c #393975",
"/  c #481B47",
"(  c #541D48",
")  c #511B53",
"_  c #4B2446",
"`  c #522343",
"'  c #582849",
"]  c #5B3348",
"[  c #5D2952",
"{  c #4E3054",
"}  c #6C3B5B",
"|  c #693C53",
" . c #67364F",
".. c #503370",
"X. c #6B3A65",
"o. c #743866",
"O. c #38494F",
"+. c #2C506B",
"@. c #2E6172",
"#. c #1E5A7F",
"$. c #4F4C4B",
"%. c #6A425B",
"&. c #4A4770",
"*. c #774A68",
"=. c #795269",
"-. c #7C4A72",
";. c #6E4D70",
":. c #5F7460",
">. c #817A08",
",. c #84792B",
"<. c #856E37",
"1. c #864B7B",
"2. c #895679",
"3. c #945B7B",
"4. c #80486F",
"5. c #926A73",
"6. c #83624F",
"7. c #7E8000",
"8. c #989316",
"9. c #B3B317",
"0. c #958D2D",
"q. c #A69B32",
"w. c #B3AB28",
"e. c #B3B131",
"r. c #C2BB35",
"t. c #BCC22C",
"y. c #CCCA2E",
"u. c #FBFF2D",
"i. c #F4FD2D",
"p. c #F5FC34",
"a. c #FBFE34",
"s. c #F5FD3A",
"d. c #FCFE3B",
"f. c #F5F53A",
"g. c #E8EC38",
"h. c #C1C91B",
"j. c #A4944A",
"k. c #B2AB4C",
"l. c #999D62",
"z. c #C7B950",
"x. c #C4BE66",
"c. c #CDC448",
"v. c #E4DF50",
"b. c #F5FA43",
"n. c #FCFE43",
"m. c #F6FC4B",
"M. c #FBFB4B",
"N. c #F5F449",
"B. c #FCFB54",
"V. c #F7F758",
"C. c #EDED54",
"Z. c #EAE667",
"A. c #F1EB65",
"S. c #FAF765",
"D. c #ECE875",
"F. c #F2EA75",
"G. c #F4F571",
"H. c #C1C161",
"J. c #68348B",
"K. c #2D6893",
"L. c #356C99",
"P. c #54478B",
"I. c #507F92",
"U. c #547DAC",
"Y. c #6D70A9",
"T. c #784EA0",
"R. c #737DD0",
"E. c #7655C0",
"W. c #932FB3",
"Q. c #8A3F82",
"!. c #924D88",
"~. c #8E5682",
"^. c #8E5887",
"/. c #935E83",
"(. c #955D8C",
"). c #9B5C8C",
"_. c #985887",
"`. c #9D5594",
"'. c #9C5C93",
"]. c #9C5C9A",
"[. c #975797",
"{. c #8C498A",
"}. c #A35C95",
"|. c #A4559C",
" X c #AA569D",
".X c #A45C9C",
"XX c #AA5A9D",
"oX c #A75895",
"OX c #B0599D",
"+X c #A15595",
"@X c #8D628C",
"#X c #9B638C",
"$X c #986487",
"%X c #9C6294",
"&X c #996499",
"*X c #8E6A96",
"=X c #A3619B",
"-X c #A26295",
";X c #A3658E",
":X c #9E5AA3",
">X c #8D4FB0",
",X c #A555A3",
"<X c #AA56A4",
"1X c #A65AA3",
"2X c #A958A4",
"3X c #A455A9",
"4X c #AB56AA",
"5X c #A65AAA",
"6X c #AB5AAB",
"7X c #B155A5",
"8X c #B15CAB",
"9X c #B158A8",
"0X c #AB55AD",
"qX c #8D66AD",
"wX c #A761A4",
"eX c #AD62B3",
"rX c #993EE8",
"tX c #9934D2",
"yX c #8A49C6",
"uX c #9548D6",
"iX c #8B4CD6",
"pX c #9747E6",
"aX c #9D45F9",
"sX c #A14AE6",
"dX c #3889BB",
"fX c #568AAA",
"gX c #4B85B9",
"hX c #5489B8",
"jX c #6997B9",
"kX c #3C94CF",
"lX c #3CACF8",
"zX c #3CAFEB",
"xX c #4B8BC4",
"cX c #4995C7",
"vX c #5393CA",
"bX c #589DDA",
"nX c #4E8ECC",
"mX c #6296CD",
"MX c #6A90D6",
"NX c #55A5D9",
"BX c #52A5D0",
"VX c #509DFC",
"CX c #6886EC",
"ZX c #6A97E6",
"AX c #7488F9",
"SX c #7892F8",
"DX c #6D8FEE",
"FX c #46AAE7",
"GX c #55A5E8",
"HX c #46A9F9",
"JX c #57A4F9",
"KX c #4DB1EE",
"LX c #64A1DE",
"PX c #E5E381",
"IX c #E8DF80",
"UX c #848CD7",
/* pixels */
",X2X5X6X1X|.}.}.XX1X6X4X9X<X X7X6X4X4X<X X2X4X0X4X1XoXoXXX<X4X5X4X2X2X2X2X2X2X2X2X2X2X2X2X2X<X<X9X<X8X4X5X2X4X<X2X<XXXOX2X1X1X1X",
"2X2X4X5X2X1XXX}.2X6X3X3X<X<X X<X3X3X XXX}.XX1X1X1X.X-X-X.X1X1X|..X.X.X|..X.X.X.X.X.X.X.X.X.X.X2X8X<X,X4X3X2X1X1X<X<X9X<X2X2X1X1X",
"2X2X4X,X6X9X<X<X,X6X3X5X1X.X2X1XwXwX!.3.3.3.3.2.~.^.~.~.^.~.~.3.~.~.~.~.~.~./.~.~.~.~.~.~.~.~.~.[.}.,X2X5X2X2X2X2X2XXX<X2X2X1X1X",
"XX2X2X<X<X4X,X6X4X6X3X5XwX].&X&X&X^.` n i x x v c c ` ` _ _ x x x v v c c c c c c c c c v v v ` #X-X.X|.1X|.2X2XXX2X|.1X1X2X<X4X",
"XX X XXX<X<X<X9X2X|.1X4.-.-.*.=.=.=.h d ; h 8 h d 1 h 3 i 3 1 & 1 3 3 3 3 3 3 3 3 3 3 3 3 3 h z *.-.-.'.wX|.2X2X|.1X1X1X<X<X4X4X",
"XXXXXXXX X X9X+X.X'.$Xn a b z ; ; j X j h h 3 1 1 & 2 2 3 3 & * 2 3 1 3 2 2 1 3 1 1 3 1 1 1 4 h z x ` #X-X.XXX|.1X5X1X1X2X<X9X7X",
" X2X<X2XXX}.-Xo.o.| %.d i h 3 z d t t & 1 1 2 f 2 2 3 3 2 2 4 3 4 1 1 2 2 2 2 2 2 j 2 2 2 4 2 4 3 ; ; } } o.'..X=X5X5X1X4X<X<X7X",
"|.6X,X2X}.;X/.s a i k d f < < 4 h & 1 1 & f & % 1 1 3 2 2 1 3 3 1 1 1 1 1 1 1 1 1 1 1 1 1 1 1 1 1 3 x i p s ;X'.].1X1X4X2X<X<X X",
"0X3X0X5X1.2.=.x c ; 1 j < 1 3 ; z ; b 3 1 h 1 f 2 & 1 f < 2 8 3 3 d 1 3 d 2 h 1 h 2 d 3 1 d 1 1 1 h < 1 d m *.2.^.5X5X3X<X6XXXXX",
"4X3XeX:X( i d < < 5 2 2 f h h z 8 8 8 3 4 < < % f & t 2 1 3 4 1 1 1 1 f 2 d 1 1 1 d d 2 d 1 h 2 3 j & 2 1 1 z / ( [.2XeX2X|.|.=X",
"6X<X5X[.n N f * 5 4 - % d ; t t 2 j 5 4 j * * 2 & 2 * * 4 1 * 2 * 1 1 1 1 1 d < 1 1 2 1 1 2 1 1 1 h * 2 2 * 3 i / '.`.|.2X1X=XXX",
"XX2XwX'.p d = * < 4 2 2 1 t q 0 O = < 4 @ O # + * * & 2 < 5 2 2 2 2 1 2 * 2 2 2 & 2 2 2 1 2 2 1 3 1 < 2 = * 4 h n $X=X.X=X.X.X}.",
"XXoX+X'.s i t j 2 = * * t H j.0.0.A t y C q.q.0.H f * j 2 2 < < 2 2 2 2 2 2 2 2 2 2 2 2 2 2 2 1 1 1 f < * % < 3 z *.2.~.1..X.XwX",
"oXXX2X'.' c m i 2 * * * $ L F.S.Z.G + + S F.G.Z.S q q = 1 1 2 j < 2 2 2 < 2 2 2 2 2 2 2 2 2 2 2 1 1 j 2 4 4 2 2 k h x c [ `.].:X",
"<X4X1X}.(.&X(.c h 1 2 f + K A.M.v.G y q S A.N.N.r.q.j.w t 1 1 1 f 2 3 2 2 2 3 2 1 2 1 2 1 2 1 2 f < 1 1 1 4 < < * * d i / '.1X6X",
"4X6X2X5X=X'.&X/ z 1 @ O # G N.f.v.G 0 0 S C.d.d.B.S.F.e t & h 1 1 1 3 3 3 1 d 2 2 1 3 3 3 3 1 3 1 < 4 3 3 4 2 2 * 2 1 h c %X3X4X",
"<X<X,X6XXX}.$Xx ; l F 0.8.9.p.a.b.9.8.8.w.V.f.a.d.B.D.e + & 4 < 1 & d ; i N X t $ - 3 5 h 3 f d 3 1 4 5 3 4 3 1 1 < 2 3 c (.|.<X",
"2X2X<X<X|.=X3.x p $ j.A.V.m.d.s.n.f.M.M.N.M.a.u.a.B.F.e O & 2 4 < & @ 0 O @ 0 O O @ j 4 3 X & f 1 4 2 5 1 1 h h h 2 2 3 x $X1X<X",
"XX6X2X2X0X,X).s x u q.C.m.s.b.b.f.n.n.b.n.d.d.a.a.M.A.e q f & % * q ,.q.0.8.0.0.0.O = < 4 j d * d 2 2 < < f 3 d 2 2 2 3 _ (.1X4X",
"2X2X2X<X6X].}.' p u q.C.b.b.V.S.V.V.C.m.b.d.f.d.d.M.Z.e + * @ r w e Z.C.V.S.S.G.PXC $ % 3 3 d & t 1 2 * 2 f 1 d 2 1 5 3 c #X1X4X",
"5X4X1X,X1X'.#Xi N 0 q.N.b.h.S Z D Z Z S G C.b.b.p.b.A.e q t D k.k.w.M.n.b.N.M.V.F.# + j 2 1 d 1 1 1 f & f & 2 2 2 < 1 3 c @X1X3X",
",X4X2X1X=X#X5.B u u r.N.s.h.. .       . C N.M.s.a.b.A.e 0 y ,.G.B.M.p.d.d.N.V.A.IXC + 2 & < f 2 1 d 1 1 1 1 < * 2 < 2 3 c (..X<X",
"6X4X3X`.4.6.<.z.z.y.g.d.s.g.9.e.t.e.e.t.h.s.i.a.d.M.A.e @ 0 >.A.M.d.u.a.f.y.G K K O = 2 2 3 < 2 1 1 1 3 1 2 1 2 - 2 1 h n /..XXX",
"4X3X4X+Xs i u F.V.b.d.i.p.p.m.m.b.m.m.b.s.a.i.u.a.M.A.e 0 w G V.n.d.b.N.S.q.e @ @ * f = 4 4 & 2 3 4 3 2 2 2 * 2 * 2 h h n ).-XoX",
"<X<X6X[.n q e D.C.m.s.i.p.a.p.d.s.s.b.s.d.a.a.a.d.n.V.9.w.w.y.N.n.B.8.,.,.I q * 2 < 5 j % 2 4 < 2 4 < 4 1 2 & < 2 1 h i / ;XoX X",
"<X|.5X&Xp @ e PXG.G.C.m.B.g.n.p.i.s.a.s.d.a.a.d.n.n.d.n.M.M.S.S.S.Z.e + = o l = 3 3 3 3 % 2 * < 2 1 < 1 3 j 1 1 2 b a s ( +XXXXX",
"9X6X].(.n k X H V C C C Z >.N.f.a.u.a.a.d.n.d.d.n.d.p.a.p.b.c.G I L t * = f = f 3 z 3 < 2 4 * 2 * 2 1 j 1 3 ; 1 z =.2.^.!.1X<X2X",
",X2X2X'.[ ` z             Z C.d.u.u.u.u.a.d.d.a.d.d.u.a.u.b.e.e + 1 * 2 < 4 = & 1 h h 1 3 j % = * < i m v n ] h v #X&X=X1X2X2X,X",
"6X5X2X.X[.%X/.o o @ F q.8.9.N.f.d.d.a.a.d.a.u.u.u.a.a.i.u.b.e.q + 1 @ $ 4 2 4 j h d t i h z d t h i n 2./.$X3./ / %X}.2X<X4X5X5X",
"3X,X2XXX,X1X-X' z l l.PXG.V.S.N.V.V.S.V.V.B.M.m.V.V.N.d.a.f.w.e 0 # $ * f 4 X h 3 h h p p ; h k p p ' ).-X%X(.( ( ].1X4X4X,X2X1X",
"eX1XoXOX2X|.+X1.~.=.5.<.<.<.F <.L K J J J J F J ,.F >.C.M.n.v.r.e.k.y 2 3 1 1 3 v =.2.-.-.v d d 2.1.1.<X|.XXwX!.!.1X<X<X8X8X|..X",
":X4XoXoX7X9X<XXX:X].$Xl g t B N N N N g g t N N d @ e F.M.d.n.M.M.S.y 4 3 k m v ` %X*X&X).[ x ' ).=XXX9X2X2X.X.X|.2X2X<X2X<X`.=X",
"5X1XXXXX<X4X4X5X5X1X).)._._.).).`.(.(.(.3.3.(.(.3.g r F.N.n.p.d.d.C.u 3 c 2.3._.`.wX&X1X2X+X`.'.|..X2X2X2X2X1X1X1X2X2X<X2X<X1X1X",
"4X2XXX2X<X<X5X4X5X5XXX.XoX X<X2X4X|.5X=XoXoX,X5X).i C PXG.S.B.B.B.Z.A ; _ #XoXOX5X5X:X`.7X9X6X,X2X2X2X2X2X<X<X2X<X2X2X2X2X2X2X2X",
"1X1X<XXX<X<X4X5X6X1X1XXXXX2X4X4X<X2XwX.XXXOX,X X-Xx + P ,.J P F ,.P $ & a %X=X|.5X:XeX5X6X X<XXX1X<X<X2X2X1X2X2X2X2X,X2X2X2X2X2X",
"5X2X1XXXXX<X2X6X5X1X1X|.XXXX<X<X<X2X=X}.OX+X}.%X2.v = - @ = - 6 > 9 = j ` #X=X&X:X5X5X3X<X XXXXX2X2X2X2X<X<X1X2X2X2X2X2X2X<X1X<X",
"4X2X2X1X2X2X<X2X4X2X2X1X2X2X<X4X7X X+X-X-X[ ' { _ 5 5 , 7 7 @.fXhXfX9 < b *.*.4.4.=X4X4X9XoXoXXX2X2X2X,X2X2X1X<X2X2X,X2X<X2X2X2X",
"2X2X2X2XXX1X<X2X4X2X2X2X1X<X2X<X9X9X-X*X@X{ ! E E O.O.E O.Y K.NXKXNXE 3 8 R ! { { $X1X1X2XXXoXXXXX2X2X2X2X2X<X2X2X2X2X2X1X<X,X2X",
"1X<X2XXXXX<X<X<X2X2X<X2X1X1X5X1X[.~.%.&.&.hXnXnXnXvXgXxXvXcXkXzXzXBXT 9 8 +.hXU.Y.&.&.%.'.wX5X<X<X2X<X2X2X<X1X2X2X2X2X2X2X2X2X2X",
"4X2X2X2X1XXX2X<X<X<X9X1X1X1X1X.X&X*.3 8 ^ SXAXSXAXDXZXZXLXBXFXFXlXFXE , R P.AXUXUX~ _ _ [.5X5X4X1X<X1X<X2X2X<X2X1X<X<X1X<X2X2X2X",
"<X2X2X2X1X2X<XXX7X2X2X4X2X|.1X%X$X=.b 8 ..yXsXrXaXpX>X..+.+.K.GXKXbXE 5 8 J.yXpX>X) _ c [.6X4X<X2X4X2X2X<X2X2X2X<X2X2X1X<X<X1X<X",
"<X<X<X2X1X1XXX<X2X<X<X<X1XwX'.[.*X;.W ! J.E.rXaXtXtX[.) ; W K.GXJXbXE 2 8 ..iXuX>X/ 8 b ].4X4X5X1X1X<X2X2X<X1X<X2X2X2X<X2X2X2X2X",
"2X2X2X1X2X1X2X2X2X<X4X2X|..Xo.;.P.Y.gXgXnXDXCXR.P.[ ' i 8 W #.FXHXbXE 5 U ^ CXR.R.~ 5 k #X2X5X1X1X<X<X2X1X<X<X1X<X2X2X<X2X2X2X<X",
"<X2X2X5X1X1X2XXX2X4X<X2X].'.( a _ Y.ZXSXVXZXZXmXO.- r q 0 , +.jXNXvX..) ..P.UXSXUX! 3 d )..X|.2X2X<X1X<X2X2X2X2X1X<X2X1X1X2X<X1X",
"<X<X2X3X1X1X2X2X2X6X<X,X.X'.s a ) W.pXiXE.P.^ $.k.H.c.c.c.H.l.O.O...J.W.W.tXpXuX>X/ 8 c (.|.7X7X<X2X2X2X2X2X<X2X2X<X2X2X<X2X1X<X",
"XX2X2X1X3X1X2X2X2X4X<X1X-X#Xc p _ T.E.iXT.U ; y k.S.V.B.B.S.k.# 5 { >XiXrXrXrXuX>X/ c c &X2XOX7X<X2X2X2X2X<X1X<X2X1X<X2X<X2X<X2X",
"OX<X2X5X5X5X1X2X<X<X2X2X'./.x ; ~ Y.AXCXY.Q , y c.V.b.b.s.N.e.V % ~ R.R.AXAXR.AXMX~ 8 a '.6X X X2X2X2X<X2X1X1X2X2X<X2X2X2X2X1X4X",
"XX<X2X4X,X5X2X<X<X<X1X1X%X/.n 7 E gXJXJXnXY > l H.G.V.V.m.G.l.# 7 Y bXHXHXVXVXVXmXY 7 / '.,X X9X2X2X<X1X<X2X<X2X<X1X2X2X,X2X2X2X",
"2X1X1X2X1X<X2X9X<X<X1X.X-X$Xc 8 E fXGXFXFXdXdXfX:.L P F F P :.fXU.kXFXHXlXHXHXGXmXY 7 v ).|.9X0X<X2X2X2X2X,X2X2X2X2X2X2X2X2X2X<X",
"1X2X1X<X<X2X<X<X8XXX|.|.=X).[ _ ! Y.bXGXFXFXFXBXO.> , 6 6 > K.BXFXHXlXlXlXHXFXvXfXQ 8 z $XXX7X0X4X<X2X2X2X2X2X2X2X2X2X,X2X2X<X1X",
"4X<X<X2X<X2X2X2X X2X<XXX2X1X!.[.(.*X^ +.K.BXFXFXcXgXhXU.gXgXcXGXFXzXFXHXJXxX#.+.O.9 ; : #X.XXX<X2X2X2X2X<X2X2X4X2X1X<X2X2X2X2X2X",
"4X4X<X2X1X1X|.2X2X8X8X<X<XXX<X2X+X).: E Y hXhXBXcXvXMXZXZXZXZXvXgXcXvXvXhXK.T 6 6 2 k m #X#X'.].1X2X2X2X2X2X1X2X2X<X2X2X2X4X,X2X",
"7X<X<X2X2X1X1X2X,X X<X|.8XXXXX+X].&X_ 8 6 W W E W ! Y.qXqXY.Y.{ Q O.Y Q W W , 9 * d d i | ] | X.}.,X2X2X2X2X<X2X1X<X2X2X2X2X2X<X",
"<X<X2X2X2X2X1X2X2X2X2XQ.).'.-X%X&X~.c 3 5 - j d * m %X,X3X5X=Xo.%.%.8 4 5 , 5 < f d d i k ; z c .X,X2X2X<X2X1X2X<X2X2X<X2X1X2X2X",
"<XXX2X2X2X2X2X5X2X1X[.) ' ' ] ] M M h 2 - = * < & i +X2X<X|.2X2X=X$Xm h 2 5 5 7 5 3 h d h h z _ '.2X2X2X1X2X2X<X2X2X<X1X1X2X2X2X",
"XXXX.X1X2X2X4X1X1X2X.X[ [ ' z d g d 3 3 % - & f M  .oX X X8X X|.'.-Xc i j % 3 4 3 3 k k m ] [ [ |.1X2X2X<X2X1X<X,X2X2X2X<X<X<X1X",
"XX|.1X1X2X2X4X2X5X1X.X%X$X2.b j d d z 8 8 8 z x )..XXX2X XXXoXo.o.[ c p d d d d d d k c 3.%X=X}.1X<X2X2X1X<X2X2X2X2X,X2X2X2X4X1X",
"1XXX2X2X2X1X4X1X1X1X.X'.%X#X%.%.| %.X.X.X.X.| o.XX6X2X<X XoX).o.X.X.X.} } | |  .| | } o.'.}.2X<X2X1X<X2X<X2X2X<X2X2X2X2X2X2X2X2X",
"2X2X2X2X1X1X1X2X2X2X2X<X2X1X+X}..X1X:XwX:X1X'.=X,X<X].1X<XXXwX}.}..X1XwX1X.X;X-X;X}.}.|.2X2XXX X2X2X2X2X2X2X<X1X2X2X<X2X2X<X<X2X",
"9X7X<X2X1X1X1X1X2X<X4X4X9X7X8X<X1X2X1X2X4X4X1X1X4X4X1X5X4X<X5X4X2X6X4X4X3X1X2X<X2X=X2XwX2X2X9XXX2X<X2X2X,X2X2X2X2X2X1X<X<X1X2X2X",
"4X4X<X2X1X.X1X2X<X<X4X9X9X7X0X7X2XXX2XOX7X9X4X4X<X2X1X.X1X1X3X1X2XXX|.1X1X:X1X:X1X,X,X2X<X<X6X2X2X2X<X1X1X4X2X<X2X2X<X1X1X2X2X<X",
"4X4X2X2X1X2X2XXX<X<X4X4X9X4X9X0X4X4XXXOX7X7X7X2X,X1X|.].1X5X5X4X2XXX.X.X1XwXwX5X5X4X2X2X<X<X6X,X2X2X2X<X<X2X2X1X,X2X2X<X<X2X<X1X",
"2X5X1X2X2X2X2X<X<X<X2X2X1X1X,X1X:X5X.X.X|.1XXX2X6X5X2XXX<X<X<X2X2X2X X X X7X2X2X<X,X3X5X1X,X2X2X2X2X2X2X2X2X2X2X2X2X2X2X2X2X2X2X",
"1X1X1X1X2X2X<X<X<X<X2X1X.X.X'.].5X5X|..X.XwXXX1X5X5XXXOX<X<X7X6X1X1X<X7XOXOX7X7X6X4X5X3X5X1X1X2X2X2X2X,X<X1X<X2X2X2X2X2X2X,X2X2X"
};
