/* XPM */
static char *frisk_standing_left_64_floor1757298843[] = {
/* columns rows colors chars-per-pixel */
"64 64 256 2 ",
"   c #0F0200",
".  c #140900",
"X  c #31161C",
"o  c #352500",
"O  c #3C2C01",
"+  c #3D2A0B",
"@  c #382509",
"#  c #3B2614",
"$  c #3D2A15",
"%  c #3B251D",
"&  c #3B291D",
"*  c #37261A",
"=  c #2F3210",
"-  c #3A1E24",
";  c #301E38",
":  c #193333",
">  c #2C2928",
",  c #352424",
"<  c #3C2624",
"1  c #3C2923",
"2  c #3C252A",
"3  c #3D292A",
"4  c #362927",
"5  c #272A38",
"6  c #372835",
"7  c #2B3531",
"8  c #143019",
"9  c #412B06",
"0  c #443402",
"q  c #443C00",
"w  c #493905",
"e  c #553C08",
"r  c #42271B",
"t  c #493915",
"y  c #431E2B",
"u  c #441D32",
"i  c #491D34",
"p  c #491B3A",
"a  c #412424",
"s  c #412B25",
"d  c #42242B",
"f  c #422A2B",
"g  c #4C2627",
"h  c #563328",
"j  c #452332",
"k  c #4A2235",
"l  c #442933",
"z  c #4B233B",
"x  c #462739",
"c  c #532C39",
"v  c #502F32",
"b  c #451719",
"n  c #464200",
"m  c #594C02",
"M  c #5A4A16",
"N  c #675A0A",
"B  c #6D5A1F",
"V  c #5B6804",
"C  c #51691B",
"Z  c #6C6908",
"A  c #746C0B",
"S  c #7B7505",
"D  c #766916",
"F  c #6D7019",
"G  c #6C5426",
"H  c #566733",
"J  c #746C2A",
"K  c #584028",
"L  c #3A1C46",
"P  c #183648",
"I  c #392445",
"U  c #25374A",
"Y  c #2F2F4D",
"T  c #322E65",
"R  c #143B62",
"E  c #471D45",
"W  c #541E47",
"Q  c #492349",
"!  c #552C44",
"~  c #582648",
"^  c #5A334B",
"/  c #5A2853",
"(  c #483356",
")  c #593655",
"_  c #472656",
"`  c #6C365E",
"'  c #6B395B",
"]  c #653555",
"[  c #693455",
"{  c #4C306D",
"}  c #6C3564",
"|  c #6B3B65",
" . c #783D68",
".. c #6F2C61",
"X. c #601B6A",
"o. c #33474F",
"O. c #174C69",
"+. c #294664",
"@. c #2E5474",
"#. c #1B4154",
"$. c #6E435A",
"%. c #754A51",
"&. c #4D4C71",
"*. c #7B436B",
"=. c #774566",
"-. c #7C4674",
";. c #7E5379",
":. c #734C6F",
">. c #857519",
",. c #84770B",
"<. c #867523",
"1. c #813E74",
"2. c #85487A",
"3. c #88567A",
"4. c #88516E",
"5. c #8E637A",
"6. c #917B42",
"7. c #5B806F",
"8. c #979309",
"9. c #928A11",
"0. c #ABAB14",
"q. c #908531",
"w. c #B6B033",
"e. c #A09E08",
"r. c #C5BE3E",
"t. c #D0CD3B",
"y. c #F5FE2B",
"u. c #F6FD34",
"i. c #FAFF34",
"p. c #F6FB3A",
"a. c #FBFE3C",
"s. c #F1F53A",
"d. c #ECFD3F",
"f. c #DEE13C",
"g. c #A99A59",
"h. c #B4AC48",
"j. c #BBB348",
"k. c #B5A958",
"l. c #AEA354",
"z. c #B99E65",
"x. c #BCB162",
"c. c #968746",
"v. c #C4B850",
"b. c #C6BE69",
"n. c #CECA43",
"m. c #D2CE46",
"M. c #D1CC50",
"N. c #E7E745",
"B. c #F5FC42",
"V. c #FBFE43",
"C. c #FCFD4B",
"Z. c #F5F64A",
"A. c #E9E756",
"S. c #FBFC53",
"D. c #FDFC5B",
"F. c #F5F859",
"G. c #F0F04E",
"H. c #D6CF62",
"J. c #E2DB6A",
"K. c #DCE36E",
"L. c #ECE76D",
"P. c #FBF762",
"I. c #F9F666",
"U. c #FCF677",
"Y. c #EEED6E",
"T. c #E0DC47",
"R. c #713186",
"E. c #733CAF",
"W. c #2D5B89",
"Q. c #286289",
"!. c #32648E",
"~. c #3173A9",
"^. c #1C6391",
"/. c #574D88",
"(. c #74568D",
"). c #546C8E",
"_. c #686590",
"`. c #6E50B1",
"'. c #507AAC",
"]. c #6F70B1",
"[. c #5C40A6",
"{. c #7A67D4",
"}. c #745CEB",
"|. c #7462E9",
" X c #6A57D2",
".X c #924B87",
"XX c #8B5383",
"oX c #915484",
"OX c #9B5C8C",
"+X c #955989",
"@X c #9C5C93",
"#X c #9D5E9B",
"$X c #995996",
"%X c #8A4F8F",
"&X c #A15C95",
"*X c #A5559D",
"=X c #AA559D",
"-X c #A45B9C",
";X c #AA5A9D",
":X c #A75895",
">X c #B2599E",
",X c #A54F9A",
"<X c #9A628B",
"1X c #94608A",
"2X c #9D6194",
"3X c #9C6199",
"4X c #846391",
"5X c #A3629C",
"6X c #A66398",
"7X c #A5608D",
"8X c #9F5DA3",
"9X c #9F57A4",
"0X c #8D47B6",
"qX c #A555A2",
"wX c #AA56A5",
"eX c #A65AA3",
"rX c #A958A4",
"tX c #AB56AA",
"yX c #A65AAA",
"uX c #AC5AAA",
"iX c #A556AA",
"pX c #B05AA4",
"aX c #B054AC",
"sX c #B259A9",
"dX c #A857B2",
"fX c #B25CB4",
"gX c #A962A5",
"hX c #993FC5",
"jX c #8A50D0",
"kX c #8C6BCF",
"lX c #8C4DEE",
"zX c #8C7AFF",
"xX c #9879F8",
"cX c #946CF6",
"vX c #A465F3",
"bX c #3D8BBC",
"nX c #5B86A8",
"mX c #4C8AB3",
"MX c #6B97B8",
"NX c #359CDA",
"BX c #5096CD",
"VX c #6890C9",
"CX c #58A2C9",
"ZX c #58A5D8",
"AX c #4DA9DF",
"SX c #65A4D7",
"DX c #62A3C8",
"FX c #569EF1",
"GX c #6E99EE",
"HX c #4DA9E8",
"JX c #57A7E4",
"KX c #4FACF2",
"LX c #6EA0F5",
"PX c #F1E083",
"IX c #8C8AF6",
"UX c #8683C6",
/* pixels */
"tXtXtXrXtXrXqXrX;XeXeX-XeXeXeX;XrX=XtXuXrXrX:X;XyXyXrXrXrXrXwXrXrXwXyXrXeXeXeXeXeXeXuXtXiXtXaXtXrXrXrXrXpXrX=X;X;X-X-X-XrXwXaXaX",
"tXrXrXrXrXrXeXeXeX;XeX;XrXeXgXuXrXwXsXtXqX;X-X;X-XeXyXyXeX;XrXeXeXrXeX;X;X-X-X&XeX-XeX-XrXtXrX*XrXrXrX*X=XaXwX:X-X;X-XeXrXrXaXaX",
"rXrXrXrXrXrXrXrXrXrXrXrXrXrXrX*XrXqXiXyXeX5X@X6X3X#X8X8X#X#X-X&X5X@X5X@X2X3X2X2X5X7X&X6X-X:X-XgX;XrXrXwXwXaXuXqX;X-X-X-XeXrXtXtX",
"yXeXyXyXrXrXrXrXqXrXrXuXrXrXrXrX6X-XyXyX$X2.' ' ' ` } } ' ' } ` ' ` ' ' ' ' ' ' ' ' ' } ` } 2.@X-XrXrXsXtXwXtXrXeXeXeX-XeXrXrXrX",
"eXeXeXrXrXrXwXwXwXwXwXwXrXrXrX*X7X<XOX2X5.' k y g g i j j g j i j k i j j j j j k u j z u z $.<X&X-X*XrXtXtXtXtXrXyXeXeXeX-XeXeX",
"eXeXeXrXrXrXrXwXrXwXwX;XrX*X;X-X .] ^ ] [ v y a a % a < < % < < d - 2 < 2 - < 2 d < - d y d ! $. .&X5XeXrXiXfXiXiXyXeXeX;XeXeX-X",
";XeXqXyXrXrXwXwXwXwXeXgX6X-X&X2X] i y d a a d l < & & & & & < 1 < < 3 & 1 1 < < 1 1 1 f f < < u ~ 2.7X-X;XqXtXyXtXyXyXeXeX-XeX#X",
"eXeXeXrXrXrXrXrX;X;X-X&X@XXX-.=.^ j d a a d 2 2 < < & & & < < & < 1 1 1 & 1 & & * & 1 % < s f < u =.-.3.@X-XeXeXtXtXrXrXyXeXeX;X",
"rXyXrXrXrXrXrXrX-X5X7X+X1X' z u l 2 < 3 2 2 6 6 2 4 1 % f 1 f , & 1 1 & & 1 & , & 1 1 1 1 1 < a d i k | <X<X$XeXyXrXrXwXwXwX=X*X",
"eXrXuXrXtXrXrXeX-X&X2./ ! x d d * 4 1 4 2 6 2 , 2 2 < s < 2 < 2 < 1 , 1 < 1 1 1 1 1 & 1 1 < < < % a d c ] / } $XeXrXwXrXwXwX;XrX",
"rXrXtXrXwXrXrXrX-X2X-.p j d 2 1 & & & 4 4 3 1 1 , , s 1 < < d d < 3 1 3 1 1 < 3 1 1 , 3 < 2 a < < s s < y y ~ OX&X-XrXwXwXpXwXwX",
"rXrXrXwXtXtXrXrX;X@X*.i d 2 % & & = $ $ * & # & r $ # % < a d 2 < < 1 < < 3 < 3 < , 3 < s 2 < 1 1 # 3 * d u ! <X5X-X;XrXpXaXwX=X",
"rXqXrXrXtXwXwXrXeX@X .p u d 1 & & # + O O + # r o 0 O + # f - d 2 < < s < 2 1 a < < s 2 a < < < < * & % 1 d c 3.+X6X;X;XwXwXwXwX",
"eXeXyXrXwXtXwXrX-X&X .u d d 1 1 & r J z.k.J & $ q.x.g.0 @ # < f < < < a < a < a a < < < d < < 1 < 1 1 < < < j $.' 2.&XeXwXrXrXrX",
"eX-XrXrXuXwXtXrX-X&X*.~ k a < 1 < @ q.PXU.q.@ @ j.Y.H.m 0 0 @ % 1 < 1 1 1 < < < 1 1 < < 1 < < < 1 < 1 * 1 < y u p  .&XgXrXrXrXrX",
"eX;XyXrXwXwXwXrXrX6X@X3.4.! < & s 9 e.P.P.9.O O w.P.F.m.M.l.t % 1 < < < < 1 1 1 1 2 1 < 1 1 & 1 < 3 & 3 < 1 f y p *.&XeXqXrXuXrX",
"qXrXrXrXwXwXwX;XrXeX-X2X+Xc a $ 9 0 8.D.F.8.9 0 0.S.C.C.D.M.0 r & 1 3 , , 1 & & < 2 < 3 < 3 1 < < < 1 1 4 3 % a y =.3XyXyXrXrXwX",
"rXrXrXrXtXrXwX=XrXqX;XgX1XQ a h x.r.f.C.Z.T.r.r.N.C.V.a.V.t.0 & < * 3 3 r # $ $ 1 , 4 3 1 * 1 1 % 1 1 4 6 4 & & a =.#XyXyXtXwXwX",
";X=XrXrXtXrXrXwXrXsXeX&XoX! f t J.S.C.V.a.C.C.S.B.p.C.a.p.n.0 a d a s + o O 0 O + # 1 < * < s % a < < 2 6 4 1 r y =.@XyXyXrXrXwX",
";XeXrXyXtXtXwXpXwXrXqXeX2X! d M A.a.Z.C.C.p.C.C.a.p.a.B.B.m.9 a < @ 0 c.k.j.h.k.g.M # < 2 2 < % a < < 3 2 2 1 a g =.&XyXyXrX;XwX",
"qXeXeXeXyXrXrXrXwXrXtX$X@X~ y e T.B.G.A.A.A.I.N.a.V.u.a.C.n.9 a 9 w w r.D.S.S.I.Y.M + d 2 2 % r r a d 2 3 2 < r d =.3XeXyXeX;XeX",
"rXeXyXyXyX;XrXrXiXiXuXgX1Xc r m N.S.0.q w q q n 0.B.i.a.B.n.w # B H.t.N.a.y.a.Z.L.m + < 2 3 1 & a a < < 2 2 < a y *.3XeXeXeX-X;X",
"yXiXeXeX;X;XrXrXfXrX-X6X4.h O m f.S.9.  . . . . e.p.a.u.B.n.w @ D U.D.a.i.i.G.I.J.N o $ f < < < < a & 1 3 3 % a i *.3XeXyXeXqXeX",
"rXrXeXeX-X;X*XrXqXgX.X%.%.k.v.t.B.B.T.w.j.k.j.w.f.C.i.y.C.t.0 9 A P.C.a.V.Z.9.Z J w + # 3 - f 2 1 & < 1 4 & < d i *.@XeXeXyX;XeX",
"rX;X;X;X;XeXeXeXyX-X .b e H.P.B.d.u.C.S.F.S.C.a.a.y.y.a.V.t.w o S P.S.Z.D.Y.N @ # < 1 2 4 2 < & 1 & * 1 1 < f j i 4.6XeXyXrXrXrX",
";X;X*XeX;XeXeXyX;X&X4.r w J.F.d.d.i.B.B.a.a.u.i.y.y.i.u.a.N.w.w.r.I.I.0.S J M r l 2 2 2 3 3 1 & & & 4 1 * 1 2 - u  .&XrXrXrXrXrX",
";X;XrXyXrXyXrXrX:XOX` g w b.K.I.A.G.G.C.s.u.u.a.V.u.i.u.i.a.C.S.D.A.L.Z o @ # < * , < 2 2 2 , 1 & 1 3 , 1 3 d ^ / 2.*XeXtXrXrXrX",
"=X=XrXrXiXrXyX;X>X7X1.g r w n = q n 8.V.a.i.C.B.a.u.i.i.i.a.a.V.t.Z N q + 1 - 3 3 1 < a 3 3 2 1 f < d < f 2 ! 3.oX&X:XeXuXtXrXrX",
"rXwXtXtXyXrX;X;X;X;X1.p u .       . S B.a.u.p.a.a.i.i.i.s.a.s.D.j.O o + 1 d 2 2 f < < & < < 2 d d k z k y i ~ <X6X5X;X:XrXtXrXrX",
"rXwXtXrXrXrX;X;X;X:X$XXX2.~ X t g.h.m.S.a.p.a.C.C.a.V.V.Z.C.p.D.M.O O r * , l 2 d f a s a a d 2 z *.4.:.i z ~ @X-XeXrX;XrXwX*XrX",
"rXrXrXrXrX-X;X;XpXqXeXeX@X=.- K PXU.U.I.F.D.D.F.F.P.P.D.S.Z.a.C.w.0 9 + r < d d f l l d a d x z ~ +X6X<X~ W / $X#XrX;XwXtXrX;X;X",
"rXwXrXrXeXrXwXwXrXtXrXyX-XXX4.%.c.J F >.>.,.,.>.>.>.>.,.,.e.s.C.A.j.l.G # l - l ^ ;.3.$.u y ' XX+X&X@X@XOX.X$X-XyXtXrX*XrXrXyX-X",
"rXrXrXrXrXrXrXrXrXrXrXqX;X-X-X<X%.h r h g g h g h g h @ 9 N G.a.Z.D.U.D 9 b v ! | 3X3X2./ / 2.$X-X;X-XeX*X;X-XeXrXrXqXeXrXrXrXeX",
"rXrXrXrXrXrXrXrXrXrXrXrXyXrXrX;XOX+X+X3X2X+XOXOXOXOX+X) # B P.Z.C.G.I.,.@ c 5.5.$XeXeX#X$X$X$X;XrXrXrXrXrXrXrXrXrXrXrXrXrXrXrXrX",
"rXqXrXrXrXrXqXrXrXrXrXrXrXrXrX=X;X;XtXyXeX&X&X7X:X>X3X] - G L.I.F.Y.PXJ r ! 7X6XqXaXeXeX=X;XrXuXrXrXrXrXrXrXrXiXrXrXrXrXrXrXrXrX",
"rXrXrXrXrXrXrXrXrXrXrXrXrXrXwXrXwXrXdXdXyXuX>X>X:X;X@X/ < t F D A F J t g / @XrXtXtX9X*XeX;X=X=XrXrXrXrXrXrXrXrXrXrXrXrXrXrXrXrX",
"rXrXrXrXrXrXrXiXrXrXrXrXrXrXrXrX=XwXrXyX8XyXrX:X:XgX2X) d 1 # @ = = 7 = - [ &XuXtXfXrXeX-X,XpXsXrXrXrXrXrXrXrXrXqXrXrXrXrXrXrXrX",
"rXrXrXrXrXrXrXrXrXrXrXrXrXrXrXrXaXpXeXeX8XyXrXpX#X(.(.) ; > 6 5 #.nX&.o.d ~ (.%X,XgX;X&X-X;XaXwXrXrXrXrXrXrXrXrXrXrXwXrXrXrXrXrX",
"rXqXrXrXrXrXrXrXrXrXrXrXrXrXrXrXiXyX8X#XgX8X:X&X| T U o.U U Y P ^.SXDX+.l d _ T { 4XgX6X-X#XeX#XeXrXrXrXrXrXrXrXrXrXrXrXiXrXrXrX",
"rXwXrXrXrXrXrXrXrXrXrXrXrXrXrXrXwXeX8X8XeXoX1...].].'.nXnXnXnXmXBXJXZX@.4 6 _.].].(.| XXeXeXeXyXrXrXrXrXrXrXrXrXrXrXrXrXrXrXrXrX",
"rXrXrXrXrXrXrXrXrXrXrXrXrXrXeXrX=XrXrXrXeXoXi 6 ].IXIXIXGXLXVXCXJXAXCX@.7 6 ].GXUX{ I ;.eXtXtXtXrXrXrXrXrXiXrXrXrXrXqXrXrXrXrXrX",
"rXrXrXrXrXiXrXrXrXrXrXrXrXrXrXqX=X;X=X,X;XXX2 I [.lX}.|.|. XW.@.~.AXZX@.7 Y `.{.]._ L XXeXsXaXaXwXrXqXrXrXrXrXrXrXrXwXrXrXrXrXrX",
"rXrXrXrXrXrXrXrXrXrXrXrXrXrXrXeXeX-X;X>X#XXXY Y [. XlXlX}.E.L Y Q.JXCX@.: I [.jX0X_ E ;.#XyXsXwXrXrXwXrXrXrXrXrXrXrXrXrXrXrXrXrX",
"rXrXrXrXrXrXwXrXrXrXrXrXrXrXrXrXeX-X:X2.-.(.)._.|.vXlXvXvXjXE ; @.SXZXO.7 Q 0XvXkXX.E ;.3XeXeXrXrXrXrXrXrXrXrXrXrXrXrXrXrXrXrXrX",
"rXrXrXrXrXqXrXrXrXrXrXrXrXrXrXyX9XgX%XW L _.IXIXzXxXzXIXzX{.E 6 @.MXMX@.7 6 kXvXkX{ E 2.3XeX-X-XrXrXrXrXrXrXrXrXrXrXrXrXrXrXiXrX",
"rXrXrXrXrXrXrXrXrXrXrXqXrXrXrXrXyXeXoXW L [.}.}.}.}.}.|.}.`.Q d f o.o.7 > Q `.}. X{ 6 4.&XeXrX=XrXrXrXrXrXrXrXrXrXrXrXrXrXrXrXrX",
"rXrXqXrXrXrXrXrXrXrXrXrXrXrXrXrXeX&XXXQ E | jXlXlXlXhXhX0X2.h @ q o = = $ Q E.jX0X( Q ;.-XsXsXwXrXrXrXrXrXrXrXrXrXrXrXrXrXrXrXrX",
"rXrXwXrXrXrXrXrXrXrXrXrXrXrXrXrX*X6X+XE L [.cXcXxXvXhXR.X.1.z.v.v.v.x.B $ I kXkXkXT 6 2.-XwXwXwXrXwXrXrXrXqXwXrXrXrXqXrXrXwXrXrX",
"rXrXrXrXrXrXqXrXrXrXrXrXrXiXrX*X;X&XoXE I ).LXFXFXFXVXY 2 G PXP.D.I.U.S @ Y VXLXVX+.I 2.:XrXeXyXrXrXrXrXrXrXrXrXrXrXrXwXrXrXrXqX",
"rXrXrXrXrXrXrXrXrXrXrXrXrXrXrXrX;X5XOXW I ).FXHXKXKXmXR : G U.Z.B.F.U.F @ Y bXHXCX+.L 2.*XrX;X8XqXrXrXrXrXrXrXrXrXrXrXrXrXrXrXrX",
"rXrXiXrXrXrXrXrXrXrXrXwXrXrXrXrXyX;X%X/ _ ).VXZXHXHXbXO.: H K.F.F.Y.PXH : R bXHXCX#.L .XwXpXeXeXqXrXrXrXrXrXrXqXrXrXrXrXrXrXrXrX",
"rXrXrXrXrXrXrXrXrXrXrXrXrXrXrXrXeXyXgX$X4X:.@.W.bXHXHXbXmX7.C V V C H H nXBXJXAXCX+.E 2.pXwX*X-XeXrXrXrXrXrXrXwXrXiXrXrXrXrXrXrX",
"wXrXrXrXrXrXrXrXrXrXrXrXrXrXrXeXeX-XeX-X#X ._ T '.CXAXKXJXmX: 8 7 : P mXJXKXHXBXMX&.Q 2.tXuXyXeXeXrXrXrXrXrXrXrXrXrXrXrXrXrXrXwX",
"rXrXrXrXrXrXrXrXrXrXrXrXrXrXrXeX-X&XeX5X6X@X4X(.&.W.^.AXKXJXmX'.).nXmXBXHXJX~.W./._.XX5XyXuXeX;XrXrXrXrXrXrXrXrXrXqXrXrXrXrXrXqX",
"rXrXrXrXrXwXqXrXrXrXrXrXrXrXrXeX5X-XeX:X&X*X&X5X| Y U MXSXJXZXSXSXSXZXZXAXCX+.; ) <X6XgXrXiX;XwXrXrXrXrXrXrXrXrXrXrXrXrXrXrXrXrX",
"rXrXqXrXrXrXrXrXrXrXrXrXrXrXrXqXeXeXeX-X;XrX;X$X} u Y &.@.).Q.^.W.!.Q.Q.Q.@.Y z [ 7X:X:XwXsXrXrXrXrXrXrXrXrXrXrXrXrXrXrXrXrXrXrX",
"rXrXrXrXqXrXrXrXrXrXrXrXrXrXrXwXtXtXwX=X>X=XyX8X} ; j , 6 5 5 U 5 5 5 5 : 7 x p [ OX;X*XrXrXrX;XrXrXrXqXrXrXrXrXrXrXrXrXrXrXrXrX",
"rXrXrXrXrXrXrXrXrXrXrXrXiXrXrXwXaXaXaX>XwXqXyX8X2.=.%.a - 2 - d 1 * g y , l '  .2.5XeXqXpX=XeXeXrXrXrXrXrXrXrXrXrXrXrXrXrXiXrXrX",
"rXrXrXrXrXrXrXrXrXrXrXrXrXrXrXwXaXaXrXeX;XeXeX8X;X5X3.v u d 2 < * & g y 6 ) 2XgX*XuXtXtXpX=XrXeXqXrXrXrXrXrXrXrXrXrXrXrXrXrXrXrX",
"rXwXrXrXrXrXrXrXrXrXrXrXrXrXrXrXtXtXrX-X-XeXeXeX.X .' k d d < < < r j y j / #XeXrXuXiXyXwX:XtXyXyXrXrXrXrXrXqXwXrXrXwXrXrXrXqXwX",
"rXrXrXrXwXqXrXrXrXrXrXrXrXrXrXrXrXrXrXeXeX;X;X:X..W z j l l l k k k k i Q } #X9XrXrXyXyXeXeXyXiXrXrXrXrXrXrXrXrXrXrXrXrXrXrXrXrX",
"rXrXrXiXrXrXrXrXrXrXqXrXrXwXrXrXrXrXeX-X-XeX;X;X&X.XXXXX4.3.1X3.oX+X3.3.3.oXgXeXrXrX8X8X9XyXuXrXrXrXrXrXrXrXrXrXrXrXrXrXrXrXrXrX",
"rXrXrXrXrXrXrXrXrXrXrXwXrXrXrXrXrXrX;X-X;XeXwXiXtXtX8X5X&X&X5XgX-XeX5X;X>X=X-X-XwXrXeXeXrXwX>X=XrXrXrXrXrXiXrXrXrXrXrXrXqXrXrXrX",
"wXrXrXrXrXrXrXrXrXrXrXrXrXrXiXrXrXeXeX-XeXeXiXaXdXfXtXrXpX=XrXyXdXdX;X:X>X>X*X-XwXqX-XqXsXaX=X:X=XrXrXrXrXrXrXrXrXwXrXrXrXrXrXrX"
};
