/* XPM */
static char *frisk_back_64_floor_11757298752[] = {
/* columns rows colors chars-per-pixel */
"64 64 141 2 ",
"   c #391F1E",
".  c #3C231E",
"X  c #37241E",
"o  c #3C2724",
"O  c #3C2825",
"+  c #3D2B2A",
"@  c #3B2F31",
"#  c #3B3134",
"$  c #3C373E",
"%  c #442726",
"&  c #402926",
"*  c #42292A",
"=  c #482B2F",
"-  c #473125",
";  c #4A3726",
":  c #503C24",
">  c #472C30",
",  c #4D2E36",
"<  c #4F3038",
"1  c #53313D",
"2  c #5A4726",
"3  c #5B4827",
"4  c #554126",
"5  c #614F27",
"6  c #685B27",
"7  c #7D7429",
"8  c #3C3B43",
"9  c #3C3E4B",
"0  c #563444",
"q  c #593344",
"w  c #5D364B",
"e  c #4F3658",
"r  c #61364C",
"t  c #622256",
"y  c #643750",
"u  c #643851",
"i  c #693C56",
"p  c #6B3D5B",
"a  c #703F5F",
"s  c #731F6D",
"d  c #573C6F",
"f  c #6F3D60",
"g  c #723F62",
"h  c #3C4759",
"j  c #3C4959",
"k  c #3C4451",
"l  c #3C5166",
"z  c #3C546C",
"x  c #3A5672",
"c  c #3B5A74",
"v  c #3C5F7C",
"b  c #3C617E",
"n  c #505678",
"m  c #6F4569",
"M  c #6C486E",
"N  c #734166",
"B  c #764269",
"V  c #7B436C",
"C  c #694D74",
"Z  c #7F4572",
"A  c #605075",
"S  c #85792B",
"D  c #821C7F",
"F  c #8D7340",
"G  c #814676",
"H  c #814875",
"J  c #85497A",
"K  c #894B7E",
"L  c #83477A",
"P  c #7D864F",
"I  c #738054",
"U  c #8E832B",
"Y  c #91862A",
"T  c #948A2B",
"R  c #988B2B",
"E  c #9F972C",
"W  c #A2972D",
"Q  c #A39B2D",
"!  c #A59D30",
"~  c #B7B32E",
"^  c #BCB72E",
"/  c #D4D22F",
"(  c #CFD130",
")  c #D4D230",
"_  c #EEF033",
"`  c #FDFF34",
"'  c #F7FB34",
"]  c #3B6383",
"[  c #3B6688",
"{  c #3B6A8C",
"}  c #3B6D92",
"|  c #3A739B",
" . c #3877A0",
".. c #5E4181",
"X. c #4C5E82",
"o. c #57518F",
"O. c #644D9F",
"+. c #466285",
"@. c #416589",
"#. c #5D69BF",
"$. c #6964CA",
"%. c #7F67F1",
"&. c #861F8C",
"*. c #961B9A",
"=. c #87208B",
"-. c #8D4C83",
";. c #914D86",
":. c #934F8A",
">. c #96508E",
",. c #975190",
"<. c #9B5393",
"1. c #9E5499",
"2. c #A1559A",
"3. c #A757A0",
"4. c #A857A3",
"5. c #A759A3",
"6. c #A958A4",
"7. c #D316EE",
"8. c #D915F5",
"9. c #DB15F9",
"0. c #8548CA",
"q. c #865FF0",
"w. c #8666F7",
"e. c #8860F7",
"r. c #8666F8",
"t. c #8961F8",
"y. c #8269F9",
"u. c #3B82B3",
"i. c #3A86B8",
"p. c #3A91CD",
"a. c #3B96D3",
"s. c #3A9DDD",
"d. c #389FE2",
"f. c #3AA6EC",
"g. c #3AAAF3",
"h. c #37AFFC",
"j. c #3AAFFC",
"k. c #37ADF3",
"l. c #36B3FD",
"z. c #39B1FE",
"x. c #39B8FF",
/* pixels */
"6.6.6.6.6.6.6.6.4.4.6.6.6.6.5.6.4.4.4.6.6.6.6.6.6.6.6.6.6.6.6.6.6.6.6.6.6.6.6.6.4.3.6.6.6.6.6.6.6.6.6.6.6.6.6.6.6.6.6.6.6.6.6.6.",
"6.6.6.6.6.6.6.6.6.6.6.6.6.6.6.6.4.4.5.:.:.:.-.;.;.;.;.;.;.;.;.;.;.;.;.;.;.;.;.;.;.;.;.<.6.6.6.6.4.6.6.6.6.6.6.5.6.6.6.6.6.6.6.6.",
"6.6.6.6.6.6.6.6.6.6.6.6.6.6.6.6.4.4.:.> O * O * * * * * * * * + * O * * + * * * & * * a 6.6.6.6.6.6.6.6.6.6.5.6.6.6.6.6.6.6.6.6.",
"6.6.6.6.6.6.6.6.6.6.5.6.6.6.6.5.>.:.g + o o o o o o o o o o o o o o o o o o o o o o o r -.;.1.6.6.6.6.6.6.6.6.6.6.6.6.6.6.6.6.6.",
"6.6.6.6.6.6.6.6.6.6.6.6.6.6.4.2.0 O O O o o O o o o o o o o o O o o o o o o o o o o o O * & J 4.6.6.6.6.6.6.6.6.6.6.6.6.6.6.6.6.",
"6.6.6.6.6.6.6.6.6.6.6.6.6.,.;.J > O o o o o o o o o o o o o o o o o o o o o o o o o o o + . N ;.;.3.6.5.6.6.6.5.6.6.6.6.6.6.6.6.",
"6.6.6.6.6.6.6.6.6.6.4.4.4.u + & O O X o O O o o o o o o o o o o + o o o o o o o o o o o o o + & = <.5.5.6.6.6.6.6.6.6.6.6.6.5.6.",
"6.6.6.6.6.6.6.6.6.5.<.-.-.0 o o o o + o O o o O o o o o o o o O o o o o o o o o O o o o O O o o * Z -.>.6.6.6.6.6.6.6.6.6.6.6.6.",
"6.6.6.6.6.6.5.6.6.6.V % & o o o o o o o o o o o O O o o o o o o o o o o o o o o o o o + o + o o o + % q 4.6.6.6.6.5.4.6.6.6.6.6.",
"6.6.6.6.6.6.6.2.-.-.i o o o o o o O o O o o o o O O o o o o o o o o o o o o o o o o o o o o o o o o o , J -.>.6.6.6.4.4.6.4.6.6.",
"6.6.6.6.6.6.6.;.* + o + + o o o o o O o O o o o o o o o o o o o o o o o o o o o o o o o o o o o o o o + % o i 6.6.6.6.4.6.6.6.6.",
"6.6.6.6.6.4.5.-.* o . O o o o % o o o o o o o O o o o o o o O o o o o o o o o o o o o o o o o o o o o o o o i 6.6.6.6.6.6.6.6.6.",
"5.6.6.6.6.6.6.;.* o o o o o o o o O o o o O o o O o o o o O o o o o o o o o o o o o o o o o o o o o o o o o i 6.6.6.6.4.6.6.6.6.",
"6.6.6.6.6.6.6.;.+ o o o o o o o o o o o o o o o o o o O o o o o o + o o o o o o o o o o o o o o o o o o o o w K -.1.6.6.6.6.5.6.",
"6.6.6.6.4.6.4.;.& o o o + o o o o o o o o o o O o O o o o o o o o o o o o o o o o o o o o o o o + o o o o o + o o Z 6.6.6.6.6.6.",
"6.6.6.6.3.-.J N & o o o o o o o O o o o O o o o o o o o O o o o o o o o o o o o o o o o + o o o o o o o o o o o o L 6.6.6.6.6.6.",
"6.6.6.6.2.< o + o o o o o o o o o + o o o o o o o o O o o o o O o o O o O o o o O o o o o o o o o o o o o o o o o H 6.6.6.5.6.6.",
"6.6.6.6.2.< o O o o o o o o o o o o o o o o o o o o o o O o o o o o o o o o o O o o o o o o o + o o o o o o o o o H 6.6.6.6.6.6.",
"6.6.6.6.1., o o o o o o o o o o o o o o o o + o O o o o o o o o O o o o o o o o o o o o o o o o o o o o o o o o o L 6.6.6.6.6.6.",
"6.6.6.6.2., o o o o o o o o o o o o o o o o o o o o o O o o O o o o o O o o o o o o o o o o o o o o o o o o o o o p L J 2.6.6.6.",
"6.6.6.6.2., O O o o o o o o o + o o o o o o o o O o o o o o o o o O o o O o o o O o o o o o o o o o o o O o o o o & + * ,.6.6.6.",
"6.6.6.6.<., o o o o o o o o o o o o o o o o o o o o o o o o O o o o o o O O o O o o o O o O o O o o o o o o o O . O O * ,.6.6.6.",
"6.6.6.6.2., o o o o o o o o o o o o o o + o o o o o o o o o o o o o o O O O o o o O o o o o o o O o o o o o o o O o o * >.6.6.6.",
"6.6.6.2.2., o O o o o o o o o o o o o o o o o o o O o o o O O o O o o o O O O o o o o o o o o o o o o O o O o o o o o = >.6.4.6.",
"6.6.6.6.<.< O O o o o o o o o o o o O o o o o O o o o O o O o o o o o o o o o o o o o o o o o o o o o o o o o o o o o = >.6.6.6.",
"6.6.6.6.2., O o o o o O o o o o o o o o O o o o o o o o o o o o o o o o O o o o o o o o o + o o o o o o o o o o o o o * >.6.6.5.",
"6.6.6.6.2., o O O O o o o o o o o o o o o o O o o o o o o o o o o o o O O o O o o o o o o o o o o o o o o o o o o o O * ,.6.6.6.",
"6.6.6.6.2., O . O O . o o o o o o o o + o o o o o o O o O o o o O o o o o o o o o o o o o o o o o o o o o o o + o O o * :.6.6.6.",
"6.6.6.6.2.< O + o o o o o O o o o o o o O o o o o O o o o o o O o o O o o o O o o o + o o o o o o o o o o o o o o o o = ,.6.6.6.",
"6.6.6.6.2., O . O o o O o o o o o o o o o o o O O O o O o O o o o o o o o o o o o o o o o o o o o o o o o o o o o o o * ,.6.6.6.",
"6.6.6.6.2., O O o o o O o o o o o o o o o o o o O O O o o o O o o O o o o o o o o o o o o o o o o o o o o o o o o o o * :.6.6.6.",
"6.6.6.4.2.N p r o o 1 i p , o o o o o o o O o o O O o o o o o o o o o O o o o O o o o o o o o o o o o = i i q o + q p g 2.6.3.6.",
"4.6.6.6.6.6.6.:.o + p 6.4.y o o o o o o o o o % o o o o o o o o o X o o o o o o + o o o o o + o o o o 0 5.5.Z + o H 6.6.6.6.6.6.",
"4.6.6.6.6.6.6.<.a p -.6.5.r o * i p p f p p p a f p i = o : S Y U U U 2 o + u p p p p p p p p p p p p B 3.6.-.p p ;.6.6.6.6.6.6.",
"4.6.6.6.4.6.6.6.4.4.6.6.5.w o > ,.6.6.6.6.6.6.6.5.5.2.< o 6 ' ` ' ` ` 7 o = <.4.4.4.6.6.6.6.6.6.6.6.6.6.6.6.6.6.6.6.6.6.6.6.6.4.",
"6.6.6.6.6.6.6.6.6.4.6.6.5.H p g 2.6.6.6.6.:.g B g V g = o : W Q ! ! Q 5 o * a B L 4.6.6.6.6.6.6.6.6.6.6.6.6.6.6.6.6.6.6.3.6.6.6.",
"6.6.6.6.6.6.6.6.6.6.6.6.5.6.5.5.6.4.6.5.4.V o & o o . o . o . o . .   o . o . . 1 5.6.6.6.6.6.6.6.6.6.6.6.6.6.6.6.6.6.6.6.6.6.6.",
"6.4.6.6.6.6.6.6.6.6.6.6.6.6.6.4.Z B B B B r o o l { [ ] [ @.[ [ [ [ [ [ [ [ [ [ X.B B B B B B B V 2.6.6.6.6.6.6.6.6.6.6.6.6.6.6.",
"6.6.6.6.6.6.6.6.6.6.6.6.6.6.6.2., o o o o . o & u.l.h.j.z.z.z.z.j.j.z.z.z.z.z.z.p.* o o O & X . % <.4.4.6.6.6.6.6.6.6.6.6.6.6.6.",
"6.6.6.6.6.6.6.6.6.6.6.6.5.-.g m X.{ x o o k [ { a.z.j.j.j.j.z.z.j.j.j.j.j.j.h.h.d.} { j o o l { @.M N H 3.6.6.6.6.5.6.6.6.6.6.6.",
"6.6.6.6.6.6.6.6.6.6.6.4.4.y % @ s.l.p.* . ] x.l.l.l.l.l.l.l.l.l.z.z.z.l.l.l.l.l.l.l.l. .X o u.x.g.8 . 1 2.6.6.5.6.6.6.6.6.6.6.6.",
"6.6.6.6.6.6.6.6.6.6.;.g g X.{ } } } c + o ..r.r.t.r.r.r.r.r.r.r.r.r.r.r.w.r.r.r.r.r.r.0.&.=.o.{ } { { +.B N -.6.6.6.6.6.6.6.6.6.",
"6.6.6.6.6.6.6.6.6.6.g o + i.l.f.8 . & . X &.9.8.8.8.8.7.8.8.8.8.8.8.8.8.8.8.8.8.8.8.9.9.9.9.s . @ s.x.a.@ O i 6.6.6.6.6.6.6.6.6.",
"6.4.6.6.6.6.6.4.6.6.Z o o z } ] # o $ [ { #.r.w.r.r.w.w.r.r.r.r.r.r.r.r.w.w.w.w.r.r.w.r.w.w.d X + v } c O O i 4.6.6.6.6.6.6.6.6.",
"6.6.6.6.6.6.6.6.6.6.Z o o o   o o . j j.l.l.l.l.l.l.l.l.l.l.l.l.l.l.l.l.l.l.l.l.l.l.l.l.x.l.z . o . . o o o i 4.6.6.5.6.6.6.6.6.",
"6.6.6.6.6.6.6.6.6.6.V o o 7 W R ; X e q.e.e.t.w.e.t.w.t.e.t.t.t.t.t.t.t.e.w.t.t.t.t.t.$.{ { P W W E W S & o p 4.6.6.6.6.6.6.6.6.",
"6.6.6.6.6.6.6.6.6.6.g > o ^ ` _ 3 X t 7.8.8.8.8.8.8.8.8.8.8.7.8.8.8.8.8.7.8.8.8.8.8.9.*.. . ^ ` ' ` ` ) - o p 6.6.6.6.6.6.6.6.6.",
"6.6.6.6.4.6.6.6.6.4.,.g g S R U ; . e %.y.y.y.y.y.y.y.y.y.y.y.y.y.y.y.y.y.y.y.y.y.y.y.O.o O ~ ` ` ` ` ) * o i 6.6.6.6.6.6.6.6.6.",
"6.4.6.6.6.6.6.6.6.6.6.6.6.w o o o . j k.l.l.z.z.l.z.l.l.l.z.z.l.z.z.l.l.z.z.l.z.l.z.z. .. . ~ ` ` ` ` ) - o i 6.6.6.6.6.6.6.6.6.",
"6.6.6.6.6.6.6.6.6.6.6.6.6.K g a = & j f.z.z.j.j.z.j.j.j.j.j.j.j.z.j.z.j.z.j.z.h.j.j.z.a.| } I U Y Y T 7 * o i 6.6.6.6.6.6.6.6.6.",
"6.6.6.6.6.6.4.6.6.6.6.6.6.6.6.2., . j g.z.j.j.j.j.j.j.j.h.z.h.h.z.z.z.z.j.z.z.z.z.z.h.z.l.l.x   o o o o * O p 4.6.6.6.6.6.6.6.6.",
"6.6.6.6.6.6.6.6.4.6.6.6.6.6.6.2., & j g.z.j.j.j.j.j.j.j.z.s.[ ] ] b ] a.z.f.} b ] ] ] u.z.z.n . O f V V g V ;.6.6.6.6.6.6.6.6.6.",
"6.6.6.6.6.6.6.6.6.6.6.6.6.6.6.2., . j g.z.z.j.z.j.j.z.z.z.p.o o . o . u.z.f.8 . . . . v z.h.n . > >.6.6.6.6.6.4.6.6.6.6.6.6.6.6.",
"6.6.6.6.6.6.6.6.6.6.6.5.6.6.6.4.J V M b b u.z.z.z.k.f.} b z o % q V V n ] c @ % + o . 9 b ] n V Z 1.6.6.6.4.6.6.6.6.6.6.6.6.6.6.",
"6.6.6.6.6.6.6.6.6.6.6.6.6.6.6.6.4.4.;.% . b l.z.z.z.f.8 . . & & p 6.6.u . o & o o o O & X . G 6.6.6.5.6.4.5.4.4.6.6.6.6.6.6.6.6.",
"6.6.6.6.6.6.6.6.6.6.6.6.6.6.5.6.4.4.1.H V A b b v v c # o o o o p 6.6.u . o o o o o o o o % J 6.6.6.5.6.4.4.6.4.6.6.6.6.6.6.6.6.",
"6.6.6.6.6.6.6.6.6.6.6.6.6.6.6.6.6.6.6.4.6.V . . . . . o O O O O p 6.6.u O o O o o o + o + o H 4.6.4.6.6.6.6.6.6.6.6.6.6.6.6.6.6.",
"6.6.6.6.6.6.6.6.6.6.6.6.6.6.6.6.6.4.6.6.6.V O O o o o o o , V Z :.6.6.u O O o o o o o q V V <.6.6.6.6.6.6.6.6.6.6.6.6.6.6.6.6.6.",
"6.6.6.6.6.6.6.6.6.6.6.6.6.6.6.6.6.6.6.6.6.V . O o o o o o 1 6.6.4.6.6.u o o o o o o o p 6.4.6.6.6.6.6.6.6.6.6.6.6.6.6.6.6.6.6.6.",
"6.6.6.6.6.4.6.6.6.6.6.6.6.6.6.6.6.6.6.6.6.,.H Z G G G G H K 6.6.4.4.6.u o o o & , V Z >.6.6.6.6.6.6.6.6.6.6.6.6.6.6.6.6.6.6.6.6.",
"6.6.6.6.6.6.6.6.6.6.6.6.6.6.6.6.6.6.6.6.6.4.6.6.4.4.4.6.6.6.4.6.6.6.6.y o o o o 0 3.5.6.4.4.4.4.6.6.6.6.6.6.6.6.6.6.6.6.6.6.6.6.",
"6.6.6.6.6.6.6.6.6.6.6.6.6.6.6.6.6.6.6.6.6.6.4.6.4.4.6.6.6.6.6.6.6.6.6.;.H H G L -.6.6.5.6.6.4.6.6.6.6.6.6.6.4.6.6.6.6.6.6.6.6.6.",
"6.6.6.6.6.6.4.6.6.6.6.6.6.6.6.6.6.6.6.6.6.6.4.4.6.6.6.6.6.6.4.6.6.6.6.6.6.6.6.6.6.6.6.6.6.6.6.6.6.6.6.6.6.6.6.6.6.6.6.6.6.6.6.6.",
"6.6.6.4.6.6.6.6.6.6.6.6.6.6.6.6.6.6.6.4.6.6.6.6.6.6.6.6.6.6.4.6.6.6.6.6.6.6.5.6.6.6.6.6.4.6.6.6.6.6.6.6.6.6.6.6.6.6.6.6.6.6.6.6."
};
