/* XPM */
static char *frisk_walking_right_64_floor_21757298844[] = {
/* columns rows colors chars-per-pixel */
"64 64 253 2 ",
"   c #0C0700",
".  c #1B0700",
"X  c #351D05",
"o  c #2B1B10",
"O  c #3B2B00",
"+  c #3C290B",
"@  c #382505",
"#  c #3B3300",
"$  c #3A2414",
"%  c #3C2A15",
"&  c #35241C",
"*  c #3B251D",
"=  c #3B291E",
"-  c #342919",
";  c #2F2B0D",
":  c #3C1D28",
">  c #3C1C39",
",  c #1A3034",
"<  c #2A292A",
"1  c #3C2624",
"2  c #3B2923",
"3  c #3C252A",
"4  c #342A2A",
"5  c #3D292A",
"6  c #352625",
"7  c #292935",
"8  c #392635",
"9  c #253238",
"0  c #31312E",
"q  c #422D02",
"w  c #422C0B",
"e  c #452509",
"r  c #483705",
"t  c #41241C",
"y  c #432A1D",
"u  c #422914",
"i  c #493510",
"p  c #421D2C",
"a  c #461C27",
"s  c #441D33",
"d  c #491B37",
"f  c #551F3F",
"g  c #432425",
"h  c #412A24",
"j  c #42242C",
"k  c #422B2B",
"l  c #4A2629",
"z  c #442332",
"x  c #4A2435",
"c  c #4C223A",
"v  c #482836",
"b  c #552A3B",
"n  c #4D3535",
"m  c #552C2F",
"M  c #324621",
"N  c #5C5606",
"B  c #554519",
"V  c #5A5412",
"C  c #4E4506",
"Z  c #655614",
"A  c #696305",
"S  c #726805",
"D  c #776A1B",
"F  c #706E11",
"G  c #59592C",
"H  c #7C6A38",
"J  c #746C29",
"K  c #6E5E3A",
"L  c #18384F",
"P  c #372947",
"I  c #283347",
"U  c #353A49",
"Y  c #313155",
"T  c #393667",
"R  c #471B45",
"E  c #501D4D",
"W  c #542545",
"Q  c #522942",
"!  c #5A2C4D",
"~  c #592646",
"^  c #593447",
"/  c #512C51",
"(  c #61344C",
")  c #642B59",
"_  c #693959",
"`  c #67304F",
"'  c #582771",
"]  c #6D3662",
"[  c #753B66",
"{  c #6C2F7A",
"}  c #2F4651",
"|  c #1D4A70",
" . c #304D72",
".. c #6E4559",
"X. c #4B4F73",
"o. c #684667",
"O. c #75436A",
"+. c #764767",
"@. c #7B4977",
"#. c #795374",
"$. c #4C6E77",
"%. c #575768",
"&. c #85791A",
"*. c #86792B",
"=. c #887836",
"-. c #8E734C",
";. c #844978",
":. c #8B5579",
">. c #925A7C",
",. c #814E6D",
"<. c #A86A6F",
"1. c #7C8439",
"2. c #62817C",
"3. c #948C1C",
"4. c #9FA31C",
"5. c #A6A617",
"6. c #B0B015",
"7. c #9A9539",
"8. c #92892C",
"9. c #A49C28",
"0. c #A29837",
"q. c #B2AD32",
"w. c #A29916",
"e. c #C2B939",
"r. c #C1BB2F",
"t. c #D0CE2F",
"y. c #FAFF2D",
"u. c #F5FF2F",
"i. c #E7E938",
"p. c #F5FC34",
"a. c #FBFF35",
"s. c #FBFE3C",
"d. c #F7FB3B",
"f. c #9A8B45",
"g. c #AA984A",
"h. c #B8AF4D",
"j. c #C5BC51",
"k. c #CABC63",
"l. c #D9D649",
"z. c #D5CF4F",
"x. c #E7E947",
"c. c #F5FB44",
"v. c #FBFD44",
"b. c #F5F54C",
"n. c #F6FD4B",
"m. c #FCFD4B",
"M. c #F8F649",
"N. c #FBFC53",
"B. c #F5F45C",
"V. c #FBFD5B",
"C. c #F4F855",
"Z. c #EDF054",
"A. c #D7D568",
"S. c #E9D775",
"D. c #EEE968",
"F. c #FCFC63",
"G. c #F6F566",
"H. c #EFED6F",
"J. c #EAD754",
"K. c #682B84",
"L. c #7B3CB6",
"P. c #533889",
"I. c #385B82",
"U. c #28658B",
"Y. c #1F5885",
"T. c #50508A",
"R. c #694F84",
"E. c #506C90",
"W. c #7C4FB3",
"Q. c #5277AA",
"!. c #7B60A7",
"~. c #717ACE",
"^. c #4C7CC6",
"/. c #8F32A0",
"(. c #8C4A84",
"). c #8D5482",
"_. c #8A5A85",
"`. c #99558B",
"'. c #965C8A",
"]. c #9A5B8D",
"[. c #965986",
"{. c #9B5594",
"}. c #955C94",
"|. c #9D5C93",
" X c #9E5C9B",
".X c #9D569B",
"XX c #964E8A",
"oX c #A25C95",
"OX c #A4559C",
"+X c #AA569D",
"@X c #A45B9C",
"#X c #AA5A9D",
"$X c #A55A94",
"%X c #B1579D",
"&X c #98628B",
"*X c #9D6192",
"=X c #9B629A",
"-X c #81689F",
";X c #A4629C",
":X c #A46498",
">X c #A16386",
",X c #9C5AA3",
"<X c #874EB5",
"1X c #A655A3",
"2X c #AA56A4",
"3X c #A65AA3",
"4X c #A958A4",
"5X c #AB56AA",
"6X c #A55AAA",
"7X c #AC5AAA",
"8X c #A756AB",
"9X c #B057A8",
"0X c #AB57B0",
"qX c #866BB2",
"wX c #A662A4",
"eX c #A731CD",
"rX c #9C3AE3",
"tX c #A73AE3",
"yX c #A737F2",
"uX c #8E3BD1",
"iX c #9849DC",
"pX c #9449C9",
"aX c #994CEC",
"sX c #847DE7",
"dX c #3C8BB9",
"fX c #53849D",
"gX c #4D839D",
"hX c #5689AD",
"jX c #4689B9",
"kX c #4F8AAC",
"lX c #7087B9",
"zX c #368FCD",
"xX c #3CADFD",
"cX c #3FAEF3",
"vX c #3AB0F6",
"bX c #499ACA",
"nX c #549CCB",
"mX c #599CD9",
"MX c #4695D0",
"NX c #6C92D7",
"BX c #49A5DB",
"VX c #52A6DC",
"CX c #57A9D2",
"ZX c #5D99E4",
"AX c #7789E7",
"SX c #6D92F5",
"DX c #46A8E9",
"FX c #56A7E8",
"GX c #45ACFE",
"HX c #48AAF7",
"JX c #48B0F1",
"KX c #65A3F1",
"LX c #858AEC",
/* pixels */
"2X2X2X9X4X3X3X3X6X7X1X7X2X2X+X4X4X4X2X4X2X2X3X2X2X2X2X2X1X4X2X4X#X4X6X6X@XoX3X3X6X@X$X$X%X+X5X0X0X2X9X9X2X2X2X4X4X@X@X3X4X4X4X4X",
"9X2X#X#X3X3XwX3X3X7X7X2X2X+X$X#X@X#X#X@X#X#X@X@X@X@X@X#X@X@XOX@X@X@X6X3X@X*X=X@X X@X$X:X#X#X8X7X2X9X9X2X4X9X2X+X3X#X@X3X3X4X7X2X",
"4X4X2X+X4X4X4X4X1X4X4XOX#XwX`.].].'.'.'.'.'.'.'.'.'.].'.'.'.'.'.&X].}.{.}.'.'.'.'.|.'.`.@X4X3X3X.X$X4XOX4X4X9X4X4X4X4X4X3X3X2X4X",
"+X4X4X3X4X4X3X4X4X7X4X;XoX`.! ~ Q Q c Q b b b Q Q b Q b Q b b Q b b W W W W W W W W W ) ;.}.=X*X:X:X:XOX4X@X9X5X7X2X2X4X2X4X3X3X",
"4X4X4X4X4X#X4X9XOXOX{.;.,.+.Q z j 3 j 3 j 3 j j 3 3 j 3 j 3 j j j l j g j j j j j j p d ..#.,.,.+.@.@.*X;X#X+X2X5X9X2X5X4X4X3X3X",
"4X2X4X4X@X@X4X#X;XoX).f c : 3 3 3 1 1 5 5 5 1 1 5 1 1 1 1 3 5 g 3 g t 2 1 h 1 g 1 k j : j z g : x x W :.*XoX@X4X2X2X5X5X2X3X3X@X",
"9X1X5X4XOX;XoX;.;.;.O.d z 6 k 5 2 1 2 1 2 2 2 1 1 2 2 1 1 1 1 2 1 = 6 3 2 = = = 2 3 8 z j 3 j l 3 z x _ +.[ (.@X#X4X2X2X4X4X3X3X",
"5X1X7XwX|.:X&X[ d x p x 3 6 2 2 2 1 1 1 1 1 1 1 1 1 3 2 1 1 1 1 2 1 6 2 6 = = = 2 3 3 8 3 1 t 1 3 l : z s s O.*XoX#X3X2X4X4X4X2X",
"5X1X4X X;.,.#.( l p 3 3 1 2 2 2 1 3 3 1 g 1 g 1 1 1 1 g 3 1 1 1 2 6 2 1 = = 5 & 2 2 h = 2 1 & h 1 1 5 5 3 z ^ #.:.|.oX3X2X4X2X7X",
"5X4X3X[.~ c x : g g 2 2 2 2 6 2 2 1 1 g 1 1 1 1 j g 5 1 1 3 1 1 3 2 1 & 2 2 2 2 = = * 2 h h h * g 1 2 2 1 j z c ! ).@X3X3X7X2X5X",
"OX4X|.).d s 1 h 2 2 = 2 2 2 1 1 2 1 2 2 1 1 1 1 2 2 1 * 1 1 2 2 2 2 h = k 1 = = * h 1 1 3 : 3 a 1 1 2 2 2 2 1 : d [.=X3X1X2X5X5X",
":X:X&X:.v j 2 & = 2 = 2 1 2 1 1 = 2 2 2 1 2 2 2 2 2 2 1 = 1 2 2 * y 1 1 * $ O @ w X g 3 $ + e t * k 2 2 = 2 k z ! &X|.@X4X5X5X7X",
"_ _ _ ^ z 5 2 2 = 2 2 1 1 2 1 1 2 2 2 2 2 2 2 2 = 2 2 2 2 2 2 2 y y 1 3 y H h.q.f.r y $ *.g.q.7.u h = - 2 1 1 p W `.oX7X7X2X2X2X",
"c s x j 1 2 2 = 2 2 1 1 2 1 2 2 2 2 2 6 2 2 2 6 1 2 2 2 2 2 2 2 * $ % + q 0.B.B.S.r $ X q.F.F.A.i h - = 1 3 j c E `.@X4X4X4X3X3X",
"j 1 1 1 1 1 h k 1 3 g 3 1 2 2 2 2 1 3 2 1 2 2 5 1 5 1 2 2 1 3 2 1 u *.9.5.t.N.N.J.C u O q.b.M.l.r 2 * 1 1 g ^ +.[ 4X2X2X2X3X3X3X",
"1 2 = 2 1 * 1 1 1 3 1 3 1 2 2 2 2 2 3 6 3 3 3 1 3 3 3 6 3 3 2 1 = q j.V.V.v.a.v.z.C @ # 5.M.m.l.C O + % * x ..*X;X7X2X4X4X4X.X;X",
"2 2 2 1 1 1 * h * t 2 = 1 2 1 1 2 = 2 6 5 1 1 1 : z 3 6 3 z 2 = = # q.V.n.s.a.s.x.5.w.5.t.d.s.x.4.7.7.r y p _ =X3X1X2X2X2X#X#X#X",
"1 2 1 1 1 h h * * = 2 2 2 1 3 1 - = k & $ + @ q e e % $ 2 5 & = % + t.N.m.s.a.a.v.m.N.M.a.d.a.p.n.F.H.V + l O. X3X5X9X9X+X2X#X@X",
"2 2 1 2 1 1 g 1 2 2 2 2 1 1 1 5 k 2 & + Z 0.3.w.9.8.0.V % 2 2 5 2 q q.N.v.a.y.y.d.m.n.n.s.p.u.p.s.M.D.C e a O.|.oX#X4X4X1X3X4X3X",
"2 = 1 1 3 3 3 1 3 1 2 1 2 1 1 1 3 3 * O *.H.V.V.b.F.G.S O O i $ 2 q e.m.s.u.y.p.m.b.G.B.B.V.C.c.s.M.D.N e a _ *X@X@X2X4X2X3X3X3X",
"= 2 1 1 3 3 5 3 5 6 3 2 1 1 1 2 3 3 2 @ &.F.N.v.s.s.v.t.r.h.f.e y q e.v.a.y.y.v.x.A N V V V V S x.m.D.C q l ..*X6X5X1X7X9X+X#X+X",
"h h 2 1 1 5 5 6 2 3 2 2 1 1 * 1 6 1 6 $ *.G.B.M.a.y.s.s.v.V.k.i $ q e.v.a.y.a.c.t.o           # x.N.x.A O e ..&X}.6X1X1X9X2X9X#X",
"g 3 2 1 6 6 2 2 6 6 2 2 2 = = 1 3 8 6 $ B =.*.0.M.a.s.s.a.N.j.q t e e.v.a.u.a.v.i.5.5.4.4.4.w.5.c.d.i.6.q.h.-.( [  X@X3X3X1X4X7X",
"j g 5 2 = = 6 6 2 = 2 2 2 2 2 2 3 5 3 2 - $ X D H.V.N.N.a.v.j.r q r r.v.s.a.s.c.d.c.c.c.n.c.m.M.p.a.a.s.N.G.g.u c '.3X3X6X3X7X8X",
"p : z j 1 - = = = = 1 2 2 2 2 = - = 2 2 = * = B =.*.&.l.v.a.i.6.q.6.i.a.a.s.s.d.a.y.a.a.s.s.d.d.s.s.p.p.N.G.0.e b `.@X3X7X2X+X2X",
"Q s s 3 1 2 2 - = 1 * h h 1 2 2 * = 2 5 5 1 - $ ; @ r h.B.c.N.N.N.M.v.a.a.d.v.s.y.y.a.a.a.a.y.d.b.F.V.B.F.H.g.e b ].3X3X2X2X#X%X",
"O.+.+...v h h h g h a 1 3 3 2 1 2 1 : 1 3 3 5 2 = % @ H 8.&.9.B.M.s.s.p.s.s.s.a.y.a.s.v.v.s.s.i.F D Z F D J G t x ).@X3X4X4X4X#X",
"=X&X&X:.x p p x x b b p j 3 3 5 * h g 1 3 3 1 1 * h % ; @ O S G.v.s.s.d.s.s.s.s.y.a.s.M.s.d.d.l.X . . . .   o l ( [.3X3X6X7X@X#X",
";X;X|.).W d _ >.>.>.,.W s : : 1 g t l u t k 1 h k = y $ % q A B.M.a.s.s.p.a.p.d.d.s.s.v.s.s.M.J.-.:.:.:.).).).[.XX#X2X2X2X2X+X#X",
"@X3X;XXXE R ] |.:X].;.W c z x k a l l l g t : l j 1 y + O O S C.s.s.M.Z.b.V.B.G.B.N.B.B.B.B.G.S.<.%X+X+X6X6X3X@X#X4X2X9X2X7X@X#X",
"4X2XOX{.(.(.XX3X+X4X@X(.;.+.k j ^ @.@.R.+.n 1 j : * u f.j.t.t.M.s.b.9.&.D D D F D D J H D D D =.>X#X4X3X6X,X3X7X4X+X2X9X2X7X8X3X",
"2X4X4X@X2X2X2X1X1X3X3XoX*X'.~ c ) @X,XwX>.b x x z y O k.N.a.p.d.s.B.S @ e t h g t e t l a a h b ].1X3X6X6X6X6X4X4X4X4X2X1X7X7X6X",
"4X4X2X3X3X3X3X2X4X4X4X3X+X|.`.{.{.6X,XwX X).`.:.b y w h.n.p.a.s.d.V.D @ x +._.).:.[.:.>.[.XX'.'.3X3X3X3X3X6X3X3X2X4X2X2X4X7X2X3X",
"4X2X4X4X2X2X4X4X4X4X4X4X4X2X1X2X9X7X1X3X@XwX@X|.~ y i h.G.V.C.Z.N.D.J = x [  X,X@XoX:X$X+X+X3X1X1X1X2X2X2X4X2X4X2X4X3X4X4X4X4X2X",
"4X2X4X4X4X4X4X4X4X4X4X2X3X4X4X4X+X+XwX4XOX3X.X|.( a t K H J *.=.&.J C - 2 +.;X#X3X X7X6X#X4X7X4X4X4X4X4X4X4X3X4X4X4X4X4X4X4X3X2X",
"4X4X4X4X2X4X2X3X4X1X1X1X1X2X4X4X9XOX$XoX;XOX X*X` t < M 0 < - - e + ; 6 5 +.>X$X X6X3X7X4X3X+X2X4X2X4X4X4X2X2X4X4X4X2X4X4X4X4X2X",
"3X4X2X4X4X4X4X2X4X4X4X4X4X4X4X2X7X5X1X4XoX[ _ ( t 2 9 E.kXkX2.9 3 t = 1 : Q _ _ [ OX@X6X3X3X@X4X4X2X4X4X4X3X2X4X4X4X1X4X2X4X4X4X",
"2X4X4X4X2X2X4X4X4X4X4X4X4X4X2X3X1X1X@X;XR./ P P 1 5 9 Q.VXDXdXL I I I U I Y I P ) |.}.@X X3X4X9X3X4X4X2X2X2X4X4X4X4X4X4X3X2X4X2X",
"4X4X4X1X4X3X4X4X2X1X4X4X4X4X4X3X X(.] o.E.hXjXE.7 4 , fXDXJXDXzXzXjXjXjXdXzXzXjXQ.R.@.,.XXwX+X+X2X2X4X4X4X4X2X4X4X4X4X4X4X4X4X3X",
"4X4X4X4X4X4X4X4X4X4X4X4X4X4X4X@X|.O.> > T.NXAXNXP 4 , fXFXGXDXDXVXZXKXSXKXSXKXSX~.P p d ;.3X+X#X4X4X4X4X4X4X3X2X4X2X4X2X4X1X7X2X",
"4X2X4X4X4X4X2X4X4X2X3X4X4X4X4X3X|.O.p d { pXaXW.R < 9 gXJXGXMX|  .' W.aXaXaXaXaX<XE d d @.8X2XOX3X4X4X4X2X4X4X3X3X2X4X4X4X3X2X4X",
"3X4X4X1X4X4X5X3X4X4X2X4X4X2X4X@X;X[ : s K.uXiXL.R 4 , gXHXHXkXL 7 R /.pXeXtXrXuXW.Y P P R.,XoX#X@X2X4X1X4X4X4X2X4X4X4X4X2X4X2X4X",
"2X2X4X4X4X4X4X4X2X4X4X4X4X4X2X4X$X[ j 8 T.~.AXQ.P < , Q.HXJXhX9 < 1 b ) ' !.LXAXZX^.^.Q.E.o._ +.@X2X3X2X2X4X4X4X2X4X4X4X4X4X4X4X",
"4X4X4X4X4X1X4X4X2X3X4X2X3X2X4X4XOX[ x 8 T.sXsX~.E E Y !.ZXnX2.M C r r i n #.lXZXNXSXSXAXT.P z ~ oX2X4X4X2X4X4X1X4X4X1X4X4X1X4X4X",
"2X4X4X2X4X4X2X4X2X3X2X4X4X2X4X3X3X[ s f K.eXtXtXeXeXeXK. .L J A.z.l.l.A.A.f.^ Y P.pXiXiXK.8 8 Q |.1X2X2X4X4X4X1X4X4X4X2X4X4X4X2X",
"3X4X4X4X4X4X2X3X4X4X4X4X4X4X4X3X,X[ s d K.iXtXyXyXyXuX' P ; A H.N.c.c.C.H.1.$ > ' L.rXiX' 8 v Q |.2X4X4X1X4X4X4X4X2X4X3X4X4X2X3X",
"2X4X3X2X4X1X4X4X4X4X4X4X4X4X4X@X=Xo.j 7 T.AXAXSXSX~.AX .7 @ F G.M.s.v.c.B.8.; 8 T ~.SXAXX.5 k ~ |.2X4X4X4X4X4X4X4X3X2X4X4X4X4X4X",
"4X4X4X4X4X7X4X2X2X2X3X4X4X2X4X3X=Xo.j 7  .mXHXGXGXGXBXU.I = K H.D.Z.Z.D.H.1., L Y.MXHXZX .0 z ~ .X4X4X4X1X2X4X4X2X2X4X5X3X4X2X4X",
"#X#X3X4X5X6X1X3X4X1X4X2X4X6X7X6X=X+.3 7 I.FXJXxXxXxXcXBXMXQ.$.G G Z V G G $.hXzXzXGXJXCX$.7 s ~ $X1X4X4X4X1X4X4X4X4X1X4X4X4X4X4X",
"#X@X3X3X3X6X7X8X1X4X4X4X7X3X,X,X}.o.z 8 %.NXVXJXGXGXxXxXGXZXhXL 9 9 9 , } E.CXJXGXHXBXCXT.P s ~ .X2X4X4X4X1X4X4X4X4X4X4X4X4X4X2X",
"#X#X4X3X4X3X4X2X2X4X4X4X3X4X3XwX;X+.p 6 0 }  .U.BXJXvXxXGXHXBXbXkXjXhXjXdXbXJXcXmXY.| } o.#.).}.3X4X4X4X4X4X4X4X4X4X4X4X4X4X3X2X",
"1X4X2X3X3X4X4X4X4X4X#X@XoX;X`.].*X_ z 5 4 4 4 } kXbXMXMXZXZXmXmXNXNXmXnXCXbXbXbXhXL 9 8 ..&X X,X3X4X4X4X4X4X4X4X4X4X2X4X4X2X4X4X",
"6X4X3X4X4X4X2X4X2X4X4X@XoX`.] ` / Q 8 4 3 z 3 0 } } I Y R.!.qXqXqX-XR.} U U } U Q 8 3 z ,.*X;X6X4X4X4X4X4X4X7X4X2X3X4X4X4X2X4X4X",
"6X8X4X3X4X#X#X2X+X4X#X#X:X).~ d s 3 4 4 4 5 1 = - 6 z _ &XwX3X1XwX:X+.l 3 1 3 & 1 l 3 : ..[.].{.3X4X4X4X4X4X4X4X4X4X2X4X3X2X4X4X",
"8X6X3X3X@X#X2X2X2X2X1X@X$X[.b d j g * = 2 - - 0 5 3 c #.=XwX:X$X X=X_ 3 j 1 2 2 a g 1 * l b b ) oX2X2X4X4X1X4X4X4X4X4X4X4X4X2X3X",
"8X7X3X4X+X#X#X2X5X7X2X@XoX`.~ a 1 h h = 2 = - 2 4 z c / +.@.`.#X@XwX/ z 3 2 2 2 l 1 1 5 3 l a ~ |.1X4X4X4X2X4X4X4X2X4X4X1X4X4X5X",
"8X7X4X@X#X#X#X4X5X7X8X3X@X`.] p h = j s p 1 h 2 3 3 3 j p d [ @X@X].W s k 6 5 1 j g 1 4 3 z v ! @X1X1X2X4X4X4X4X4X4X4X2X4X3X2X2X",
"6X3X3X4X2X#X2X2X5X5X8X3XwX;X).O.b n ! ! ~ ~ b ~ Q Q Q ^ b ( ;.3X@X{.] ! ^ Q Q Q ~ b Q ^ / W ! ) @X1X4X4X4X4X4X4X2X3X4X4X4X4X4X4X",
"4X2X4X@X@X#X4X2X5X5X8X1X3XwXoX].'.'. X.X$X$X].].oX|.*X>X].`.OX7X7X4X{.`.>X>.&X].|.|.}.}.}.}.}. X@X1X4X4X4X4X4X1X2X4X4X2X4X2X4X4X",
"4X4X1X3X#X3X4X7X7X7X5X7X3X3X3X;X@X+X8X5X4X2X1X2X4X4X4X#X$X#X2X7X5X5X4X#X#X#X#X#X4X1X8X1X3X XoX3X3X3X4X4X4X4X4X1X4X4X2X3X4X3X2X4X",
"4X2X3X3X3X3X1X2X2X2X4X9X3X1X3X4X7X4X7X6X6X6X,X6XOX+X#X2X#X@X@X@X7X1X9X5X2X5X5X2X9X5X9X9X9X4X#X#X4X2X4X4X4X2X1X4X2X4X4X2X4X4X4X3X",
"4X4X2X4X3X3X3X3X#X2X+X4X2X2X3X7X1X2X8X1X,X,X6X3X4X;X4X4X#X@X3X3X3X1X5X2X5X8X0X5X5X5X9X9X9X4X#X@X4X4X4X4X4X4X4X4X3X4X4X2X2X4X4X5X",
"2X4X4X6X3X3X3X3X4X#X#X2X2X2X5X8X4X4X6X7X4X#X9X%X#XOX2X2X2X2X8X7X4X4X4X2X2X3X2X3X3X3X9X9X9X4X4X3X2X4X2X4X3X2X4X4X2X4X4X3X4X4X2X4X",
"2X4X5X3X6X3X3X3X@X#X%X#X2X9X5X2X3X3X6X4X#X%X%X%X#X#X3X4X2X5X0X8X,X;X#X4X4X3X3X,X,X3X2X9X2X2X1X3X4X2X3X4X2X4X7X4X4X4X4X4X2X4X2X3X"
};
