/* XPM */
static char *frisk_walk_front_1_64_floor1757294741[] = {
/* columns rows colors chars-per-pixel */
"64 64 256 2 ",
"   c #1A1500",
".  c #3A1D1A",
"X  c #221B00",
"o  c #362901",
"O  c #3C2B02",
"+  c #3A250D",
"@  c #392709",
"#  c #353400",
"$  c #3D3301",
"%  c #3B3804",
"&  c #352414",
"*  c #3A2614",
"=  c #3C2A13",
"-  c #35241C",
";  c #3B251C",
":  c #3C2A1C",
">  c #372B1B",
",  c #383114",
"<  c #2D270E",
"1  c #3B1D23",
"2  c #3C1C2C",
"3  c #371827",
"4  c #3A1838",
"5  c #301532",
"6  c #2A282A",
"7  c #352521",
"8  c #3B2523",
"9  c #3B2A24",
"0  c #3D252A",
"q  c #3C2A2A",
"w  c #352A27",
"e  c #2B2936",
"r  c #372834",
"t  c #313334",
"y  c #432B05",
"u  c #463704",
"i  c #43281A",
"p  c #4C3A14",
"a  c #421C2D",
"s  c #45192A",
"d  c #451C32",
"f  c #481937",
"g  c #511E3D",
"h  c #422423",
"j  c #422A24",
"k  c #42242B",
"l  c #422B2B",
"z  c #4A252A",
"x  c #433226",
"c  c #452332",
"v  c #4B2534",
"b  c #4C233B",
"n  c #482B33",
"m  c #512839",
"M  c #4A3035",
"N  c #563438",
"B  c #60243D",
"V  c #3E4B2D",
"C  c #4B4501",
"Z  c #554705",
"A  c #584816",
"S  c #57510C",
"D  c #66550A",
"F  c #624F12",
"G  c #7C7A01",
"H  c #6F680C",
"J  c #4E4D2F",
"K  c #67552A",
"L  c #786834",
"P  c #351D46",
"I  c #301B4F",
"U  c #193750",
"Y  c #2B2843",
"T  c #362845",
"R  c #2B3546",
"E  c #393C53",
"W  c #313454",
"Q  c #283869",
"!  c #4C1B42",
"~  c #551C48",
"^  c #4B1D54",
"/  c #492546",
"(  c #562647",
")  c #5A3549",
"_  c #4D3151",
"`  c #683859",
"'  c #653850",
"]  c #4F316E",
"[  c #683073",
"{  c #364452",
"}  c #17486D",
"|  c #374866",
" . c #355573",
".. c #464F50",
"X. c #6B4553",
"o. c #454F71",
"O. c #744D6C",
"+. c #877E09",
"@. c #897B2F",
"#. c #875278",
"$. c #916679",
"%. c #A0667E",
"&. c #888502",
"*. c #928D0F",
"=. c #928932",
"-. c #B6AD3C",
";. c #B6AF33",
":. c #D2D336",
">. c #DDE335",
",. c #FBFE2C",
"<. c #F6FC2A",
"1. c #F5FD34",
"2. c #FBFE34",
"3. c #F5FB3B",
"4. c #FCFE3C",
"5. c #F5F638",
"6. c #E6E939",
"7. c #978848",
"8. c #B7AC47",
"9. c #B6AA57",
"0. c #B5B14C",
"q. c #BDB469",
"w. c #A79654",
"e. c #CABD46",
"r. c #C6BC68",
"t. c #CBC946",
"y. c #D4CE49",
"u. c #DAD847",
"i. c #CBC755",
"p. c #D9D15A",
"a. c #E4DC4A",
"s. c #E4E54A",
"d. c #ECF249",
"f. c #F6FC44",
"g. c #FCFE43",
"h. c #F6FA4C",
"j. c #FBFD4B",
"k. c #F6F448",
"l. c #E7E75A",
"z. c #FCFD52",
"x. c #FDFC5B",
"c. c #F7F657",
"v. c #F4E75D",
"b. c #D5CC69",
"n. c #E3D872",
"m. c #E8E865",
"M. c #F9F666",
"N. c #F3ED72",
"B. c #DFE24B",
"V. c #325582",
"C. c #367399",
"Z. c #326F9C",
"A. c #3970A3",
"S. c #1B6290",
"D. c #525788",
"F. c #48688B",
"G. c #4D6D92",
"H. c #4F73A5",
"J. c #6B75AA",
"K. c #5E45A0",
"L. c #6F7FF9",
"P. c #7860C8",
"I. c #972FB0",
"U. c #995A8C",
"Y. c #955C93",
"T. c #9C5C92",
"R. c #9D5C9B",
"E. c #995898",
"W. c #885894",
"Q. c #A35D8D",
"!. c #A35C94",
"~. c #A5559C",
"^. c #AB569D",
"/. c #A45B9C",
"(. c #AA5A9D",
"). c #A75895",
"_. c #AC539C",
"`. c #8E6686",
"'. c #9D628C",
"]. c #966687",
"[. c #9C6393",
"{. c #9C639B",
"}. c #976694",
"|. c #866A9A",
" X c #A2648B",
".X c #A26295",
"XX c #A3629B",
"oX c #AB639C",
"OX c #A16996",
"+X c #9E55A3",
"@X c #9E5DA2",
"#X c #9A5BA7",
"$X c #9E4EA7",
"%X c #A555A3",
"&X c #AB56A5",
"*X c #A65AA3",
"=X c #AA59A4",
"-X c #AB56AA",
";X c #A659AA",
":X c #AB5AAA",
">X c #A456AA",
",X c #B154A4",
"<X c #B153AA",
"1X c #B25BAB",
"2X c #B05BA6",
"3X c #A957B3",
"4X c #B15BB3",
"5X c #9B63A2",
"6X c #8A76AA",
"7X c #A361A3",
"8X c #A963A7",
"9X c #AE68B1",
"0X c #A230CF",
"qX c #963BE9",
"wX c #943BF1",
"eX c #9E32DE",
"rX c #8F4DD4",
"tX c #8B46E9",
"yX c #9747E9",
"uX c #9B4AF3",
"iX c #9B48F7",
"pX c #9652ED",
"aX c #A446EE",
"sX c #3D88B2",
"dX c #4586B9",
"fX c #5689B9",
"gX c #518EB1",
"hX c #6A92B2",
"jX c #6099AC",
"kX c #3B8FCF",
"lX c #3AADFA",
"zX c #3BAEF2",
"xX c #4999D3",
"cX c #5897D3",
"vX c #5392CA",
"bX c #7495D2",
"nX c #57A5D8",
"mX c #66A2D0",
"MX c #5397EF",
"NX c #6D82FD",
"BX c #698DFE",
"VX c #738DFE",
"CX c #7A8BFE",
"ZX c #7484F6",
"AX c #6392FE",
"SX c #6B94FE",
"DX c #7694F9",
"FX c #718CEB",
"GX c #49A9EC",
"HX c #44ABF6",
"JX c #43ABFD",
"KX c #49A9F6",
"LX c #53A8F8",
"PX c #50B1ED",
"IX c #FFF78A",
"UX c #8A8CD9",
/* pixels */
"-X-X-X&X(./.*X*X&X-X&X-X&X^.=X(.(.(.^.&X:X-X:X:X;X:X:X=X-X-X:X-X^.^.-X-X&X*X3X3X*X/.;X+X/.oX~.^.^.^.^.^.(.*X*X*X;X;X-X=X:X=X=X~.",
"-X<X&X=X*X*X=X&X=X-X^.&X&X=X*X*X&X&X&X1X-X%X:X%X%X%X%X%X=X=X;X%X^.&X&X-X;X%X3X3X=X/.;X+X(.).^.&X^.2X^.=X*X*X*X*X*X-X&X&X;X=X&X=X",
"&X*X=X*X*X;X;X-X&X&X,X^.=X:X*X>X>X>X&X=X%X~.2X=X(.(.(./.*X=X&X&X,X=X:X=X(.(.#X*X/.(.=X1X2X^.,X&X-X=X&X&X&X=X=X=X*X*X*X*X=X=X=X=X",
"^.(.*X*X*X;X;X-X-X&X,X^.=X=X%X;X;X:X/.R..X!..XQ.Q. XQ. X!.!..X)./././.R.[.T. XT. XoX/./.^.=X&X1X&X=X:X=X&X&X&X*X=X/.(.*X%X=X=X;X",
"/././.*X;X;X>X-X&X,X=X&X=X=X*X8X{.}.` d v b b v v n v v v b b / f b b v v v z v v f ! ~ {.7X;X>X;X*X-X-X-X&X&X,X(././.(./.*X&X-X",
"!./.*X*X;X;X&X=X&X&X&X&X*X/./.Y.|.`.X.- 8 9 1 0 8 : 9 9 8 0 0 8 q w 9 8 9 9 ; 8 k k c b }.{.W.5X@X*X*X-X<X<X,X,X^.(././.^.*X=X-X",
"/.(.*X*X:X;X=X=X(.:X;X*X*XXX[.` c M 8 ; q 9 9 7 8 8 9 9 8 9 8 9 9 7 8 w w 8 w 8 ; 8 : s c / ( }.{.{.*X=X-X<X<X&X(.(./././.*X&X-X",
"(.=X=X:X&X=X^.(.^.8X*X#XR..X].m h ; 8 q 8 8 l q w 9 9 8 w 8 9 9 8 w q w q q 9 9 j & j h k a v ].].[.!.*X&X,X<X<X=X(././.=X*X&X-X",
"&X&X:X&X&X*X*X/././.7X[.( f 2 k h i k k k 0 l 8 8 k 8 8 l h ; k 8 l 0 0 0 q k 8 9 i 8 h i s h a s f  X.X(.&X-X-X&X&X*X*X*X*X&X&X",
"-X-X-X&X2X2X=X*X/.{.[.`.( c c k i i 1 k 7 n 8 8 8 8 l l j 8 h 8 k l 1 8 l q q 8 9 : 8 8 9 h h h z z ].U.!.).=X=X:X=X*X*X&X&X*X=X",
"4X-X^.^.^.~.*X@X7X` f z 8 8 l 8 8 8 9 q 0 w 9 : 9 9 9 : - - 9 9 - q 9 8 : > 9 9 > 9 9 q 9 > 7 9 h . z d ( XX/./.*X;X:X-X=X&X-X=X",
"-X-X,X2X=X*X*X@X}.O.k ; ; - 0 q 9 8 : * & : 9 9 9 ; 9 9 9 8 : * i + : i * > 9 7 9 9 w - 9 q w q h z s k m OXT.7X*X*X;X&X-X;X&X*X",
"-X-X&X^./.!.R.R.{.X.. ; x : 9 8 : * y u O O : 9 q 9 9 7 0 9 & i O u = * 9 8 8 q 7 9 9 : : 7 8 8 : ; k 8 h c 4 ~ /.=X=X-X-X-X*X*X",
">X&X%X%X(.oX.X].O.M 7 9 * & : : i p 7.8.=.O + 9 ; 9 8 8 l : * O F 9.q.K j 0 - 8 w 9 = & * q q 8 k 9 ; 9 q q a ( [./.&X<X-X&X*X*X",
"/.*X=X=X=XU.` f n q M q 9 : = @ O Z l.M.y.% = : : : i : . & y o &.v.IX@.= 8 i j 8 - y $ = i l 8 7 n w 9 - 9 8 v './.=X&X-X&X*X*X",
"*X*X%X*XoX.X` 1 0 q q w l * p w.9.-.k.j.s.;.9.7.u @ = @ = L 9.8.:.h.M.=.O * i @ y L 9.9.K o * h q 8 w - q 9 h m '.!.^.&X,X&X*X*X",
"*X=X*X=X*X[.X.i c 7 k 8 h + Z m.M.h.j.3.g.z.c.y.C $ O % O @.M.z.g.4.x.*.o y $ $ u =.M.M.G y y @ - 9 0 k 0 k . M R.*X*X^.&X^.=X^.",
"/.*X%X*XXX[.X.; 7 q 8 i 1 y Z l.j.2.2.g.3.5.4.6.;.8.8.8.-.:.j.2.2.5.k.:.-.0.8.8.;.y.j.f.:.;.9.K < - i i h j h k [.{./.~./.*X2X^.",
"*X7X7XR.Y.`.X.- q q ; 9 l + Z p.z.4.2.1.4.2.4.3.h.z.h.z.c.j.2.<.4.g.4.4.j.h.h.z.j.3.1.5.k.c.N.@.= : y u y = i 1 `.].U.oX=X=X*X;X",
"%X*X/.#.` ' n - q w l - 9 o Z m.z.3.g.3.f.f.h.j.3.3.,.,.4.4.<.,.2.4.1.2.g.f.f.f.3.4.2.4.5.f.M.G o O =.n.b.A = l c v ( U.*X#X*X;X",
"=X/.T.` a s ; 9 7 - 9 > h p Z p.d.f.s.l.l.l.l.l.f.3.4.4.2.2.<.2.2.1.g.6.s.m.m.m.l.h.f.1.4.j.k.&.C C ;.M.IXZ = 9 1 1 g  X7X;X+X@X",
":X7X[.' h ; 8 q j 9 9 x * y u v.j.5.C # % # # H f.3.4.4.2.2.2.1.,.1.f.&.% # % # % &.j.1.3.5.x.>.u.t.d.M.m.S i 1 q k b T.*X8X;X#X",
"&X/..X' h j 8 8 h : . i u u D k.3.>.%         C d.3.3.1.,.2.f.3.<.f.f.G X         G f.4.4.5.4.k.j.x.c.v.n.F . 8 q k ( U.~.=X*X*X",
"&X^. X) s : 8 k 8 h * F r.p.a.k.4.3.u.i.i.i.t.u.j.f.g.f.z.j.c.h.f.3.z.u.t.i.i.i.t.s.f.<.2.4.2.j.j.M.*.D F y z h 8 2 ! .X(.*X=X;X",
"^.(.[.` a q 0 k 8 8 ; F m.x.f.g.4.3.h.h.j.g.4.4.2.f.d.t.i.i.i.t.B.f.j.j.h.z.h.f.g.4.4.4.2.2.5.6.y.b.L o @ i k 7 9 8 ( T.(.^.=X&X",
"2X/.}.' r q 0 q 0 l ; A m.c.j.g.4.4.g.4.<.2.<.<.,.f.:.o         D h.g.1.3.4.2.4.5.3.j.k.z.x.c.+.u C u : ; - - x 9 0 ! !.).^.=X:X",
"*X/.{.` 8 - w 8 9 ; * A i.y.:.h.4.2.g.g.4.4.,.,.1.f.:.C % % # # G j.4.2.,.<.2.4.j.s.y.p.p.p.b.H @ < : q ; q > - 7 0 g OX!.).=X/.",
";XR.}.) 8 9 q q : > & p C C S l.x.j.c.c.z.5.2.,.3.3.f.>.l.m.m.s.f.3.<.2.,.<.g.c.M.;.u C u u p y : - 7 q - : > : q k f [.Q.).8X*X",
"%X*X.X` h ; - 0 j ; . i + @ C q.b.p.p.y.a.j.g.4.g.3.2.g.k.j.h.f.5.2.g.4.2.4.s.p.b.=.o + i = * i : j 8 h j 8 : ; 2 f g .X/.!.(./.",
":X*X/.` s k 8 l 1 n d a v * , p u u u C G M.k.v.x.c.z.k.k.j.g.4.2.2.5.d.j.M.=.u C u * 0 j h 8 h 9 8 a 3 k a j 0 4 ! ~ T.oX/.=X&X",
":X%X&X/.U.].) 1 v }.U.}.s i i i = O @ o A r.8.8.8.-.8.-.-.y.k.2.<.4.z.u.8.9.@.o @ + 9 w 9 ; 9 0 k v ]. X[.) 1 v {.{.T.oX/.*X-X<X",
"&X&X2X&XR.XX` d ~ Y.;XXXB s d 2 8 . a h h . + y y y y y u +.c.2.2.4.z.&.y y . h a d a d 2 c 2 2 k s OXR.R.` f g T.7X=X^.~.:X-X4X",
"(.(.,X&X*X5X[.[./.~.%X&X).Q.oXT. X XQ.!./.XXT. X X%.%.i @ @.c.3.2.g.z.*.O s  XQ..X/././.{..XT.].h a [.*X*X*XU.XX/.^.&X&X(./.&X3X",
"/.^.,X<X*X@X*X*X*X=X1X%X,X~.*X^.^.^.^.=X3X>X=X=X(. X Xm = @.N.x.x.M.N.=.i 3 '.!.*X%X:X4X&X*XoX!.s d @X3X;X:X*X/.(.^.:X=X/./.-X-X",
"3X<X<X<X>X;X*X*X~.^.2X~.,X1X%X,X,X&X+X@X*X*X&X=XXX}.$.z . K 7.=.=.=.@.F * l $.[.@X;XR.@X%X%X1X~.oX).&X-X1X%X4X#X:X*X;X;X/.(.&X:X",
"3X3X3X-X-X=X*X*X8X*X=X=X&X&X%X=X&X=X5X}.R.XX(.~.I I T 6 e t < o @ + z z ; 6 r P ^ W.}..X:X=X&X=X*X=X1X,X,X4X$X3X*X*X*X*X*X*X=X&X",
"3X-X-X&X,X,X(.*X*X+X>X1X=XT.7X{.{.[.[.}.[.'.[.6XH.A.A.A.G. .< i i * & q ; > | G.D.6X5X[.XX.X[.Y.Y.T./.).^.,X;X+X/./.*X=X&X*X&X-X",
";X%X*X&X,X,X^./.;X;X<X&X(.[.|.] I T 5 f c 4 P Q cXPXPXPXPXH.R e t e t e e U C.mXcXG.I P 4 f P T T P 5X:X(.).%X8X/./.=X&X=X&X=X=X",
"/./.*X*X&X,X,X,X:X:X<X,X(.OX|.G.F.F.W T | F.A.kXHXHXzXGXGXkXZ.C.C.C.C.C.Z.Z.xXLXLXvXZ.F.E e t o.H.G.J.#X*X#X9X@X*X&X,X-X=X*X*X/.",
"*X/.*X*X*X(.,X,X&X&X~./.^ T Q vXmXhX] P ] UXDXSXAXAXAXSXSXSXDXDXFXDXFXDXSXDXSXVXVXDXDXbXo.6 t G.hXmXD.I ^ 5X|.@X(.,X<X<X*X*X*X(.",
",X*X@XR././.;X;X:XE.OX|.H.fXH. .| ] I.I.0XaXaXyXiXiXiXaXiXiXiXaXpXyXyXyXyXyXuXuXaXuXyXrX] T r _ ..| F.fXhXo.O.#.!.&X-X<X&X^.=X^.",
",X=X*X*X/..X#X3X=XXX3 _ hXmXjXQ e ^ I.0XeXqXyXeXqXqXwXwXwXwXwXwXiXwXwXyXyXeXeXyXqXqXqXP.] W T e w r G.bXhX{ - z  X^.-X-X^.^.^.=X",
",X=X*X*X/./.3X3X~.oX2 r { { ..e r W P.ZXCXNXZXL.ZXFXZXNXL.NXNXNXL.L.NXNXZXZXL.L.L.NXNXMXvXH.H.Q 6 6 { ..{ t 9 n !.,X:X;X*X/.7X^.",
"(.*X=X;X*X=X-X3X=XU.z + % % , u O J jXmXFXFXDXDXZXDXCXVXCXVXVXVXCXCXCXCXCXCXZXCXVXVXVXNXDXCXFXD.6 > 9 , < , : c !.&X-X*X5X{.*X(.",
";X>X-X-X-X-X,X-X;X{.. A e.t.e.e.i.0...| K.tXpXtXtXpXpXiXiXuXuXyXyXaXyXuXaXaXyXaXyXpXiXuXuXyXrX[ / + 7.r.9.% < m /.:X=X*X;X#X/.(.",
";X-X-X1X-X,X,X&X+X5X8 F v.j.j.z.h.m.J 5 ] P.rXtXwXP.tXtXtXtXyXyXyXrXyXtXtXyXyXyXtXwXtXtXwXrXrX[ 4 * w.n.IXS < c R.;X*X(.*X*X*X^.",
"*X=X&X=X^.(._.2X>XR.3 F l.k.f.f.f.l.A e  .FXVXNXAXAXBXBXAXAXSXAXVXAXAXAXAXBXVXVXSXBXAXAXSXBXbXD.r i p x A , i / 5X;X=X(.(.=X,X<X",
"&X*X=X^.^.(._.(.;X8X3 A p.a.B.B.s.b.J U S.GXLXLXJXlXlXJXJXJXJXLXMXxXxXxXxXxXvXcXxXMXJXlXlXJXnX .e h M N ) ) ) ` *X-X^.(.(.^.<X<X",
",X&X&X=X&X*X^././.[.4 s p F u F C V gXxXzXzXPXJXJXlXlXlXHXHXHXLXsX} { R R { R { U H.PXlXlXKXnX .T s '.].[..X/.*X&X&X=X(.(.=X&X&X",
"&X,X,X&X&X*X*X(.XXT.` ' ) N N . 8 E gXPXzXzXHXHXJXlXzXzXxXcXxXcXF.Y e 9 9 - 7 w t  .vXkXJXKXcXF.r g [./.*X=X:X:X-X=X=X*X*X*X*X:X",
"&X&X&X=X&X-X&X;X/./.{..X[.].U.) a W gXGXzXzXlXJXJXJXxX} U E W W _ 5 q 7 > - q 7 w t { } vXnXcXV.4 ~ U./.&X&X-X&X&X&X*X^.*X%X&X&X",
"*X*X=X&X-X&X-X;X:X=X*XE./.R.oXU..XJ.J.vXsXzXzXJXlXHXgXU Y $..X[.$.m w w > 6 q w i : 6 Y F.fXH.J.}.'.!.!.E.%X:X1X*X*X^.*X(.*X;X:X",
"*X=X=X&X-X&X-X-X>X-X-X;X:X;X+X;X%X#X] U V.nXKXJXHXPXgXU Y `.5X.X[.s ; * w q 2 q ; i l 3 e Y ] #X{././.*X=X:X*X%X*X*X*X(.*X=X&X-X",
"*X*X*X;X&X;X&X&X>X%X-X-X>X:X:X;X3X9X_ e | gXfXsXsXgXF.R T {././.!.f z & q q r 2 l : 8 l ].'.U.%X/.7X/.=X=X=X=X&X*X(.(.*X*X&X&X:X",
"*X*X*X*X=X&X=X=X<X,X1X1X&X&X1X~.%XE.` a e e Y e t t t 0 f Q.).=X%X~ f z 9 w c v 1 l l 0 '.oX8X=X~.=X*X=X*X=X=X=X(././.*X=X*X&X-X",
"=X:X*X&X*X=X=X=X=X^.^.(.&X~.=X&X*X/.). X$.d c 0 w > : z f Q.^.2X-X~.!.$.c k d d d c 3 / Q.^.~.:X=X=X=X&X-X&X%X*X*X(./.(.=X&X-X&X",
";X&X&X=X*X^.(.(.(.(.^.(.(.^.(.=X1X~.).).Q.( f r 8 ; 8 z s .X/.&X-X:XY.}.f ! f f d d f g ~.%X;X;X:X&X-X&X&X=X*X=X(.*X*X/.*X=X-X&X",
"&X=X=X*X=X*X(.^.(.(.(.(./.*X*X=X&X&X^.oX8XU.}.}.d s z a ! OX(.~.=X+X{.5XY.{./.T. XOX.XU.8X%X#X;X;X-X-X-X&X=X=X^.*X/.(.*X=X=X&X&X",
"&X=X=X^.*X=X^.*X(./.*X^.;X*X&X=X*XoX).Q.).*X;X+X( g f 4 ! E./.&X=X7X{.Y.8X=X^.Q.T.T./.*X%X&X:X:X-X&X:X&X&X&X=X*X*X(.*X*X*X=X&X=X",
"=X=X=X=X=X^.=X%X*X=X;X;X;X;X;X;X~.(.).oX*X4X3X;X~.U.'.{.Y.;X~.=X~.(.R./.&X2X^.(.oX/.*X:X%X&X&X~.=X;X=X&X&X&X=X*X*X*X*X*X*X=X=X=X",
"&X=X=X&X=X;X=X=X*X=X*X:X&X;X-X-X:X&X=X=X=X-X>X-X:XE.XX.XT./.%X1X,X<X&X&X^.).).).E././.=X-X-X*X=X*X-X=X=X&X^.=X^.*X&X*X*X;X=X*X*X",
"=X&X&X*X&X=X=X=X-X;X=X=X&X;X*X&X=X&X&X%X%X:X-X1X;X*X/./.!.(.*X%X,X,X<X:X^.^.(.(./.=X&X%X:X-X%X*X*X*X*X*X=X&X=X&X-X*X*X;X=X%X*X*X",
"=X;X=X:X=X%X&X=X=X*X=X^.^.*X*X^.=X*X8X/.^.(.~.~.*X=X*X=X=X:X:X*X%X*X;X:X&X%X&X=X-X;X&X%X1X&X&X^./.*X*X=X^.=X&X*X=X;X*X*X*X*X*X(.",
"=X=X=X;X=X;X&X=X=X=X=X(.^.^.^.(.*X+X/./.(.=X^.2X/.=X%X:X-X;X*X*X5X7X%X;X-X4X&X:X-X-X-X<X&X^.2X*X*X*X*X^.*X^.&X&X&X;X:X*X*X*X*X(."
};
