/* XPM */
static char *_a21d6f6d93c4756eec3960c6836c625Vm4nzQ0ANh2yK8Bj[] = {
/* columns rows colors chars-per-pixel */
"64 64 190 2 ",
"   c black",
".  c #0C0900",
"X  c #150F00",
"o  c #131000",
"O  c #1F1901",
"+  c #251E01",
"@  c #3E3200",
"#  c #461616",
"$  c #461916",
"%  c #4B1B17",
"&  c #441619",
"*  c #48171A",
"=  c #461818",
"-  c #49191B",
";  c #491615",
":  c #45120E",
">  c #443801",
",  c #4F2016",
"<  c #4F2018",
"1  c #542516",
"2  c #5B2D15",
"3  c #562817",
"4  c #5F3115",
"5  c #633514",
"6  c #6B3E13",
"7  c #4C1D22",
"8  c #511E25",
"9  c #521F29",
"0  c #501522",
"q  c #5B1734",
"w  c #601335",
"e  c #4A232B",
"r  c #4B282F",
"t  c #54212A",
"y  c #522027",
"u  c #4D2934",
"i  c #4D2E3B",
"p  c #4D2732",
"a  c #562432",
"s  c #5A2534",
"d  c #5D2639",
"f  c #5B2839",
"g  c #4F303F",
"h  c #61293D",
"j  c #534600",
"k  c #5B4B00",
"l  c #6B5A01",
"z  c #6E4213",
"x  c #784B12",
"c  c #7E5112",
"v  c #776302",
"b  c #7D6701",
"n  c #4F3443",
"m  c #503444",
"M  c #55374A",
"N  c #513B50",
"B  c #5C2C42",
"V  c #662C43",
"C  c #692F4A",
"Z  c #682F48",
"A  c #6C314D",
"S  c #6F3251",
"D  c #6C3D5F",
"F  c #713455",
"G  c #75375A",
"H  c #75385B",
"J  c #78385C",
"K  c #773A60",
"L  c #7C3C65",
"P  c #54435C",
"I  c #534157",
"U  c #554761",
"Y  c #574964",
"T  c #574C6A",
"R  c #5A5578",
"E  c #5C4C73",
"W  c #664769",
"Q  c #825511",
"!  c #895B10",
"~  c #84580F",
"^  c #8E620F",
"/  c #92650E",
"(  c #9B6F0E",
")  c #976A0D",
"_  c #867001",
"`  c #8B6011",
"'  c #9B7011",
"]  c #9C700D",
"[  c #AA7D0C",
"{  c #A57A0D",
"}  c #823F6C",
"|  c #82416C",
" . c #864272",
".. c #894375",
"X. c #8B457A",
"o. c #90477E",
"O. c #92497F",
"+. c #9F8401",
"@. c #B2850C",
"#. c #B5890B",
"$. c #BA8D0A",
"%. c #AE9202",
"&. c #BE930A",
"*. c #B19601",
"=. c #AE810C",
"-. c #C49909",
";. c #CAA504",
":. c #C9A505",
">. c #D5AA07",
",. c #D0A409",
"<. c #D7AD08",
"1. c #D8AD08",
"2. c #D5B101",
"3. c #DCB405",
"4. c #DDB901",
"5. c #DBB009",
"6. c #E1B606",
"7. c #E6BD04",
"8. c #E9BE05",
"9. c #E3BA08",
"0. c #EDC304",
"q. c #EEC803",
"w. c #F0C604",
"e. c #F4CB03",
"r. c #F8CE04",
"t. c #FFD503",
"y. c #FFD804",
"u. c #FFD901",
"i. c #F6D002",
"p. c #5B5B81",
"a. c #655E88",
"s. c #5E6693",
"d. c #5F6A98",
"f. c #5E618C",
"g. c #616A9A",
"h. c #646FA4",
"j. c #6273A5",
"k. c #6475A9",
"l. c #6978B5",
"z. c #A4189B",
"x. c #B907A6",
"c. c #A620A7",
"v. c #8F4880",
"b. c #914A83",
"n. c #974D8B",
"m. c #994F8E",
"M. c #9A508F",
"N. c #9A4F90",
"B. c #9E5294",
"V. c #A05296",
"C. c #A3559D",
"Z. c #A3559C",
"A. c #A6599F",
"S. c #8549A7",
"D. c #A757A1",
"F. c #A857A3",
"G. c #A857A3",
"H. c #A759A3",
"J. c #A958A4",
"K. c #A958A5",
"L. c #AA59A5",
"P. c #A958A4",
"I. c #D804CD",
"U. c #DF18EF",
"Y. c #F000E9",
"T. c #FF00FE",
"R. c #EC01E4",
"E. c #DF26FE",
"W. c #D024E6",
"Q. c #E224FE",
"!. c #A15DE4",
"~. c #AC65FF",
"^. c #AA68FE",
"/. c #A469F7",
"(. c #6784BE",
"). c #6882BD",
"_. c #6C8ECE",
"`. c #6885C1",
"'. c #6C90CE",
"]. c #6C8FD2",
"[. c #6D94DB",
"{. c #6C91D5",
"}. c #6F9CE4",
"|. c #6F9DE8",
" X c #729AE8",
".X c #71A1ED",
"XX c #72A5F3",
"oX c #7CA4FE",
"OX c #75ACFF",
"+X c #72B2FF",
/* pixels */
"J.J.J.J.J.J.J.J.J.J.J.J.J.J.J.J.J.J.S = = $ = = = = = = = = = = = = = = = = = = = = = = 9 B.J.H.J.J.J.J.J.J.H.J.J.J.J.J.J.J.J.J.",
"J.J.J.J.J.J.J.J.J.J.J.J.J.J.F.C.B.B.Z = = = = = = = = = = = = = = = = = = = = = = = = = 8 b.B.B.F.J.J.J.J.J.J.J.J.J.J.J.J.J.J.J.",
"J.J.J.J.J.J.J.J.H.J.J.J.J.J.J.J t y - = = = = = = = = = = = = = = = = = = = = = # = = = - 8 t s B.J.J.J.J.J.J.F.J.J.J.J.J.J.J.J.",
"J.J.J.J.J.J.J.J.J.J.J.J.F.P.P.S = = = = = = = = = = = = = = = = = = = = = = = = $ = = = = = = 8 B.P.D.J.J.J.J.J.J.J.J.J.J.J.J.J.",
"J.J.J.J.J.J.J.J.J.J.J.J.| h h t = = = = = = = = = = = = = = = = = = = = = = = = = # = = = = = - d h A V.J.J.J.J.J.J.J.J.J.J.J.J.",
"J.J.J.J.J.J.J.J.J.J.J.J.F = = = = = = = = = = = = = = = = = = = = = = = = = = = = = = = = = = = = = t V.J.J.J.J.J.J.J.J.J.J.J.J.",
"J.J.J.J.J.J.J.J.J.X.G J s = = = = = = = = = = = = = = = = = = = = = = = = = = = = = = = = $ = = = = 7 F G L H.J.J.J.J.J.J.J.J.J.",
"J.J.J.J.J.J.J.J.J.H $ $ = = = = # = = = = = = = = = = = = = = = = = = = = = = = = = = = = = = = $ = = $ = t C.J.J.J.J.J.J.J.J.J.",
"H.J.J.J.J.J.J.J.J.H = = = = = $ = = = = = = = = = = = = = = = = = = = = = = = = = $ = = = = = = = = = = = 8  ...o.D.J.J.J.J.J.J.",
"J.J.J.J.J.J.J.J.J.J = = = = = = = = & & & & = = = = = & = = = = & & & & = = = = = = = = = = = = $ = = = = = = = a C.J.J.J.J.J.J.",
"J.J.J.J.J.J.V.m.m.S = = = = = = = & 2 5 5 1 & = = = $ = = = # & % 2 5 5 % = = = = = = = = = = = = = # = $ = = = a C.J.J.J.J.J.J.",
"P.F.J.F.J.J.L 7 7 - = = = = = $ = & @.q.w.Q & = & = = = = & & & % -.q.7.6 & = = = & & & & & = = = = = = = = = = a C.J.F.J.J.J.F.",
"J.J.J.J.J.J.K = $ = = $ = = & % , < &.u.t.` % , % & = = & = % < 1 >.u.e.z & = = & * % , < % & = = = = = = = = = a C.J.J.J.J.J.J.",
"J.J.J.J.J.J.K = # = = = = = # ( <.<.w.t.t.7.<.>.x & = # & % @.<.1.e.t.e.6 & = = & 1 &.<.-.2 & = = = = = = = = = a C.J.J.J.J.J.J.",
"J.J.J.J.J.J.K = = = = = = = & @.u.t.t.t.t.t.t.t.Q & & & & % ,.u.y.t.t.e.6 & & & & 1 6.u.q.4 & & & = = = = = = = a V.J.J.J.J.P.J.",
"J.J.J.J.J.J.K = = # = = = = & @.u.t.t.t.t.t.t.t.,.#.#.#.#.$.0.t.t.t.t.t.-.#.#.#.#.$.w.t.r.&.#.[ 1 & = = = = $ = 8 A S K H.J.J.J.",
"J.J.J.J.J.J.L = = = = = = = & @.u.t.t.t.t.t.t.t.y.u.u.u.u.u.t.t.t.t.t.t.t.u.u.u.u.u.t.t.t.t.u.0.2 & & & & & & = = = = a C.J.J.J.",
"J.J.J.n.| | V = = $ = = = = & @.u.t.t.t.t.t.t.t.t.t.t.t.t.t.t.t.t.t.t.t.t.t.t.t.t.t.t.t.t.t.t.7.2 & , ! ^ Q % & = = = s C.J.J.J.",
"J.J.J.L = = = = = = $ = = $ & @.u.t.t.t.t.y.t.t.t.t.t.t.t.t.t.t.t.t.t.t.t.y.t.t.t.t.t.t.t.t.t.8.2 & 2 0.u.6.1 & = = = s C.J.J.J.",
"J.J.J.L = = # = = = = = = = & @.u.t.4.;.;.;.;.;.q.t.t.t.t.t.t.t.t.t.t.t.2.;.;.;.;.;.r.t.t.t.t.0.c 6 Q w.t.6.1 & = = = s C.J.J.J.",
"J.J.J.L = # = = = = = = & & & @.u.t.l . . . . . %.t.t.t.t.t.t.t.t.t.t.w.@ . . . . O 3.t.t.t.t.t.e.e.r.t.u.6.3 = = = = s C.J.J.J.",
"J.J.J.L = = = = $ = = & < 1 1 $.u.t.l o o o o o *.t.t.t.t.t.t.t.t.t.t.w.> o X o o + 3.y.t.t.t.t.t.t.t.w.q.>.1 $ = = = s C.J.J.J.",
"J.J.J.L = = = = = # = & ( 9.3.w.t.t.7.2.2.2.2.2.w.t.t.t.t.t.t.t.t.t.t.t.4.2.2.2.2.3.r.t.t.t.t.t.t.t.8.x 5 5 = & = = = s C.J.J.J.",
"J.J.J.L $ = = = = = = & =.u.t.t.t.t.t.t.t.u.t.t.t.t.t.t.t.t.t.t.t.t.t.t.t.t.t.t.t.t.t.t.t.t.t.t.t.t.6.3 & & & = = = = s C.J.J.J.",
"J.J.J.L = = = = = = = & [ u.t.t.t.t.t.t.t.t.t.t.t.t.t._ j j j j k 2.t.t.t.t.t.t.t.t.t.t.t.t.t.w./ Q c % & = = = = = = d C.J.J.J.",
"J.J.J.L = = = = = = = & @.u.u.t.t.t.t.t.t.t.t.t.t.t.t.>           :.t.t.t.t.t.t.t.t.u.u.u.u.u.0.2 & & & # = = = = = = s C.J.J.J.",
"J.J.J.L = = = # = = = & c [ [ 5.t.t.t.t.t.t.t.t.t.t.t.+.v v v v b 4.t.t.t.t.t.t.t.r.#.[ [ [ [ ] 1 & = = = = = = = = = s C.J.J.J.",
"J.J.J.L = = = = = = = % # & & @.u.t.t.u.u.t.t.t.t.t.t.t.t.t.t.t.t.t.t.t.t.t.t.u.u.w.5 & & & & & & = = = = = = = = = = s C.J.F.J.",
"J.J.J.L # = = = = = = = # = & / :.,.;.;.;.0.t.t.t.t.t.t.t.t.t.t.t.t.t.t.t.t.t.>.;.-.2 & = = = = = = = = = = = = = = = s C.J.J.J.",
"J.J.J.L = = = = = = = = = = & = % % % % % -.u.t.t.t.t.t.t.t.t.t.t.t.t.t.t.y.e.6 % = = & = = = = = = = = = = = = = = = a C.J.J.J.",
"J.J.J.} t t 7 = = 7 t t 7 = & & = & & & & @.0.7.7.7.7.7.7.8.r.t.t.t.t.t.0.7.3.5 & # & = = = = = = = = 8 9 9 = $ - 9 t V C.J.J.J.",
"J.J.P.C.B.B.G # = G B.B.S = & $ = = = = = 1 2 2 2 2 2 2 2 4 >.t.t.t.t.e.c 2 2 % & = = = = = = = = = t n.V.b.7 = t m.B.V.H.J.J.F.",
"J.J.J.H.J.J.L - - L J.J.G - - - - - - - - - * * * * * & & % ,.u.t.t.t.e.6 & & = - - - - - - - - * = t V.J.N.8 - s C.J.J.J.F.J.F.",
"P.J.J.J.P.J.B.o.o.B.J.J.m.o.o.o.o.o.o.o.o.o.o.o.o.o.X.s # % ;.u.t.t.t.e.6 & 7 | o.o.o.o.o.o.o. .8 = t V.J.H.b.O.b.P.J.J.J.J.J.J.",
"J.J.J.J.J.J.J.J.J.J.J.J.J.J.J.J.J.H.J.J.J.J.J.J.J.H.J.V & % ,.u.t.t.t.r.6 & 7 M.J.J.J.J.J.J.H.B.8 = t B.J.J.J.J.J.J.J.P.J.J.J.J.",
"J.J.J.J.J.J.J.P.J.J.J.J.J.J.J.J.J.J.J.J.J.J.J.H. .G G t & % ~ ' ( ( ( ) 2 & - A G H G G J V.J.C.} L | C.J.J.J.J.J.J.J.J.J.J.J.J.",
"J.J.J.J.J.P.J.J.J.J.J.J.P.J.J.P.J.J.J.J.H.J.J.J.V # # # = & & & & & & & = = # # # # # = 8 B.J.J.J.J.J.F.J.J.J.J.J.J.J.J.J.J.J.J.",
"J.J.J.J.J.J.J.J.J.J.F.J.F.J.J.n.................W Y Y r # = = = # = = = = # - I Y U 7 # 7 } ........X.D.J.P.F.J.P.J.J.J.J.J.J.J.",
"J.J.J.J.J.J.J.J.J.J.J.J.J.J.J.S # # = = = # # = l.OXOXI # # # # # # # # # # 7 ].OX.Xi # # = = = # # t V.J.J.J.F.H.J.J.J.J.J.J.J.",
"J.J.J.F.J.J.J.H.J.F.J.J.V.m.m.D g g e # = r g n `.OXOXR i g g g m g g g n i M [.OX.XP g i - # - i n M b.m.B.F.J.J.J.J.J.J.J.J.J.",
"J.J.J.J.J.J.J.J.J.J.J.J.H 7 7 g..X.XT # $ h..X.XOXOXOXXX.X.X.X.X.X.X.X|..X.XXXOXOXOX.X.X[.u # r {..X].u 7 s V.J.J.J.J.J.P.H.J.J.",
"J.J.J.J.J.J.J.J.H.D.C.D.G 7 7 g.XXXXE 0 0 l.oXoXoXoXoXoXoXoXoXoXoXoXoXoXoXoXoXoXoXoXoXoX Xu # p [.XX[.u 7 s B.C.H.J.J.J.J.J.J.J.",
"J.J.J.J.J.J.J.J.J.| s s a.'._.p.m n z.I.I.U.Q.Q.Q.Q.Q.Q.Q.Q.Q.Q.Q.Q.Q.Q.Q.Q.Q.Q.Q.Q.Q.Q.W.q $ - n m P `._.l.B s Z C.J.J.J.J.J.J.",
"J.J.J.J.J.J.J.J.J.H = # g.+X+XR # # x.T.T.T.T.T.T.T.T.T.T.T.T.T.T.T.T.T.T.T.T.T.T.T.T.T.Y.w $ & # # u |.+X[.e # a C.P.J.J.J.J.J.",
"J.J.J.J.J.J.J.J.J.J = # g.OXOXR # # S.^.^.^.^.^.^.^.^.^.^.^.^.^.^.^.^.^.^.^.^.^.^.^.^.^./.l.j.s.e # u |.OX[.e # a C.J.J.J.J.J.J.",
"J.J.J.J.J.J.J.J.J.J = # d.+XOXR # # k.+X+X+X+X+X+X+X+X+X+X+X+X+X+X+X+X+X+X+X+X+X+X+X+X+X+X+X+X|.p # u .X+X[.e # a C.J.J.J.J.P.J.",
"J.J.J.J.J.J.J.J.F.J = # Y j.j.N # # S.~.~.~.~.~.~.~.~.~.~.~.~.~.~.~.~.~.~.~.~.~.~.~.~.~.~.~.~.!.a # e s.j.f.7 # a C.J.J.J.J.J.J.",
"J.J.J.J.J.J.J.J.J.J = = & & # & = $ x.T.T.T.T.T.T.T.T.T.T.T.T.T.T.T.T.T.T.T.T.T.T.T.T.T.T.T.T.R.q # # # # & # = a C.J.J.J.J.J.J.",
"J.J.J.J.J.J.J.J.J.J = = 2 z z 2 & # c.E.Q.Q.Q.Q.Q.E.Q.Q.Q.Q.Q.Q.Q.Q.Q.Q.Q.Q.Q.Q.Q.Q.Q.Q.Q.Q.E.W.q # % 6 z 6 % & a C.J.J.J.J.J.P.",
"J.J.J.J.J.J.J.J.J.J = & [ i.r./ & # h.oXoXoXoXoXoXoXoXoXoXoXoXoXoXoXoXoXoXoXoXoXoXoXoXoXoXoXoX Xp # 4 7.i.5.1 & a C.J.J.J.J.J.J.",
"J.J.J.J.J.J.J.J.J.J = & { q.w.` & # k.+XOXOXOXOXOXOXOXOXOXOXOXOXOXOXOXOXOXOXOXOXOXOXOXOXOXOXOX}.p # 2 3.q.>.1 & a C.J.J.P.J.J.J.",
"J.J.J.J.J.J.J.J.J.H = & 3 5 5 1 & # j.OXOXOXOXOXOXOXOXOXOXOXOXOXOXOXOXOXOXOXOXOXOXOXOXOXOXOXOX}.p # % 4 5 4 = & a C.J.H.J.J.J.J.",
"J.J.J.J.J.J.J.J.J.J = = & & & & = # k.OXOXOXOXOXOXOXOXOXOXOXOXOXOXOXOXOXOXOXOXOXOXOXOXOXOXOXOX}.u # * & & & = = s C.F.J.J.J.J.J.",
"J.J.J.J.J.J.J.J.J.m.X.X.X.X.X.V = # j.OXOXOXOXOXOXOXOXs.P U U U Y U U T [.OXOXOXOXOXOXOXOXOXOX}.p # 8 } X.X.X.X.O.D.J.J.J.J.J.J.",
"J.J.J.J.J.J.J.J.J.P.J.F.J.P.J.F = # k.OXOXOXOXOXOXOXOXI : # # # # # # - _.OXOXOXOXOXOXOXOXOXOX}.p # t V.J.J.J.J.J.J.J.F.J.J.J.J.",
"J.J.J.J.J.J.J.J.J.J.J.J.J.J.J.F = # j.OXOXOXOXOXOXOXOXP # - Z J G 9 # 7 _.OXOXOXOXOXOXOXOXOXOX}.p # t B.J.J.J.J.J.J.J.J.J.J.J.J.",
"J.J.J.J.J.J.J.J.J.J.J.J.J.J.J.S = # k.+XOXOXOXOXOXOXOXP ; - b.J.A.d # 7 ].+XOXOXOXOXOXOXOXOXOX Xu # t V.J.J.J.J.J.J.J.J.J.J.J.J.",
"J.J.J.J.J.J.J.J.J.J.J.J.J.J.J.F = # R (.).).).).).).l.n # - v.J.D.d # - g.).).).(.).).).).).(.k.e # t V.J.P.J.P.J.J.J.J.J.J.J.J.",
"J.J.J.J.J.J.J.J.F.J.J.J.J.J.J.S = # = - - - - - - - - = # - v.J.F.d # = - - = - - % - - - - - - = # t V.J.J.J.J.J.J.J.J.J.J.J.J.",
"J.J.J.J.J.J.J.J.J.J.J.J.J.J.J.G t t t t t - # # $ # = # = = v.J.D.d = # # # # # $ # # # = 8 t t t t d V.J.J.F.P.J.J.J.J.J.J.J.J.",
"J.J.J.J.J.J.J.J.J.J.J.J.J.J.J.V.B.B.V.V.B.V = = = = = = = - v.F.D.d = = = = = = = = = = 7 b.B.B.B.B.V.J.J.J.J.F.J.J.J.J.J.J.J.J.",
"J.J.J.J.J.J.J.J.J.J.J.J.J.J.J.J.J.J.J.F.D.Z = = = = = = = - v.J.D.d = = = = = = = = & = y M.D.P.J.J.J.J.J.J.J.J.J.J.J.J.J.J.J.J.",
"J.J.J.J.J.J.J.J.J.J.J.J.J.J.J.J.J.J.L h h 8 = = = = = = = - v.J.D.d = = = = # = = = $ = - s h Z V.J.J.J.J.J.J.J.J.J.J.J.J.J.J.J.",
"J.J.J.J.J.J.J.J.J.J.J.J.J.P.J.J.J.J.A = = = = = = = = = = - b.J.D.d = $ = = = = = = = = = = = 9 B.J.H.J.P.J.J.J.J.J.J.J.J.J.J.J."
};
