/* XPM */
static char *frisk_walking_right_64_floor_11757298843[] = {
/* columns rows colors chars-per-pixel */
"64 64 256 2 ",
"   c #0D0400",
".  c #120800",
"X  c #1D1B00",
"o  c #381F19",
"O  c #301A0D",
"+  c #3C2C03",
"@  c #3C2B0C",
"#  c #372508",
"$  c #3D3101",
"%  c #3B2B13",
"&  c #36241C",
"*  c #3B251D",
"=  c #3B291D",
"-  c #352718",
";  c #343219",
":  c #3B1E25",
">  c #3A1C29",
",  c #381630",
"<  c #1B3133",
"1  c #2D2D2B",
"2  c #362422",
"3  c #3C2624",
"4  c #3C2923",
"5  c #35232B",
"6  c #3D252A",
"7  c #3D2A2A",
"8  c #352929",
"9  c #2B3329",
"0  c #2C2B37",
"q  c #3C2333",
"w  c #372637",
"e  c #313432",
"r  c #422C06",
"t  c #443301",
"y  c #463B00",
"u  c #4A3C02",
"i  c #493908",
"p  c #432B17",
"a  c #463416",
"s  c #543708",
"d  c #431D2C",
"f  c #451C28",
"g  c #491D37",
"h  c #511E3D",
"j  c #422425",
"k  c #412A25",
"l  c #42242B",
"z  c #422A2B",
"x  c #4B2727",
"c  c #463325",
"v  c #432432",
"b  c #4C2435",
"n  c #45233A",
"m  c #4C243C",
"M  c #4A2A37",
"N  c #52273B",
"B  c #5A313E",
"V  c #512928",
"C  c #512B24",
"Z  c #3B4127",
"A  c #4B4403",
"S  c #5D5603",
"D  c #564C0B",
"F  c #675D05",
"G  c #645A17",
"H  c #756719",
"J  c #756E09",
"K  c #544B2B",
"L  c #796A25",
"P  c #756D2F",
"I  c #6A5A26",
"U  c #3E1C4B",
"Y  c #1B3859",
"T  c #1C3946",
"R  c #293848",
"E  c #362955",
"W  c #2B3954",
"Q  c #363857",
"!  c #333147",
"~  c #383A73",
"^  c #4A1C44",
"/  c #541C49",
"(  c #4D1B55",
")  c #4A2544",
"_  c #522442",
"`  c #582849",
"'  c #5B3446",
"]  c #5D2952",
"[  c #4C2F53",
"{  c #6C3B5C",
"}  c #693C53",
"|  c #683652",
" . c #50336F",
".. c #6A3A65",
"X. c #753866",
"o. c #384A4F",
"O. c #1E5A7C",
"+. c #2E4F68",
"@. c #2D6271",
"#. c #514952",
"$. c #6D425B",
"%. c #4A476F",
"&. c #764A66",
"*. c #7A526A",
"=. c #7C4974",
"-. c #664A6E",
";. c #5F7460",
":. c #817B0C",
">. c #837236",
",. c #864A7B",
"<. c #8C567C",
"1. c #865675",
"2. c #945C7B",
"3. c #824D6F",
"4. c #926A73",
"5. c #84575E",
"6. c #7F8100",
"7. c #979316",
"8. c #B2B018",
"9. c #958D2E",
"0. c #A89E31",
"q. c #B5B62A",
"w. c #B4AD33",
"e. c #C1BC32",
"r. c #BEC128",
"t. c #CDC932",
"y. c #FBFE2D",
"u. c #F5FD2A",
"i. c #F5FC34",
"p. c #FBFE34",
"a. c #F5FC3C",
"s. c #FBFE3B",
"d. c #F4F63C",
"f. c #E6E836",
"g. c #C2C91B",
"h. c #A49449",
"j. c #ADAA4D",
"k. c #A3A064",
"l. c #C7B84B",
"z. c #C4BF65",
"x. c #CCC34B",
"c. c #F5FB44",
"v. c #FBFE43",
"b. c #F6FB4C",
"n. c #FBFC4B",
"m. c #F5F448",
"M. c #ECEA5C",
"N. c #F3EE57",
"B. c #FCFB51",
"V. c #F8F859",
"C. c #ECF14C",
"Z. c #ECE867",
"A. c #FAF765",
"S. c #ECE776",
"D. c #F3EA76",
"F. c #F8F675",
"G. c #EEEF66",
"H. c #E3E04E",
"J. c #69338B",
"K. c #2D668D",
"L. c #2B6394",
"P. c #52488C",
"I. c #4F7F92",
"U. c #706B9C",
"Y. c #4D7EA9",
"T. c #6F70A9",
"R. c #7744A4",
"E. c #777CCF",
"W. c #717DEA",
"Q. c #7555C0",
"!. c #942EB4",
"~. c #8A3F82",
"^. c #924C89",
"/. c #8E5682",
"(. c #8E5B83",
"). c #8E5589",
"_. c #945F83",
"`. c #965D8C",
"'. c #9B5C8C",
"]. c #98588A",
"[. c #9C5C93",
"{. c #9D5C9B",
"}. c #9A5795",
"|. c #8C4889",
" X c #A35C95",
".X c #A4559D",
"XX c #A9559D",
"oX c #A45C9C",
"OX c #AA5A9D",
"+X c #A75895",
"@X c #A75596",
"#X c #9B638C",
"$X c #956389",
"%X c #9C6194",
"&X c #9A6598",
"*X c #8A6792",
"=X c #A2629A",
"-X c #A46296",
";X c #A3648F",
":X c #9E59A5",
">X c #8D4FB2",
",X c #A555A4",
"<X c #AB56A4",
"1X c #A65AA3",
"2X c #A958A4",
"3X c #A455A9",
"4X c #AB56AA",
"5X c #A55AAA",
"6X c #AB5AAA",
"7X c #B155A5",
"8X c #B15BAB",
"9X c #B158A8",
"0X c #A959B1",
"qX c #B257B1",
"wX c #A74DA5",
"eX c #8D66AD",
"rX c #A761A5",
"tX c #AC62B6",
"yX c #983FE6",
"uX c #9934D3",
"iX c #9344DA",
"pX c #8C49D0",
"aX c #9949E5",
"sX c #984AED",
"dX c #A04AE9",
"fX c #3F87B7",
"gX c #568AAB",
"hX c #4B86B9",
"jX c #5489B7",
"kX c #6997BB",
"lX c #3890C9",
"zX c #3CACF7",
"xX c #3CAFEF",
"cX c #498BC2",
"vX c #528CC4",
"bX c #4994C8",
"nX c #5393CA",
"mX c #569DD8",
"MX c #4891D8",
"NX c #6793D2",
"BX c #56A5DA",
"VX c #50A6D3",
"CX c #509DFB",
"ZX c #6997E6",
"AX c #7486F8",
"SX c #6F90F1",
"DX c #46AAE9",
"FX c #55A5E8",
"GX c #47AAF7",
"HX c #59A4F7",
"JX c #4DB2ED",
"KX c #64A1DE",
"LX c #E4DF81",
"PX c #ECE482",
"IX c #818FF0",
"UX c #8889D2",
/* pixels */
"1X:X1X1X2X<XXX2X2X2X5X1X4XqXwX8X<X2X2X2X2X2X2X2X2X1X2X2X2X2X2X1X4X4X1XOX+X+XoX6X4X4X6XXX<X9X<XqX7X7X7X7X,X4X,X1X XoX XOX6X,X6X<X",
"1X1X1X2XOX2X2X2X2X1X,X:X1X3X<X8X1XoXOXoXoXoXoX=XOXoXoXOXOX=XOXoX1X1XOXoX X-XoX2X1X,XoX+XoX.X5X3X,X<XXXXX,X3X0X6XOXoXoX2X1X6X4X4X",
"5X2X2X2X1X2X2X2X2X2X2X1X1X1X.X}._./././././.<./.(././././././.<./././.)./.)././.<.<.2.2._.^.rXrXrX1XOX5X5X3X4X:X1X,X6X<X,X<X2X2X",
"<X2X2X2X1XOXOX1X,X<X1X1X{. X-X#X_ m m m m m m m m m m m m m m b M b ) ) _ ) m m N b b d b ` /.&X&X[.{.&X5X5X6X5X2X,X6X6X4X2XXXOX",
"4X4X<X2X1X1X1X1X2X1XOX1X-X=.=.&.v 6 6 6 6 6 6 l 7 6 l 6 6 6 6 6 p * l q l j k 6 l q l 6 l l &.*.*.*.=.=.=.rXoXOX8X<X<X<X<X2XXX+X",
"7X7X2X2X1X1X=X:XOX1X X-X#X_ g 6 l 7 4 7 3 7 3 4 2 3 3 8 3 3 3 = 2 * 3 6 6 2 * * 3 6 l l k o z : > v n g ` #X'. X'.oX2X2X<X,XOX+X",
"<X7X2X2X5X1X1X1X X[.X.{ { d 6 6 4 k 4 4 3 3 4 4 7 4 4 4 4 4 k 6 7 6 4 k 6 4 4 4 k 3 3 * * p * k j l 6 f , $.| { X.+X XoX2X,XOXOX",
"<X<X2X<X5X5X:XoX%X%Xh d d v 6 6 2 3 6 4 6 3 6 4 3 2 j 6 6 2 3 6 7 6 3 2 4 6 3 6 & * k 3 3 6 3 z 7 2 * z j l d h N 2.;X-X2X,X8XXX",
"oXOX6X2X3X3X:X).<.&.N j j 3 6 6 6 4 j 4 j 6 j 6 j 3 6 k k 3 k 6 6 q 7 o k 3 & k 3 3 l 3 > M > v q 7 3 * k 3 > M b *.1.,.1X0X4X6X",
"OX.X.X2X8X1X}./ h v 3 4 3 * k 6 j 4 j 6 j 4 4 j 6 3 j 3 j 3 6 6 6 7 6 7 k = p 6 * * 3 6 7 7 w q v j 6 k p 8 5 7 6 j f h {.0X4X3X",
"-XoX1XrX,X}.%X/ d 6 4 4 4 2 j 6 3 * k 2 6 4 3 * 3 * k 3 3 3 6 = 2 4 2 7 4 = k = 4 = * z 7 5 z 7 * * * 3 = & 7 8 * k V h }.1X3X6X",
"{.OXoXoXOX%X#XN v 4 * = = 4 j 6 6 = 3 4 = 4 3 4 4 3 4 4 * 2 = 4 4 4 2 3 3 - - p + $ + # 8 2 % $ r a - = ; 4 7 2 4 & p g %XrX2X2X",
"rX1XoX,./.<.&.v 6 & & & 4 7 j 4 4 = 3 4 4 4 4 4 = 4 = 4 4 4 4 2 2 2 8 3 k 4 x K 9.0.9.A a a D 9.9.h.K p = = = 4 z j j b '.[.+X2X",
"1X{.}.` h b j z 4 4 z 6 4 j * 6 8 4 4 4 4 2 4 4 6 4 8 4 4 4 4 4 z 4 4 4 # p r G Z.F.D.F @ p F Z.A.D.P % = = - j d N N ] [.rXoX@X",
"6X1X[./ d l * = = 2 z 3 6 6 3 4 6 4 3 3 4 6 6 4 4 4 3 6 4 6 4 j 4 3 j p t h.0.e.C.b.G.F r a J M.b.N.I p k k 3 j g $X%X).{.,X<X<X",
"4X1X[.h j 4 4 4 4 3 l 6 6 7 * 3 4 6 6 6 7 3 3 * k 3 3 6 6 6 6 k 3 k : p u D.A.m.s.s.N.F + r J H.i.m.J + # @ * v ^ %X&X1X6X6X6X<X",
"4XOX_.m 6 = 2 k 4 l 6 6 7 8 7 3 6 j 6 7 > 8 = % p o x f o 7 2 4 2 z 6 r u Z.B.s.y.d.V.8.7.7.8.c.p.i.8.7.9.G c 3 n $X[.OX2X2X,X2X",
"<X1X`.m 6 4 3 6 6 l 6 4 3 8 4 3 z * : 7 7 z # $ r r # r @ # = * 4 k 3 # u D.n.y.p.s.B.m.c.c.d.c.p.s.b.A.Z.j.@ z N '.OX,XOX,X6X<X",
"4X2X`.n l 8 4 4 j j j 3 = 4 6 3 * k l 7 2 = $ 9.9.9.7.9.9.>.t * & 2 6 p u Z.n.p.p.v.c.v.i.s.c.i.a.v.a.b.V.w.r f h ].3X6X2X2X<X2X",
"4X1X#X) 6 8 3 4 6 j 3 * 3 = * k p j l 2 & % A LXD.A.A.V.N.M.A t a @ 3 r y M.v.s.v.d.v.c.n.C.V.A.A.V.c.b.N.0.s f ` {.:X4X2X2X6X6X",
"2X1X`.m 6 4 4 4 3 * k k p 3 3 k 3 j 3 6 7 @ $ S.V.B.m.n.v.n.e.j.h.G % # u G.v.i.v.n.V.6.F S S G S F t.a.V.0.r C f '.}.1X.X1X6X6X",
"1XoX`.m 6 6 = 4 4 * 3 * 6 * k j k k 2 & = @ A LXZ.N.m.p.s.p.s.V.F.9.a # u G.a.p.s.n.C.y . . . . . X 8.c.m.8.s s B 4.;X X X2X4X3X",
"OXoX'.b l 4 = 2 4 4 3 4 6 2 6 6 3 * 3 4 4 % # L H :.t.d.p.y.s.c.V.J @ # u Z.v.p.i.i.a.g.r.q.q.q.q.q.f.a.v.f.t.l.l.>.5.=.[.1X,X6X",
"+X X'.h l 6 4 = 4 = 4 6 4 6 4 6 3 2 7 7 & k - % # t 0.A.m.c.s.v.V.J y t A M.c.i.y.p.p.c.c.b.n.c.b.b.a.a.s.s.s.V.D.r p N [.5X,X4X",
"OX X;Xh d l 6 4 4 2 8 3 4 2 4 4 2 7 4 = M 2 2 8 = r I >.>.7.b.c.m.t.w.w.8.m.s.s.s.s.s.s.s.s.a.a.a.i.c.i.u.a.c.V.D.t p N ].rX,X<X",
"OXOX@X/ g b b j 4 3 z 6 6 2 4 8 2 & 4 & 7 6 7 6 & c O % @ y Z.A.A.A.B.n.s.s.s.v.s.s.s.s.p.i.p.i.i.v.C.V.V.C.G.F.LXs # g %X1X.X2X",
"6X2X2X^.).<.*.v 3 : j f l l 4 = k * 4 8 3 > v 3 k - c - = a I H J t.n.p.s.p.v.s.v.s.s.s.p.y.p.s.a.C.6.A A A A A K & b b `.oX<X8X",
",X<X<X.XOX%X#Xm d ' N b B : 3 3 - - l z 6 l 6 6 * * 4 2 k 3 l @ u w.m.p.p.y.s.s.s.p.s.p.y.y.y.p.v.C.S             d ` ] [.=X2XwX",
"2XtX4X<X1X.X-X^ _ (.$X2.2.m f x * j v l f p 6 l z 7 8 4 % # = @ t w.n.p.u.y.y.y.p.p.s.s.p.p.p.s.i.s.8.7.9.G # O > (.[.}.oXOX5X6X",
"1XOX,X<X6X1X}./ / `.[.-X'.` g l l z > n g l l 3 7 o 7 7 * % r r u w.d.s.p.c.n.m.m.V.V.V.V.V.V.N.V.A.A.F.S.j.a b ^ =X5X2XOXOX3X3X",
"[.oX6X8X<X2X1X^.^.rXoX.XOX|.,.3.x f N *.3.=.*.M l 3 3 3 3 a j.e.e.H.v.n.N.:.H >.L L H H >.H >.H >.H L >.>.4.*.|.|.@XwX7XOX+X,XtX",
"=X.X2X<X<X<X1XOXOX.X2X<X2X1XoX#X` b ` '.%X&X&X` m N v z 7 i A.n.v.s.s.m.S.u # p x V C C C f V f C x x V x $X%XrXOX2X9X7X+XOX6X:X",
"2X1X2X2X<X2X2X1X1X2X2X2X,XOX1XoX}.'.@X2XrX:XrX}.].].1.n n i N.s.s.p.s.n.S.$ V <.).'.2.2.#X'.}.'.'.].].].'.'.1X5X6X4X<X<XOXOX1X1X",
"2X2X2X2X2X2X2X2X2X2X2X2X2X2X2X1X.X6X<X<X}.:X0X5X7X X;X_ : D Z.F.V.B.V.F.S.A x %X6X2X+X+X=XoX,X4X4X,XOX+X.XOX2X6X4X4X<X2XOX2X1X5X",
"2X2X,X2X2X<X,X2X2X2X,X2X2X<X2X2X2X2X1X2X5XtX3X5XoX=X[.g 3 % P 6.L >.L P >.r x #X+X@XOX+X.XrX6X4X6X2XoXOXoXOX1X4X4X6X,X2X2X1X1X5X",
"2X2X2X2X2X2X2X2X2X2X2X2X2X2X2X2XOXOX.X1X3X3XrXoX&X&X#X_ z - e < 9 9 @ # % = M 1.;X+X+XOX}.=X6XqX4X1X2XOXOX1X4X4X4X4X2X2XOX<X1X1X",
"2X2X2X2X2X2X<X2X2X2X,X2X2X2X2X2X9XOXXX7X4X,X-X3.3.&.$.N : ! gXhXgX+.e 2 2 1 5 ) ' [ ` #X%X XXX7X4X<X2X2X2X1X6X1X<X<X1XOX2X2X2X2X",
",X2X2X2X<X1X1X<X2X2X<X2X2X,X2X2XOXXXXX6X1X{._.[ ! [ n w 5 W BXJXBXK.Y W R o.W W W Q [ *X&X-XOX<X<X4X2X2X2X2X1X,X5X2X2X2XOX2X<X4X",
"2X,X2X2X<X2X2X2X2X2X2X2X2X2X1X<X4X0XrX{...-.-.T.T.jX+.w e T VXzXxXlXbXnXcXvXnXvXnXvXY.P.#.$./.[.1X1X2X2X2X2X1X1X1X1X1XOX2X2X<X<X",
"2X2X2X2X1X<X2X2X<X,X2X2X2X2X<X<X4X0X5X).) w Q UXSXZX%.! 1 T DXzXxXJXBXKXKXZXSXAXAXSXIX~ ! q &.=XOX1X2X2X2X2X2X2X1X1X1XOX2X2X2X4X",
"2X2X2X2X<X2X2X<X<X2X2X1X<X2X2X2X2X6XqX{.h n ( >XaXpX%.w 7 R mXFXFXL.@.+. .pXaXsXsXdXpX .U q *.&X-X1XoX1X2X6X2X2X1X1X1X2X2X2X2X<X",
"2X2X2X2X,X2X<X1X1X<X2X<X1X2X2X2X2X2X<X Xm v ( pXaXaX .n 8 R mXGXFXK.R , ( |.>XuXyXyXpXJ.Q ! -.*X%X X1X1X2X<X2X<X1XOX1X1X2X2X<X<X",
"2X2X2X2X<X1X2X2X2X2X2X2X<X<X2X1X1XoXOX'.l w E E.AXSX+.! 8 R mXGXVXO.e 7 d ` [ P.W.SXZXY.hXgXT.-.-.X.{.OX2X<X<X<X1XOX1X1X2X<X<X7X",
"2X2X,X<X2X<X2X2X2X2X2X,X<X1X2X2X2XoX X$Xl 5 Q UXSXsXP.( ( Q NXBXkX@.8 r t a a o.kXZXSXCXHXZXT.U ^ / }.oX2X4X<X2X2X1X1X1X2X<X<X<X",
"2X<X2X2X2X<X1X<X<X1X<X2X2X<X2X2X9X2XoX`.m n ( >XiXsXuX!.!.J. .o.o.k.z.x.x.x.x.k.#.o.P.Q.iXpX>X/ g h [. X2X<X<X<X2X2X1X1X1X4X2X2X",
"2X1X<X2X1X<X2X2X2X2X2X2X2X2X2X<X7X<X1X[.m n U >XpXyXaXyXiX>X( 3 ; j.A.B.n.n.V.l.i 5 U Q.iXpXR.( g m #X&X<X,X4X<X<X<X3X6X2X1X2XXX",
"1X<X1X<X1X2X2X<X<X2X1X2X2X2X2X2X<X2X0X{.g w W NXAXW.AXAXSXE.E - y j.b.a.s.b.B.x.A 8 E T.AXAXY.E 5 v _.&X1X<X7X<X2X2X,X5X1X2X2XOX",
"<X2X<X2X<X2X<X1X1X<X<X<X2X2X2X<X7X<X3X}.w 0 W vXHXCXCXGXHXMXY 0 ; j.F.b.V.V.G.z.e < Y cXCXHXY.R w N _. X2X2X<X<X<X<X6X,X5X2X2XOX",
"1X2X2X<X2X2X<X2X2X2X,X2X2X2X2X4XqXqX,X'.m 0 T NXFXGXzXzXGXDXlXY.gX;.P H H L P ;.I.fXfXxXFXFXgXR w m _.=XoXOX2X<X<X<X<X2X1X1X1X2X",
"<X2X<X1X2X2X1X<X2X2X2X<X2X2X2X6XqX4XOX'.m 0 o.gXmXMXGXGXzXxXGXJXbXO.T 9 9 1 R +.VXDXxXxXFXNXY.Q ) ] `.=XoX.X<X9X<X<X2X2X2X2X1X1X",
"1X2X2X2X2X2X2X2X6X<X2X1X<X2X<X2X2X,X-X#Xd 5 e o.+.O.lXJXJXGXxXxXDXbXhXhXgXY.jXbXFXDXVXL.+.~ *X`. X^.1X2XXX2X2X2X2X2X2X2X<X<X<X4X",
"<X<X<X1X2X,X2X<X<X1X2X<X1X2X2X1X X[.%X#XN l 8 1 < T I.jXnXnXbXbXnXVXZXZXZXNXvXbXjXjXgX+.0 U [. X2X2XXX2X2X8X8X<XOX2XOX1X<X<X<X4X",
"2X2X2X2X<X1X<X1X2X2X2X2X<X2X,X X{ } ' } f f 3 2 2 1 R Q o.W W W [ U.eXeXeXU.Q ! o.R o.1 w ) &X:X XOX2X9X@X2X,X,X2X1X1X1X<X<X<X9X",
"<X2X<X1X2X<X2X2X2X2X2X2X2X2X2X{.m 6 3 l * f j z : 2 8 2 5 w $.$...rX5XeX{.%XN 6 8 8 - - 6 m (.%X%X-X'.}.~.1X1X2X1X1X2X2X2X2X<X<X",
"1X2X1X2X2X<X<X2X2X2X2X2X2X2X2X.X_ v l x j j 3 6 8 8 8 8 v _ #XoX2X2X{.<X7X Xg o * - ; ; z l B B ' ` ` ` / }.1X2X1X<X2X2X2X1X2XOX",
"<X2X<X<X2X1X1X<X2X,X2X2X2X2X1X{.] ` ' N v x 6 7 8 5 2 z d h &X[.OXXX9X2X@X+X| ' j - 1 & 6 > p x j v ' ] ] 1X2X1X4X2X2X2X1XOXOXOX",
"2X<X<X1X<X2X2X2X2X2X2X2X2X2X2X,X.X=X#X_.m v j j j p k j d m | { X.+XOXOX7XXXoX].b z q w q q l j l v 2.#X%XoX1X1X4X5X2X2X1XOXOXoX",
"2X1X<X2X1X<X1X<X2X2X2X2X2X,X2X2X2X6X1X[.X.{ | } | } | { { ..{ X.X.'. XXX2XOX8X1XX.{ ........{ } $.$.$X#X[.1X1X1X4X1X<X2X2X2X2X1X",
"2X2X<X2X<X2X<X1X2X2X<X2X2X2X2X2X<X<X2X6X}. X X;X;X XOX1X1X.X X X XrX<X<X1X.X<X,X X=X1X1X:X:X=X X X}.1X2X2X2X<X2X1X1X1X1X<X<X2X<X",
"1X<X1X<X2X2X2X2X2X2X,X2X2X2X2X2X<X<X<X4X6X6X1X1X2X2X3X1X2X2X2X1X2X2X2X2X1X1X6X2X1X1X<X4X1X1X6X,X9X8X4X9X<X<X6X<X1X1X1X2X2X<X7X<X",
"<X1X<X<X<X2X<X2X2X<X,X<X2X2X2X<X6X6X4X,X<X,X,XoX1X:X:XrX1XOXoXXX,X5X5X1X:X1XrX2X6X4X7X7X7XOX2X2X<XqXwXqX7X4X4X<X1X1XOX1X2X4X4X4X",
"2X2X<X1X1X2X1X<X1X2X2X2X2X2X,X<X2X<X<X<X6X6X1X6X1X1X1X&XOXoXXX2X6X5X6X2X.X X1X,X<X7X7X7XOXOX2X5X<XqX7X7X9X<X,X<XOX1X1X1X1X<X<X4X",
"2X<X2X2X<X2X2X2X<X2X2X2X2X2X<X2X2X1X1X1X,X,X,X2X7X7X2X<X2X2X1X6X2X<X<X<XOX2X6X5X2XOX1X1XOXOX:X5X:XoX2X2X1X<X<X<X2X<X2X2X2X1X1X2X",
"2X1X<X2X1X<X2X<X1X<X2X2X2X2X1X2XOXoXoX1X1X6X6X<X7X7X7X7X<X6X5X,X7X<X<XXXOX2X:X0XoXOX1XoX XoX0X5X&X[.oXoX2X<X<X<X2X<X<X5X1X1X1X1X"
};
