/* XPM */
static char *enemies_standing_64_floor1757276468[] = {
/* columns rows colors chars-per-pixel */
"64 64 218 2 ",
"   c #020202",
".  c #04060A",
"X  c #030A0D",
"o  c #0C0B0C",
"O  c #090608",
"+  c #13100E",
"@  c #050713",
"#  c #050B15",
"$  c #050C1B",
"%  c #0A0B19",
"&  c #140D14",
"*  c #061318",
"=  c #151414",
"-  c #1C1C1C",
";  c #19141A",
":  c #090E22",
">  c #091225",
",  c #0B162C",
"<  c #0A192D",
"1  c #061526",
"2  c #141825",
"3  c #0A1A34",
"4  c #0C1D3D",
"5  c #171F32",
"6  c #281727",
"7  c #012726",
"8  c #15212F",
"9  c #222222",
"0  c #2D2C2C",
"q  c #292828",
"w  c #30302E",
"e  c #323232",
"r  c #3B3B3B",
"t  c #343438",
"y  c #2F2C39",
"u  c #40223E",
"i  c #101F40",
"p  c #0B1F42",
"a  c #0E2549",
"s  c #14284E",
"d  c #102A53",
"f  c #122D5B",
"g  c #362A4D",
"h  c #163769",
"j  c #163A72",
"k  c #193E7D",
"l  c #233874",
"z  c #2E3C71",
"x  c #452643",
"c  c #483947",
"v  c #4E2F57",
"b  c #4F3566",
"n  c #493D74",
"m  c #513A6E",
"M  c #723D6E",
"N  c #753E73",
"B  c #663A6B",
"V  c #014D4C",
"C  c #3E4146",
"Z  c #36407E",
"A  c #017573",
"S  c #046261",
"D  c #444444",
"F  c #4C4C4C",
"G  c #454848",
"H  c #54524F",
"J  c #535353",
"K  c #5B5B5C",
"L  c #575759",
"P  c #64635F",
"I  c #5F5C60",
"U  c #514177",
"Y  c #7D427B",
"T  c #7C4177",
"R  c #7A5678",
"E  c #654B68",
"W  c #636363",
"Q  c #6C6C6C",
"!  c #66656B",
"~  c #717171",
"^  c #7B7B7B",
"/  c #767877",
"(  c #80477D",
")  c #1D438C",
"_  c #1C498D",
"`  c #1A4382",
"'  c #1F4C94",
"]  c #1F4D9A",
"[  c #1D4791",
"{  c #224B98",
"}  c #24509D",
"|  c #314A90",
" . c #2453A3",
".. c #2656AC",
"X. c #245AAC",
"o. c #2E53AB",
"O. c #265BB4",
"+. c #275EBA",
"@. c #285DBA",
"#. c #295CB7",
"$. c #3054A9",
"%. c #2A61BD",
"&. c #2960BA",
"*. c #3262BE",
"=. c #584A89",
"-. c #494A8B",
";. c #6C4684",
":. c #6C4889",
">. c #6B4A87",
",. c #774D91",
"<. c #5757A6",
"1. c #485DB6",
"2. c #295EC2",
"3. c #2A64C4",
"4. c #2B65CB",
"5. c #2B69CB",
"6. c #2968C6",
"7. c #3362C5",
"8. c #3464CA",
"9. c #3468CC",
"0. c #3863C2",
"q. c #2D66D1",
"w. c #2D6BD4",
"e. c #2E6DDA",
"r. c #306EDC",
"t. c #2F71DD",
"y. c #2C70D5",
"u. c #3171DD",
"i. c #2B70CF",
"p. c #316FE1",
"a. c #2F72E1",
"s. c #3173E3",
"d. c #3373EA",
"f. c #3379EA",
"g. c #3577F1",
"h. c #4C66C8",
"j. c #834C83",
"k. c #8A4F87",
"l. c #855483",
"z. c #895786",
"x. c #8D528A",
"c. c #8F5B8C",
"v. c #91558D",
"b. c #954F93",
"n. c #865298",
"m. c #955393",
"M. c #9B5596",
"N. c #9B549C",
"B. c #9E5D9B",
"V. c #985897",
"C. c #8B4E90",
"Z. c #A1559E",
"A. c #A2599E",
"S. c #8E6A8B",
"D. c #856283",
"F. c #91688E",
"G. c #8E728C",
"H. c #8D788B",
"J. c #91738F",
"K. c #9D629B",
"L. c #996F97",
"P. c #937793",
"I. c #A1639F",
"U. c #9C57A2",
"Y. c #9658A5",
"T. c #9B58A3",
"R. c #9355A0",
"E. c #A857A3",
"W. c #A759A3",
"Q. c #A958A4",
"!. c #A256A0",
"~. c #A464A1",
"^. c #AA62A6",
"/. c #A56AA1",
"(. c #AD65A9",
"). c #AC6DA9",
"_. c #AA6BA7",
"`. c #B269AD",
"'. c #AE71AC",
"]. c #A979A6",
"[. c #018985",
"{. c #00D3D5",
"}. c #01FFFF",
"|. c #8C8C8C",
" X c #838383",
".X c #9D9C9D",
"XX c #919191",
"oX c #9F899E",
"OX c #A998A7",
"+X c #B79BB6",
"@X c #AA8FA8",
"#X c #A5A5A4",
"$X c #ACACAC",
"%X c #AAA1A8",
"&X c #B5AAB3",
"*X c #B5B5B5",
"=X c #BBBBBB",
"-X c #C2BDC1",
";X c #CECECE",
":X c #C8C3C8",
">X c #D1CBCF",
",X c #CFCFD1",
"<X c #D2CAD2",
"1X c #D3D3D3",
"2X c #DCD5DC",
"3X c #DCDCDC",
"4X c #D7D5D8",
"5X c #E1D8DE",
"6X c #E5D9E4",
"7X c #E4E4E4",
"8X c #E7E5E8",
"9X c #E9E6EA",
"0X c #EBEBEB",
"qX c #E8E3E7",
"wX c #F4EDF3",
"eX c #F4F4F4",
"rX c #FEFEFE",
"tX c #F9F9F7",
/* pixels */
"Q.Q.Q.Q.Q.E.Q.Q.Q.Q.Q.E.Q.Q.Q.Q.Q.Q.Q.Q.Q.Q.Q.Q.Q.Q.Q.Q.Q.Q.Q.Q.Q.Q.Q.Q.Q.Q.Q.Q.Q.Q.Q.Q.Q.Q.Q.Q.Q.W.Q.Q.Q.Q.Q.Q.Q.Q.Q.Q.Q.Q.Q.Q.",
"Q.Q.Q.Q.Q.Q.Q.Q.Q.Q.Q.Q.Q.E.Q.Q.Q.Q.E.Q.Q.Q.W.W.Q.Q.Q.Q.Q.Q.Q.Q.Q.Q.Q.Q.Q.Q.Q.Q.Q.E.Q.Q.Q.W.Q.W.E.E.Q.Q.Q.Q.Q.Q.Q.Q.Q.Q.Q.Q.Q.Q.",
"Q.Q.Q.Q.Q.Q.Q.Q.Q.Q.Q.Q.Q.Q.Q.Q.Q.Q.E.W.V.z.z.z.l.l.l.l.l.l.l.l.l.l.l.l.l.l.l.l.l.l.l.z.B.E.Q.Q.Q.Q.Q.Q.Q.Q.Q.Q.Q.Q.Q.Q.Q.Q.Q.Q.",
"Q.Q.Q.Q.Q.Q.Q.Q.Q.Q.Q.Q.Q.Q.Q.Q.E.E.W._.-X4X1X1X1X1X;X;X;X;X;X1X;X;X,X;X;X1X;X;X;X;X1X;XoXE.Q.Q.Q.Q.Q.Q.Q.Q.Q.Q.Q.Q.Q.Q.Q.Q.Q.Q.",
"Q.Q.Q.Q.Q.Q.Q.Q.Q.Q.Q.Q.Q.Q.A.I.~.K.~.].4XrXrXrXrXrXrXrXrXrXrXrXrXrXrXrXrXrXrXrXrXrXrXrX&XK.I.I.~.A.A.Q.W.Q.Q.Q.Q.Q.Q.Q.Q.Q.Q.Q.",
"E.Q.Q.Q.Q.Q.Q.Q.Q.Q.Q.Q.Q.Q.oX1X4X3X3X3XeXrXrXrXrXrXrXrXrXrXrXrXrXrXrXrXrXrXrXrXrXrXrXrX0X1X3X3X3X=XI.W.Q.Q.Q.Q.Q.Q.Q.Q.Q.Q.Q.Q.",
"Q.Q.Q.Q.Q.E.Q.Q.Q.Q.Q.Q.E.Q.+XtXrXrXrXrXrXrXrXrXrXrXrXrXrXrXrXrXrXrXrXrXrXrXrXrXrXrXrXrXrXrXrXrXrX3XI.W.Q.Q.Q.Q.Q.Q.Q.Q.Q.Q.Q.Q.",
"Q.Q.Q.Q.Q.Q.Q.Q.Q.Q.Q.Q.Q.Q.+XtXrXrXrXrXrXrXrXrXrXrXrXrXrXrXrXrXrXrXrXrXrXrXrXrXrXrXrXrXrXrXrXrXrX3X/.W.Q.Q.Q.Q.Q.Q.Q.Q.Q.Q.Q.Q.",
"Q.Q.Q.Q.Q.Q.Q.Q.Q.Q.E.Q.B.K.%XtXrXtXrXrXrXrXrXrXrXrXrXrXrXrXrXrXrXrXrXrXrXrXrXrXrXrXrXrXrXrXrXrXrX3XL.V.A.Q.Q.Q.Q.Q.Q.Q.Q.Q.Q.Q.",
"Q.Q.Q.Q.Q.Q.Q.Q.E.E.E.F.:X,XqXtXrXrXrXtXtXtXtXrXrXrXrXrXrXrXrXrXrXrXrXrXrXrXrXrXrXtXrXtXtXrXrXrXtXeX3X1X%Xm.Q.Q.E.Q.Q.Q.Q.Q.E.Q.",
"Q.Q.Q.Q.Q.Q.Q.Q.Q.Q.Q.J.0XrXrXtXtX8X7X7X7X7X7X7X3X0XrXrXrXrXrXrXrXrXrXrXrXrXrX7X7X7X7X7X7X7X7XeXtXtXrXrX=Xl.Q.Q.Q.Q.Q.Q.Q.Q.Q.Q.",
"Q.Q.Q.Q.Q.Q.Q.Q.Q.Q.Q.J.wXtXrXrXeX~ q 0 q 0 q 0 0 .XrXrXrXrXrXrXrXrXrXrXrXrX7XF 0 0 q q q q e *XrXrXrXrX*Xk.Q.Q.Q.Q.Q.Q.Q.Q.Q.Q.",
"Q.Q.Q.Q.Q.Q.Q.Q.Q.Q.Q.J.0XrXrXrXeXJ               |.rXrXrXrXrXrXrXrXrXrXrXrX7Xe     7 V V 7   #XrXrXrXrX*Xk.Q.Q.Q.Q.Q.Q.Q.Q.Q.Q.",
"Q.Q.Q.Q.Q.Q.Q.Q.Q.Q.Q.J.wXtXrXrX0XH               |.rXrXrXrXrXrXrXrXrXrXrXrX7Xe     [.}.}.A   #XrXrXrXrX*Xk.Q.Q.Q.Q.Q.Q.Q.Q.Q.Q.",
"Q.Q.Q.Q.Q.Q.Q.Q.Q.Q.W.J.0XrXrXtXeXJ               |.rXrXrXrXtX7X7X0XrXrXrXrX7Xe     A {.{.S   #XrXrXrXrX*Xk.Q.Q.Q.Q.Q.Q.Q.Q.Q.Q.",
"Q.Q.Q.Q.Q.Q.Q.Q.Q.Q.W.G.0XtXrXrX0XL                XrXtXtXtX1XD 0 ^ eXrXrXrX3Xr     . * * X o #XrXrXrXrX*Xx.Q.E.E.Q.Q.Q.Q.Q.E.Q.",
"Q.Q.Q.Q.Q.Q.Q.Q.Q.Q.Q.S.4XqXwXrXwX! - 9 - 9 - - - XXrXrX8X7X*X9   I 1X7XeXrX7XG - 9 - - - 9 q $XeXeX9XqX%Xv.E.W.Q.Q.Q.Q.Q.Q.E.Q.",
"Q.Q.Q.Q.E.Q.Q.Q.Q.Q.Q.U._.).&XeXrX3X;X;X1X;X;X1X;X7XrX0X! w 9 .   = 0 t #XtXeX3X;X;X;X;X1X1X;X0XtX3X'.).I.W.E.E.Q.Q.Q.Q.Q.Q.Q.Q.",
"E.Q.Q.Q.Q.Q.Q.Q.Q.Q.Q.Q.E.E.+X0XtX8X7X7XtXrXrXrXrXrXtX0XK - - - - - - 9 .XtXtXrXrXrXrXrXeX7X7XeXtX4X/.Q.Q.Q.W.Q.Q.Q.Q.Q.Q.Q.Q.Q.",
"Q.Q.Q.Q.E.Q.Q.Q.Q.Q.Q.Q.E.Q.+XeXwX~ w J 7XrXrXrXrXtXtXtX3X,X,X1X1X1X1X1X0XrXtXtXrXtXtXrX#Xe e *XrX3X_.Q.Q.Q.E.Q.Q.Q.Q.Q.Q.Q.Q.Q.",
"E.Q.Q.Q.Q.Q.Q.Q.Q.Q.Q.W.W.(.+XtXeXH   e :X7X7X7X7X7X7X7X7X7X0X7X8X8X7X8X7X7X7X7X7X7X7X7X X  X #XrX7XS.R v.W.E.E.Q.Q.Q.Q.Q.Q.Q.Q.",
"Q.Q.Q.Q.Q.Q.Q.Q.Q.Q.Q.S.<X2X0XrX0XJ   o 0 e 0 0 q 0 0 0 0 0 w w 0 0 0 0 0 0 q 0 0 q 0 e 9   o #XtXeX1X;X.Xv.E.E.Q.Q.Q.Q.Q.E.Q.Q.",
"Q.Q.Q.Q.Q.Q.Q.Q.Q.Q.Q.S.0XrXrXrX0XQ - - O   o - 9 +     - 9 -     + 9 - +     - - =     + - 9 $XrXrXrXrX=Xx.E.E.Q.E.Q.Q.Q.Q.Q.Q.",
"Q.Q.Q.Q.Q.E.Q.Q.Q.W.Q.J.0XrXtXtXrX7X1X$X9   F ;X1XQ   + .X1X$X-   K ,X,XI   = $X4X#Xo   W 1X1X0XtXtXeXrX=Xk.E.E.Q.Q.Q.Q.E.Q.Q.Q.",
"Q.Q.Q.Q.Q.Q.Q.Q.Q.Q.Q.J.1X7X7X7X7XeXtX1Xr 9 P 7X8X~   = $X0X=X9   P 7X7XW   - =X0X*X0 9  XeXtX0X7X7X8X6X&Xv.E.E.Q.Q.Q.Q.Q.Q.Q.Q.",
"Q.Q.E.Q.Q.Q.E.Q.Q.Q.E.N.c e 0 e r =XrXeX1X1XXXe 0 =     9 w 0 X   = 0 e =     0 0 K -X1X7XtXeX/ 0 w t 0 E Q.E.E.Q.Q.Q.Q.Q.Q.E.Q.",
"Q.Q.Q.Q.Q.Q.Q.Q.E.E.E.b.> $ @   o .X8X7X7X7X.X9 - - - 9 9 - - - - - - - - 9 9 9 - J 1X8X7X7X4XL     $ $ y N.E.E.Q.Q.Q.Q.Q.Q.Q.Q.",
"Q.Q.Q.Q.Q.Q.Q.Q.Q.E.E.=...O.h     q t e w e Q :X1X1X1X1X1X1X1X1X1X1X4X1X1X1X1X,X1X#XD e e e e =   : { #.) Y E.E.Q.Q.Q.E.Q.Q.Q.Q.",
"Q.Q.Q.Q.Q.Q.Q.E.!.Y.Y.-.5.s.j X       O     J 3X3X3X3X3X7X3X3X7X3X3X3X3X3X3X3X3X8X$X= O         . > 4.g. .:.Y.U.Q.Q.Q.Q.Q.Q.Q.Q.",
"Q.Q.Q.Q.Q.E.Q.Q.N.*.8.9.u.s.j             O = 0 e e e e e e 0 w e e e w e e e e w - o             > +.a.w.7.8.<.Q.Q.Q.Q.Q.Q.Q.Q.",
"E.Q.Q.Q.Q.Q.Q.Q.U.*.r.r.5.5.j o o o o o     o - 9 - 9 - - - =   O + - 9 - 9 9 - - -       o o o o < X.4.e.s.s.<.Q.E.Q.Q.Q.Q.Q.E.",
"Q.Q.Q.Q.Q.Q.Q.Q.U.8.g...< < y J J J J r o   G ;X1X4X4X4X4X1X$X-   K 1X4X3X4X3X1X4X.X-   q F F J H G 5 1 f q.a.<.Q.Q.Q.Q.Q.Q.Q.Q.",
"Q.Q.Q.Q.E.!.m.V.n.0.d...1 $ t K K I W J - O K 3X7X8X8X8X7X7X=Xe - Q 3X7X8X7X8X3X9X$X9 o e P W I K J 2 $ d q.e.| m v M E.W.W.Q.Q.",
"Q.Q.E.Q.Q.m.| *.3.r.p.r.O.&.h = = G ! K H J G t e e e e e w K :X1X|.e e e e e e w r F H H P K y = 8  .+.3.e.s.5.O.O.n Q.Q.E.Q.W.",
"Q.Q.Q.W.Q.R.} d.p.s.u.r.q.q.h $ * D K K J I r O   + - = = - G 7XtX$X- - - - -     = L K L L H q $ 3 #.q.q.s.s.r.u.r.=.Y.!.Q.Q.Q.",
"Q.Q.E.E.E.U.$.s.t.t.s.X.3 1 j &...s + = = = o   o / 4X;X;X;X1XrXtX0X1X,X,X1X=Xe     + = = + = ` 3. .a > h e.s.r.s.s.8.h.1.U.Q.Q.",
"Q.Q.Q.N.C.,.$.s.t.r.u...> : j 5.4.d $ : $ $ X   O XXrXrXrXrXrXrXrXrXrXrXrXrX7Xr     * # $ % > ) e.X.4 # d w.u.a.a.a.a.s.8.Y.W.E.",
"Q.Q.Z.z &.&.w.u.s.p.s.e.+.%.j 3 3 _ 3.2.O.@.k @ O XXtXrXrXrXrXrXrXrXrXrXtXrX3Xt   3 X.+.2.3.O.f > p  .@.3.u.a.a.e.a.p.d.0.T.Q.Q.",
"E.E.b.l u.u.s.r.r.e.p.r.s.s.` # : _ 5.4.r.g.] @ X  X7X8XeXtXrXrXrXrXrXtX0X7X;Xw   5 y.s.r.q.6.f @ 3 %.s.s.t.a.s.a.a.t.s.0.U.Q.Q.",
"Q.E.M.l s.e.t.s.u.s.s.r.e.a.5.+.X.f > a 6.d.' O . 9 e r :XrXrXrXrXrXrXtX Xe q o   a q.r.' > , [ 2.2.s.p.a.e.s.e.e.a.s.s.7.N.Q.Q.",
"Q.Q.m.l 7.q.u.u.t.t.s.s.s.s.w.5.5.d # 4 5.d.'     = - 0 *XrXrXrXrXrXrXeX/ ; - O   4 q.s._ # $ ' w.4.s.r.t.u.u.u.s.t.q.8.h.E.Q.Q.",
"Q.Q.E.n.n.,.o.u.t.t.t.s.e.s._ < 4 ` &.&.e.s.] . . ~ 1X;X0XrXrXrXrXrXrXrX7X;X=X0   4 w.s.5.&.O.f 3 a 2.u.t.s.s.s.s.e.h :.A.Q.W.Q.",
"Q.Q.Q.Q.E.M.| 5.4.5.6.w.e.s.j . @ ] f.t.s.s.]      X7X7X7X7X8X8X7X0X0X7X7X7X;Xe   4 e.s.p.s.s.d   > 3.s.e.5.4.5.4.&.4 Y Q.Q.E.Q.",
"Q.Q.E.Q.E.U.;.:.>.>.:.Z w.s.j   X ] a.a.t.d.' @   - e 0 e 0 0 w w 0 0 0 0 0 q O   4 w.r.e.r.u.a   > 4.f...m :.:.>.;.B m.Q.Q.Q.Q.",
"Q.Q.Q.Q.E.Q.Q.Q.Q.Q.Q.n @.5.j   X ] s.u.t.s.' @                                   4 w.p.r.u.u.a   : X.w._ j.E.Q.Q.Q.Q.Q.Q.Q.Q.Q.",
"Q.Q.Q.Q.E.E.Q.Q.W.Q.Q.T n n b x y } s.t.t.s.{ X                                   4 w.p.r.s.a.a   . g U b b.Q.Q.Q.Q.Q.Q.Q.Q.Q.Q.",
"Q.Q.Q.Q.Q.Q.Q.E.Q.Q.W.Q.Q.Q.N.R.:.} s.s.t.s.' X                                   4 r.u.r.u.e.f % * ,.A.Q.Q.Q.Q.Q.Q.Q.Q.Q.Q.Q.Q.",
"Q.Q.E.Q.Q.Q.Q.Q.E.Q.Q.Q.Q.Q.=.7.7.w.a.u.u.f.} X             O                     4 w.s.u.r.p.3.#. .C.E.Q.Q.Q.Q.Q.Q.Q.Q.Q.Q.Q.Q.",
"Q.Q.Q.Q.Q.Q.Q.Q.Q.Q.Q.Q.Q.Q.<.6.w.9.5.w.5.e.) %     & N T ( T ( Y ( N ( T v       3 #.4.q.q.4.5.w.O.n.W.Q.Q.E.Q.Q.Q.Q.Q.Q.Q.Q.Q.",
"Q.Q.Q.Q.Q.Q.Q.Q.Q.E.Q.Q.Q.Q.v 1 1 1 > 1 , 3 * O     & Z.E.Q.A.Q.E.Q.Q.Q.E.M       X < < > , < < < < ;.E.Q.Q.E.Q.Q.Q.Q.Q.Q.Q.Q.Q.",
"Q.Q.Q.Q.Q.Q.Q.Q.Q.Q.Q.Q.E.E.y                       ; E.Q.Q.Q.Q.E.E.W.Q.E.M     O   O               Y Q.Q.Q.Q.Q.Q.Q.Q.Q.Q.Q.Q.Q.",
"Q.Q.Q.Q.Q.Q.Q.Q.Q.Q.E.Q.E.E.x       O               & Z.Q.Q.Q.Q.Q.Q.Q.Q.Q.M     O                   ( E.Q.Q.Q.Q.Q.Q.Q.Q.Q.Q.Q.Q.",
"Q.Q.Q.Q.Q.Q.E.Q.Q.Q.W.W.Q.`.v = = = = = = = = = ; + 6 Z.E.Q.Q.W.Q.Q.Q.Q.Q.T o + = = = = = = = = ; ; l.(.W.W.Q.Q.Q.Q.Q.Q.Q.Q.Q.Q.",
"Q.Q.Q.Q.Q.Q.Q.Q.Q.Q.Q.S.<X6X4X;X;X1X,X,X1X;X,X,X;XJ.b.W.Q.Q.E.W.Q.Q.Q.Q.Q.Z.v.&X;X;X,X;X;X1X1X;X;X;X2X6X%Xm.E.W.E.Q.Q.Q.Q.Q.Q.E.",
"Q.Q.Q.Q.Q.Q.Q.Q.Q.Q.Q.G.0XrXrXrXrXrXrXrXrXrXrXrXtX@XW.Q.Q.Q.Q.Q.Q.Q.Q.Q.Q.Q.^.1XrXrXrXrXrXrXrXrXrXrXrXrX*Xk.E.E.Q.Q.Q.Q.Q.Q.Q.Q.",
"Q.Q.Q.E.Q.Q.Q.Q.Q.Q.Q.J.0XrXrXrXrXrXrXrXrXrXrXrXeX@XQ.Q.Q.Q.Q.Q.Q.Q.Q.A.Q.E.I.,XrXrXrXrXrXrXrXrXrXrXrXrX*Xk.W.E.Q.Q.Q.Q.Q.Q.Q.Q.",
"Q.Q.Q.Q.Q.Q.I.(.^.^.(.P.0XrXtXrXrXrXrXrXrXrXtX0X9X@XQ.Q.Q.Q.Q.W.Q.Q.Q.Q.Q.Q.I.<XwX0XrXtXrXrXrXrXrXrXrXrX=Xc.(.^.(.^.A.Q.Q.Q.Q.Q.",
"Q.Q.Q.Q.Q.A.OX6X5X5X6XqXrXrXrXrXrXrXrXrXtXrX*XF.`.Q.Q.Q.Q.Q.Q.Q.Q.Q.Q.Q.Q.Q.Q.(.).H.8XrXrXrXrXrXrXrXrXrXeX5X2X5X5X>XD.Q.Q.Q.Q.Q.",
"Q.Q.Q.Q.Q.A.OX0X0X0X7X0X9X0X8X8X9XqX9X9X8X0X.XY W.E.Q.Q.Q.Q.Q.Q.Q.Q.Q.Q.Q.Q.E.E.Q.R ;X0X7X8X8X8XqX7X9X9X9X0X0X9X9X2XD.Q.Q.Q.Q.Q.",
"Q.Q.Q.Q.Q.W.~.'.'.'.'.'.'.'.'.'.'.'.'.'._.).B.N.Q.Q.Q.Q.Q.Q.Q.Q.Q.Q.Q.Q.Q.Q.Q.Q.Q.V.).'.).'.'.'.'.).'.'.'.'.'.'.'.).M.Q.Q.Q.Q.Q.",
"Q.Q.Q.Q.Q.Q.Q.Q.Q.Q.Q.Q.Q.Q.Q.Q.Q.Q.Q.Q.Q.Q.Q.Q.Q.Q.Q.Q.Q.Q.E.Q.Q.Q.Q.Q.Q.Q.Q.Q.Q.Q.Q.Q.Q.Q.Q.Q.Q.W.Q.Q.Q.Q.Q.Q.Q.Q.Q.Q.Q.Q.Q.W.",
"Q.Q.Q.Q.Q.Q.Q.Q.Q.Q.Q.Q.Q.Q.Q.W.Q.Q.Q.Q.Q.Q.Q.Q.Q.Q.Q.Q.Q.Q.Q.Q.Q.Q.Q.Q.Q.Q.Q.Q.Q.Q.Q.Q.Q.W.Q.Q.Q.Q.Q.Q.Q.Q.Q.Q.Q.Q.Q.Q.Q.Q.Q.Q.",
"Q.Q.Q.Q.Q.Q.Q.Q.Q.Q.Q.Q.Q.Q.Q.W.Q.Q.Q.Q.Q.Q.Q.A.Q.E.Q.Q.Q.Q.Q.Q.Q.E.Q.Q.Q.Q.Q.Q.Q.Q.Q.Q.Q.Q.Q.Q.Q.Q.Q.Q.Q.Q.Q.Q.Q.Q.Q.Q.Q.Q.Q.Q.",
"Q.Q.Q.Q.E.E.Q.Q.Q.Q.Q.E.Q.Q.Q.Q.Q.Q.Q.Q.Q.Q.Q.Q.Q.Q.Q.Q.Q.Q.E.Q.Q.Q.Q.Q.Q.Q.Q.E.Q.Q.Q.Q.Q.Q.Q.Q.Q.Q.Q.Q.Q.Q.Q.Q.Q.Q.Q.Q.Q.Q.Q.Q."
};
