/* XPM */
static char *frisk_walk_front_2_64_floor1757295250[] = {
/* columns rows colors chars-per-pixel */
"64 64 255 2 ",
"   c #0E0A00",
".  c #171200",
"X  c #381E15",
"o  c #3B2B02",
"O  c #3B250C",
"+  c #3C2A0B",
"@  c #372604",
"#  c #3B3602",
"$  c #3B2515",
"%  c #3D2A12",
"&  c #36231C",
"*  c #3B251C",
"=  c #3C2A1C",
"-  c #352716",
";  c #343315",
":  c #3C1D29",
">  c #331D38",
",  c #1D2E39",
"<  c #2C282C",
"1  c #362323",
"2  c #3C2524",
"3  c #3C2923",
"4  c #3C252A",
"5  c #3C292B",
"6  c #34282A",
"7  c #292B36",
"8  c #382837",
"9  c #2E3538",
"0  c #471D1A",
"q  c #422C09",
"w  c #423401",
"e  c #473904",
"r  c #42251D",
"t  c #412B1D",
"y  c #462818",
"u  c #4D3615",
"i  c #431D27",
"p  c #4A1D34",
"a  c #481D37",
"s  c #511C3C",
"d  c #422424",
"f  c #412B24",
"g  c #43232C",
"h  c #422A2B",
"j  c #4B2429",
"k  c #432333",
"l  c #4A2638",
"z  c #53283A",
"x  c #533234",
"c  c #28463E",
"v  c #474300",
"b  c #544607",
"n  c #5B4F10",
"m  c #665909",
"M  c #676600",
"N  c #746B06",
"B  c #756B16",
"V  c #7B770E",
"C  c #675528",
"Z  c #786A24",
"A  c #766C2D",
"S  c #57502B",
"D  c #18354C",
"F  c #392845",
"G  c #243548",
"H  c #322854",
"J  c #2D2F4E",
"K  c #332858",
"L  c #4F1D45",
"P  c #5C2B4B",
"I  c #572745",
"U  c #583348",
"Y  c #5B2B54",
"T  c #4A2E4F",
"R  c #612E4C",
"E  c #65354D",
"W  c #632D55",
"Q  c #673757",
"!  c #71375D",
"~  c #4E3569",
"^  c #6A3767",
"/  c #743B67",
"(  c #6B386D",
")  c #3A645B",
"_  c #1F527A",
"`  c #2D4F6C",
"'  c #33617D",
"]  c #38454D",
"[  c #42475E",
"{  c #6A4559",
"}  c #714A56",
"|  c #4B476D",
" . c #754768",
".. c #794777",
"X. c #6D4A71",
"o. c #55716E",
"O. c #41605B",
"+. c #857915",
"@. c #84752A",
"#. c #864A78",
"$. c #885578",
"%. c #895172",
"&. c #8D6C60",
"*. c #7A843D",
"=. c #8B8A02",
"-. c #A7AA11",
";. c #B6B438",
":. c #AFAB2F",
">. c #9C942B",
",. c #C2BE35",
"<. c #CAC935",
"1. c #F6FE2C",
"2. c #FAFE2E",
"3. c #E4E73A",
"4. c #F5FC34",
"5. c #FBFE34",
"6. c #F5FB3B",
"7. c #FCFE3C",
"8. c #F4F73A",
"9. c #EEF33E",
"0. c #C1C91E",
"q. c #998B4C",
"w. c #A5974E",
"e. c #B9B549",
"r. c #B4AA4E",
"t. c #B5AA67",
"y. c #C3BD47",
"u. c #C5BB57",
"i. c #C6BB78",
"p. c #C6C646",
"a. c #D4CF51",
"s. c #E3DD4A",
"d. c #F5FB43",
"f. c #FCFE43",
"g. c #F6FC4B",
"h. c #FBFD4B",
"j. c #F4F549",
"k. c #EAEB58",
"l. c #F6FC52",
"z. c #FDFE52",
"x. c #F7F659",
"c. c #EEF04A",
"v. c #D0C868",
"b. c #ECED67",
"n. c #F8F865",
"m. c #F3EE73",
"M. c #E0D56B",
"N. c #783DA8",
"B. c #56358A",
"V. c #36578B",
"C. c #286287",
"Z. c #336A92",
"A. c #3B79AA",
"S. c #72568B",
"D. c #517395",
"F. c #6A6990",
"G. c #5A7AA9",
"H. c #6975B0",
"J. c #5C559A",
"K. c #7A54D1",
"L. c #7665D5",
"P. c #755DEC",
"I. c #775EF3",
"U. c #7650E8",
"Y. c #6E63E9",
"T. c #7261E9",
"R. c #7261F4",
"E. c #6F63F7",
"W. c #894B84",
"Q. c #8C5586",
"!. c #9B5D8D",
"~. c #95578A",
"^. c #9C5D92",
"/. c #9D5B9A",
"(. c #985894",
"). c #925495",
"_. c #A35B94",
"`. c #A5559C",
"'. c #AB569D",
"]. c #A45B9D",
"[. c #AA5A9D",
"{. c #A85796",
"}. c #B1569A",
"|. c #95628B",
" X c #9E619B",
".X c #9B6395",
"XX c #8F6A9E",
"oX c #A3629C",
"OX c #A36298",
"+X c #A1628B",
"@X c #9D5BA4",
"#X c #8C5DB9",
"$X c #A555A3",
"%X c #AB56A5",
"&X c #A65AA3",
"*X c #AA59A4",
"=X c #A655AB",
"-X c #AB56AA",
";X c #A55AAA",
":X c #AB5AAA",
">X c #B156A4",
",X c #B15BAC",
"<X c #B156A6",
"1X c #A957B2",
"2X c #B154B1",
"3X c #AE4FAB",
"4X c #9C62A2",
"5X c #A863A4",
"6X c #B262A1",
"7X c #8A3EE9",
"8X c #8C3DF0",
"9X c #8945D6",
"0X c #8444E4",
"qX c #8745E7",
"wX c #934AEC",
"eX c #A45EFD",
"rX c #A95AFF",
"tX c #8C6DFC",
"yX c #9869F9",
"uX c #8D78FF",
"iX c #937CFE",
"pX c #9777FF",
"aX c #8B67E1",
"sX c #A162FE",
"dX c #8978C8",
"fX c #3688BA",
"gX c #63839B",
"hX c #548AB2",
"jX c #6483B1",
"kX c #76A3B5",
"lX c #5A8097",
"zX c #3BACFB",
"xX c #37B3FF",
"cX c #39AFEF",
"vX c #5790CE",
"bX c #6F9BC2",
"nX c #55A6DA",
"mX c #56A0D3",
"MX c #66A5D3",
"NX c #559EF6",
"BX c #7497E9",
"VX c #7493FB",
"CX c #7094F6",
"ZX c #4AA7E6",
"AX c #55A6EA",
"SX c #45AAF9",
"DX c #58A5FA",
"FX c #4AB2F3",
"GX c #63A5F4",
"HX c #8090B1",
"JX c #C7BD82",
"KX c #F5ED92",
"LX c #8789D5",
"PX c #8987FA",
"IX c #8B8BF3",
/* pixels */
"2X2X%X'.[.].*X%X-X-X<X%X%X*X*X`.*X{.[.'.*X-X1X1X;X&X&XoX*X*X*X-X-X%X%X:X%X;X&X&X].].`.[.*X*X<X%X%X%X'.*X*X*X*X*X].*X*X*X[.*X[.*X",
"-X-X*X*X].].&X*X-X$X%X<X%X'.-X5X*X*X}.OX].&X;X:X@X].].].].].].].'.*X].[.].].].].].*X].[.`.*X%X*X%X%X*X*X*X*X*X&X*X&X*X*X*X&X*X*X",
"%X%X*X].].[.].*X%X,X-X%X%X*X].`.$X5X^.(.!.!.|.!..X(.^..X^.!.!.!.!.!.!.!.+X|.|.!.~.(.~.5X].&X*X*X`.%X*X*X*X*X%X&X*X&X%X$X*X[.*X'.",
"*X*X*X&X].&X*X*X$X<X%X-X:X:X].&X@X/.( W P P R z I P P P P P R P P R P P P I P P R R ^ /.&X5X`.].%X*X*X*X*X*X*X*X*X*X*X*X*X&X*X*X",
"].].&X&X;X&X].'.%X:X$X-X%X`.].OX.X|.Y l i i f * 3 g g p g p i g i g g k k g p g p a P ~./././.&X*X:X*X:X*X*X*X-X-X%X%X*X*X[.*X[.",
"].].&X&X;X&X*X*X'.,X-X*X*X5X_...^ { l k g f f t * 2 d 3 2 3 g 3 d 3 4 5 4 4 2 d g g s Y ^ W. X5X[.*X*X*X*X%X%X-X-X&X-X%X$X*X[.*X",
"].].&X&X%X-X*X*X`.<X*X].]._.!.E k g k k k 2 3 & 3 1 3 2 2 4 4 4 3 3 3 6 5 2 3 2 d d i p a ^ |.oX_.].*X&X*X$X%X*X-X%X%X*X&X*X&X].",
"].&X*X&X-X*X*X*X,X]./._.#.Q Q l 4 & 2 6 4 2 3 3 3 6 3 5 4 3 4 3 3 1 1 3 1 3 3 2 = * 2 h g U .. .~./.].].*X*X*X-X-X-X%X%X%X[.*X&X",
"*X*X:X%X$X*X-X*X&X].^.!.E p k i 3 2 3 2 3 1 3 1 2 6 5 4 3 3 & 3 3 3 = 3 3 3 = = 3 - = t d d g a ..OXOX].&X].:X:X-X%X-X&X*X*X&X&X",
"-X$X%X%X*X:X-X&X]./ I P l h g h 4 d 2 = = = 3 5 4 3 3 3 3 f 3 * 3 1 1 - * 3 3 1 = 3 = = - d d g P Q / Q.oX].].$X-X%X%X%X%X&X&X[.",
"-X-X%X%X%X%X*X&XoX/ l g 2 2 & 4 5 4 $ - t & & 2 5 3 2 2 & 2 f 2 h g f 3 1 2 5 2 2 5 1 3 3 3 - d g a s ..!.oXoX&X*X-X%X-X%X*X&X&X",
"-X2X<X%X`.'.*X[..X .i d r = 3 3 5 d O + q f 4 g 2 2 & f d 2 3 r r $ * h h 4 4 4 5 5 3 h 5 3 * 3 h g a Q / $.].].&X%X-X%X%X%X&X*X",
"%X:X%X*X*X].oX~.|.{ : f = - = - & - # w o O 2 4 2 h d X h d * - o q r X h : h 5 1 3 5 4 : 6 f 3 2 h 4 l s / !.].&X%X%X-X*X*X&X*X",
"*X*X$X*X*X].(./ E U 2 f = = = - % n r.r.>.o $ f 2 d 2 2 2 * O b r.r.@.y h 4 f - t $ - 1 5 3 3 - & 3 4 i p Y ~.].&X&X%X%X%X$X-X&X",
"[.[.$X*X&X].Q.L a g 4 1 3 3 - u e N n.n.,.e e y * * r t X u w m k.m.w.q & 4 t q # e u X 3 * f 3 = = 1 d a I #.].].*X%X-X-X%X*X&X",
"].].&X:X$X].~.s j 2 f 3 3 - % w.v.a.g.7.3.a.v.q.o + + + e r.v.a.c.x.>.q q O + o q.v.t.b + $ = $ ; - 3 2 g k $.OX].*X*X%X;X-X*X%X",
"[.*X5X&X;X@XQ.L r r $ 2 2 $ w u.n.z.8.7.f.h.x.;.w w w w b a.x.h.f.z.:.# e # # # ;.n.M.e e q $ d $ = 3 * 2 l $.|.(.5X*X:X-X-X%X`.",
"[.[.$X$X1X5XQ.l r y f 3 3 $ w e.z.8.7.5.5.6.h.3.<.y.u.y.<.j.f.7.5.d.s.,.p.y.p.y.3.h.h.<.y.w.y * * y $ = 2 2 U Q ..@X&X:X$X$X:X*X",
"*X*X&X&X;X/.Q.z r * 2 4 3 O # e.z.2.7.7.7.5.8.8.g.g.z.z.7.7.5.5.2.7.d.l.j.l.l.g.f.4.7.h.z.a.w t q q @ $ = 4 i p W _.[.*X'.:X*X*X",
"[.*X].].W...{ x r * 4 5 3 $ w u.h.6.d.g.d.h.f.f.5.2.5.5.5.5.5.2.5.7.d.z.l.l.g.9.7.4.7.7.h.<.w @ n t.t.C - d : p W +X[.`.[.*X&X&X",
"'.*X&X/.! l l d 3 f 5 8 2 q q e.l.l.k.b.b.b.k.c.5.5.5.5.f.7.7.2.5.8.c.c.k.b.b.k.c.z.f.8.f.<.b e =.m.KXA @ = : j E +X_.`.[.[.&X*X",
"[.*X&XoXQ 0 i r $ & 6 5 $ @ w p.l.0.v v # w # =.4.2.2.5.7.f.5.5.5.h.-.# v # # v -.z.f.7.f.j.<.p.a.n.m.B o 3 * g R +X_.[.:X[.].*X",
"'.$X&X XE d d * 3 3 8 & q # e ;.l.0.. .   .   M f.2.5.7.6.7.6.7.4.z.=.        . -.d.7.5.4.7.h.h.z.n.m.Z @ $ h k R +XoX*X-X-X$X&X",
":X*X;XoXE d 4 2 3 1 4 - q.u.,.c.d.c.:.;.e.;.e.p.f.1.7.d.h.h.g.d.f.f.a.;.:.e.r.:.3.7.2.5.7.5.f.h.<.N B u ; - g a Q !.].$X1X1X;X].",
"%X:X&X XQ 8 k 5 2 6 4 % r.n.z.f.6.f.j.l.z.j.x.z.6.6.x.n.b.n.c.l.7.6.j.z.f.d.z.g.7.2.7.7.f.j.c.m.u.o + $ 2 5 : a R OXoX;X1X1X=X$X",
",X%X$X XQ g 4 6 5 1 5 + :.x.z.f.5.5.7.f.f.7.7.6.1.8.*.m M M M M 3.7.5.1.1.1.5.4.8.f.j.j.h.s.+.+.C O 3 3 4 5 : l E !.&X-X2X1X%X&X",
":X*X&X XQ d h h 3 * 3 + w.m.k.d.5.5.7.8.8.h.7.5.7.9.v .     . # 3.5.7.2.5.4.1.5.j.c.k.x.b.u.u 0 r r 2 4 4 5 h i E .X].-X-X%X*X[.",
"'.*X;X(.E r 2 * & f = + n m M a.h.f.h.h.d.f.6.5.1.f.<.p.p.p.e.p.j.8.7.7.7.6.f.l.-.m m m m n q 0 d r 2 h 1 6 g i R _.].$X*X[.[.[.",
">X%X&X^.E t f * f f X y t @ o r.m.x.j.g.d.f.5.5.1.6.h.g.f.z.g.g.h.7.7.7.g.f.x.m.Z o q o y $ * * t r $ = = 1 h g E OX*X%X$X[.[.{.",
">X%X&X XE i 2 t : h f 3 d * % C B N N N =.h.f.f.f.6.f.f.6.4.4.7.7.7.f.g.n.:.M Z S t X i f 2 = 3 r d t - f 5 4 p P ^.&X*X*X*X[.{.",
"<X<X[.OX/ L l 1 g 4 a l h 2 * $ - O + @ V n.n.n.n.n.x.n.l.h.7.5.1.5.h.x.m.>.o + $ 4 h 3 3 * 3 g h h k 4 1 6 k a ^ _._.*X%X-X:X:X",
"-X-X`.oX).(...{ p  . . .z h d 4 k k : = u @.+.+.+.@.+.+.=.s.g.5.2.4.0.+.Z n $ 3 g : k 2 f 2 4 4 {  . . .l z  ...#.5X`.*X-X=X%X,X",
":X$X*X*X=X:X!.! I $. X!.! z z a L z p p 0 0 0 r j y $ o e a.z.5.1.f.>.w o d z I I P L I U h 3 g %.+X+X|.I W @X].&X%X*X&X=X*X*X[.",
"@X&X:X<X3X,X&XQ.Q.^.&X&X~.#.#.Q.#.$.~.$.%.$.$.Q.%.$.E X e M.x.h.7.n.w.@ r } |.|.!.!..X~.|. .k a / {.]. XW.).@X;X-X-X&X&X&X&X&X[.",
"&X].%X<X3X%X&X].`.&X,X-X<X:X5XoX5X]._.^.OXOX4X4X.X$.} q b M.b.x.x.m.q.t 6 { |. X[.{.[.].oXQ.P I #.&X].&X].5X`.*X*X%X&X].*X*X%X%X",
"OX[.>X%X>X*X$X&X*X$X-X-X2X<X*X/.&X].6XoXoX].@X#XX.U x O o C V N +.B x 3 < T X...~.6X`.;X5X X~.(.$X*X&X&X$X:X*X:X&X[.*X*X'.%X%X-X",
"{.}.}.:X&X5X&X;X:X&X&X-X-X`.&X X/./.].`.&X&X&X).H G h d = @ ; o o $ 6 7 , G G > ( .XoX@X4X4X_.{.].;X`.:X-X=X*X[.[.[.*X*X[.*X<X<X",
"{.OX:X*X@X@X&X&X`.:X].&X:X&X4X....S...#./ ..S.S.G.D.J 6 6 9 9 < < 9 [ D.D.hXD.D.S.^ ^ Y ~ ^ W ^ S.5X&X'.<X%X*X`.].].*X%X'.}.<X-X",
"&X&X:X$X&X@X&X*X*X>X{.[.{.].Q.Q G 9 : 8 F J K V.MXmX_ D D D G G G D Z.nXFXFXZXGXZ.K F 8 8 8 J J S.)./.`.%X<X>X*X[.&X&X&X&X].&X&X",
";X=X;X-X;X&X*X>X>X{.[.oXS.X.| F.lXD.8 : [ gXL.vXAXAXvXhXjXG.jXH.G.vXvXSXZXSXNXAXvXH.F.F 1 [ gXH.F.~ S./.[.`.'.[.&X&X;X&X&X&X].@X",
"2X-X-X-X*X%X%X%X*X`.5X4X~ K D G.kXgX7 8 | bXIXVXVXVXVXPXVXVXVXPXPXVXVXVXVXVXVXCXVXBXdX~ L ~ bXMXG.J | 4X(.OX].&X%X*X-X-X%X%X&X].",
"2X<X-X%X%X>X>X%X:X@X( X.F.G.G.' ` ` < > B.L.L.U.T.P.I.I.R.R.R.P.R.R.E.I.I.I.P.Y.Y.L.K.N.N.B.| ` ' G.H.S.X.#.].].&X-X<X-X-X-X*X].",
">X>X%X*X}.}.[.%X&XW.L F D.kXkX` G 7 7 J ~ K.9X0X0XqX8X8XwX7X0X0X0X7XqX8X8X7X9X9XK.wX7X7X9XN.H G ) kXHX| > Y /.&X-X%X%X%X-X-X*X*X",
">X%X$X&X{.}.%X*X*XW.8 6 ] ) ) c 6 T F.F.K.yXsXsXeXeXrXrXrXeXsXsXeXeXeXeXrXrXrXeXeXsXwXeXyX#X: ; 9 O.O.F 8 Y  X].*X-X%X-X-X-X*X&X",
"&X&X/.&X[.[.}.[.{.$.x y ; ; ; & 1 ~ LXIXuXuXuXuXuXiXiXiXiXiXiXuXPXiXiXpXpXpXpXpXpXiXuXIXLXF.S o # # ; 1 i P oX].*X&X$X&X;X@X@X;X",
"&X&X&X].].&X<X*X}.$.j y q.JXJXC & ~ #XP.Y.Y.T.Y.Y.P.I.P.T.T.T.P.Y.Y.P.I.I.R.P.I.P.L.H.V.` o.t.v.v.v.i.C r I !.:X-X-X*X&X&X@X;X4X",
"-X*X[.[.;X=X-X:X_.$.g $ t.KXKXA * T 9X0XqXqX0XU.0XU.qX0X0X0XU.0X0X0X0X0X0X0X0XqX7X9XN.J < C m.l.g.x.m.B q U ~.].*X-X%X*X[.[.*X%X",
"-X%X'.*X;X1X-X*X].#.l p S A A b & ~ aXpXtXtXtXtXyXyXyXyXyXyXyXyXyXtXtXtXtXtXtXuXtXtXL.J 1 n n.d.f.g.n.B o U .X&X&X-X<X%X[.[.>X>X",
"-X%X*X*X=X;X*X*X_.~.I s j j j r * [ CXNXDXNXDXGXBXBXBXBXGXBXBXCXCXDXNXNXDXNXDXSXDXGXvXD D S m.n.x.n.KXA q z OX[.;X-X-X-X*X'.*X'.",
";X*X&X%X%X&X*X].].].W.~.~.$.%.R i ` ZXzXzXFXcXfXC.V.C.C.C.C.C.Z.ZXSXcXcXSXcXxXxXxXcXAXA.lXo.*.V =.A @.n 0 R _.].$X-X=X%X*X[.[.[.",
"-X*X%X*X*X*X%X*X].]._.OX.X.XOXE 8 ` ZXxXZXnXmXG.D 7 7 , 7 7 9 G vXAXnXnXnXZXzXzXzXzXFXSXZXhX, @ @ u d j z W _.].*X[.[.[.*X&X*X&X",
"*X*X%X*X%X*X*X*X*X`.5X&X^.5X XY > ` nXAXhX_ ` J 8 4 * - 2 2 2 9 K ` ` ` _ fXFXzXzXzXZXcXFXhX7 k U %.$.#.W.W.oX].[.[.[.[.*X*X-X=X",
"*X*X*X*X*X*X%X*X*X*X*X`.].]./.^ k | vXmXlX, 7 9 < 8 2 d f r 6 5 T F 9 < , Z.SXzXzXzXFXnXMXG.F s W ^.5X].&X*X:X*X[.*X].*X*X;X=X-X",
"*X'.'.*X%X%X%X%X:X:X*X$X;X&X$X)...S.o.` ] 6 < 6 4 2 2 2 d r ; 5 ..%.} f < Z.FXzXSXFXmXC._ o.S.#.~.*X&X`.&X:X$X$X%X*X%X*X*X-X-X=X",
"*X[.*X*X*X%X%X%X$X$X$X:X-X*X$X`.[.(.~ J 5 3 3 6 5 6 5 2 g g 5 l |.|.} 3 F D.MXDXZXnXhXD G X. X[.{.{.'.'.:X,X1X1X-X=X&X-X*X-X;X-X",
"&X&X&X*X*X%X-X%X<X%X*X:X$X*X*X:X{.{.S...Q g h 1 1 5 1 3 d g g L ~.OX} 6 8 [ V.V.C.' ) 7 8 X.`.:X}.'.}.[.*X$X:X;X-X-X-X*X&X*X*X*X",
"&X&X&X-X;X*X-X*X%X*X*X*X%X*X[.*X}.[.&XOX%.p k 5 3 = r j i j a I _._.} 4 g 4 8 7 7 < < l l #.&X*X*X'.*X*X*X*X&X&X&X&X*X[.[.*X'.*X",
";X&X&X&X&X&X&X&X%X*X%X*X&X*X[.[.'.[.[.[.#.s : 4 5 j y y j ! / ..{.^. .4 d d d i 5 4 z  .#.(.&X*X*X*X*X%X&X&X&X&X].].[.].[.[.[.'.",
";X&X&X&X&X;X&X&X&X&X&X].*X].`.[.].[.[.{.#.L s k : p i j I $.|.4X&X X .: 2 2 2 d g k Y ~.].[.&X;X-X$X-X&X&X&X&X&X&X&X[.*X'.[.%X[.",
";X&X;X&X&X*X*X;X&X*X[.&X].*X[.].].&X[.'.}.#.#. ...$. .#.#. X/.&X@X@X .8 g g d p { ..W.*X*X*X;X;X;X&X&X&X&X;X&X&X&X*X*X*X:X%X*X%X",
"$X;X&X%X&X&X&X$X*X&X*X*X*X[.*X&X;X;X&X*X&X].OX.XOX/._.{.*X*X].&X1X@X#.W R R I I #./.*X%X}.>X=X@X*X*X].*X&X$X*X=X;X;X%X;X*X%X*X*X",
"%X&X&X%X%X&X%X&X&X&X*X*X*X*X*X$X;X;X$X$X;X&X]._.&X&X,X*X-X-X$X$X@X@X/.~./.!._._.(.5X-X:X<X<X:X-X&X&X*X].[.&X*X&X%X=X-X-X%X&X%X&X",
"%X*X%X*X%X*X*X*X*X*X*X$X%X*X*X*X*X*X*X*X1X:X*X[.&X$X*X%X3X2X-X:X-X%X6X&X:X$X{.{.oX&X$X=X'.'.'.*X$X*X*X*X*X[.[.*X*X%X*X*X&X&X&X].",
"*X%X%X%X*X*X%X%X&X%X-X&X*X;X-X%X>X[.}.*X1X:X*X].&X&X%X,X2X2X$X%X}.}.}.:X1X=X*X>X`.&X@X=X`.'.:X:X%X*X*X*X*X'.[.[.*X'.*X&X[.*X].]."
};
