/* XPM */
static char *frisk_back_64_floor_21757298752[] = {
/* columns rows colors chars-per-pixel */
"64 64 145 2 ",
"   c #3D231E",
".  c #37231C",
"X  c #3C2724",
"o  c #3C2825",
"O  c #3C2C2D",
"+  c #3A2E32",
"@  c #3D3132",
"#  c #3B383F",
"$  c #3C353C",
"%  c #402623",
"&  c #412A25",
"*  c #44262C",
"=  c #42292A",
"-  c #422B32",
";  c #4A2D33",
":  c #4F2F3A",
">  c #522D39",
",  c #4F303A",
"<  c #51313C",
"1  c #483526",
"2  c #554225",
"3  c #5E4D24",
"4  c #5E4E2A",
"5  c #635228",
"6  c #6B5B28",
"7  c #716229",
"8  c #796A29",
"9  c #726C32",
"0  c #3D3F4A",
"q  c #3D3B44",
"w  c #5C214D",
"e  c #46384F",
"r  c #543141",
"t  c #583344",
"y  c #5D364B",
"u  c #62384E",
"i  c #653751",
"p  c #653A54",
"a  c #683C57",
"s  c #6B3C5A",
"d  c #703F5F",
"f  c #723E62",
"g  c #3D414C",
"h  c #3B4452",
"j  c #3C4B5D",
"k  c #3C4E63",
"l  c #3B556D",
"z  c #3B5973",
"x  c #3B5D7A",
"c  c #6E405D",
"v  c #4A4D66",
"b  c #414D63",
"n  c #5A4A69",
"m  c #425576",
"M  c #525476",
"N  c #604566",
"B  c #754165",
"V  c #774269",
"C  c #7C446E",
"Z  c #7E4571",
"A  c #7B4C7A",
"S  c #516661",
"D  c #897D27",
"F  c #80742A",
"G  c #897D29",
"H  c #825069",
"J  c #824776",
"K  c #854778",
"L  c #854A7C",
"P  c #894B7E",
"I  c #8B812B",
"U  c #978D2C",
"Y  c #ADA52E",
"T  c #B2AC2E",
"R  c #BDB72F",
"E  c #B3AF31",
"W  c #BAB630",
"Q  c #DCDB31",
"!  c #EBED32",
"~  c #EEF033",
"^  c #FCFE35",
"/  c #F2F334",
"(  c #7B3CA5",
")  c #3A6180",
"_  c #3B6688",
"`  c #3C6E93",
"'  c #3B76A1",
"]  c #3B7AA6",
"[  c #3B7CAB",
"{  c #3E7FB5",
"}  c #50538A",
"|  c #4B658A",
" . c #5A5EA8",
".. c #676CD4",
"X. c #697AEE",
"o. c #667EEC",
"O. c #6B7FFA",
"+. c #707BF9",
"@. c #8B289F",
"#. c #9F1CA8",
"$. c #9A1DA5",
"%. c #9E28BA",
"&. c #8D4C84",
"*. c #914D86",
"=. c #934F8A",
"-. c #96508D",
";. c #975291",
":. c #9B5393",
">. c #9F5499",
",. c #A2569C",
"<. c #A5589E",
"1. c #A857A3",
"2. c #A759A3",
"3. c #A958A4",
"4. c #A355A0",
"5. c #B91ACF",
"6. c #BB1BD3",
"7. c #CC18E9",
"8. c #D616F5",
"9. c #D718F6",
"0. c #D717F8",
"q. c #D819FC",
"w. c #D916FA",
"e. c #8A47D2",
"r. c #9A4CEE",
"t. c #9C4EF6",
"y. c #9E4CF8",
"u. c #A24BF9",
"i. c #3A83B4",
"p. c #3A8ABF",
"a. c #3A86BA",
"s. c #45809E",
"d. c #3A8CC3",
"f. c #3B92CD",
"g. c #3996D4",
"h. c #3999D5",
"j. c #3799D8",
"k. c #3A9DDE",
"l. c #3BA3EA",
"z. c #3AABF3",
"x. c #3AAFFB",
"c. c #36ABF0",
"v. c #37B2FC",
"b. c #39B1FD",
"n. c #6D81FE",
/* pixels */
"3.3.3.3.3.3.3.3.3.1.2.3.3.3.2.3.3.1.3.3.3.3.1.1.1.3.3.3.3.3.3.1.1.3.3.3.3.3.3.3.1.1.3.3.3.3.3.3.3.3.3.3.3.3.3.3.3.3.3.3.3.3.3.3.",
"3.3.3.3.3.3.3.3.3.3.1.1.3.3.3.3.3.3.3.3.2.&.K K K A J K J J J K A K J J J J J J A K J K J P 1.3.3.3.3.3.2.3.3.3.3.3.3.3.3.3.3.3.",
"3.3.3.3.3.3.3.3.3.3.3.3.3.3.3.3.1.1.3.3.4.: X X = % X X % = X X % X % = X = X % o o o o X > 3.3.3.3.3.3.3.3.3.3.3.3.3.3.3.3.3.3.",
"3.3.3.3.3.3.3.3.3.3.1.3.3.3.3.3.1.1.*.Z Z ; o o X X X X X X X X X X X X X X X X X o o X X ; Z Z *.3.3.3.3.3.3.3.3.3.3.3.3.3.3.3.",
"3.3.3.3.3.3.3.3.3.3.3.3.3.3.3.3.4.1.p X X X X X X X X X X X X X X X X X X X X X X X o X X X X X a 3.3.3.3.3.3.3.3.3.3.3.3.3.3.3.",
"3.3.3.3.3.3.3.3.3.3.3.3.1.3.3.;.A Z r X X X X X o X X X o X X X X X X X X X X X X X X X X X X X t Z Z ;.3.3.3.2.3.3.3.3.3.3.3.3.",
"3.3.3.3.3.3.3.3.3.3.2.2.3.1.3.J X X X X X X O X o X X o X X X X X X X X X X X X X X X X X X X X X o X J 3.2.1.2.3.3.3.3.3.3.3.3.",
"3.3.3.3.3.3.3.3.3.3.1.1.,.Z C u X X X X X X X . X X X X X X X o X X X X X X X X o X X X X X X X X X o p Z J ,.2.3.3.1.3.3.3.3.3.",
"1.3.3.3.3.3.3.3.3.3.2.2.=.= X X X X X X X X o o X o X X X X X X X X X X X X X X o X X X X X X X X X X o o = =.3.3.3.3.3.3.3.3.1.",
"3.3.3.3.3.3.3.3.2.2.K C d & X X X X X o X X o o X X X X o X X o X X X X X o X X X X o X X X X X X X X X X = f C K 1.3.3.3.3.3.3.",
"3.3.3.3.3.3.3.3.3.,.> X X X X X o X X X X X X o X X o X X X X X o o X o X X X o o X X X X X X X X X X o X X o X : ,.3.3.3.1.3.3.",
"3.3.3.3.3.3.3.3.3.,.< X X X X X X X X X o X o o X X X X X X X X X o o o X X X X X X X X X X X X X X o X X X o o < ,.3.3.3.3.1.1.",
"3.3.3.3.3.3.3.3.2.,.< X X X X X X X X o X X X X o X X X X X X X X X X X X X X X X X X X X X X X X X X X X X X X < 1.3.3.3.3.3.3.",
"3.3.3.<.3.3.3.3.2.,., X X X X X X X X X X X X X X X o X X X o X o X X X X o X X X X o X X X X o X X X o X X X X ; f V &.3.1.3.3.",
"3.3.3.3.3.3.3.3.2.<.< o X X X X X X X X X X . X o o o o o X X X X X X o X X X X X X X X o X X X X o X X X X X X X X o p 3.3.3.3.",
"3.3.3.3.3.3.3.P V f = X X X X X X X X X X X o o o o o o X X X X X X X X X X o X X o X X X X X X X X X X X X % X X X X p 3.3.3.3.",
"3.3.3.3.3.3.3.i X X X X X X X X X X X X o X X X X X o X X X o X X X X o X X X X X X X X X X X X X X o X X X X X X X o p 3.3.2.3.",
"3.3.3.3.3.3.3.i X X o X X X X X X o X X X X o X X X X X X X X . X X X X X X o X X X X X X X X X X X X X X X o X X X o p 3.3.3.3.",
"3.3.3.3.3.3.3.p X X X X o X X o X X X X o X X X X X X X o o o o X o X X X X X X X X X X X X X X X X X X o X X X X X X p 3.1.3.3.",
"3.3.3.3.3.3.3.p o X X X X X X X X X o X X X X X o X X X o o o o X X X X X o X X X X X X X X X X X X o X X X X X X X o , V V =.3.",
"3.3.3.3.3.3.3.p X X X X X o X X o X X X X o o X X X X X X X X X X X o X X X X o X X X X X X X o X X X X o X o X o X X X o o Z 1.",
"3.3.3.3.3.3.3.u X X X o X X X X X X X X X X X X X X X o X X o X X X X X X o X X X X X X X o X X X o X X X X X X X X X X o o Z 3.",
"3.3.3.3.3.3.3.p X o X X X X o X X X X o X X X X o X X X X X X X o o X X X X X X X X X X X X X o X X X X X o X X X X o X X o Z 1.",
"3.3.3.3.3.3.2.p X X X o X X X X X X X X X X o X X X X X o X X o o o o o X X X o X X X X X X X X X X o X X X X X X X X X X o Z 3.",
"3.3.3.3.3.3.3.p & X X X X . o X X X X X X X o X X X o X X X X X o o X X o X X X X o X X X X X X X X X X o X X X X o X o X X Z 1.",
"3.3.3.3.3.3.3.p X X X X X X X o o X X X X X X X X X X X o X X X X X X X X X o X X X X X X o X X X o X X o X X X X X X X X X Z 1.",
"3.3.3.3.3.3.<.i o o   o X X X X X X X o X X X X X X X X X X X X X X X X X X X X X X X X X X X X X X X X X X X X X X X X X X Z 3.",
"2.3.2.3.<.3.3.p o o o X X X X X X X X X o X X X X X X X X X X X X X o X o X X X X o X X X X X o X X X o X X X o X X X X X o Z 3.",
"3.3.3.3.3.3.3.p o X X X X X o X o X X o X X o X X X X X X X X X X X X o X X X X X X X X X X X X X X X X X X o o X X X X X X C 1.",
"3.3.3.<.3.3.3.p o X X X X X X X X X X X X X X X X X X X X X X X X X X X X X X o X X o X X o X X X X X X X X o o X X X X X X C 1.",
"3.3.3.3.3.3.3.p X X o X X X X X X o X X X X X X X X X X X X X X o X X X X o X X o X X X X X X X X X X X X X X X X X X X X o Z 3.",
"3.2.3.3.3.3.3.P C V ; X ; V C u X X X X X o X X X X X X X X X X X X X X X X X X X X X X o X o X X X X X X = s C d = o < C C -.3.",
"3.3.3.3.3.3.3.3.1.<.: X < 1.3.Z X o X X % X X X X X o o X X X X . X X X X X X X X X X X X X X X X X X X X = ;.2.-.= X i 3.3.3.3.",
"3.3.3.3.3.3.3.3.2.2.K C L 1.3.Z X o p C Z C C C C C J C C t . & I Y Y Y Y 8 X X u C C C C C C C Z C C C Z Z ,.1.,.J C *.3.3.3.3.",
"3.3.3.3.3.3.3.3.2.3.3.3.1.1.3.Z o % J 2.3.3.3.3.2.2.2.2.2.p X 1 Q ^ ^ ^ ^ T   X J 1.1.1.3.3.3.3.3.1.3.3.3.3.3.3.2.3.3.3.3.3.2.3.",
"3.3.3.3.3.3.3.3.3.3.3.3.3.2.3.=.C J ;.1.3.3.2.:.s a a a a , X & 8 I G G G 6 X o t a s ,.3.3.3.3.3.1.3.3.3.3.3.3.2.3.3.3.3.3.3.3.",
"3.3.3.3.3.3.3.3.3.3.3.3.3.3.3.3.2.3.1.3.1.1.3.=.* X % X X X X X X . . X o X X X X % * =.3.3.3.3.3.3.3.3.3.2.3.3.3.2.3.3.3.3.3.3.",
"3.3.3.3.3.3.3.3.3.3.3.3.3.3.3.3.2.3.J a a p a y % X j ] ] ] ] ] ] [ [ ] ] ] ] ] ] [ ' N a p a i a a a *.3.3.3.3.3.3.3.3.3.3.3.3.",
"3.3.3.3.3.3.3.3.3.3.3.3.3.3.1.1.1.2.u % X X X X % X m b.b.b.b.b.x.x.b.b.b.b.b.x.b.b.z.0 X % X X X X % Z 3.3.3.3.3.3.3.3.3.3.3.3.",
"3.3.3.3.3.3.3.3.3.3.3.3.3.3.3.&.a p | [ ' $   # ' [ f.b.b.x.b.b.v.v.b.b.b.b.b.b.x.x.x.a.[ _ O X h [ [ M i s ;.3.3.3.3.3.3.3.3.3.",
"3.3.3.3.3.3.3.3.3.3.2.3.3.3.3.C X X [ b.z.g   h c.b.b.b.b.b.b.x.x.x.x.x.x.x.x.v.x.v.x.b.b.g.+   x b.b.x   & =.2.3.3.3.3.3.3.3.3.",
"3.3.3.3.3.3.3.3.1.3.3.3.:.p i M [ [ _ l m @.#.%.t.t.u.y.y.y.y.y.y.y.y.y.y.y.y.y.y.y.t.y.y.e.- X q z z ` [ ] n i f 2.3.3.3.3.2.3.",
"3.3.3.3.3.3.3.3.3.3.3.3.=.= X x b.b.z   * 6.q.9.8.8.8.8.0.8.8.8.8.8.8.8.8.8.8.8.8.8.8.8.w.5.* o o     ] b.z.g % < ,.2.3.3.3.3.3.",
"3.3.3.3.3.3.3.3.3.3.3.3.=.= X q z l q   - ..+.+.+.+.+.+.+.+.+.+.+.O.+.O.+.+.+.+.+.+.O.+.O.o.{ { x o & h l l + X < ,.3.3.3.3.3.3.",
"3.3.3.3.3.3.3.3.3.3.3.3.*.= X X     X X @ h.b.b.c.v.v.b.v.x.v.v.x.x.x.v.v.v.x.v.x.v.x.x.v.v.x.x.[ % X X X   X X < ,.3.3.3.3.3.3.",
"3.3.3.3.3.3.3.3.3.3.3.3.*.X X 7 W R R W E S l } r.u.y.y.y.y.y.y.y.y.y.y.y.y.y.y.y.y.y.y.y.y.y.y.( X X G R E 2 X < ,.3.3.3.3.3.3.",
"3.3.3.3.3.3.3.3.3.3.3.3.=.= X G ^ ^ ^ ^ / 3 . w 7.8.8.8.8.8.8.8.8.8.8.8.8.8.8.8.8.8.8.8.8.8.8.w.$.X X T ^ / 5 o < ,.3.3.3.2.3.3.",
"3.3.3.3.3.3.3.3.3.3.3.3.=.= o I ^ ^ ^ ^ ~ 3 X e X.O.O.O.O.O.O.O.O.O.O.O.O.O.O.O.O.O.O.O.O.O.O.O. .X X 5 8 8 H L &.2.3.3.3.3.3.3.",
"3.3.3.3.3.1.3.3.3.3.3.3.=.= X D / ^ / ^ ! 4 o h c.v.b.v.b.b.v.b.v.b.b.b.b.b.b.v.b.b.b.b.b.b.v.b.] X X X X * =.3.3.3.3.3.3.3.3.3.",
"3.3.3.3.3.3.3.3.3.1.3.3.=.= X 1 8 8 8 8 9 s.a.d.x.b.x.v.b.x.v.v.v.b.b.b.b.x.v.b.v.b.x.x.v.b.b.b.] X X a L P 4.1.3.3.3.3.3.3.3.3.",
"3.3.3.3.3.3.3.3.3.3.3.3.=.= & % X X . X + j.b.b.x.x.v.z.x.x.x.x.x.z.x.z.z.v.v.x.x.x.x.b.x.b.v.b.[ % X J 3.3.3.3.3.3.3.3.1.3.3.3.",
"3.3.3.3.3.3.3.3.3.3.3.3.,.&.P P P P t X @ j.b.k.l k k k k d.x.c.) k k k k ' b.v.x.x.x.x.x.x.x.b.[ X % C 3.3.1.3.3.1.3.3.3.3.3.3.",
"3.3.3.3.3.3.3.3.3.1.3.3.3.3.3.3.3.3.a X + g.x.f.o X . X   ] x.l.g X   X   z x.z.x.x.x.x.b.v.z.v.[ % % J 1.1.3.1.3.3.3.3.3.3.3.3.",
"3.3.3.3.3.3.3.3.3.3.3.3.3.3.3.3.3.3.-.&.L v k h o X X X X 0 j b A P C =   $ k j d.b.x.b.b.k.l k n P &.>.3.1.3.3.3.3.3.3.3.3.3.3.",
"3.3.3.3.3.3.3.3.3.3.3.3.3.3.3.3.3.3.3.3.<.> X   X X X X X   X * -.3.=.= X X X   ] z.z.z.x.f.O   a 1.1.1.3.1.3.3.3.3.3.3.3.3.3.3.",
"3.3.3.3.3.3.3.3.3.3.1.3.3.3.3.3.2.3.3.3.,.> X X X X X X X X X * -.2.-.= X X X X g k j k j v &.&.;.1.1.1.3.3.3.3.3.3.3.3.3.3.3.3.",
"3.3.3.3.3.3.3.3.3.3.3.3.3.3.3.3.3.3.3.3.1.< = % X X X X X X X = =.1.=.= = O X X X X   X   > 1.1.3.3.3.3.3.3.3.3.3.1.3.3.3.3.1.3.",
"3.3.3.3.3.3.3.3.3.3.3.3.3.3.3.3.3.3.3.3.2.*.&.Z = X X X X X X ; =.3.1.&.&.c X X o o X X X r 4.3.3.3.3.3.3.3.3.3.3.3.3.3.3.3.3.3.",
"3.3.3.3.3.3.3.3.3.3.3.3.3.3.3.3.3.2.3.3.3.3.3.-.; & & X X X X = -.3.3.3.3.J & = X = X O X r ,.3.3.3.3.3.1.3.3.3.3.3.3.3.3.3.3.3.",
"3.1.3.3.3.3.3.3.3.3.3.3.3.3.3.3.3.3.3.3.3.3.3.<.&.&.s X X X X = -.3.3.3.1.,.&.&.*.*.*.=.*.=.1.1.3.1.3.3.3.3.3.3.3.3.3.3.3.3.3.3.",
"3.3.3.3.3.3.3.3.3.3.3.3.3.3.3.3.3.3.3.3.3.3.3.3.3.3.J = * = = ; -.3.3.3.1.3.3.3.3.3.2.3.3.3.1.3.3.3.3.3.1.3.3.3.3.3.3.3.3.3.3.3.",
"3.3.3.3.3.3.3.3.3.3.3.3.3.3.3.3.3.3.3.3.3.3.3.3.3.3.,.*.*.*.*.*.2.3.3.3.3.3.3.3.3.1.3.3.3.3.3.3.3.3.3.3.3.3.3.3.3.1.3.3.3.3.3.1.",
"3.3.3.3.3.3.3.3.3.3.3.3.3.3.3.3.3.3.3.3.3.3.3.3.1.1.1.1.3.3.3.3.1.2.3.3.3.1.3.3.3.1.3.3.3.3.3.3.3.3.3.3.3.3.3.3.3.3.3.3.3.3.3.3.",
"3.3.3.3.3.3.3.3.3.3.3.3.3.3.3.3.2.3.3.3.3.3.3.3.2.2.1.1.3.3.3.3.3.2.3.3.3.3.3.3.3.3.3.3.3.3.1.3.3.3.3.3.3.3.3.3.3.3.3.3.3.3.3.3."
};
