/* XPM */
static char *frisk_standing_right_64_floor1757298843[] = {
/* columns rows colors chars-per-pixel */
"64 64 256 2 ",
"   c #0F0200",
".  c #140900",
"X  c #30181C",
"o  c #352500",
"O  c #3C2C01",
"+  c #3C2A0C",
"@  c #382509",
"#  c #3B2614",
"$  c #3C2915",
"%  c #3B251D",
"&  c #3B291D",
"*  c #36271A",
"=  c #2F2F0F",
"-  c #3B1E24",
";  c #3A1E25",
":  c #311D37",
">  c #193334",
",  c #2A2C27",
"<  c #362424",
"1  c #3C2624",
"2  c #3C2923",
"3  c #3C252A",
"4  c #3D2929",
"5  c #372929",
"6  c #272B38",
"7  c #362635",
"8  c #2A3631",
"9  c #133119",
"0  c #412C05",
"q  c #443301",
"w  c #443C00",
"e  c #493905",
"r  c #543A08",
"t  c #43251A",
"y  c #493617",
"u  c #50231D",
"i  c #431E2C",
"p  c #451E2A",
"a  c #451D33",
"s  c #4A1E39",
"d  c #471B38",
"f  c #412524",
"g  c #412B24",
"h  c #42242B",
"j  c #422A2B",
"k  c #4B2629",
"l  c #542929",
"z  c #563728",
"x  c #452333",
"c  c #4A2235",
"v  c #442933",
"b  c #4B233B",
"n  c #452838",
"m  c #522C3A",
"M  c #523238",
"N  c #471619",
"B  c #464200",
"V  c #5A4C02",
"C  c #594814",
"Z  c #675B09",
"A  c #66581C",
"S  c #5B6804",
"D  c #51691B",
"F  c #6C6A07",
"G  c #7B7505",
"H  c #756B15",
"J  c #736C0C",
"K  c #6B5426",
"L  c #576733",
"P  c #736B29",
"I  c #3B1C46",
"U  c #173549",
"Y  c #2B2943",
"T  c #392445",
"R  c #233449",
"E  c #32324F",
"W  c #342C66",
"Q  c #143C60",
"!  c #431D42",
"~  c #4E1D45",
"^  c #541F44",
"/  c #492347",
"(  c #552B44",
")  c #592848",
"_  c #5B2753",
"`  c #583556",
"'  c #4E3053",
"]  c #6C365E",
"[  c #6B3A5B",
"{  c #653354",
"}  c #6A3554",
"|  c #492D6C",
" . c #6C3764",
".. c #773C66",
"X. c #713871",
"o. c #621A6D",
"O. c #2F4651",
"+. c #144563",
"@. c #265568",
"#. c #2E4E73",
"$. c #1B4156",
"%. c #6D4459",
"&. c #784E4F",
"*. c #4D4B6E",
"=. c #754564",
"-. c #7A436B",
";. c #7A4569",
":. c #7A4572",
">. c #704C72",
",. c #5D7F70",
"<. c #847418",
"1. c #847A0A",
"2. c #846F26",
"3. c #813E74",
"4. c #85487A",
"5. c #875579",
"6. c #8D5273",
"7. c #8E637A",
"8. c #937A44",
"9. c #958F0C",
"0. c #ABAB13",
"q. c #908531",
"w. c #B6B033",
"e. c #A09E06",
"r. c #C5BD3E",
"t. c #D0CD3A",
"y. c #F7FE2D",
"u. c #F6FD34",
"i. c #FAFF34",
"p. c #F6FB3C",
"a. c #FBFE3C",
"s. c #F1F53A",
"d. c #E8F03F",
"f. c #DEE13A",
"g. c #A99A59",
"h. c #B4AC48",
"j. c #BBB348",
"k. c #B5AA58",
"l. c #AEA353",
"z. c #B99E66",
"x. c #BDB162",
"c. c #968746",
"v. c #C4B850",
"b. c #C8BE69",
"n. c #CECA42",
"m. c #D1CD49",
"M. c #D2CC50",
"N. c #E8E747",
"B. c #FCFE43",
"V. c #FBFD4A",
"C. c #F5F747",
"Z. c #EBE957",
"A. c #FBFC53",
"S. c #FDFB5B",
"D. c #F5F75A",
"F. c #F0F04D",
"G. c #D8CF62",
"H. c #E2DA6A",
"J. c #DCE36F",
"K. c #ECE76D",
"L. c #F4EE69",
"P. c #FDFC63",
"I. c #F9F564",
"U. c #FAF677",
"Y. c #EDEC70",
"T. c #E0DC47",
"R. c #663CA8",
"E. c #7B2D8B",
"W. c #2D5B88",
"Q. c #276389",
"!. c #33638E",
"~. c #3173A9",
"^. c #1C6391",
"/. c #575386",
"(. c #7A5887",
"). c #71518C",
"_. c #536E8F",
"`. c #6A6392",
"'. c #704EB1",
"]. c #517AAA",
"[. c #6F70B1",
"{. c #7658EA",
"}. c #7761E7",
"|. c #6A66EA",
" X c #6D5DD1",
".X c #8A4B83",
"XX c #924B87",
"oX c #8B5683",
"OX c #9B5C8D",
"+X c #955788",
"@X c #9C5C93",
"#X c #9F559B",
"$X c #9E5D9B",
"%X c #965B95",
"&X c #8D5298",
"*X c #A15C95",
"=X c #A4559D",
"-X c #AB569E",
";X c #A45C9C",
":X c #AA5A9D",
">X c #A75895",
",X c #AC5A94",
"<X c #98628B",
"1X c #9D6194",
"2X c #9B629A",
"3X c #88628E",
"4X c #A36295",
"5X c #A3629C",
"6X c #AA629D",
"7X c #A46A9C",
"8X c #A3618D",
"9X c #9F5DA2",
"0X c #824CAE",
"qX c #A655A2",
"wX c #AA56A5",
"eX c #A65AA3",
"rX c #A958A4",
"tX c #AB56AA",
"yX c #A65AAA",
"uX c #AB5AAA",
"iX c #A556A9",
"pX c #B157A8",
"aX c #A759B1",
"sX c #AD57AE",
"dX c #A862A4",
"fX c #B062AE",
"gX c #993ECD",
"hX c #8A50CD",
"jX c #8B6ACF",
"kX c #834AE4",
"lX c #995EF8",
"zX c #9170F8",
"xX c #A26DF4",
"cX c #3D8BBC",
"vX c #5B85A9",
"bX c #4C89B3",
"nX c #6994BA",
"mX c #69A0B4",
"MX c #359CDB",
"NX c #5298D1",
"BX c #6890C9",
"VX c #57A3C9",
"CX c #5AA4D6",
"ZX c #4EA8DE",
"AX c #64A4D7",
"SX c #61A3C9",
"DX c #589FF1",
"FX c #7497F1",
"GX c #4CA9E8",
"HX c #56A8E4",
"JX c #4EACF2",
"KX c #67A3EB",
"LX c #F1E083",
"PX c #8B87FA",
"IX c #8F89F3",
"UX c #8485C6",
/* pixels */
"pXpXwXwXeX;XeXeXrX;XwXpXwXwX-XwXtXpXtXiXuXuXyXeXeXeXrXrXrXrXuXwXwXwXwXwXiXuXyXrX:X;XrXwXuXtXqXuX=X:XeXeXeXrXeXeXeXeXrXuXwXwXiXuX",
"pXwXwX-XeXeX;XeX-XuXwX-X=X-X:X:X-XtXtXwXqX:X;XeX;X*X;XeX;XeXrXeX;X:XeXqXrXeXeXeX;X,X;XqXwXuXwXrXuXrXdXeXeXeXrXeXeXwXqXrXrXrXwXwX",
"wXwXwXeXeX9XeXrXwXuXpXwXrXuXwX=XeX;X;X>X*X4X4X1X1X1X1X1X@X$X5X*X*X*X5X$XeX9X$X2X4X4X;X;XyXuXqX=XqX=XwXwXwXrXuXrXwXrXrXrXrXrXrXrX",
"rXrXrX;XeXeXeXrXwXtXwXwXpXrXeX;X@X4. .]  .] [ [ [ [ [ [ [ [ [ ]  . .[ [  . .[ [ [ ] 4.>XeXyX;X6XrXwXuXrXuXrXrXwXwXrXrXrXrXrXeXeX",
"eXeXeX9XeXeXyXwXiXtXwXwXrX=X;X*X<X%.b d c a x x x x x c x c s a a x k x x c h p p c %.7.1X1X8X4X:XrXwXwXwXwXwXwXrXwXrXwXeXeXeX;X",
";X;XeXeXeXyXuXiXtXuXwXrXdXdX;XX.=.m i 3 h 1 ; f 1 3 1 1 1 3 f 1 f 1 % 1 1 - f t p - m } } ) { ..5X>X;XrXwX-XrXrXiXiXrXuXrXeXeXeX",
"eX;XeXrXyXyXyXrXwXrX;X;X*X@XoX^ a 1 1 h j g 2 4 1 2 2 2 1 1 4 2 % 2 & & & & % f v 3 f p f p b ` 1X5X;X:X6XeXrXwXuXtXrXrXrXeX;XeX",
"eXeXeXrXrXiXiXrX;XdX*X4X.X-.-.s 1 4 g 2 % 2 & * * < 2 & 2 2 % 2 & 2 2 & & & 2 4 3 3 3 4 1 h v ( ;.-.5.@X*X;XrXrXrXtXrXrXrXrXeX;X",
"=X-XtXuXwXwXrXeX;XOX8X<X%.b b x h 2 1 2 2 % 2 < 2 & 2 2 * 2 2 2 2 4 1 j # 1 5 3 3 7 3 3 2 < 4 j i s %.+XOX4X;XeXrXrXwXwXrXrXrXeX",
"uXwX-XwXwXuXuX;X@X ._ ( m h 3 - 1 4 2 2 2 2 2 2 2 < 2 < 2 2 2 1 1 3 3 2 4 2 4 3 5 3 3 7 5 2 2 < 4 h b ( ) 4.@X;XrXrXtXuXrXrXrXeX",
"wXwXtXpXiXtXeX*X+X) p p h 4 f 1 1 f 1 1 1 1 1 2 2 2 1 2 1 1 1 4 h h 1 ; 1 g 2 < 4 2 5 5 2 & & & 1 1 h a s :.1X;XeXrXwXtXwXwXrXrX",
"-X-XuXpXwX-X;X4XOXm p h % % 2 2 1 4 f 4 1 5 1 4 2 2 4 1 1 4 1 1 3 3 h t % # # y 2 % & # & $ = $ & 2 3 x s -.@X6XrXrXwXiXrXrXrXeX",
"wXwXuXwXeXeX4XOX5.m h 2 2 & 2 % 1 1 f f 1 4 1 f 4 4 1 f 1 4 f h v ; j t + O q o & # t O O + # & & & 4 h s ..@X:XrXwXtXwXwXrXrXeX",
"pX-XwX-XeXeX.X] %.h 4 % & 2 2 1 1 1 1 1 f f 1 1 1 1 4 1 f 1 1 4 h 1 $ o q g.k.q.# & P k.k.P t 1 & 4 h a s -.*XeXrXwXtXuXrXeX;X;X",
":XrXrX;XrX*XX.d s 3 1 % 2 * 2 2 1 2 % 1 4 1 1 2 2 1 1 1 4 % 2 2 % @ + w V G.L.h.0 @ q.U.LXq.t % g & f c ) ..*X;XwXtXtXrXeXeX;X;X",
":X:XrXqXeX=X4.s h h 4 < 2 % 1 2 2 2 2 2 1 2 1 1 & 2 1 1 1 2 1 & & y l.M.m.D.P.w.O O 9.I.P.9.q % t 2 ( ;.5.@XeX:XrXtXuXwXrXeXeXeX",
"wXwXrXyXyX9X=.i f 2 4 5 5 2 2 & 2 2 g 2 1 4 3 2 % 2 4 < 2 4 g & % q M.A.A.V.V.0.e q 9.D.S.9.q O $ j m oX1XeXdX:XwX:XrX:XrXrXeXrX",
"wX-XrXyXyX$X;.h % 2 5 5 5 2 f & 1 2 < 4 4 5 2 % $ @ @ 2 4 4 X & % q t.a.a.B.V.N.r.v.f.C.V.N.w.x.y g ( <XdX#X=XrXrX-XrXrXrXwX:XrX",
"wX:XrXrXyX$X=.k f & 5 7 1 1 1 1 * j 1 * 2 4 # @ O q 0 O @ g 1 h - q n.B.p.B.p.B.V.V.B.a.B.V.A.H.C h ( 5.$X;XpXwXrXrXrXrXrXrX:X:X",
":XwXrXrXyX$X=.p f 1 3 3 1 1 f f % % 2 1 2 * C g.h.h.j.k.c.q @ t p q m.B.a.B.p.a.B.B.C.V.V.B.B.Z.r h ( 1X6X>XrXwXwXwXrXyXyXrX-X:X",
";XeXeXeXeX$X;.i f 1 3 3 4 1 f t t # 3 3 h @ V Y.P.A.A.S.r.e e 0 g 0 m.B.p.u.B.a.N.I.Z.L.Z.F.C.T.r x ) @X=XuXtXtXrXrXrXrXeXeXqXrX",
";XeXeXyXeX2X;.i f 1 4 3 4 1 f t & 2 v < % + V Y.C.a.y.a.F.n.M.K # 0 n.a.a.u.B.0.B w w w B 0.A.T.V t m 4X6XfXiXwXwXrXrXeXeXyXrXeX",
"rX;XeXeXeX*X;.a h 1 4 2 1 1 g g 1 1 1 j # O Z H.I.C.a.y.i.A.U.H @ e n.B.p.a.B.e..     . . 1.A.f.V O z 6.4X=XqXsXrX:X:XrXeXrXyXyX",
"wXqXrXrXdX*X;.a h 1 2 < 2 2 & & 1 j - 4 # t 0 P J 9.F.B.a.V.I.G O O t.B.u.u.B.f.w.j.h.j.w.T.C.C.t.v.z.K [ XXfXqXrXrX;X>XeXeXrXwX",
":XrXrXeXeX5X;.s h j 2 2 2 * * 2 2 2 1 5 3 4 1 @ o F Y.I.F.A.I.F O e t.p.i.y.u.a.p.V.A.D.A.V.u.u.B.P.G.r N ..;XrXrXrXrX;X:X:XrX:X",
"rXwXwXrXeX;X..d ; 3 4 * 4 2 & & & 2 j 5 3 3 v j 2 y P G 0.P.I.n.w.w.N.B.i.i.y.y.i.y.a.B.B.p.p.s.s.D.H.e N 6.5XrXeXeXeXeXrX-X-X-X",
"rXwXiXuXrX*X4.{ ( h j 2 < 1 % 2 2 < < 3 1 5 < < 1 & 0 o F K.Z.A.A.V.B.i.i.u.i.a.a.u.u.s.V.N.F.D.L.J.b.r u ..@X:XrXrXyXiXtX:X:X-X",
"rXwXtXuX:X;X@X+X5.( 1 h 1 v - j 1 4 h 4 4 1 % 2 j < 2 + w F F t.B.p.a.i.i.u.u.p.a.B.a.p.V.e.B O w B q N l =.4X:X;XrXrXyXwXuXwXwX",
"uXrXtXwX=X>X6X4X<X( s h s b s a h 1 % % 1 % 1 h 4 1 j & 0 o O v.S.a.a.s.i.i.i.i.B.p.y.a.C.G . .     . d ~ X.:X:X:XwXrXyXiXiXtXwX",
"rXqXwXtXrX:XeX*XOX_ b s ;.5.-.s x h f f f f 4 1 - v - % t O 0 v.S.s.B.B.B.a.a.B.V.B.p.p.A.m.h.l.& X ' .X.X%X-X:X:XeXeXyXtXuXuXwX",
":X;XiXuXwXwXeX;X%X_ ^ ) <X7X+X) b n h 1 h v n 1 h h 1 f + O q w.V.B.C.S.S.S.I.I.D.S.P.P.D.U.LXLXz 3 %.%XeXeX=XpX-X;XeXrXrXrXrXeX",
"eXeXuXtX-X:XrXeX;X+XXXOXOX$X*X+X5.[ a x %.7.5.{ x - j # A l.j.N.B.s.e.1.1.<.2.<.<.<.G H 9.H <.2.6.4.oX2XeXuXrXwXrXwXeXrXrXeXeXrX",
"rXqXuXrXrXrXrXrXrXeX;X;XeX;XeX;X*X3._ _ 4.2X@X .( l f O J U.P.C.a.N.Z q @ z u l u l k k j k z } 8X4X:XeXrXrXrXqXrXrXrXrXwXrXrXrX",
"rXrXrXqXrXrXrXrXrXrXwXrXrXrXrXrX=X>X@X@X9XeXyX%X7.7.M @ H I.F.V.a.I.A # { oX+X8X8XOX<X2X2X<X+X*X,XwXrXrXrXrXrXrXrXrXuXqXrXrXrXrX",
"rXrXrXrXrXrXrXrXrXrXrXrXrXrXrXrXyXdX;X;XeXeXpXqX6X1X) N 2.U.L.P.I.H.K - { 1X6X,X,X8X=XyXdXyX;X6XrXrXrXrXrXrXwXrXrXrXrXrXrXrXrXqX",
"rXrXrXrXrXrXrXrXrXrXrXrXrXrXrXrX=X;XrXeX$X9XtXpX=X@X{ k u P H J J P y k ` @X:X-X,X:XrXyXiXtXwXwXrXrXrXrXrXwXeXrXrXrXrXrXrXrXrXrX",
"rXrXrXrXrXrXrXqXrXrXrXrXrXrXrXwXpXpX>X=XeXrXpXpXfX*X_ p * , 9 = @ # 4 v { 5XdX$X>X-XrXeX:XpX:X-X:XrXrXwXrXeXrXrXrXrXwXrXrXrXrXqX",
"rXrXrXrXrXrXrXrXrXrXrXrXrXrXrXwXwXpX:X=X*XeXuX&X&X).) f O._._.O.Y 6 7 : ` (.).%XdXrXeXeX;XrXuX:XrXrXrXrXrXwXrXrXrXrXrXrXrXrXrXuX",
"rXrXrXrXrXwXrXrXrXrXrXrXqXrXrXrX=XeX=X;X6X2X&X>.W W h 4 @.VXAX^.U R E R $.W E X.9X;X9XdX$X9XeXqXrXrXrXrXrXrXwXrXrXrXrXrXrXrXrXrX",
"rXrXrXqXrXrXrXrXrXrXqXrXrXrXrXrXyXeXrXdXoX .).[.[.`.5 , @.CXGXNXbXvXvXvXvXvX[.`. ...+XeX9X#XrXtXrXrXrXrXrXrXeXwXqXrXrXrXrXrXrXqX",
"rXrXrXrXrXrXrXrXrXrXrXrXrXrXrXrXuXtXtXeX4.T | UXUXnX6 8 #.CXZXHXSXBXFXFXFXPXIX'.7 h +XeXqXrXpXwXrXrXrXrXrXrXrXrXuXrXrXrXwXrXrXrX",
"rXrXrXrXrXrXwXrXrXrXrXrXrXrXwXrXiXsXuXeX:.T | [. X'.T 8 #.AXCX~.W.W. X|.|.}.{.'.7 4 oXeX#X-X:X:XrXrXrXrXrXrXrXrXqXrXrXrXrXrXrXrX",
"rXuXrXqXrXrXrXrXrXrXrXrXwXeXwXrXqXuXrX$X4.~ | 0XhXR.T 6 @.CXCXW.Y ! R. XkXkX{.'.Y 6 (.2XuXpX;XeXrXwXrXrXqXrXrXrXrXrXrXrXrXqXqXuX",
"rXqXrXrXqXrXrXrXrXrXrXrXrXrXrXrXuXwX9X$X:.~ o.jXxXhXT 8 @.CXAX#.7 s hXlXlXlXlXjX[.`.(.:.3.*XeXiXrXrXqXrXuXrXrXqXrXrXrXrXrXrXrXrX",
"uXqXrXrXuXrXqXrXrXrXrXrXeXwXeXwX,X-X;X5X5.! | jXxXjXT > @.mXnX*.; ! jXPXPXzXPXzXPXIX'.I ~ +XeX9XrXrXrXrXrXrXrXrXrXrXqXrXrXrXrXrX",
"rXrXrXrXrXrXrXrXrXrXrXrXwXrXwXwX-XpXwX;X5.: | jXhX'.T , 8 O.O.8 4 / '.hX}.{.{.{.{.}./.I / XXdXrXrXrXrXrXrXrXrXrXrXrXrXrXrXrXrXrX",
"rXrXrXrXrXrXrXrXrXrXrXrXrXrXrXrXwXpXpX*X:.d | '.hX'./ 2 = B = q o M ).gXgXhXkXkX{.{.o.~ _ 6.;XrXeXrXrXrXrXwXrXrXrXrXqXuXrXrXrXwX",
"rXqXrXwXrXrXrXrXrXrXrXrXrXrXrXrXeXrXwX;X5.7 | jXzXhX7 & A x.v.j.v.z.3.o.E.gXxXzXlXzX).7 ~ 5.6X*XeXrXrXrXuXrXqXrXrXrXrXrXrXrXrXrX",
"rXrXrXrXrXrXrXrXrXrXrXrXrXrXrXrXeXqXuX>X4.T +.BXFX[.Y + H Y.P.S.I.LXK 7 E BXDXJXDXFX_.7 s +X4X;XeXwXeXwXrXrXrXrXrXrXrXrXrXrXrXrX",
"rXrXrXrXrXrXqXuXrXwXrXrXrXrXrXrX;XeXuX=X4.7 $.VXJXNXR = H U.D.C.C.U.K , Q VXJXMXJXHX_.Y ~ OX6X;XeXeXwXrXrXrXqXrXrXrXrXrXrXqXrXrX",
"rXrXrXrXrXrXrXqXrXrXrXrXrXrXrXrXeX;XpXpXXX! #.VXJXcXQ 8 P J.Z.D.D.H.L U Q cXJXHXHXBX`.' _ XXeXrXrXrXrXrXwXrXrXrXrXrXrXrXwXrXrXrX",
"rXrXrXwXrXrXrXrXrXrXrXqXrXrXrXeX;X=XwXpX4.! W VXGXGXbXvX,.D D S F D ,.bXcXHXHXcXQ W./.3X%XuXeXeXrXrXwXeXeXwXrXrXrXrXwXrXrXrXrXrX",
"rXrXrXrXrXrXrXrXrXrXrXrXrXrXrXeX;XrXpXyX.X/ *.nXCXGXJXHX].U 8 8 9 > bXHXHXHXCXvXW W -.@X5X$X=XrXeXrXrXrXrXwXrXrXrXuXrXrXrXrXrXrX",
"qXrXrXrXwXrXuXqXrXrXqXrXrXrXqXeX;XuXuXrX$X(.(._.W.~.JXGXNXbX].].vX~.HXJXZX^.W.*.0X+X@X6XeXdX@X;XeXwXrXrXwXeXrXwXrXqXrXrXrXrXqXrX",
"uXqXrXrXrXrXrXrXrXrXqXuXrXrXrXrXrX-XqXqXdXdXOX) : #.VXZXCXCXAXAXAXCXCXAXmX$.Y ` 2X*X>X*X=X;X;XqXeXrXwXrXrXrXrXeXwXrXrXrXrXrXuXrX",
"rXrXrXrXrXrXrXrXrXrXrXrXrXrXrXrXwXwXuXrX=X;X8X} 3 Y #.Q.Q.#.!.Q.Q.!.!.W.*.E b [ ;X>XpX:X;XrXeXwXeXrXrXrXrXrXrXwXrXrXrXrXrXqXrXrX",
"rXrXrXrXrXwXrXuXrXrXrXrXqXrXrXrXqXwX;X6XwXrXOX{ s n 6 > 6 6 6 6 6 6 6 7 < v d  .9XeXeX:XwXpXtXtXwXrXrXrXrXrXrXwXrXrXrXrXrXrXrXrX",
"rXrXrXrXrXrXrXqXqXrXrXrXrXrXrXrXrXrX,X:XwXwX5X4...[ n 1 f f < g x 7 3 f ; %...(.9XyXeX:X-XwXpXtXiXrXrXrXrXrXrXrXrXrXrXrXqXuXrXqX",
"rXrXqXrXrXrXrXrXuXrXwXrXqXrXrXyXyXrX>XrXtXtXuX#X6X%X` v k j % % 1 3 h h m 6.@X;XeXyXeX;XrXwXpXtXtXrXrXqXrXrXrXrXrXrXrXrXrXrXrXrX",
"uXqXrXrXrXrXrXrXrXrXrXrXrXrXrXrXyXyX;XrXtXtXtXrXeX$X_ a p h k f 1 ; h h c } 3.XXeXeXeXeXeXrXtXpXuXrXrXrXuXqXrXrXqXrXrXrXrXrXrXrX",
"rXqXrXrXrXrXrXrXrXrXrXrXrXrXrXrXqXuXyXiXdXeXrXrX9X2X` / b b c c c n v j x n ) ] >X:X>X;XeXrXwXwXwXrXrXrXrXrXrXrXrXrXrXrXrXrXrXrX",
"rXrXrXrXrXqXrXrXqXrXrXrXrXrXrXrXrXuXyX9X9XeXeXrXeXdX+XoX5.5.+X5.5.7.5.5.5.oX.X=X:X:XeX;X;X;XrXrXrXrXwXrXqXrXrXrXrXrXrXrXrXwXrXrX",
"rXrXrXrXrXrXrXrXuXrXrXrXrXrXrXeX-X-XtXtX9X9XwXpX-X-X>X6X;XeX9X9XeX:X*X>X=XtXwXiXiXuXeX;X;XrXwXrXrXrXrXrXrXrXrXrXwXrXrXrXrXrXrXrX",
"wXrXrXrXrXrXrXwXrXrXrXrXqXrXwX:X-X-XpXpX;X$XwXpXpX,X-X-X-XrXaXyXuXwX-XpXtXsXsXsXaXuXeX;X:X;XeXwXrXrXrXrXuXqXrXrXrXrXrXqXrXuXqXrX"
};
