/* XPM */
static char *frisk_walking_left_64_floor_21757298844[] = {
/* columns rows colors chars-per-pixel */
"64 64 251 2 ",
"   c #0C0700",
".  c #1A0800",
"X  c #341C08",
"o  c #2F1E0E",
"O  c #352301",
"+  c #3C2B01",
"@  c #3B290C",
"#  c #392607",
"$  c #3C3300",
"%  c #3B2414",
"&  c #3B251D",
"*  c #3B291D",
"=  c #372718",
"-  c #2F2C0D",
";  c #3C1E25",
":  c #3C1D2B",
">  c #3F1C3C",
",  c #1B2F35",
"<  c #292928",
"1  c #3C2624",
"2  c #3B2923",
"3  c #35242A",
"4  c #3D252A",
"5  c #34292B",
"6  c #3C292A",
"7  c #362823",
"8  c #2B2735",
"9  c #3D2432",
"0  c #36263B",
"q  c #253239",
"w  c #2E332B",
"e  c #422D02",
"r  c #412C0B",
"t  c #452408",
"y  c #493806",
"u  c #42251E",
"i  c #422A1C",
"p  c #422915",
"a  c #483512",
"s  c #421D2D",
"d  c #471C26",
"f  c #441D33",
"g  c #491C39",
"h  c #432424",
"j  c #422A25",
"k  c #42242C",
"l  c #412B2B",
"z  c #4A252C",
"x  c #442433",
"c  c #4A2434",
"v  c #4C223B",
"b  c #472935",
"n  c #532C3C",
"m  c #54273A",
"M  c #51313B",
"N  c #483B35",
"B  c #354520",
"V  c #5A4A05",
"C  c #5D5605",
"Z  c #5A5414",
"A  c #4D4211",
"S  c #655714",
"D  c #696406",
"F  c #726804",
"G  c #776A17",
"H  c #6F6E10",
"J  c #57572C",
"K  c #685F32",
"L  c #776A25",
"P  c #756F2E",
"I  c #19384F",
"U  c #362A45",
"Y  c #283349",
"T  c #343949",
"R  c #313154",
"E  c #35396C",
"W  c #471B47",
"Q  c #521D4D",
"!  c #4D2541",
"~  c #542544",
"^  c #532942",
"/  c #5A2A44",
"(  c #592749",
")  c #583348",
"_  c #532F57",
"`  c #61374A",
"'  c #642C59",
"]  c #693859",
"[  c #67314D",
"{  c #522970",
"}  c #6B3762",
"|  c #753B67",
" . c #652A7E",
".. c #304650",
"X. c #324F71",
"o. c #1C4966",
"O. c #6E4659",
"+. c #4D4E72",
"@. c #694568",
"#. c #774768",
"$. c #7E5173",
"%. c #7A4C74",
"&. c #47657E",
"*. c #55756E",
"=. c #75645E",
"-. c #857D18",
";. c #85772B",
":. c #877834",
">. c #813E73",
",. c #8E734B",
"<. c #844A78",
"1. c #8B567B",
"2. c #91587E",
"3. c #854E6C",
"4. c #A76A6F",
"5. c #7D8436",
"6. c #61827B",
"7. c #958E1B",
"8. c #A29D18",
"9. c #AAAA15",
"0. c #9A9239",
"q. c #948B2C",
"w. c #A39B2A",
"e. c #A6A626",
"r. c #BCBA38",
"t. c #B0A733",
"y. c #9FA31D",
"u. c #C2B937",
"i. c #C0BB29",
"p. c #D1D030",
"a. c #F7FE2D",
"s. c #E7E937",
"d. c #F5FC33",
"f. c #FBFF34",
"g. c #F7FC3A",
"h. c #FBFE3C",
"j. c #FBF73C",
"k. c #9A8B45",
"l. c #AB9849",
"z. c #B8AF4D",
"x. c #C6BC54",
"c. c #D9D54B",
"v. c #D5CD50",
"b. c #E7E944",
"n. c #FCFD43",
"m. c #F5FC4A",
"M. c #FBFC4A",
"N. c #F5F749",
"B. c #EEF15C",
"V. c #FCFC53",
"C. c #F5F55B",
"Z. c #FCFD5C",
"A. c #F6F856",
"S. c #EDED54",
"D. c #D7D568",
"F. c #E9D775",
"G. c #FDFD64",
"H. c #F7F366",
"J. c #EFEA6F",
"K. c #E9D952",
"L. c #682A86",
"P. c #7B3CB5",
"I. c #54378B",
"U. c #1D5182",
"Y. c #28668A",
"T. c #395F83",
"R. c #515089",
"E. c #665A81",
"W. c #4F7295",
"Q. c #7C4FB4",
"!. c #5475AB",
"~. c #7B60A7",
"^. c #707ACE",
"/. c #507AC2",
"(. c #8E32A0",
"). c #8C4A84",
"_. c #8D5382",
"`. c #875A84",
"'. c #945B85",
"]. c #965C8A",
"[. c #9A5B8D",
"{. c #975688",
"}. c #9C5694",
"|. c #965C94",
" X c #9D5B93",
".X c #9D5D9A",
"XX c #9C5599",
"oX c #984F8A",
"OX c #A25D94",
"+X c #A4569C",
"@X c #AB559E",
"#X c #A45B9C",
"$X c #AA5A9D",
"%X c #A75A95",
"&X c #B0569D",
"*X c #99618B",
"=X c #9C6193",
"-X c #9B629A",
";X c #A4629B",
":X c #A46397",
">X c #A26287",
",X c #9C5AA3",
"<X c #8851AC",
"1X c #A655A3",
"2X c #AA56A4",
"3X c #A65AA3",
"4X c #A958A4",
"5X c #AB56AA",
"6X c #A65AAB",
"7X c #AC59AA",
"8X c #A356A9",
"9X c #B05AA4",
"0X c #B155A6",
"qX c #AE59B1",
"wX c #846AAD",
"eX c #A461A3",
"rX c #A563A5",
"tX c #A733CE",
"yX c #A538E6",
"uX c #A636F0",
"iX c #933CDB",
"pX c #9948DA",
"aX c #904AC8",
"sX c #9849EE",
"dX c #9266E8",
"fX c #3F89B8",
"gX c #50839D",
"hX c #5787AA",
"jX c #4689BA",
"kX c #5387B7",
"lX c #4D90AA",
"zX c #7087B9",
"xX c #388DC4",
"cX c #3A91CE",
"vX c #3CACFA",
"bX c #3BB1F7",
"nX c #4A99C9",
"mX c #589CD6",
"MX c #4B98CF",
"NX c #6D91D7",
"BX c #4EA6DA",
"VX c #5C9AE4",
"CX c #6B99FB",
"ZX c #728EF2",
"AX c #47AAE7",
"SX c #55A7E6",
"DX c #44ABFD",
"FX c #49AAF7",
"GX c #49AFF6",
"HX c #63A5E1",
"JX c #858AEB",
/* pixels */
"5X4X5X3X3X#X#X#XrX2X2X5X9X0X2X9X5X5X2X$X%X%X1X6X3X#XOX:X3X6X6X4X5X2X5X2X2X4X4X2X3X2X2X2X2X2X3X2X9X@X2X2X7X1X5X3X3X3X3X3X4X2X2X0X",
"4X4X3X#X#X$X3X3X+X3X7X2X2X7X2X7X5X3X@X$X%X%X#X3X#X=X>XOX,X3X3X3X#X#X#X#X%X$X#X$X#X#X%X$X#X$X#X#X$X%X@X@X1X7X7X4X3X6X4X3X$X3X9X0X",
"2X3X4X3X3X3X2X2X5X7X2X2X+X#X#X#X3X3X3X#X[.{. X].].].].].|.}.[.].].].].*X].*X].].*X].].{.*X{.].].[.}.rX#X+X5X3X2X7X4X6X3X$X4X2X@X",
"3X3X5X3X2X2X5X5X5X9X+X$X#X;X:X=X=X.X|.<.' Q ( ^ ( ~ ~ ~ ( ~ m m m n ^ v n v ^ n ^ v ^ n ^ n ^ ^ ~ ( '.OX;X$X9X3X4X1X4X4X3X2X2X$X",
"#X3X4X4X7X5X0X5X4X@X$XrX=X%.%.#.$.$.$.O.c s k h k 4 k k h h k k k 4 k k 4 k k 4 k k k 4 k k k k c v #.$.<. X$X+X7X4X$X5X2X2X2X3X",
"3X3X4X4X4X5X5X5X4X#XOX X1.! v c s h h k ; 4 j j h 4 4 4 h h h 2 h 2 2 2 4 2 2 4 6 2 4 2 2 4 2 7 1 k f g g _.OX$X#X3X$X#X4X3X2X2X",
"3X3X2X2X5X5X$X#X#X).| #.] x x ; k k 4 k x 4 6 1 * 7 7 6 1 1 2 & 1 1 1 1 1 1 4 1 & 1 1 1 1 1 1 2 7 6 4 x g #.<.<.<.:X;X#X3X4X5X7X",
"2X3X2X2X3X$X#XOX[.#.f x x k k k 4 4 4 3 6 1 2 2 2 * 7 6 4 5 * * 2 1 1 1 1 2 1 1 1 2 1 2 4 1 h 2 6 2 1 4 c s v g | [.;X%X;X7X1X5X",
"2X5X2X1X3X#X X1.3.` x 4 k 4 4 4 h 1 1 & = i * * 7 6 1 6 6 2 & j 1 4 h 4 4 2 h 1 h 4 4 2 4 h 1 2 2 7 1 1 4 h k k ` 3.<.<.#X4X1X7X",
"5X2XqX3X3X;X_.( v 9 6 6 2 1 1 j 1 4 j 2 i = * = 4 6 6 6 1 2 & 2 1 1 j 1 h 1 4 1 2 h 4 h 1 4 2 4 2 7 7 2 1 1 1 4 1 z g ( _.3X7X5X",
"5X7X5X@X#X#X'.g 4 1 7 7 2 2 1 h 4 4 ; ; j & * p i & 6 l 7 2 * * * 1 1 & 1 1 2 1 1 1 2 * 1 & 1 1 2 4 2 2 * 1 2 1 j 4 s f _.:X3X+X",
"qX5X5X2X#X X*X~ b 6 1 = 2 2 j & p t @ p 1 k X r O + % & 1 h * u 1 2 2 2 2 1 2 2 2 * 1 2 2 2 2 2 4 6 1 2 2 * * * = 1 4 v 1.[.:X:X",
"2X5X1X7X4X%X{.Q : 4 6 2 * = 4 p 0.t.l.:.p z y k.t.z.P p 4 ; 2 * * 2 2 2 2 2 7 7 2 2 2 2 7 2 2 * 2 1 2 1 2 2 2 * 2 2 l k ) ] ] ] ",
"$X4X2X2X3X@X{.( g k j 2 & = j y D.G.G.t.X p y D.H.C.w.e y % % 1 2 2 7 1 2 2 1 1 2 2 2 7 2 2 2 4 * 1 2 1 4 7 2 2 1 * 1 4 6 b c f ",
"3X#X3X2X2X2X%X<.#.) 4 1 2 * j y c.V.N.t.+ i y D.V.n.p.e.e.;.r 4 1 7 4 1 1 1 1 7 1 1 7 2 4 2 4 2 1 2 1 h 4 h 4 h 6 2 2 2 1 4 h 4 ",
"3X+X4X9X0X2X2X#X*X| l 2 @ O + A p.n.n.9.e O V c.h.a.n.V.A.x.r 2 1 1 6 6 6 6 6 4 4 1 4 4 4 2 2 2 * 2 2 1 2 4 h 2 1 1 1 2 * & 2 1 ",
"$X#X9X5X2X5X2X3X;X} 4 p y 0.w.y.s.f.h.p.9.8.9.s.n.h.n.M.A.r.e = * 7 l 9 3 l z ; 4 1 k 6 1 2 = 1 2 2 1 1 1 2 & i 1 1 & j 1 2 2 1 ",
"4X4X3X2X0X5X5X3XXX#.x @ C F.G.M.g.f.g.n.N.V.n.j.f.n.g.n.V.r.$ * 2 = 6 j & % # e + + @ % = 6 1 & 4 4 4 * * * * & * h 1 h 2 1 2 2 ",
"3X6X4X1X2X2X#X#X X@.d t V J.M.j.f.a.d.g.M.n.M.f.f.h.f.f.M.r.r 4 l 2 2 @ V k.q.w.8.7.0.S @ 1 1 6 4 2 2 1 1 2 1 2 h 2 4 1 2 1 2 2 ",
"3X3X2X5X9X+X#X#X:X] d r V J.M.j.N.A.Z.B.B.C.N.M.h.f.a.f.n.r.r 2 = i + O -.H.G.N.V.V.H.-.# = 6 6 4 1 1 2 2 2 2 1 4 4 4 2 1 1 2 & ",
"&X@X@X9X9X1X6X3X-XO.6 r V D.V.b.H C Z Z Z C D b.n.g.a.f.n.u.e u r k.x.i.p.N.n.h.h.V.H.-.O 6 2 2 & h & 2 2 4 4 6 6 4 6 4 7 1 * 2 ",
"@X&X@X9X5X1X6X|.*XO.@ + C S.V.b.-           o p.N.h.a.f.n.u.e p y x.C.n.n.n.j.f.N.H.H.;.@ 1 7 2 2 2 1 2 2 2 6 6 6 7 6 2 4 2 1 h ",
"3X4X1X3X3X#X.X@.) ,.z.r.i.d.j.N.9.y.y.y.y.y.9.s.n.h.f.j.M.u.e p + v.V.f.h.f.f.N.w.:.,.A = 7 9 9 2 2 1 2 2 2 7 7 7 7 7 7 2 1 h 4 ",
"3X7X3X4X,X3X{.m t l.J.V.g.a.f.j.m.g.m.m.m.m.g.d.n.f.f.f.M.u.e e e x.M.g.M.A.m.H.K # @ % 2 2 9 4 2 & 2 * 1 2 7 2 2 2 * 2 1 4 k h ",
"2X@X4X7X3X3X[.m t 0.H.M.d.a.f.n.g.g.g.f.f.f.a.f.g.h.f.f.f.s.e.t.9.b.g.h.c.7.;.P a j * * * 2 1 & 2 2 & 1 2 2 j 2 * 7 * 7 l k f s ",
"9X2X2X5X1X3X|.m t l.J.G.A.Z.Z.N.d.f.f.f.f.f.f.f.f.n.f.f.f.n.n.V.V.V.N.C.z.e O + = & 2 6 6 2 2 * 2 2 6 2 j & * % = * 2 1 k : g ! ",
"4X7X2X7X3XeX'.c % J L H H H G F s.j.h.n.n.j.f.f.g.f.h.n.g.g.h.M.C.e.7.q.P O * 2 7 l 4 x 6 1 & 2 2 7 4 1 h ; j h j h 4 z O.#.#.#.",
"3X4X6X6X6X#X'.[ c o . . . . . X c.h.j.j.n.j.h.f.f.f.h.n.g.h.f.n.H.F O X @ * l 2 7 1 4 4 4 h u % 2 4 k k s m m c b z s c 1.*X-X-X",
"$X#X2X7X5X@X:XoXoX2.1.1.1.1.3.,.K.n.j.h.n.n.n.j.f.a.f.g.n.n.f.n.H.F + p % j & j j % j u u z u h h 4 : f v 3.2.2.2.' g Q 1.=X.X#X",
"$X#X2X3X5X2X9X&X%X@X6X3X+X$X$X4.F.C.A.C.H.B.H.S.A.N.Z.C.S.N.h.f.C.F $ + r i 4 j j & u h s z z h z 4 v v Q <. X:X%X} g Q _.;X3X#X",
"3X3X7X@X9X@X@X2X5X1X6X6X6X6X#X>X,.L L L L L L ;.H G G G G w.N.j.j.p.p.z.k.p & ; k k M O.$.%.%.( 4 b #.$.1.#X7X#X3X}.).).}.#X$X2X",
"3X3X7X+X2X9X@X2X2X5X6X8X6X3X3X[.m d d u h h u u u p p t + F C.f.h.d.g.Z.x.+ u x ! v n `.rX,X#X' v / ].[.#X#X4X1X1X3X3X$X3X4X2X5X",
"3X3X4X4X4X4X4X4X4X4X4X4X4X3X4X:X{.'.{.{.1.2.'._.1.1.O.z X G G.h.f.f.d.m.z.$ j / _.{._..XrX8X3XoX}.}.}.+X3X4X3X2X2X3X3X3X4X4X4X4X",
"2X4X2X4X4X4X2X4X4X4X4X2X2X3X5X4X+X3X@X3X#X3X$X#X3X X#.h i P J.C.S.A.A.B.z.a u /  X4XrX.X,X1X9X9X2X2X2X3X2X2X2X7X4X2X2X4X2X4X4X2X",
"7X3X3X2X2X4X3X2X4X4X2X2X3X5X2X2X5X9X2X4X1X6X,X3X$X:X#.h % A P -.:.;.L P K u d /  XXX4X#X#X$X$X2X2X2X3X2X2X3X2X2X4X2X2X4X4X2X4X4X",
"2X2X2X4X4X4X2X4X4X4X3X2X2X2X3X7X2X@X3X3X8X6X6X#X%X>X#.l = - @ @ % * w w 0 1 h [ *X#X3X9XOXOX+X2X2X3X2X2X+X2X2X3X4X3X4X4X4X3X2X4X",
"2X3X2X4X3X2X2X4X4X3X4X4X2X4X4X4X3X,X1X4X5X+X%X| ] ] ^ 9 2 * & 7 w W.lXlX&.q 6 z ` } } %X3X5X5X7X3X2X4X4X4X4X2X2X2X4X3X2X4X4X3X2X",
"4X4X4X2X4X4X4X4X4X4X3X5X3X2X2X3X7X3X6X+X@X%X]._ U Y R Y T 0 Y Y I lXAXBXgXq 6 6 8 U _ E.#X3X3X1X4X2X4X4X4X4X3X3X4X4X2X4X2X4X2X4X",
"4X2X4X4X2X4X2X2X3X2X2X3X2X2X2X2X+X@X3X{.3.3.E.W.nXxXxXxXjXjXfXjXxXbXFXSXhXq w 8 W.jX!.W.@.} ).-X3X4X4X4X4X4X3X5X4X4X2X4X2X3X4X4X",
"4X3X2X4X2X2X3X2X2X5X3X2X2X2X3X3X0X@X@X<.d f U ^.ZXCXCXCXCXCXmXBXBXbXDXSXgX, 5 T ^.ZXNXR.0 f #. X$X4X4X4X4X4X4X4X2X3X2X3X7X2X4X4X",
"2X4X4X4X4X4X3X2X2X7X4X2X3X2X2X2X@X2X6X| g c W <XsXsXsXsXsX<X+.X.X.nXFXAXgXq < W P.sXaXI.f d | OX$X2X4X2X4X4X4X2X2X4X4X3X2X4X4X4X",
"4X4X2X3X2X4X2X4X2X2X4X3X3X2X3X$X$X#X,XE.U U R Q.iXuXuXiXtXL.W < I jXFXFX!., 7 ! P.pXaX .f s #.#X3X4X4X3X3X2X4X3X4X4X4X4X2X4X3X2X",
"3X4X4X2X2X3X4X4X3X2X2X2X@X3X2X#X#.] +.E.!.!./.ZXJXdXQ.{ } ( j = , kXFXFXW., 8 U !.ZX^.R.0 s | #X$X4X4X2X2X4X4X2X4X2X4X2X4X4X2X4X",
"2X2X4X4X7X2X4X4X2X3X2X2X2X2X7XOX~ x U R.ZXCXZX^.NXzX*.l a a y A B *.mXVX!._ Q Q ^.JXdXR.U x | #X3X4X4X4X4X2X4X4X2X3X4X4X3X4X2X4X",
"4X4X3X2X3X4X2X4X3X2X2X3X3X2X2XOX^ x 0  .pXpXQ.I.E N ,.D.D.c.c.v.D.P ..R L.(.tXtXyXyXaXL.g g | 6X4X4X4X4X4X3X2X4X2X3X4X2X2X3X2X2X",
"2X4X2X4X2X2X2X3X4X4X3X2X2X2X2X Xm l 0 { pXsXQ.{ > # q.H.V.N.M.Z.J.D - U L.pXuXuXyXyXaX .g d | 3X3X4X4X4X4X2X4X2X2X4X4X4X2X7X4X4X",
"4X4X4X4X4X4X4X4X2X2X2X2X2X3X3X X( k 3 +.ZX^.^.E 0 # 7.G.m.g.n.M.J.H - 8 X.NXZX^.^.ZXJXR.3 k @..X3X4X4X4X4X4X2X2X4X4X4X4X4X4X4X3X",
"3X4X2X2X3X4X4X2X2X2X3X3X2X2X5X X( 4 3 &.CXFXVXU.I , 5.J.B.S.S.H.J.K w Y Y.VXDXvXDXFXVXT.8 x @.-X3X3X4X4X4X2X3X2X3X7X2X3X4X4X4X@X",
"2X4X4X2X2X3X2X2X7X3X2X2X4X4X$X%X( f 8 &.mXDXFXcXcXlX*.J J Z S J J gX!.MXBXbXvXbXDXAXSXX.8 9 @.-XeX6X6X5X$X3X2X4X3X7X1X4X3X3X$X$X",
"2X4X3X4X4X4X4X4X4X2X3X4X7X2X5X X( f U &.mXAXbXGXGXSXW.Y , q q q I gXSXFXvXbXDXGXAXBXNX+.0 x #.=X,X,X1X3X7X7X2X1X7X1X6X6X4X3X@X$X",
"4X4X2X4X4X4X3X4X4X4X4X4X3X5X3X3X].`.1.@...o.U.mXAXAXnXxXjXkXkXkXfXBXvXvXbXbXGXBXY.X.+.0 4 s } ;XrX3X3X3X$X2X2X2X3X4X1X4X3X3X$X3X",
"4X4X2X4X2X4X2X4X4X4X4X4X2X2X3X3X,X-X*X#.9 q ..!.nXnXnXmXmXHXNXNXNXSXVXVXMXnXnXlX..w 5 6 k x O.=X].[.;X#X#X$X2X2X5X3X4X3X3X3X2X2X",
"3X2X2X4X4X3X4X2X4X4X4X4X2X2X2X4X3XeX=X#.k 3 5 ! ....T T R E.wXwXwX~.~.R.R Y ..T w 7 6 6 3 9 ! ) ' ] {.OX#X$X2X3X2X2X3X3X2X2X2X7X",
"7X2X4X4X4X2X4X4X4X4X4X4X2X3X3X3X}.[.'.O.h 4 c k = 2 4 4 9 #.-X3X,XeXrX=XO.0 5 < 2 2 6 6 7 5 0 9 g ( 2.OX$X3X2X@X2X@X2X$X2X3X7X5X",
"3X4X4X2X2X4X4X2X4X4X2X4X4X3X2X%X' / n z 1 1 k s 2 2 2 l x ` -X.X3X$XrX:X%.x 5 6 w = = 6 * & h k f / {.%X#X2X2X5X@X$X$X$X3X4X5X5X",
"2X2X2X3X4X4X2X3X4X4X4X4X4X3X1X%X/ d z 1 2 2 ; l 7 2 1 9 b _ -X3X#XoX<.#.` c 9 6 2 * 2 2 1 u i & d ~ {.OX3X3X2X7X2X2X@X@X3X4X5X6X",
"4X4X3X4X4X4X3X4X4X5X2X7X3X2X3X%X( v 9 6 2 1 k k 2 2 ; b f ~ [.#X%X| v : x 0 9 k 2 * u k z d * 1 f } ].;X3X5X5X5X9X@X$X$X3X2X7X4X",
"4X2X2X4X4X2X2X4X2X3X2X2X2X3X+X#X' ( ( _ ^ M ( / M M v ) ( ] }.$X+X<.` M ) ^ ^ ( n n n / ' ( M M | _.-XeX3X5XqX5X2X$X@X$X@X3X4X4X",
"4X2X2X4X2X3X4X4X2X2X3X2X3X2X2X#X-X X|.|.|.-X|. X*X'.'.>X{.}.2X7XqX1X[.{.[.[. XOX X}.%XXX+XXX'.].[.-X3X3X6X5X5X7X2X3X@X$X2X3X4X2X",
"2X3X4X4X4X2X2X4X3X2X2X3X2X3X5X3X#X#X.X3X,X3X1X3X$X$X$X$X$X2X5X5X5X5X+X%X;X$X$X#X1X6X3X5X5X5X@X%X;X#X3X1X1X6X7X2X2X7X$X4X2X4X4X7X",
"4X4X4X4X4X2X4X4X3X2X4X2X3X2X2X3X$X$X$X9X0X0X5X9X0X5X5X5X7X7X2X2X#X#X;X$X4X3XXX.X6X8X6X3X3X5X7X2X7X3X1X3X7X4X3X2X4X4X3X3X3X2X4X2X",
"4X2X3X4X4X4X3X2X2X3X4X4X2X2X2X2X#X$X@X0X0X0X2X5X7X5X5X2X5X7X+X3X3X;X@X4X7X7X3X4X3X3X3X.X3X5X5X5X7X5X5X4X4X2X$X3X3X3X4X3X2X2X9X2X",
"3X2X2X2X2X2X4X2X2X4X2X4X4X4X2X4X4X4X5X0X0X0X3XeX3X3X#X@X2X2X3X3X6X6X3X@X1X2X$X$X2X9X&X@X6X6X4X4X5X7X2X3X$X@X@X3X3X3X3X3X2X2X2X9X",
"2X4X4X4X3X4X4X4X7X4X2X3X4X4X2X3X1X2X2X2XqX5X,X.X3X3X$X$X2X#X$XXXqX5X2X@X3X3X%X&X&X&X&X2X5X6X3X3X5X2X2X0X@X$X$X$X3X3X6X4X7X2X2X2X"
};
