/* XPM */
static char *_811e8a8281e4812873d77bd4ac400cegq0oPKpUklbnI3mk[] = {
/* columns rows colors chars-per-pixel */
"64 64 46 1 ",
"  c #FDE700",
". c #FEE600",
"X c #FFE600",
"o c #FEE700",
"O c #FFE700",
"+ c #FFE601",
"@ c #FFE701",
"# c #FEE800",
"$ c #FFE800",
"% c #FFE900",
"& c #CBC33A",
"* c #CCC33A",
"= c #CBC539",
"- c #C9C639",
"; c #CAC43A",
": c #CBC53B",
"> c #CCC43B",
", c #C8C63F",
"< c #CCC63C",
"1 c #CBC839",
"2 c #E9E337",
"3 c #EDE737",
"4 c #EFE835",
"5 c #E7E339",
"6 c #E9E239",
"7 c #EAEB38",
"8 c #F3E932",
"9 c #F4EC32",
"0 c #F7ED33",
"q c #F0E936",
"w c #F1ED36",
"e c #F7EE37",
"r c #F1EA3A",
"t c #A857A3",
"y c #A957A3",
"u c #A857A4",
"i c #AA57A5",
"p c #A75AA2",
"a c #A759A4",
"s c #A759A5",
"d c #A959A2",
"f c #A958A4",
"g c #A958A5",
"h c #AA58A4",
"j c #AA59A5",
"k c #AB59A5",
/* pixels */
"ffffffffffffffffffffffffffffffffffffffffffffffffffffffffffffffff",
"ffffffffffffffffffffffffffffffffffffftffffffffffffffffffffffffff",
"ffffffffffffffffffffffffffffffffftffffffffffffffffffffffffffffff",
"ffffffffffffffffffffffffffffffffffffffffffffffffffffffffffffffff",
"ffffffffffffffffffffffffaffffaOOOtffffffffffffffffffffffffffffff",
"ffffffffffffffffffffffffffffffOO#fffffffffffffffffffffffffffffff",
"ffffffffffffffffffffffffffffffOOOfffffffffffffffffffffffffffffff",
"ffffffffffffffffffffffffffffff#OOfffffffffffffffffffffffffffffff",
"ffffffffffffffffffffffffffffffOOOfffffffffffffffffffffffffffffff",
"ffffffffffffffffffffffffffffftOOOfffffffffffffffffffffffffffffff",
"fffffffffffffffffffffffffauffOOOOfffffffffffffffffffffffffffffff",
"ffffffffffffffffffffffffffO###OOOOOfffffffffffffffffffffffffffff",
"ffffffffffffffffffffffffffOOOOOOO#Offfffffffffffffffffffffffffff",
"ffffffffffffffffffffffffffOOOOOOOOOfffffffffffffffffffffffffffff",
"ffffffffffffffffffffffffftOO#OOOOOOffdffffffffffffffffffffffffff",
"ffffffffffffffffffffffffffOOO#OOOO#fffafffffffffffffffffffffffff",
"ffffffffffffffffffffffffffOOOOOOOOOfafffffffffffffffffffffffffff",
"ffffffffffffffffffffffffffOOOOOOOOOfffadffffffffffffffffffffffff",
"ffffffffffffffffffffffffffOOOOOO#OOfffffffffffffffffffffffffffff",
"ffffffffffffffffffffffffffOOOOOOOO#fffffffffffffffffffffffffffff",
"ffffffffffffffffffffffffffOOOOOOOO#fffftffffffffffffffffffffffff",
"ffffffffffffffffffffffffffOOOOOOOOO#845fffffffffffffffffffffffff",
"ffffffffffffffffffffffffffOOOOOOOOOOOO7fffffffffffffffffffffffff",
"ffffffffffffffffffffffffffOOOOOOOOOOOOqfffffffffffffffffffffffff",
"ffffffffffffffffffffffffOOOOOOOOOOOOOOOOw3262OOfffffffffffffffff",
"fffffffffffffftfffffffffOOOOOOOOOOOOOOOOOOO#OO#fffffffffffffffff",
"ffffffffffffffffffffffffOOOOOOOOOOOOOOOOOOOOOOOfffffffffffffffff",
"fffffffffffffafdffffOOOOOOOOOOOOOOOOOOOOOOOOOOOOOOOOOOOOffffffff",
"ffffffffafffffffffffOOOOOOOOOOOOOOOOOOOOOOOOOOOOOOOOOOOOffffffff",
"fffffffffffffff#OOOOOOOOOOOOOOOOOOOOOOOOO##OOOOOOOOOOOOOffffffff",
"fffffffffffffffOOOOOOOOOOOOOOOOOOOOOOOOOOOOOOOOOOOOOOOOOffffffff",
"ffffffffffO#OOOOOOOOOOOOOOOOOOOOOOOOOOOOOOOOOOOfffffffffffffffff",
"ffffffffffOOO#OOOOOOOOOOOOO#OOOOOO#OOOOOOOOOOOOfffffffffffffffff",
"ffffffffff,*::><::&:1#OOOOOOOOOOOOOOOOOOOOOOOOOfffffffffffffffff",
"ffffffffaftffffffffffOOOOOOOO#OOOOOOOO##OOffffffffffffffffffffff",
"fffffffffffffffffffffOOOO#O#OOOOOOOOOO#OO#ffffffffffffffffffffff",
"ffffffffffffdffffftff##OOOOO#OOOO##OOOOOOOffffdfffffffffffffffff",
"fffffffffffffffffffffffffftOOOOO##OOOOOuffufffddffffffffffffffff",
"ffffffffffffffffffffffatfffO#OOOOO#OO0Offfffffffffffffffffffffff",
"fffffffffffffffafffffffffffOOOOOOO##OOOfffafffffffffffffffffffff",
"fffffffffffffffffffffffftftOOOOOOOOOOOOfffffffffffffffffffffffff",
"ffffffffffffffffffffffffffpfffOOOOO#OOOfffffffffffffffffffffffff",
"ffffffffffffffffffffffffffffff#OOOOOOOOfffffffffffffffffffffffff",
"ffffffffffffffffffffffffftffat#OOOOOOOOfffffffffffffffffffffffff",
"ffffffffffffffffffffffffdfffff#OOOOOOOOfffffffffffffffffffffffff",
"ffffffffffffffffffffffffffffffeO#OOOOOOfffffffffffffffffffffffff",
"fffffffffffffffffffffffftffatfOO0#OOOOraffffffffffffffffffffffff",
"ffffffffffffffffffffffffffaafaffOOOfffffffffffffffffffffffffffff",
"ffffffffffffffffffffffffffffffffOO#ffftfffffffffffffffffffffffff",
"ffffffffffffffffffffffffffffffff#O#fffffffffffffffffffffffffffff",
"ffffffffffffffffffffffffffffffffOOOfffffffffffffffffffffffffffff",
"ffffffffffffffffffffffffffffffffOOOfffffffffffffffffffffffffffff",
"ffffffffffffffffffffffffffffffff#OOfffffffffffffffffffffffffffff",
"ffffffffffffffffffffffffffffffff#O#ffffdffffffffffffffffffffffff",
"ffffffffffffffffffffffffffffffffffffffffffffffffffffffffffffffff",
"fffffffffffffffffffffffffffffffffaffffffffffffffffffffffffffffff",
"ffffffffffffffffffffffffffffffffffffffffffffffffffffffffffffffff",
"ffffffffffffffffffffffffffffffffffffffffffffffffffffffffffffffff",
"ffffffffffffffffffffffffffffffffffffffffffffffffffffffffffffffff",
"ffffffffffffffffffffffffffffffffffffffffffffffffffffffffffffffff",
"ffffffffffffffffffffffffffffffffffffffffffffffffffffffffffffffff",
"ffffffffffffffffffffffffffffffffffffffffffffffffffffffffffffffff",
"ffffffffffffffffffffffffffffffffffffffffffffffffffffffffffffffff",
"ffffffffffffffffffffffffffffffffffffffffffffffffffffffffffffffff"
};
