/* XPM */
static char *determination_64_broke_floor1757275527[] = {
/* columns rows colors chars-per-pixel */
"64 64 30 1 ",
"  c black",
". c #010000",
"X c #000100",
"o c #010100",
"O c #010101",
"+ c #000201",
"@ c #000002",
"# c #010002",
"$ c #010103",
"% c #A857A3",
"& c #A957A3",
"* c #AA57A5",
"= c #A759A4",
"- c #A959A2",
"; c #AA58A2",
": c #A958A4",
"> c #A958A5",
", c #AA58A4",
"< c #AA59A5",
"1 c #AB59A5",
"2 c #A85AA5",
"3 c #AA59A6",
"4 c #D3D3D1",
"5 c #D2D2D2",
"6 c LightGray",
"7 c #D4D2D3",
"8 c #D2D4D1",
"9 c #D2D4D3",
"0 c #D3D3D5",
"q c gray83",
/* pixels */
":::::::::::::::::::::::::::::%::::::::::::::::::::::::::::::::::",
"::::::::::::::::::::::::::::::::=:::::::::::::::::::::::::::::::",
"::::::::::::::::::::::::::-:::::::::::::::::::::::::::::::::::::",
":::::::::::::::::::::::::&::::::::::::::::::::::::::::::::::::::",
"::::::::::::::::::::::::::::-:...:::::::::::::::::::::::::::::::",
"::::::::::::::::::::::::::::::.9.:::::::::::::::::::::::::::::::",
"::::::::::::::::::::::::::::::.q.:::::::::::::::::::::::::::::::",
":::::::::::::::::::::::::-:::..0.:::::::::::::::::::::::::::::::",
":::::::::::::::::::::::::::::.60.=%:%::=::::::::::::::::::::::::",
"::::::::::::::::::::::::-::::.66.::::=::::::::::::::::::::::::::",
"::::::::::::::::::::::::::.....6..:%::::::::::::::::::::::::::::",
"::::::::::::::::::::::::::...0660..:::::::::::::::::::::::::::::",
"::::::::::::::::::::::::-:...0669..:::::::::::::::::::::::::::::",
"::::::::::::::::::::::::-:...6666..::-::::::::::::::::::::::::::",
"::::::::::::::::::::::::::...66669.:::::::::::::::::::::::::::::",
"::::::::::::::::::::::::::...66600.::=::::::::::::::::::::::::::",
"::::::::::::::::::::::::::...06699.-::::::::::::::::::::::::::::",
"::::::::::::::::::::::::::$..06660.:%:::::::::::::::::::::::::::",
"::::::::::::::::::::::::::....9966.=::::::::::::::::::::::::::::",
":::::::::::::::::::::::::-....+96..:::::::::::::::::::::::::::::",
"::::::::::::::::::::::::::.....66..:::::::::::::::::::::::::::::",
"::::::::::::::::::::::::::...6..6......:::::::::::::::::::::::::",
"::::::::::::::::::::::::::...6..666966.:::::::::::::::::::::::::",
":::::::::::::::::::::::::....6..660660.:::::::::::::::::::::::::",
":::::::::::::::::::::-::..9666..66666666.......:::::::::::::::::",
"::::::::::::::::::::::::.066666..6666666.60606.:::::::::::::::::",
":::::::::::%::::::::::...6q666..66666666669996.:::::::::::::::::",
"::::::::::::::::::::...666666..666666666666696..........::::::::",
"::::::::::%:::::::...9666666666...666666666666660666669.::::::::",
":::::::::::-:::....6666666666666..666666666666669666606.::::::::",
"::::::::::......0q666666666966..6666666666666606666.....::::::::",
"::::::::::.....099666666666066..66666666666666......::=%::::::::",
"::::::::::.66690666..69066667666...66666966966.:::::::::::::::::",
"::::::::::..............666666906.6666069.0q...:::::::::::::::::",
":::::::::::::::::::::....666666..66666660....:::::::::::::::::::",
":::::::::::::::=:::::.....66966...6666660.::-:::::::::::::::::::",
"::::::::::::%::::-:::......966666.6666....::=:::::::::::::::::::",
"::::::::%::::=:::::::.:.....66666.666..:::::::::::::::::::::::::",
"::::::::::=%::%:::::::::....0699...00..:::::::::::::::::::::::::",
":::::::::::::::::::::::::....97966.66..::::%=:::::::::::::::::::",
":::::::::::::::::::::::::::...006.666..:::::::::::::::::::::::::",
":::::::::::::::::::::::::1-:::..6..69..:::::::::::::::::::::::::",
"::::::::::::::::::::::::::::::..66.60..:::::::::::::::::::::::::",
"::::::::::::::::::::::::::::::..9.660..:::::::::::::::::::::::::",
"::::::::::::::::::::::::::::::..6..66..:::::::::::::::::::::::::",
"::::::::::::::::::::::::::::::..66.6...:::::::::::::::::::::::::",
"::::::::::::::::::::::::::::::...6.....:::::::::::::::::::::::::",
"::::::::::::::::::::::::::::::::.6..::::::::::::::::::::::::::::",
"::::::::::::::::::::::::::::::::.0.:::::::::::::::::::::::::::::",
"::::::::::::::::::::::::::::::::.0.:::::::::::::::::::::::::::::",
"::::::::::::::::::::::::::::::::.0.:::::::::::::::::::::::::::::",
"::::::::::::::::::::::::::::::::...:::::::::::::::::::::::::::::",
"::::::::::::::::::::::::::::::::...:::::::::::::::::::::::::::::",
"::::::::::::::::::::::::::::::::...:::::::::::::::::::::::::::::",
"::::::::::::::::::::::::::::::::::%2::::::::::::::::::::::::::::",
"::::::::::::::::::::::::::::::::::::::::::::::::::::::::::::::::",
"::::::::::::::::::::::::::::::::::::::::::::::::::::::::::::::::",
"::::::::::::::::::::::::::::::::::::::::::::::::::::::::::::::::",
"::::::::::::::::::::::::::::::::::::::::::::::::::::::::::::::::",
"::::::::::::::::::::::::::::::::::::::::::::::::::::::::::::::::",
"::::::::::::::::::::::::::::::::::::::::::::::::::::::::::::::::",
"::::::::::::::::::::::::::::::::::::::::::::::::::::::::::::::::",
"::::::::::::::::::::::::::::::::::::::::::::::::::::::::::::::::",
"::::::::::::::::::::::::::::::::::::::::::::::::::::::::::::::::"
};
