/* XPM */
static char *_757190733543[] = {
/* columns rows colors chars-per-pixel */
"128 32 7 1 ",
"  c black",
". c #222A5C",
"X c #37446E",
"o c #AB1F65",
"O c #158968",
"+ c #566A89",
"@ c None",
/* pixels */
"@@@@@@@@@@@@@@@@@@@@@@@@@@@@@@@@@@@@@@@@@@@@@@@@@@@@@@@@@@@@@@@@@@@@@@@@@@@@@@@@@@@@@@@@@@@@@@@@@@@@@@@@@@@@@@@@@@@@@@@@@@@@@@@@",
"@@@@@@@@@@@@@@@@@@@@@@@@@@@@@@@@@@@@@@@@@@@@@@@@@@@@@@@@@@@@@@@@@@@@@@@@@@@@@@@@@@@@@@@@@@@@@@@@@@@@@@@@@@@@@@@@@@@@@@@@@@@@@@@@",
"@@@@@@@@@@@@@@@@@@@@@@@@@@@@@@@@@@@@@@@@@@@@@@@@@@@@@@@@@@@@@@@@@@@@@@@@@@@@@@@@@@@@@@@@@@@@@@@@@@@@@@@@@@@@@@@@@@@@@@@@@@@@@@@@",
"@@@@@@@@@@@@@@@@@@@@@@@@@@@@@@@@@@@@@@@@@@@@@@@@@@@@@@@@@@@@@@@@@@@@@@@@@@@@@@@@@@@@@@@@@@@@@@@@@@@@@@@@@@@@@@@@@@@@@@@@@@@@@@@@",
"@@@@@@@@@@@@@@@@@@@@@@@@@@@@@@@@@@@@@@@@@@@@@@@@@@@@@@@@@@@@@@@@@@@@@@@@@@@@@@@@@@@@@@@@@@@@@@@@@@@@@@@@@@@@@@@@@@@@@@@@@@@@@@@@",
"@@@@@@@@@@@@@@@@@@@@@@@@@@@@@@@@@@@@@@@@@@@@@@@@@@@@@@@@@@@@@@@@@@@@@@@@@@@@@@@@@@@@@@@@@@@@@@@@@@@@@@@@@@@@@@@@@@@@@@@@@@@@@@@@",
"@@@@@@@@@@@@@@@@@@@@@@@@@@@@@@@@@@@@@@@@@@@@@@@@@@@@@@@@@@@@@@@@@@@@@@@@@@@@@@@@@@@@@@@@@@@@@@@@@@@@@@@@@@@@@@@@@@@@@@@@@@@@@@@@",
"@@@@@@@@@@@@@@@@@@@@@@@@@@@@@@@@@@@@@@@@@@@@@@@@@@@@@@@@@@@@@@@@@@@@@@@@@@@@@@@@@@@@@@@@@@@@@@@@@@@@@@@@@@@@@@@@@@@@@@@@@@@@@@@@",
"@@@@@@@@@@@@@@@@@@@@@@@@@@@@@@@@@@@@@@@@@@@@@@@@@@@@@@@@@@@@@@@@@@@@@@@@@@@@@@@@@@@@@@@@@@@@@@@@@@@@@@@@@@@@@@@@@@@@@@@@@@@@@@@@",
"@@@@@@@@@@@@@@@@@@@@@@@@@@@@@@@@@@@@@@@@@@@@@@@@@@@@@@@@@@@@@@@@@@@@@@@@@@@@@@@@@@@@@@@@@@@@@@@@@@@@@@@@@@@@@@@@@@@@@@@@@@@@@@@@",
"@@@@@@@@@@@@@@@@@@@@@@@@@@@@@@@@@@@@@@@@@@@@@@@@@@@@@@@@@@@@@@@@@@@@@@@@@@@@@@@@@@@@@@@@@@@@@@@@@@@@@@@@@@@@@@@@@@@@@@@@@@@@@@@@",
"@@@@@@@@@@@@@@@@@@@@@@@@@@@@@@@@@@@@@@@@@@@@@@@@@@@@@@@@@@@@@@@@@@@@@@@@@@@@@@@@@@@@@@@@@@@@@@@@@@@@@@@@@@@@@@@@@@@@@@@@@@@@@@@@",
"@@@@@@@@@@@@@@@@@@@@@@@@@@@@@@@@@@@@@@@@@@@@@@@@@@@@@@@@@@@@@@@@@@@@@@@@@@@@@@@@@@@@@@@@@@@@@@@@@@@@@@@@@@@@@@@@@@@@@@@@@@@@@@@@",
"@@@@@@@@@@@@@@@@@@@@@@@@@@@@@@@@@@@@@@@@@@@@@@@@@@@@@@@@@@@@@@@@@@@@@@@@@@@@@@@@@@@@@@@@@@@@@@@@@@@@@@@@@@@@@@@@@@@@@@@@@@@@@@@@",
"@@@@@@@@@@@@@@@@@@@@@@@@@@@@@@@@@@@@@@@@@@@@@@@@@@@@@@@@@@@@@@@@@@@@@@@@@@@@@@@@@@@@@@@@@@@@@@@@@@@@@@@@@@@@@@@@@@@@@@@@@@@@@@@@",
"@@@@@@@@@@@@@@@@@@@@@@@@@@@@@@@@@@@@@@@@@@@@@@@@@@@@@@@@@@@@@@@@@@@@@@@@@@@@@@@@@@@@@@@@@@@@@@@@@@@@@@@@@@@@@@@@@@@@@@@@@@@@@@@@",
"@@@@@@@@@@@@@@@@@@@@@@@@@@@@@@@@@@@@@@@@@@@@@@@@@@@@@@@@@@@@@@@@@@@@@@@@@@@@@@@@@@@@@@@@@@@@@@@@@@@@@@@@@@@@@@@@@@@@@@@@@@@@@@@@",
"@@@@@@@@@@@@@@@@@@@@@@@@@@@@@@@@@@@@@@@@@@@@@@@@@@@@@@@@@@@@@@@@@@@@@@@@@@@@@@@@@@@@@@@@@@@@@@@@@@@@@@@@@@@@@@@@@@@@@@@@@@@@@@@@",
"@@@@@@@@@@@@@@@@@@@@@@@@@@@@@@@@@@@@@@@@@@@@@@@@@@@@@@@@@@@@@@@@@@@@@@@@@@@@@@@@@@@@@@@@@@@@@@@@@@@@@@@@@@@@@@@@@@@@@@@@@@@@@@@@",
"@@@@@@@@@@@@@@   @@@@@@@@@@@@@@@@@@@@@@@@@@@@@@  @@@@@@@@@@@@@@@@@@@@@@@@@@@@@@@@@@@@@@@@@@@@@@@@@@@@@@@@@@@@@   @@@@@@@@@@@@@@@",
"@@@@@@@@@@@@@ XXX @@@@@@@@@@@@@@@@@@@@@@@@@@@@ XX @@@@@@@@@@@@@@@@@@@@@@@@@@@@   @@@@@@@@@@@@@@@@@@@@@@@@@@@@ XXX @@@@@@@@@@@@@@",
"@@@@@@@@@@@@@ XXX @@@@@@@@@@@@@@@@@@@@@@@@@@@ XXX @@@@@@@@@@@@@@@@@@@@@@@@@@@ XXX @@@@@@@@@@@@@@@@@@@@@@@@@@@ XXX @@@@@@@@@@@@@@",
"@@@@@@@@@@@@@ XO @@@@@@@@@@@@@@@@@@@@@@@@@@@@ XX @@@@@@@@@@@@@@@@@@@@@@@@@@@@ XXX @@@@@@@@@@@@@@@@@@@@@@@@@@@ XX @@@@@@@@@@@@@@@",
"@@@@@@@@@@@@ XOO @@@@@@@@@@@@@@@@@@@@@@@@@@@@ XO @@@@@@@@@@@@@@@@@@@@@@@@@@@@ XO @@@@@@@@@@@@@@@@@@@@@@@@@@@ XOO @@@@@@@@@@@@@@@",
"@@@@@@@@@@@@ XOOO @@@@@@@@@@@@@@@@@@@@@@@@@@ XOOO @@@@@@@@@@@@@@@@@@@@@@@@@@ XOO @@@@@@@@@@@@@@@@@@@@@@@@@@@ XOO @@@@@@@@@@@@@@@",
"@@@@@@@@@@@ +++OO @@@@@@@@@@@@@@@@@@@@@@@@@@ XOOO @@@@@@@@@@@@@@@@@@@@@@@@@@ XOOO @@@@@@@@@@@@@@@@@@@@@@@@@ +++OO @@@@@@@@@@@@@@",
"@@@@@@@@@@ +++++X @@@@@@@@@@@@@@@@@@@@@@@@@ +++OO @@@@@@@@@@@@@@@@@@@@@@@@@ +++OO @@@@@@@@@@@@@@@@@@@@@@@@ +++++X @@@@@@@@@@@@@@",
"@@@@@@@@  +.+.++X @@@@@@@@@@@@@@@@@@@@@@@  +++++X @@@@@@@@@@@@@@@@@@@@@@@  +++++X @@@@@@@@@@@@@@@@@@@@@@  +.+.++X @@@@@@@@@@@@@@",
"@@@@@   ..++...X @@@@@@@@@@@@@@@@@@@@@@  .+.+.++ @@@@@@@@@@@@@@@@@@@@@@  .+.+.++X @@@@@@@@@@@@@@@@@@@@@ ..++...XX @@@@@@@@@@@@@@",
"@@@@ ....  +++  @@@@@@@@@@@@@@@@@@@@@  ...++... @@@@@@@@@@@@@@@@@@@@@  ...++...X @@@@@@@@@@@@@@@@@@@@  ..  +++   @@@@@@@@@@@@@@@",
"@@@@     @@ o @@@@@@@@@@@@@@@@@@@@@@ ..    +++ @@@@@@@@@@@@@@@@@@@@@ ...   +++  @@@@@@@@@@@@@@@@@@@@ ..  @@ o @@@@@@@@@@@@@@@@@@",
"@@@@@@@@@@@ o @@@@@@@@@@@@@@@@@@@@@@   @@@@ o @@@@@@@@@@@@@@@@@@@@@@    @@@ o @@@@@@@@@@@@@@@@@@@@@@   @@@@ o @@@@@@@@@@@@@@@@@@"
};
