/* XPM */
static char *_757190647979[] = {
/* columns rows colors chars-per-pixel */
"192 48 6 1 ",
"  c black",
". c #D22F1E",
"X c #FF8142",
"o c #FFA468",
"O c #FFF6AE",
"+ c None",
/* pixels */
"++++++++++++++++++++++++++++++++++++++++++++++++++++++++++++++++++++++++++++++++++++++++++++++++++++++++++++++++++++++++++++++++++++++++++++++++++++++++++++++++++++++++++++++++++++++++++++++++",
"++++++++++++++++++++++++++++++++++++++++++++++++++++++++++++++++++++++++++++++++++++++++++++++++++++++++++++++++++++++++++++++++++++++++++++++++++++++++++++++++++++++++++++++++++++++++++++++++",
"++++++++++++++++++++++++++++++++++++++++++++++++++++++++++++++++++++++++++++++++++++++++++++++++++++++++++++++++++++++++++++++++++++++++++++++++++++++++++++++++++++++++++++++++++++++++++++++++",
"++++++++++++++++++++++++++++++++++++++++++++++++++++++++++++++++++++++++++++++++++++++++++++++++++++++++++++++++++++++++++++++++++++++++++++++++++++++++++++++++++++++++++++++++++++++++++++++++",
"++++++++++++++++++++++++++++++++++++++++++++++++++++++++++++++++++++++++++++++++++++++++++++++++++++++++++++++++++++++++++++++++++++++++++++++++++++++++++++++++++++++++++++++++++++++++++++++++",
"++++++++++++++++++++++++++++++++++++++++++++++++++++++++++++++++++++++++++++++++++++++++++++++++++++++++++++++++++++++++++++++++++++++++++++++++++++++++++++++++++++++++++++++++++++++++++++++++",
"++++++++++++++++++++++++++++++++++++++++++++++++++++++++++++++++++++++++++++++++++++++++++++++++++++++++++++++++++++++++++++++++++++++++++++++++++++++++++++++++++++++++++++++++++++++++++++++++",
"++++++++++++++++++++++++++++++++++++++++++++++++++++++++++++++++++++++++++++++++++++++++++++++++++++++++++++++++++++++++++++++++++++++++++++++++++++++++++++++++++++++++++++++++++++++++++++++++",
"++++++++++++++++++++++++++++++++++++++++++++++++++++++++++++++++++++++++++++++++++++++++++++++++++++++++++++++++++++++++++++++++++++++++++++++++++++++++++++++++++++++++++++++++++++++++++++++++",
"++++++++++++++++++++++++++++++++++++++++++++++++++++++++++++++++++++++++++++++++++++++++++++++++++++++++++++++++++++++++++++++++++++++++++++++++++++++++++++++++++++++++++++++++++++++++++++++++",
"++++++++++++++++++++++++++++++++++++++++++++++++++++++++++++++++++++++++++++++++++++++++++++++++++++++++++++++++++++++++++++++++++++++++++++++++++++++++++++++++++++++++++++++++++++++++++++++++",
"++++++++++++++++++++++++++++++++++++++++++++++++++++++++++++++++++++++++++++++++++++++++++++++++++++++++++++++++++++++++++++++++++++++++++++++++++++++++++++++++++++++++++++++++++++++++++++++++",
"++++++++++++++++++++++++++++++++++++++++++++++++++++++++++++++++++++++++++++++++++++++++++++++++++++++++++++++++++++++++++++++++++++++++++++++++++++++++++++++++++++++++++++++++++++++++++++++++",
"++++++++++++++++++++++++++++++++++++++++++++++++++++++++++++++++++++++++++++++++++++++++++++++++++++++++++++++++++++++++++++++++++++++++++++++++++++++++++++++++++++++++++++++++++++++++++++++++",
"++++++++++++++++++++++++++++++++++++++++++++++++++++++++++++++++++++++++++++++++++++++++++++++++++++++++++++++++++++++++++++++++++++++++++++++++++++++++++++++++++++++++++++++++++++++++++++++++",
"++++++++++++++++++++++++++++++++++++++++++++++++++++++++++++++++++++++++++++++++++++++++++++++++++++++++++++++++++++++++++++++++++++++++++++++++++++++++++++++++++++++++++++++++++++++++++++++++",
"++++++++++++++++++++++++++++++++++++++++++++++++++++++++++++++++++++++++++++++++++++++++++++++++++++++++++++++++++++++++++++++++++++++++++++++++++++++++++++++++++++++++++++++++++++++++++++++++",
"++++++++++++++++++++++++++++++++++++++++++++++++++++++++++++++++++++++++++++++++++++++++++++++++++++++++++++++++++++++++++++++++++++++++++++++++++++++++++++++++++++++++++++++++++++++++++++++++",
"++++++++++++++++++++++++++++++++++++++++++++++++++++++++++++++++++++++++++++++++++++++++++++++++++++++++++++++++++++++++++++++++++++++++++++++++++++++++++++++++++++++++++++++++++++++++++++++++",
"++++++++++++++++++++++++++++++++++++++++++++++++++++++++++++++++++++++++++++++++++++++++++++++++++++++++++++++++++++++++++++++++++++++++++++++++++++++++++++++++++++++++++++++++++++++++++++++++",
"++++++++++++++++++++++++++++++++++++++++++++++++++++++++++++++++++++++++++++++++++++++++++++++++++++++++++++++++++++++++++++++++++++++++++++++++++++++++++++++++++++++++++++++++++++++++++++++++",
"++++++++++++++++++++++++++++++++++++++++++++++++++++++++++++++++++++++++++++++++++++++++++++++++++++++++++++++++++++++++++++++++++++++++++++++++++++++++++++++++++++++++++++++++++++++++++++++++",
"++++++++++++++++++++++++++++++++++++++++++++++++++++++++++++++++++++++++++++++++++++++++++++++++++++++++++++++++++++++++++++++++++++++++++++++++++++++++++++++++++++++++++++++++++++++++++++++++",
"++++++++++++++++++++++++++++++++++++++++++++++++++++++++++++++++++++++++++++++++++++++++++++++++++++++++++++++++++++++++++++++++++++++++++++++++++++++++++++++++++++++++++++++++++++++++++++++++",
"++++++++++++++++++++++++++++++++++++++++++++++++++++++++++++++++++++++++++++++++++++++++++++++++++++++++++++++++++++++++++++++++++++++++++++++++++++++++++++++++++++++++++++++++++++++++++++++++",
"+++++++   +++++++++++++++++++++++++++++++++++++++++++++++++++++++++++++++++++++++++++++++++++++++++++++   ++++++++++++++  +++  +++++++++++++++++++++++    ++++++++++++++++++++++++++++++++++++++",
"++++++ OOO +++++++++++++++  +++  +++++++++++++++++++++++   +++++++++++++   ++   ++++++++++++++++++++++ OOO +++++++++++++ X  + X +++++++++++++++++++++ OOOO ++++++++++++++  ++++  +++++++++++++++",
"++++++ OOOO +++++++++++++ X +  X ++++++++++++++++++++++ OOO ++++++++++++ XX  XX ++++++++++++++++++++++ OOO ++++++++++++++ XX  XX ++++++++++++++++++++ OOOOO +++++++++++++ X ++ X +++++++++++++++",
"+++++++ OOO ++++++++++++ XX  XX ++++++++++++++++++++++ OOOO ++++++++++++ XXXXXX ++++++++++++++++++++++ OOOO +++++++++++++ XXXXXX ++++++++++++++++++++ OOOOO +++++++++++++ XX  XX +++++++++++++++",
"+++++++ OOO ++++++++++++ XXXXXX +++++++++++++++++++++ OOOO +++++++++++++ XOOXXXO ++++++++++++++++++++++ OOXX ++++++++++++ XOOXXXO ++++++++++++++++++++ XXOO +++++++++++++ XXXXXX +++++++++++++++",
"++++++ XXXO ++++++++++++ XOOXXXO ++++++++++++++++++++ XXO ++++++++++++++ XOOXXXO +++++++++++++++++++++++ XXX ++++++++++++ XOOXXXO ++++++++++++++++++++ XXX ++++++++++++++ XOOXXXO ++++++++++++++",
"+++++ XXXX +++++++++++++ XOOXXXO ++++++++++++++++++++ XXX ++++++++++++++ XXXXOOX +++++++++++++++++++++++ XXX ++++++++++++ XXXXOOX ++++++++++++++++++++ XXX ++++++++++++++ XOOXXXO ++++++++++++++",
"+++++ XXX ++++       ++ XXXXXOOX ++++++++++++++++++++ XXXX ++++      ++ XXXOOOOO ++++++++++++++++++++++ XXXX ++       ++ XXXOOOOO ++++++++++++++++++++ XXXX ++       +++ XXXXXOOX ++++++++++++++",
"+++++ XXX ++  XXXXXXX  XXXXOOOOO +++++++++++++++++++++ XXXX    XXXXXX  XXXXOOOOO ++++++++++++++++++++++ XXX    XXXXXXX  XXXXOOOOO +++++++++++++++++++++ XXXX  XXXXXXX   XXXXOOOOO ++++++++++++++",
"+++++ XXXX  XXXXXXXXXXXXXXXOOOOO +++++++++++++++++++++ XXXXXXXXXXXXXXXXXXXXXOOO +++++++++++++++++++++++ XXXX XXXXXXXXXXXXXXXXOOO ++++++++++++++++++++++ XXXXXXXXXXXXXXXXXXXXOOOOO ++++++++++++++",
"++++++ XXXXXXXXXXXXXXXXXXXXXOOO +++++++++++++++++++++++ XXXXXXXXXXXXXXXXXXXOOOO ++++++++++++++++++++++++ XXXXXXXXXXXXXXXXXXXOOOO +++++++++++++++++++++++ XXXXXXXXXXXXXXXXXXXXOOO +++++++++++++++",
"+++++++ XXXXXXXXXXXXXXXXXXXOOOO ++++++++++++++++++++++++  XXXXXXXXXXXXXXXXXOOOO +++++++++++++++++++++++++ XXXXXXXXXXXXXXXXXXOOOO ++++++++++++++++++++++++ XXXXXXXXXXXXXXXXXXOOOO +++++++++++++++",
"++++++++  XXXXXXXXXXXXXXXXXOOOO ++++++++++++++++++++++++++ XXXXXXXXXXXXXXXXOOOO ++++++++++++++++++++++++++ XXXXXXXXXXXXXXXXXOOOO +++++++++++++++++++++++++ XXXXXXXXXXXXXXXXOOOO ++++++++++++++++",
"++++++++++ XXXXXXXXXXXXXXXXOOO ++++++++++++++++++++++++++++ XXXXXXXXXXXXXXXOOOO +++++++++++++++++++++++++++ XXXXXXXXXXXXXXXXOOO ++++++++++++++++++++++++++ XXXXXXXXXXXXXXXXOOOO ++++++++++++++++",
"++++++++++ XXXXXXXXXXXXXXXOOOO ++++++++++++++++++++++++++++ XXXXXXXXXXXXXXXOOO ++++++++++++++++++++++++++++ XXXXXXXXXXXXXXXOOOO ++++++++++++++++++++++++++ XXXXXXXXXXXXXXXOOOO +++++++++++++++++",
"+++++++++++ XXXXXXOOOOXXXXOOO ++++++++++++++++++++++++++++++ XXXXXXOOOOXXXOOOO +++++++++++++++++++++++++++++ XXXXXXOOOOXXXXOOO ++++++++++++++++++++++++++++ XXXXXXOOOOXXXXOOO ++++++++++++++++++",
"+++++++++++ XXXX..  OOOXXOOO +++++++++++++++++++++++++++++++ XXXX..  OOOXXOOO ++++++++++++++++++++++++++++++ XXXX..  OOOXXOOO +++++++++++++++++++++++++++++ XXXX..  OOOXXOOO +++++++++++++++++++",
"+++++++++++ XXXX.. +   XX .. +++++++++++++++++++++++++++++++ XXXX.. +   XX .. ++++++++++++++++++++++++++++++ XXXX.. +   XX .. +++++++++++++++++++++++++++++ XXXX.. +   XX .. +++++++++++++++++++",
"+++++++++++ OXX... +++ XX ..o ++++++++++++++++++++++++++++++ OXX... +++ XX .. ++++++++++++++++++++++++++++++ OXX... +++ XX .. +++++++++++++++++++++++++++++ OXX... +++ XX ..o ++++++++++++++++++",
"++++++++++ OOOO.. ++++ XX  oo +++++++++++++++++++++++++++++ OOOO.. ++++ XX oo +++++++++++++++++++++++++++++ OOOO.. ++++ XX oo ++++++++++++++++++++++++++++ OOOO.. ++++ XX  oo ++++++++++++++++++",
"++++++++++ OOO .. ++++ XX  oo +++++++++++++++++++++++++++++ OOO.. ++++ XXX ooo ++++++++++++++++++++++++++++ OOO.. ++++ XXX ooo +++++++++++++++++++++++++++ OOO .. ++++ XX  oo ++++++++++++++++++",
"++++++++++ OO .. +++++ OO + oo +++++++++++++++++++++++++++ OOO.. +++++ OO + oo +++++++++++++++++++++++++++ OOO.. +++++ OO + oo +++++++++++++++++++++++++++ OO .. +++++ OO + oo +++++++++++++++++",
"++++++++++ OO .. +++++ OO + oo +++++++++++++++++++++++++++ OO .. +++++ OO + oo +++++++++++++++++++++++++++ OO .. +++++ OO + oo +++++++++++++++++++++++++++ OO .. +++++ OO + oo +++++++++++++++++"
};
