/* XPM */
static char *_757190606849[] = {
/* columns rows colors chars-per-pixel */
"192 48 6 1 ",
"  c black",
". c #38002C",
"X c #222A5C",
"o c #D22F1E",
"O c #FF8142",
"+ c None",
/* pixels */
"++++++++++++++++++++++++++++++++++++++++++++++++++++++++++++++++++++++++++++++++++++++++++++++++++++++++++++++++++++++++++++++++++++++++++++++++++++++++++++++++++++++++++++++++++++++++++++++++",
"++++++++++++++++++++++++++++++++++++++++++++++++++++++++++++++++++++++++++++++++++++++++++++++++++++++++++++++++++++++++++++++++++++++++++++++++++++++++++++++++++++++++++++++++++++++++++++++++",
"++++++++++++++++++++++++++++++++++++++++++++++++++++++++++++++++++++++++++++++++++++++++++++++++++++++++++++++++++++++++++++++++++++++++++++++++++++++++++++++++++++++++++++++++++++++++++++++++",
"++++++++++++++++++++++++++++++++++++++++++++++++++++++++++++++++++++++++++++++++++++++++++++++++++++++++++++++++++++++++++++++++++++++++++++++++++++++++++++++++++++++++++++++++++++++++++++++++",
"++++++++++++++++++++++++++++++++++++++++++++++++++++++++++++++++++++++++++++++++++++++++++++++++++++++++++++++++++++++++++++++++++++++++++++++++++++++++++++++++++++++++++++++++++++++++++++++++",
"++++++++++++++++++++++++++++++++++++++++++++++++++++++++++++++++++++++++++++++++++++++++++++++++++++++++++++++++++++++++++++++++++++++++++++++++++++++++++++++++++++++++++++++++++++++++++++++++",
"++++++++++++++++++++++++++++++++++++++++++++++++++++++++++++++++++++++++++++++++++++++++++++++++++++++++++++++++++++++++++++++++++++++++++++++++++++++++++++++++++++++++++++++++++++++++++++++++",
"++++++++++++++++++++++++++++++++++++++++++++++++++++++++++++++++++++++++++++++++++++++++++++++++++++++++++++++++++++++++++++++++++++++++++++++++++++++++++++++++++++++++++++++++++++++++++++++++",
"++++++++++++++++++++++++++++++++++++++++++++++++++++++++++++++++++++++++++++++++++++++++++++++++++++++++++++++++++++++++++++++++++++++++++++++++++++++++++++++++++++++++++++++++++++++++++++++++",
"++++++++++++++++++++++++++++++++++++++++++++++++++++++++++++++++++++++++++++++++++++++++++++++++++++++++++++++++++++++++++++++++++++++++++++++++++++++++++++++++++++++++++++++++++++++++++++++++",
"++++++++++++++++++++++++++++++++++++++++++++++++++++++++++++++++++++++++++++++++++++++++++++++++++++++++++++++++++++++++++++++++++++++++++++++++++++++++++++++++++++++++++++++++++++++++++++++++",
"++++++++++++++++++++++++++++++++++++++++++++++++++++++++++++++++++++++++++++++++++++++++++++++++++++++++++++++++++++++++++++++++++++++++++++++++++++++++++++++++++++++++++++++++++++++++++++++++",
"++++++++++++++++++++++++++++++++++++++++++++++++++++++++++++++++++++++++++++++++++++++++++++++++++++++++++++++++++++++++++++++++++++++++++++++++++++++++++++++++++++++++++++++++++++++++++++++++",
"++++++++++++++++++++++++++++++++++++++++++++++++++++++++++++++++++++++++++++++++++++++++++++++++++++++++++++++++++++++++++++++++++++++++++++++++++++++++++++++++++++++++++++++++++++++++++++++++",
"++++++++++++++++++++++++++++++++++++++++++++++++++++++++++++++++++++++++++++++++++++++++++++++++++++++++++++++++++++++++++++++++++++++++++++++++++++++++++++++++++++++++++++++++++++++++++++++++",
"++++++++++++++++++++++++++++++++++++++++++++++++++++++++++++++++++++++++++++++++++++++++++++++++++++++++++++++++++++++++++++++++++++++++++++++++++++++++++++++++++++++++++++++++++++++++++++++++",
"++++++++++++++++++++++++++++++++++++++++++++++++++++++++++++++++++++++++++++++++++++++++++++++++++++++++++++++++++++++++++++++++++++++++++++++++++++++++++++++++++++++++++++++++++++++++++++++++",
"+++++++++++++++++++++++++  +  ++++++++++++++++++++++++++++++++++++++++++  +  +++++++++++++++++++++++++++++++++++++++++++  +  ++++++++++++++++++++++++++++++++++++++++++++  +  ++++++++++++++++++",
"++++++++++++++++++++++++ O + o ++++++++++++++++++++++++++++++++++++++++ O + o +++++++++++++++++++++++++++++++++++++++++ O + o ++++++++++++++++++++++++++++++++++++++++++ O + o +++++++++++++++++",
"++++++++++++++++++++++++ O + o ++++++++++++++++++++++++++++++++++++++++ O + o +++++++++++++++++++++++++++++++++++++++++ O + o ++++++++++++++++++++++++++++++++++++++++++ O + o +++++++++++++++++",
"+++++++++++++++++++++++ OO  oo +++++++++++++++++++++++++++++++++++++++ OO   o +++++++++++++++++++++++++++++++++++++++++ OO   o ++++++++++++++++++++++++++++++++++++++++ OO   o +++++++++++++++++",
"++++++++++++++++++++++ OXXXXXo +++++++++++++++++++++++++++++++++++++++ OXXXXXo ++++++++++++++++++++++++++++++++++++++++ OXXXXXo +++++++++++++++++++++++++++++++++++++++ OXXXXXo ++++++++++++++++",
"++++++++++++++++++++++ OXXXXXX +++++++++++++++++++++++++++++++++++++++ OXXXXXX ++++++++++++++++++++++++++++++++++++++++ OXXXXXX +++++++++++++++++++++++++++++++++++++++ OXXXXXX ++++++++++++++++",
"++++++++++++++++++++++ XXXXXXXX ++++++++++++++++++++++++++++++++++++++ XXXXXXXX +++++++++++++++++++++++++++++++++++++++ XXXXXXXX ++++++++++++++++++++++++++++++++++++++ XXXXXXXX +++++++++++++++",
"++++++++++++++++++++++ XXXXOOX   +++++++++++++++++++++++++++++++++++++ XXXXOOX   ++++++++++++++++++++++++++++++++++++++ XXXXOOX   +++++++++++++++++++++++++++++++++++++ XXXXOOX   ++++++++++++++",
"+++++++++++++++++++++ XXXXOOOO   ++++++++++++++++++++++++++++++++++++ XXXXOOOO   +++++++++++++++++++++++++++++++++++++ XXXXOOOO   ++++++++++++++++++++++++++++++++++++ XXXXOOOO   ++++++++++++++",
"+++++++++++++++++++++ XXXXOO OOO ++++++++++++++++++++++++++++++++++++ XXXXOO OOO +++++++++++++++++++++++++++++++++++++ XXXXOO OOO ++++++++++++++++++++++++++++++++++++ XXXXOO OOO ++++++++++++++",
"+++++++++++++++++++++ XXXXOO    +++++++++++++++++++++++++++++++++++++ XXXXOO    ++++++++++++++++++++++++++++++++++++++ XXXXOO    +++++++++++++++++++++++++++++++++++++ XXXXOO    +++++++++++++++",
"+++++++++++++++++++++ XXXXOO ++++++++++++++++++++++++++++++++++++++++ XXXXXOO ++++++++++++++++++++++++++++++++++++++++ XXXXOO +++++++++++++++++++++++++++++++++++++++ XXXXXOO ++++++++++++++++++",
"++++++  ++++++++++++ XXXXXXOO ++++++++++++++++++++++++ +++++++++++++ XXXXXXOO +++++++++++++++++++++++++  ++++++++++++ XXXXXXOO ++++++++++++++++++++++++  +++++++++++ XXXXXXOO ++++++++++++++++++",
"+++++ XX +++++      XXXXXXXOO +++++++++++++++++++++++ X  ++++++     XXXXXXXXO ++++++++++++++++++++++++ XX +++++      XXXXXXXOO +++++++++++++++++++++++ XX ++++      XXXXXXXOO ++++++++++++++++++",
"+++++ XXX     XXXXXXXXXXXXXOO +++++++++++++++++++++++ XXX      XXXXXXXXXXXXXOO +++++++++++++++++++++++ XXX     XXXXXXXXXXXXXOO +++++++++++++++++++++++ XXX    XXXXXXXXXXXXXOO ++++++++++++++++++",
"++++++ XXXXXXXXXXXXXXXXXXXXXO ++++++++++++++++++++++++ XXXXXXXXXXXXXXXXXXXXXXO ++++++++++++++++++++++++ XXXXXXXXXXXXXXXXXXXXXO +++++++++++++++++++++++ XXXXXXXXXXXXXXXXXXXXXO ++++++++++++++++++",
"+++++++ XXXXXXXXXXXXXXXXXXXXX +++++++++++++++++++++++++  XXXXXXXXXXXXXXXXXXXXX +++++++++++++++++++++++++ XXXXXXXXXXXXXXXXXXXXX ++++++++++++++++++++++++ XXXXXXXXXXXXXXXXXXXXX ++++++++++++++++++",
"+++++++ XXXXXXXXXXXXXXXXXXXXX. +++++++++++++++++++++++++ XXXXXXXXXXXXXXXOXXXXo +++++++++++++++++++++++++ XXXXXXXXXXXXXXXOXXXXo. +++++++++++++++++++++++ XXXXXXXXXXXXXXXXXXXXX. +++++++++++++++++",
"+++++++ XXXXXXXXXXXXXXXOXXXXo. +++++++++++++++++++++++++ XXXXXXXXXXXXXXXOXXXXo. ++++++++++++++++++++++++ XXXXXXXXXXXXXXXOOXXXo. +++++++++++++++++++++++ XXXXXXXXXXXXXXXOXXXXo. +++++++++++++++++",
"+++++++ XXXXXXXXXXXXXXXOOXXXo. +++++++++++++++++++++++++ XXXXXXXXXXXXXXXOOXXXo. ++++++++++++++++++++++++ XXXXXXXXXXXXXXXOOXXoo. +++++++++++++++++++++++ XXXXXXXXXXXXXXXOOXXXo. +++++++++++++++++",
"++++++ XXXXXXXXXXXXXXXXXOXXo.. ++++++++++++++++++++++++ XXXXXXXXXXXXXXXXXOXXo.. +++++++++++++++++++++++ XXXXXXXXXXXXXXXXXOXXo.. ++++++++++++++++++++++ XXXXXXXXXXXXXXXXXOXXo.. +++++++++++++++++",
"++++++ XXXXX..  XXXXXXXX   ... ++++++++++++++++++++++++ XXXXX..  XXXXXXXX   ... +++++++++++++++++++++++ XXXXX..  XXXXXXXX   ... ++++++++++++++++++++++ XXXXX..  XXXXXXXX   ... +++++++++++++++++",
"+++++ XXXXX.. ++     XXX + ... +++++++++++++++++++++++ XXXXX.. ++     XXX + ... ++++++++++++++++++++++ XXXXX.. ++     XXX + ... +++++++++++++++++++++ XXXXX.. ++     XXX + ... +++++++++++++++++",
"++++ XXXXX.. +++++++ XXX ++ .. ++++++++++++++++++++++ XXXXX.. +++++++ XXX + ... +++++++++++++++++++++ XXXXX.. +++++++ XXX + ... ++++++++++++++++++++ XXXXX.. +++++++ XXX ++ .. +++++++++++++++++",
"++++ XXO ... ++++++++ XX ++ .. ++++++++++++++++++++++ XXO  .. +++++++ XX ++ ... +++++++++++++++++++++ XXO  .. +++++++ XX ++ ... ++++++++++++++++++++ XXO ... ++++++++ XX ++ .. +++++++++++++++++",
"++++ XO + .. ++++++++ OX ++ .. +++++++++++++++++++++ XXO + .. +++++++ OX +++ .. ++++++++++++++++++++ XXO + .. +++++++ OX +++ .. ++++++++++++++++++++ XO + .. ++++++++ OX ++ .. +++++++++++++++++",
"++++ XO + ..o +++++++ OX ++ ..o ++++++++++++++++++++ XO ++ .o +++++++ OX +++ .o ++++++++++++++++++++ XO ++ .o +++++++ OX +++ .o ++++++++++++++++++++ XO + ..o +++++++ OX ++ ..o ++++++++++++++++",
"+++++ O ++ oo +++++++ OO +++ oo +++++++++++++++++++++ O ++ oo +++++++ OO +++ oo +++++++++++++++++++++ O ++ oo +++++++ OO +++ oo +++++++++++++++++++++ O ++ oo +++++++ OO +++ oo ++++++++++++++++",
"+++++ OO + ooo ++++++ OO +++ oo +++++++++++++++++++++ OO + ooo ++++++ OO +++ oo +++++++++++++++++++++ OO + ooo ++++++ OO +++ oo +++++++++++++++++++++ OO + ooo ++++++ OO +++ oo ++++++++++++++++",
"+++++ OO ++ oo ++++++ OO +++ oo +++++++++++++++++++++ OO ++ oo ++++++ OO +++ oo +++++++++++++++++++++ OO ++ oo ++++++ OO +++ oo +++++++++++++++++++++ OO ++ oo ++++++ OO +++ oo ++++++++++++++++",
"+++++ OO ++ oo ++++++ OO +++ oo +++++++++++++++++++++ OO ++ oo ++++++ OO +++ oo +++++++++++++++++++++ OO ++ oo ++++++ OO +++ oo +++++++++++++++++++++ OO ++ oo ++++++ OO +++ oo ++++++++++++++++"
};
