/* XPM */
static char *_11dfc412720428ffce2053059fb19faK5GieoGZEV4HbNSg[] = {
/* columns rows colors chars-per-pixel */
"64 64 12 1 ",
"  c #FD0000",
". c #FD0001",
"X c #FE0000",
"o c #FF0100",
"O c #FF0101",
"+ c #FE0201",
"@ c #FE0002",
"# c #FE0003",
"$ c #FE0103",
"% c #FF0103",
"& c #FF0202",
"* c #A958A4",
/* pixels */
"********XXXXXXXXXXXX************************XXXXXXXXXXXX********",
"********XXXXXXXXXXXX************************XXXXXXXXXXXX********",
"********XXXXXXXXXXXX************************XXXXXXXXXXXX********",
"********XXXXXXXXXXXX************************XXXXXXXXXXXX********",
"****XXXXXXXXXXXXXXXXXXXX****************XXXXXXXXXXXXXXXXXXXX****",
"****XXXXXXXXXXXXXXXXXXXX****************XXXXXXXXXXXXXXXXXXXX****",
"****XXXXXXXXXXXXXXXXXXXX****************XXXXXXXXXXXXXXXXXXXX****",
"****XXXXXXXXXXXXXXXXXXXX****************XXXXXXXXXXXXXXXXXXXX****",
"XXXXXXXXXXXXXXXXXXXXXXXXXXXX********XXXXXXXXXXXXXXXXXXXXXXXXXXXX",
"XXXXXXXXXXXXXXXXXXXXXXXXXXXX********XXXXXXXXXXXXXXXXXXXXXXXXXXXX",
"XXXXXXXXXXXXXXXXXXXXXXXXXXXX********XXXXXXXXXXXXXXXXXXXXXXXXXXXX",
"XXXXXXXXXXXXXXXXXXXXXXXXXXXX********XXXXXXXXXXXXXXXXXXXXXXXXXXXX",
"XXXXXXXXXXXXXXXXXXXXXXXXXXXX********XXXXXXXXXXXXXXXXXXXXXXXXXXXX",
"XXXXXXXXXXXXXXXXXXXXXXXXXXXX********XXXXXXXXXXXXXXXXXXXXXXXXXXXX",
"XXXXXXXXXXXXXXXXXXXXXXXXXXXX********XXXXXXXXXXXXXXXXXXXXXXXXXXXX",
"XXXXXXXXXXXXXXXXXXXXXXXXXXXX********XXXXXXXXXXXXXXXXXX#XXXXXXXXX",
"XXXXXXXXXXXXXXXXXXXXXXXXXXXXXXXXXXXXXXXXXXXXXXXXXXXXXXXXXXXXXXXX",
"XXXXXXXXXXXXXXXXXXXXXXXXXXXXXXXXXXXXXXXXXXXXXXXXXXXXXXXXXXXXXXXX",
"XXXXXXXX#XXXXXXXXXXXXXXXXXXXXXXXXXXXXXXXXXXXXXXXXXXXXXXXXXXXXXXX",
"XXXXXXXXXXXXXXXXXXXXXXXXXXXXXXXXXXXXXXXXXXXXXXXXXXXXXXXXXXXXXXXX",
"XXXXXXXXXXXXXXXXXXXXXXXXXXXXXXXXXXXXXXXXXXXXXXXXXXXXXXXXXXXXXXXX",
"XXXXXXXXXXXXXXXXXXXXXXXXXXXXXXXXXXXXXXXXXXXXXXXXXXXXXXXXXXXXXXXX",
"XXXXXXXXXXXXXXXXXXXXXXXXXXXXXXXXXXXXXXXXXXXXXXXXXXXXXXXXXXXXXXXX",
"XXXXXXXXXXXXXXXXXXXXXXXXXXXXXXXXXXXXXXXXXXXXXXXXXXXXXXXXXXXXXXXX",
"XXXXXXXXXXXXXXXXXXXXXXXXXXXXXXXXXXXXXXXXXXXXXXXXXXXXXXXXXXXXXXXX",
"XXXXXXXXXXXXXXXXXXXXXXXXXXXXXXXXXXXXXXXXXXXXXXXXXXXXXXXXXXXXXXXX",
"XXXXXXXXXXXXXXXXXXXXXXXXXXXXXXXXXXXXXXXXXXXXXXXXXXXXXXXXXXXXXXXX",
"XXXXXXXXXXXXXXXXXXXXXXXXXXXXXXXXXXXXXXXXXXXXXXXXXXXXXXXXXXXXXXXX",
"XXXXXXXXXXXXXXXXXXXXXXXXXXXXXXXXXXXXXXXXXXXXXXXXXXXXXXXXXXXXXXXX",
"XXXXXXXXXXXXXXXXXXXXXXXXXXXXXXXXXXXXXXXXXXXXXXXXXXXXXXXXXXXXXXXX",
"XXXXXXXXXXXXXXXXXXXXXXXXXXXXXXXXXXXXXXXXXXXXXXXXXXXXXXXXXXXXXXXX",
"XXXXXXXXXXXXXXXXXXXXXXXXXXXXXXXXXXXXXXXXXXXXXXXXXXXXXXXXXXXXXXXX",
"XXXXXXXXXXXXXXXXXXXXXXXXXXXXXXXXXXXXXXXXXXXXXXXXX#XXXXXXXXXXXXXX",
"XXXXXXXXXXXXXXXXXXXXXXXXXXXXXXXXXXXXXXXXXXXXXXXXXXXXXXXXXXXXXXXX",
"XXXXXXXXXXXXXXXXXXXXXXXXXXXXXXXXXXXXXXXXXXXXXXXXXXXXXXXXXXXXXXXX",
"XXXXXXXXXXXXXXXXXXXXXXXXXXXXXXXXXXXXXXXXXXXXXXXXXXXXXXXXXXXXXXXX",
"XXXXXXXXXXXXXXXXXXXXXXXXXXXXXXXXXXXXXXXXXXXXXXXXXXXXXXXXXXXXXXXX",
"XXXXXXXXXXXXXXXXXXXXXXXXXXXXXXXXXXXXXXXXXXXXXXXXXXXXXXXXXXXXXXXX",
"XXXXXXXXXXXXXXXXXXXXXXXXXXXXXXXXXXXXXXXXXXXX#XXXXXXXXXXXXXXXXXXX",
"XXXXXXXXXXXXXXXXXXXXXXXXXXXXXXXXXXXXXXXXXXXXXXXXXXXXXXXXXXXXXXXX",
"********XXXXXXXXXXXXXXXXXXXXXXXXXXXXXXXXXXXXXXXXXXXXXXXX********",
"********XXXXXXXXXXXXXXXXXXXXXXXXXXXXXXXXXXXXXXXXXXXXXXXX********",
"********XXXXXXXXXXXXXXXXXXXXXXXXXXXXXXXXXXXXXXXXXXXXXXXX********",
"********XXXXXXXXXXXXXXXXXXXXXXXXXXXXXXXXXXXXXXXXXXXXXXXX********",
"********XXXXXXXXXXXXXXXXXXXXXXXXXXXXXXXXXXXXXXXXXXXXXXXX********",
"********XXXXXXXXXXXXXXXXXXXXXXXXXXXXXXXXXXXXXXXXXXXXXXXX********",
"********XXXXXXXXXXXXXXXXXXXXXXXXXXXXXXXXXXXXXXXXXXXXXXXX********",
"********XXXXXXXXXXXXXXXXXXXXXXXXXXXXXXXXXXXXXXXXXXXXXXXX********",
"****************XXXXXXXXXXXXXXXXXXXXXXXXXXXXXXXX****************",
"****************XXXXXXXXXXXXXXXXXXXXXXXXXXXXXXXX****************",
"****************XXXXXXXXXXXXXXXXXXXXXXXXXXXXXXXX****************",
"****************XXXXXXXXXXXXXXXXXXXXXXXXXXXXXXXX****************",
"****************XXXXXXXXXXXXXXXXXXXXXXXXXXXXXXXX****************",
"****************XXXXXXXXXXXXXXXXXXXXXXXXXXXXXXXX****************",
"****************XXXXXXXXXXXXXXXXXXXXXXXXXXXXXXXX****************",
"****************XXXXXXXXXXXXXXXXXXXXXXXXXXXXXXXX****************",
"************************XXXXXXXXXXXXXXXX************************",
"************************XXXXXXXXXXXXXXXX************************",
"************************XXXXXXXXXXXXXXXX************************",
"************************XXXXXXXXXXXXXXXX************************",
"************************XXXXXXXXXXXXXXXX************************",
"************************XXXXXXXXXXXXXXXX************************",
"************************XXXXXXXXXXXXXXXX************************",
"************************XXXXXXXXXXXXXXXX************************"
};
