/* XPM */
static char *Sans_left1757299006[] = {
/* columns rows colors chars-per-pixel */
"64 64 211 2 ",
"   c #020202",
".  c #04060A",
"X  c #090608",
"o  c #030A0D",
"O  c #0C0B0C",
"+  c #13100E",
"@  c #050713",
"#  c #050B15",
"$  c #050C1B",
"%  c #0A0B19",
"&  c #120D12",
"*  c #1B0D1A",
"=  c #061318",
"-  c #151414",
";  c #19141A",
":  c #1C1C1C",
">  c #090E22",
",  c #061423",
"<  c #091225",
"1  c #0B162C",
"2  c #0A192D",
"3  c #141825",
"4  c #0A1A34",
"5  c #0C1D3D",
"6  c #171F32",
"7  c #281727",
"8  c #15212F",
"9  c #222222",
"0  c #292828",
"q  c #2D2C2C",
"w  c #302D36",
"e  c #323232",
"r  c #343438",
"t  c #3B3B3B",
"y  c #0E1F41",
"u  c #0E2444",
"i  c #0E264C",
"p  c #14284E",
"a  c #102A53",
"s  c #122D5B",
"d  c #362A4D",
"f  c #163769",
"g  c #163A72",
"h  c #193E7D",
"j  c #233874",
"k  c #2E3C71",
"l  c #452643",
"z  c #483947",
"x  c #4E2F57",
"c  c #4F3566",
"v  c #513A6E",
"b  c #493D74",
"n  c #663A6B",
"m  c #723D6E",
"M  c #753E73",
"N  c #3E4146",
"B  c #444444",
"V  c #454848",
"C  c #4C4C4C",
"Z  c #54524F",
"A  c #535353",
"S  c #575759",
"D  c #5B5B5C",
"F  c #64635F",
"G  c #5F5C60",
"H  c #514177",
"J  c #654B68",
"K  c #7C4177",
"L  c #7D427B",
"P  c #7A5678",
"I  c #636363",
"U  c #66656B",
"Y  c #6C6C6C",
"T  c #717171",
"R  c #767877",
"E  c #7B7B7B",
"W  c #80477D",
"Q  c #1A4382",
"!  c #1D438C",
"~  c #1C498D",
"^  c #1D4791",
"/  c #1F4C94",
"(  c #1F4D9A",
")  c #224B98",
"_  c #314A90",
"`  c #24509D",
"'  c #2453A3",
"]  c #2656AC",
"[  c #245AAC",
"{  c #3054A9",
"}  c #265BB4",
"|  c #295CB7",
" . c #275EBA",
".. c #285DBA",
"X. c #2960BA",
"o. c #2A61BD",
"O. c #3262BE",
"+. c #474684",
"@. c #584A89",
"#. c #4F5299",
"$. c #6C4684",
"%. c #6B4A87",
"&. c #6C4889",
"*. c #774D91",
"=. c #5757A6",
"-. c #485DB6",
";. c #295EC2",
":. c #2A64C4",
">. c #2968C6",
",. c #2B65CB",
"<. c #2B69CB",
"1. c #3362C5",
"2. c #3863C2",
"3. c #3464CA",
"4. c #3468CC",
"5. c #2D66D1",
"6. c #2D6BD4",
"7. c #2E6DDA",
"8. c #306EDC",
"9. c #2C70D5",
"0. c #2F71DD",
"q. c #3171DD",
"w. c #316FE1",
"e. c #2F72E1",
"r. c #3173E3",
"t. c #3373EA",
"y. c #3379EA",
"u. c #3577F1",
"i. c #4C66C8",
"p. c #834C83",
"a. c #8A4F87",
"s. c #855483",
"d. c #895786",
"f. c #8D528A",
"g. c #8F5B8C",
"h. c #91558D",
"j. c #8B4E90",
"k. c #954F93",
"l. c #865298",
"z. c #955393",
"x. c #9B5596",
"c. c #985897",
"v. c #9B549C",
"b. c #9E5D9B",
"n. c #A1559E",
"m. c #A2599E",
"M. c #856283",
"N. c #8E6A8B",
"B. c #91688E",
"V. c #8E728C",
"C. c #8D788B",
"Z. c #91738F",
"A. c #996F97",
"S. c #9D629B",
"D. c #937793",
"F. c #A1639F",
"G. c #9355A0",
"H. c #9C57A2",
"J. c #9658A5",
"K. c #9B58A3",
"L. c #A256A0",
"P. c #A857A3",
"I. c #A759A3",
"U. c #A958A4",
"Y. c #A464A1",
"T. c #AA62A6",
"R. c #A56AA1",
"E. c #AA6BA7",
"W. c #AD65A9",
"Q. c #AC6DA9",
"!. c #B269AD",
"~. c #A979A6",
"^. c #AE71AC",
"/. c #00FFF9",
"(. c #838383",
"). c #8C8C8C",
"_. c #919191",
"`. c #9D9C9D",
"'. c #A789A4",
"]. c #A998A7",
"[. c #B19CAF",
"{. c #B69AB4",
"}. c #BA9CB8",
"|. c #A5A5A4",
" X c #AAA1A8",
".X c #ACACAC",
"XX c #B5AAB3",
"oX c #B5B5B5",
"OX c #BBBBBB",
"+X c #C2BDC1",
"@X c gray77",
"#X c #CDC3CC",
"$X c #CECECE",
"%X c #D1CBCF",
"&X c #CFCFD1",
"*X c #D2CAD2",
"=X c #D3D3D3",
"-X c #D7D5D8",
";X c #DCD5DC",
":X c #DCDCDC",
">X c #E1D8DE",
",X c #E5D9E4",
"<X c #E4E4E4",
"1X c #E8E3E7",
"2X c #E7E5E8",
"3X c #E9E6EA",
"4X c #EBEBEB",
"5X c #F4EDF3",
"6X c #F4F4F4",
"7X c #F9F9F7",
"8X c #FEFEFE",
/* pixels */
"U.U.U.U.U.P.U.U.U.U.U.P.U.U.U.U.U.U.U.U.U.U.U.I.U.U.U.U.U.U.U.U.U.U.U.U.U.U.U.U.U.U.U.U.U.U.I.U.U.U.U.U.U.U.U.U.U.U.U.U.U.U.U.U.",
"U.U.U.U.U.U.U.U.U.U.U.U.U.P.U.U.U.U.U.U.U.U.U.U.U.U.U.U.U.U.U.U.U.U.U.U.U.U.U.U.U.U.U.U.U.U.I.I.U.U.U.U.U.U.U.U.U.U.U.U.U.U.U.U.",
"U.U.U.U.U.U.U.U.U.U.U.U.U.U.U.U.U.U.U.I.c.d.d.d.s.s.s.s.s.s.s.s.s.s.s.s.s.s.s.s.s.s.s.d.b.I.U.U.U.U.U.U.U.U.U.U.U.U.U.U.U.U.U.U.",
"U.U.U.U.U.U.U.U.U.U.U.U.U.U.U.U.U.U.U.E.+X=X=X=X=X=X&X&X$X$X$X=X$X$X&X$X$X=X$X$X$X$X&X$X'.L.U.U.U.U.U.U.U.U.U.U.U.U.U.U.U.U.U.U.",
"U.U.U.U.U.U.U.U.U.U.P.U.U.U.m.F.S.Y.S.~.-X8X8X8X8X8X8X8X8X8X8X8X8X8X8X8X8X8X8X8X8X8X8X8XXXb.F.F.F.F.m.U.U.U.U.U.U.U.U.U.U.U.I.U.",
"P.U.U.U.U.U.U.U.U.U.U.U.U.U.'.=X;X:X:X:X6X8X8X8X8X8X8X8X8X8X8X8X8X8X8X8X8X8X8X8X8X8X8X8X4X=X:X:X;X+XF.U.U.U.U.U.U.I.U.U.U.U.U.U.",
"U.U.U.U.U.P.U.U.U.U.P.U.U.U.}.7X8X8X8X8X8X8X8X8X8X8X8X8X8X8X8X8X8X8X8X8X8X8X8X8X8X8X8X8X8X8X8X8X8X:XF.U.U.U.U.U.U.U.U.U.U.U.U.U.",
"U.U.U.U.U.U.U.U.U.U.U.U.U.P.{.6X8X8X8X8X8X8X8X8X8X8X8X8X8X8X8X8X8X8X8X8X8X8X8X8X8X8X8X8X8X8X8X8X8X-XF.T.U.U.U.U.U.U.U.U.U.U.U.U.",
"U.U.U.U.U.U.U.U.U.U.U.I.b.S.[.6X8X8X8X8X8X8X8X8X8X8X8X8X8X8X8X8X8X8X8X8X8X8X8X8X8X8X8X8X8X8X8X8X8X-XA.S.m.I.U.U.U.U.U.U.U.U.U.U.",
"U.U.U.U.U.U.U.U.U.U.U.B.#X$X<X7X8X8X7X7X7X6X7X8X8X8X8X8X8X8X8X8X8X8X8X8X8X8X8X8X8X7X8X7X8X8X8X8X7X6X:X=X Xx.U.U.U.U.U.U.U.U.U.U.",
"U.U.U.U.U.U.U.U.U.U.U.V.4X8X8X8X8X2X:X<X<X<X<X<X:X4X8X8X8X8X8X8X8X8X8X8X8X8X8X<X<X2X<X<X:X<X<X6X7X8X7X8XoXf.U.U.U.U.U.U.U.U.U.U.",
"U.U.U.U.U.U.U.U.U.U.U.Z.4X7X8X8X6XT q q 0 q 0 q q `.8X8X8X8X8X8X8X8X8X8X8X8X<XC q q 0 0 0 0 e oX8X8X8X8XoXf.U.U.U.U.U.U.U.U.U.U.",
"U.U.U.U.U.U.U.U.U.U.P.D.6X7X8X8X4XA   /./././.    ).8X8X8X8X8X8X8X8X8X8X8X8X<Xe               |.8X8X8X8XoXf.I.U.U.U.U.U.U.U.U.U.",
"U.U.U.U.U.U.U.U.U.U.U.V.4X8X8X8X6XC   /./././.    ).8X8X8X8X8X8X8X8X8X8X8X8X2Xe               |.8X8X8X8XoXa.U.U.U.U.U.U.U.U.U.U.",
"U.U.U.U.U.U.U.U.U.U.U.Z.4X8X8X8X6XZ   /./././.    ).8X8X8X8X7X<X<X4X8X8X8X8X<Xe               |.8X8X8X8XoXa.U.U.U.U.U.U.U.U.U.I.",
"U.U.U.U.U.U.U.U.U.P.U.V.4X7X7X8X5XS   /./././.    (.8X7X7X8X=XB q E 6X8X8X8X:Xt     o = = o O |.8X8X8X8XoXa.U.P.U.U.U.U.U.U.U.U.",
"U.U.U.U.U.U.U.U.U.U.U.N.-X,X5X8X5XU : 9 : : 9 : : _.8X8X2X<XoX:   I -X:X6X8X:XB : : : : : 9 0 .X6X6X3X1X Xf.U.U.U.U.U.U.U.U.U.U.",
"U.U.U.U.U.U.U.U.U.U.U.b.Q.Q.XX6X8X:X$X$X=X$X$X=X$X<X8X4XY q 0 O   - q e |.7X7X:X$X$X$X$X=X=X$X4X7X:X^.Q.F.I.U.U.U.U.U.U.U.U.U.U.",
"U.U.U.U.U.U.U.U.U.U.U.U.P.U.}.4X7X2X<X<X8X8X8X8X8X8X7X4XD : : : : : : 0 `.7X8X8X8X8X8X8X6X<X<X6X8X-XR.I.U.U.U.U.U.U.U.U.U.U.U.U.",
"U.U.U.U.U.U.U.U.U.U.U.U.P.P.{.6X5XT q S :X8X8X8X8X7X7X7X:X$X&X&X=X=X=X=X4X8X7X7X8X8X8X8X|.e e oX8X:XE.U.U.U.U.U.U.U.U.U.U.U.P.U.",
"U.U.U.U.U.U.U.U.U.U.U.I.I.W.{.7X6XZ   e @X2X<X<X<X<X<X<X<X<X4X<X2X<X<X2X2X<X<X<X:X<X<X<X(.  O |.8X:XN.P f.I.U.U.U.U.U.U.U.U.U.U.",
"U.U.U.U.U.U.U.U.U.U.U.B.*X;X4X8X4XA   O q e q q q q q q e q q q q q q q q q 0 q q q q q 9   O |.8X7X=X$X`.h.U.P.U.U.U.U.U.U.U.U.",
"U.U.U.U.U.U.U.U.U.U.P.V.4X8X8X8X6XU : : X   O : : + o   : : :   . + : : O     : : :     + : 0 .X8X8X7X8XOXa.P.P.U.U.U.U.U.U.U.U.",
"U.P.U.U.U.U.U.U.P.U.P.V.4X8X7X8X8X<X=X.X9   C $X=XY   + `.=X.X:   S =X=XG   - .X=X|.O   I $X$X4X7X7X7X8XOXa.P.P.U.U.U.U.P.U.U.U.",
"U.U.U.U.U.U.U.U.U.P.U.B.&X<X<X<X<X6X7X=Xt 9 F <X2XT   - .X4XOX9   F <X<XI   : OX4XoXq : (.6X8X2X<X<X<X,XXXh.U.U.U.U.U.U.U.U.U.U.",
"U.U.U.U.P.U.U.U.U.U.I.c.z e q e t OX8X6X=X=X_.e q -     9 q q O   - q e -     q q D @X=X<X7X6XR 0 q e w J P.U.P.P.U.U.U.U.U.P.U.",
"U.U.U.U.U.U.U.U.P.P.P.k.< $ @   O `.<X<X<X<X`.9 : : : : 9 : : : : : : : : : : 9 : A =X4X<X<X-XS .   $ $ w v.P.U.U.U.U.U.U.U.U.U.",
"U.U.U.U.U.U.U.U.P.P.P.@.] } f     0 t q q e T @X=X-X=X-X=X=X=X=X=X=X-X=X-X-X=X=X=X|.B e e e e - . > ) ..! L P.P.U.U.U.U.U.U.U.U.",
"U.U.U.U.U.U.U.U.I.J.J.+.6.e.g o       X     A :X:X<X:X<X:X<X:X<X:X<X:X<X<X:X:X:X2X.X-           . < >.t.' &.H.H.U.U.U.U.U.U.U.U.",
"U.U.U.U.U.U.U.U.v.O.3.4.0.y.g             X - q q e e e q e q e q e q e e e e q q : O X           > :.e.6.:.3.=.U.U.U.U.U.U.U.U.",
"U.U.U.U.U.U.U.U.H.O.8.w.<.<.g O O O O O     O : : : : : : : :   X O : : : : : : : :       O O O O 2 [ >.6.t.e.=.U.U.U.U.U.U.U.U.",
"U.U.U.U.U.U.U.U.H.3.t.] 2 1 w A A A A t O   V $X=X:X:X=X=X=X.X-   D =X:X:X:X:X=X-X`.:   0 C C A Z V 6 1 s 5.e.=.U.U.U.U.U.P.U.U.",
"U.U.U.U.P.I.z.l.l.1.t.] , # r D D D U A : X S :X<X2X2X2X<X<XOXr : T <X<X<X<X2X<X3X.X9 O e F I G D A 3 $ a 5.7._ v x M I.I.U.U.U.",
"U.U.U.U.P.c._ O.:.8.t.6.} X.g - - V U D S A V t e e e e e e D @X$X).e q e e e q q t C Z Z F G q & 8 '  .:.q.r.<.} } b U.I.P.U.U.",
"U.U.I.U.U.v._ t.8.q.r.8.6.<.g $ = N G D Z D t X   + ; ; - : V <X7X|.: : : : :     - S D D S Z 0 $ 4 ..5.5.r.t.w.q.8.+.I.H.U.U.U.",
"U.U.U.P.P.G.{ r.q.q.r.] 4 < f X.[ p + - + - O   O E =X$X$X$X=X8X8X4X=X=X$X=XOXe     - - - O : h :.' u < f 6.0.8.r.r.3.i.-.H.U.U.",
"U.U.U.v.j.*.{ y.q.w.0.[ < > g <.,.p $ > $ $ o   O _.8X8X8X8X8X8X8X8X8X8X8X8X<Xt     = # $ % > ^ 8.[ 5 # a 6.0.0.e.e.e.t.3.H.I.U.",
"U.U.v.k X.X.6.q.t.8.w.7.} X.g 4 4 ~ :.;.}  .h @   _.8X7X8X8X8X8X8X8X8X8X8X8X:Xe   4 [  .;.:.} s < y `  .;.0.e.r.0.e.7.e.2.K.U.U.",
"P.P.v.j q.q.q.8.8.7.q.8.r.t.Q # , ~ 5.,.7.u.( @ O (.<X2X6X8X8X8X8X8X7X8X6X<X$Xq   6 9.r.8.5.>.s % 4 X.t.y.7.e.e.e.e.0.t.2.K.U.U.",
"P.P.z.j t.7.9.t.q.q.t.8.7.r.<. .[ s < u :.t.)   o 9 e t @X8X8X8X8X8X8X6X(.q q O   u 6.8.^ < 1 ^ ;.;.e.r.e.7.r.7.7.e.w.e.2.H.U.I.",
"P.P.x.j :.6.8.q.7.0.y.w.8.t.6.<.<.a # 5 >.t.)     - : q oX8X8X8X8X8X8X6XR : ; O   5 5.t.~ # $ / 6.:.r.8.e.0.8.8.w.0.6.3.i.P.P.U.",
"U.U.P.j.l.*.{ r.0.0.0.r.7.w.~ 2 5 Q  .o.7.r.( . X T =X$X6X8X8X8X8X8X8X8X:X$XOXq   5 5.r.<.} } s 4 i :.q.0.q.t.y.r.7.s $.U.U.I.U.",
"U.U.U.U.P.v._ 5.,.<.>.<.9.r.g . @ ( y.0.q.r.(     (.2X<X:X<X2X2X2X4X4X<X<X<X$Xe   5 7.q.8.y.y.p   , ..t.7.>.>.,.>. .5 p.U.U.U.U.",
"U.U.U.U.P.v.$.%.%.%.&._ 6.r.g   o ( e.e.0.t.( o . : q q q e q q q q q q q q 0 O   5 5.w.7.7.7.i   < ,.t.] H &.%.%.%.n z.U.U.U.U.",
"U.U.U.U.P.U.U.U.U.U.U.b ..>.f . o ( r.0.0.t.~ @                                   5 6.w.8.q.q.i   < [ 5.! p.P.U.U.U.U.U.I.U.U.U.",
"U.U.U.U.P.U.U.U.U.U.U.K b b c l w ` r.0.0.y.) o                                   5 6.w.8.r.q.i   X d H v k.U.P.U.U.U.U.U.U.U.U.",
"U.U.U.U.U.U.U.P.U.U.U.U.P.U.v.G.&.) y.q.9.r.( .                                   5 8.q.8.q.7.s # = *.P.U.U.U.U.P.U.U.U.U.U.U.U.",
"U.U.P.U.U.U.U.U.P.P.U.U.U.U.@.1.1.8.r.q.q.y.` .                                   5 6.r.q.8.w.:.| ` l.P.U.U.U.U.U.U.U.U.U.U.U.U.",
"U.U.U.U.U.U.U.U.U.U.U.U.U.U.#.<.6.<.<.6.<.6.! O     & M K L L W L W M W K x       4 } ,.5.5.<.<.6.} l.I.U.U.P.U.U.U.P.U.U.U.U.U.",
"U.U.U.U.U.U.U.U.P.I.U.U.U.U.x 1 , , , 2 1 4 <       * n.U.U.I.I.U.U.U.U.U.m       o 2 1 < 1 2 2 1 2 $.U.U.U.U.U.U.U.U.U.U.U.U.U.",
"U.U.U.U.U.U.P.U.U.U.U.U.U.P.w                       * n.U.U.U.U.U.U.I.U.U.m     X     X             L U.U.U.U.U.U.U.U.U.U.U.U.U.",
"U.U.U.U.U.U.U.U.P.U.P.U.P.P.l   X     X       X     * n.U.U.U.U.U.U.U.U.I.m     X       X           W U.U.U.U.U.U.U.U.U.U.U.P.U.",
"U.U.P.U.U.U.U.U.I.P.P.I.U.!.x - - - - - - - - - ; + 7 L.P.P.U.U.U.m.U.U.I.K O + - - - - - - - - ; : s.W.U.U.U.U.U.U.P.U.U.U.U.U.",
"U.U.U.U.U.U.U.U.P.P.I.N.*X,X-X$X$X=X%X&X&X&X%X&X$XC.z.U.U.U.P.U.U.U.U.U.U.n.h.XX$X$X$X$X$X=X&X&X$X$X;X,X Xh.U.I.U.U.U.U.U.U.U.U.",
"U.U.U.U.U.U.U.U.U.U.P.V.4X8X8X8X8X8X8X8X8X8X8X8X6X'.U.U.U.U.U.U.U.U.U.U.U.U.T.=X8X8X8X8X8X8X8X8X8X8X8X8XoXa.P.P.U.U.U.U.U.U.U.P.",
"U.U.U.U.U.U.U.U.U.U.P.V.6X8X8X8X8X8X8X8X8X8X8X8X6X].U.U.U.U.U.P.U.U.U.U.U.U.Y.%X8X8X8X8X8X8X8X8X8X8X8X8XoXa.I.P.U.U.U.U.U.U.U.U.",
"U.U.U.U.U.U.F.W.W.W.W.D.6X8X8X8X8X8X8X8X8X8X6X4X4X'.U.U.U.U.U.U.U.U.U.U.U.U.F.+X5X4X7X8X8X8X8X8X8X8X8X8XOXg.T.W.W.T.m.U.U.U.U.U.",
"U.U.U.U.U.m.].,X;X>X>X1X6X8X8X8X8X8X8X8X7X8XOXB.!.U.U.U.U.U.U.U.U.U.U.U.U.U.U.!.Q.C.4X8X7X8X7X8X8X8X8X8X6X;X>X>X>X*XM.U.U.U.U.U.",
"U.U.U.U.U.m.].4X4X4X3X4X3X4X2X2X3X<X3X3X<X3X`.W U.U.U.U.U.U.U.U.U.U.U.U.U.U.U.U.U.P =X4X1X3X2X2X<X3X3X3X3X4X4X3X3X;XM.U.U.U.U.U.",
"U.U.U.U.U.I.F.^.Q.^.Q.^.^.^.^.^.^.^.^.^.Q.Q.b.v.U.U.U.U.U.U.U.U.U.U.U.U.U.U.U.U.U.x.E.^.^.^.^.^.^.Q.^.^.^.^.^.^.^.Q.x.I.U.U.U.U.",
"U.U.U.U.U.U.U.U.U.U.U.U.I.U.U.U.U.U.U.U.U.U.U.U.U.U.U.U.U.U.U.U.U.U.U.U.U.U.U.U.U.U.m.U.U.U.U.U.I.I.U.U.U.U.U.U.U.U.U.U.U.U.U.I.",
"U.U.U.U.U.U.U.U.U.U.U.U.U.U.U.U.U.U.U.U.U.U.U.U.U.U.U.U.U.U.U.U.U.U.U.U.U.U.U.U.U.U.U.U.U.U.U.U.P.U.U.U.U.U.U.U.U.U.U.U.U.U.U.U.",
"U.U.U.U.U.U.P.U.U.U.U.U.U.U.U.I.U.U.U.U.U.U.U.U.U.U.U.U.U.U.U.U.U.U.U.U.U.U.U.U.U.U.U.U.U.U.U.U.U.U.U.U.U.U.U.U.U.U.U.U.U.U.U.U.",
"U.U.U.U.U.P.U.U.U.U.U.P.U.U.U.U.U.U.U.U.U.U.U.U.U.U.U.U.U.U.U.U.U.U.U.U.U.U.U.U.U.U.U.U.U.U.U.U.U.U.U.U.U.U.U.U.U.U.U.U.U.U.U.U."
};
