/* XPM */
static char *_399e922891444c1fe6b5eb705b0be948kyPqCECmVsRzY3v[] = {
/* columns rows colors chars-per-pixel */
"64 64 186 2 ",
"   c #464705",
".  c #464407",
"X  c #464606",
"o  c #484208",
"O  c #58560B",
"+  c #67681A",
"@  c #6C691A",
"#  c #6D6A1B",
"$  c #807B1F",
"%  c #807A22",
"&  c #84801F",
"*  c #938F2E",
"=  c #958F2D",
"-  c #9B9825",
";  c #9F9927",
":  c #96912D",
">  c #95912E",
",  c #96902E",
"<  c #97912F",
"1  c #94922E",
"2  c #959231",
"3  c #9D9832",
"4  c #A8A325",
"5  c #A8A12F",
"6  c #A9A42F",
"7  c #B8AF2E",
"8  c #BEB826",
"9  c #B9B329",
"0  c #B8B22A",
"q  c #BAB72A",
"w  c #BCB62A",
"e  c #A6A332",
"r  c #A7A431",
"t  c #A9A331",
"y  c #AAA331",
"u  c #ABA432",
"i  c #ACAA31",
"p  c #C0B922",
"a  c #C0B923",
"s  c #C0B825",
"d  c #C0BA26",
"f  c #C3BC25",
"g  c #CEC832",
"h  c #CFC933",
"j  c #CECB32",
"k  c #CEC834",
"l  c #CFC935",
"z  c #CBC239",
"x  c #CBC33A",
"c  c #CBC539",
"v  c #C9C639",
"b  c #CBC53B",
"n  c #CDC63A",
"m  c #CBC33C",
"M  c #CCC63C",
"N  c #CBC839",
"B  c #CEC93A",
"V  c #DCD733",
"C  c #DDD437",
"Z  c #DDDB31",
"A  c #E3DD31",
"S  c #E3DC33",
"D  c #E4DC31",
"F  c #E5DD32",
"G  c #E4DC33",
"H  c #EFE92F",
"J  c #F9F02F",
"K  c #E9E337",
"L  c #EEE737",
"P  c #EEEA33",
"I  c #EDE836",
"U  c #E7E339",
"Y  c #E9E239",
"T  c #EDE53A",
"R  c #EBE73E",
"E  c #EBEA38",
"W  c #EFE838",
"Q  c #EFE939",
"!  c #EDEB38",
"~  c #EDEA39",
"^  c #EFEA38",
"/  c #ECE93A",
"(  c #EFE93B",
")  c #ECEA3F",
"_  c #F0E734",
"`  c #F1E831",
"'  c #F1EB31",
"]  c #F3EB31",
"[  c #F3E932",
"{  c #F0EA32",
"}  c #F5EB31",
"|  c #F6EB31",
" . c #F5EB32",
".. c #F6EA32",
"X. c #F4EC31",
"o. c #F7EE31",
"O. c #F5ED32",
"+. c #F5ED33",
"@. c #F7ED33",
"#. c #F4EF33",
"$. c #F7EF32",
"%. c #F6EE33",
"&. c #F0EA34",
"*. c #F0E936",
"=. c #F1EA37",
"-. c #F5EB34",
";. c #F4EB36",
":. c #F1ED34",
">. c #F0EC35",
",. c #F1ED36",
"<. c #F7ED34",
"1. c #F4EE34",
"2. c #F5EF35",
"3. c #F7EF34",
"4. c #F7EF35",
"5. c #F4EE36",
"6. c #F5EF37",
"7. c #F7EE37",
"8. c #FAEF31",
"9. c #F9EE32",
"0. c #F8EF32",
"q. c #FAEF33",
"w. c #F8EE34",
"e. c #F9EF35",
"r. c #FAEF35",
"t. c #F1E738",
"y. c #F0E938",
"u. c #F0E939",
"i. c #F2E838",
"p. c #F2E839",
"a. c #F5EF39",
"s. c #F7F234",
"d. c #F4F037",
"f. c #F6F036",
"g. c #F7F236",
"h. c #F9F031",
"j. c #F8F131",
"k. c #FAF130",
"l. c #F9F230",
"z. c #FBF231",
"x. c #F8F033",
"c. c #F9F033",
"v. c #FBF032",
"b. c #FAF132",
"n. c #F9F232",
"m. c #FBF233",
"M. c #FAF333",
"N. c #FCF231",
"B. c #FCF133",
"V. c #FCF332",
"C. c #FDF332",
"Z. c #FDF532",
"A. c #FDF433",
"S. c #F9F134",
"D. c #F8F035",
"F. c #FBF034",
"G. c #FAF134",
"H. c #FAF235",
"J. c #FBF235",
"K. c #F8F036",
"L. c #F9F136",
"P. c #FAF237",
"I. c #FCF334",
"U. c #F4F039",
"Y. c #F6F038",
"T. c #F9F438",
"R. c #C9C740",
"E. c #DCD546",
"W. c #E4DB42",
"Q. c #EBE642",
"!. c #A857A3",
"~. c #A957A3",
"^. c #A857A4",
"/. c #AA57A5",
"(. c #A658A3",
"). c #A75AA2",
"_. c #A658A4",
"`. c #A759A4",
"'. c #A959A2",
"]. c #AA58A2",
"[. c #A958A4",
"{. c #A958A5",
"}. c #AA58A4",
"|. c #AA59A5",
" X c #A85AA5",
".X c #AA59A6",
/* pixels */
"[.[.[.[.[.[.[.[.[.[.[.[.[.[.[.[.[.[.[.[.[.[.[.[.[.[.[.[.[.[.[.[.[.[.[.[.[.[.[.[.[.[.[.[.[.[.[.[.[.[.[.[.[.[.[.[.[.[.[.[.[.[.[.[.",
"[.[.[.[.[.[.[.[.[.[.[.[.[.[.[.[.[.[.[.[.[.[.[.[.[.[.[.[.[.[.[.[.[.[.[.[.[.[.[.[.[.[.[.[.[.[.[.[.[.[.[.[.[.[.[.[.[.[.[.[.[.[.[.[.",
"[.[.[.[.[.[.[.[.[.[.[.[.[.[.[.[.[.[.[.[.[.[.[.[.[.[.[.`.[.[.[.[.[.[.[.[.[.[.[.[.[.[.[.[.[.[.[.[.[.[.[.[.[.[.[.[.[.[.[.[.[.[.[.[.",
"[.[.[.[.[.[.[.[.[.[.[.[.[.[.[.[.[.[.[.[.[.[.[.[.[.[.[.[.[.[.[.[.^.[.[.[.[.[.[.[.[.[.[.[.[.[.[.[.[.[.[.[.[.[.[.[.[.[.[.[.[.[.[.[.",
"[.[.[.[.[.[.[.[.[.[.[.[.[.[.[.[.[.[.[.[.[.[.[.[.[.[.[.[.[.[.5.m.j [.[.[.[.[.[.[.[.[.[.[.[.[.[.[.[.[.[.[.[.[.[.[.[.[.[.[.[.[.[.[.",
"[.[.[.[.[.[.[.[.[.[.[.[.[.[.[.[.[.[.[.[.[.[.[.[.[.[.[.[.[.[.5.B.j [.[.[.[.[.[.[.[.[.[.[.[.[.[.[.[.[.[.[.[.[.[.[.[.[.[.[.[.[.[.[.",
"[.[.[.[.[.[.[.[.[.[.[.[.[.[.[.[.[.[.[.[.[.[.[.[.[.[.[.[.[.[.5.B.j [.[.[.[.[.[.[.[.[.[.[.[.[.[.[.[.[.[.[.[.[.[.[.[.[.[.[.[.[.[.[.",
"[.[.[.[.[.[.[.[.[.[.[.[.[.[.[.[.[.[.[.[.[.[.[.[.[.[.[.[.[.[.5.B.l '.[.`.[.[.[.[.[.[.[.[.[.[.[.[.[.[.[.[.[.[.[.[.[.[.[.[.[.[.[.[.",
"[.[.[.[.[.[.[.[.[.[.[.[.[.[.[.[.[.[.[.[.[.[.[.[.[.[.[.[.[.[.5.B.l [.[.[.[.[.[.[.[.[.[.[.[.[.[.[.[.[.[.[.[.[.[.[.[.[.[.[.[.[.[.[.",
"[.[.[.[.[.[.[.[.[.[.[.[.[.[.[.[.[.[.[.[.[.[.[.[.[.[.`.[.[.[.5.m.j [.[.[.[.[.[.[.[.[.[.[.[.[.[.[.[.[.[.[.[.[.[.[.[.[.[.[.[.[.[.[.",
"[.[.[.[.[.[.[.[.[.[.[.[.[.[.[.[.[.[.[.[.[.[.[.[.[.[.[.[.[.!.r.m.Z [.[.[.[.[.[.[.[.[.[.[.[.[.[.[.[.[.[.[.[.[.[.[.[.[.[.[.[.[.[.[.",
"[.[.[.[.[.[.[.[.[.[.[.[.[.[.[.[.[.[.[.[.[.[.[.[.[.[.* V { { g.S.0.{ { [.(.[.[.[.[.[.[.[.[.[.[.[.[.[.[.[.[.[.[.[.[.[.[.[.[.[.[.[.",
"[.[.[.[.[.[.[.[.[.[.[.[.[.[.[.[.[.[.[.[.[.[.[.[.[.[.> G m.m.S.S.S.S.m.[.[.!.[.[.[.[.[.[.[.[.[.[.[.[.[.[.[.[.[.[.[.[.[.[.[.[.[.[.",
"[.[.[.[.[.[.[.[.[.[.[.[.[.[.[.[.[.[.[.[.[.[.[.[.[.[.> G m.m.m.m.m.m.m.!.[.[.[.[.[.[.[.[.[.[.[.[.[.[.[.[.[.[.[.[.[.[.[.[.[.[.[.[.",
"[.[.[.[.[.[.[.[.[.[.[.[.[.[.[.[.[.[.[.[.[.[.[.[.[.[.> G m.m.S.m.m.m.m.[.!.[.[.[.[.[.[.[.[.[.[.[.[.[.[.[.[.[.[.[.[.[.[.[.[.[.[.[.",
"[.[.[.[.[.[.[.[.[.[.[.[.[.[.[.[.[.[.[.[.[.[.[.[.[.[.> S I.m.m.m.m.m.m.[.[.[.[.[.[.[.[.[.[.[.[.[.[.[.[.[.[.[.[.[.[.[.[.[.[.[.[.[.",
"[.[.[.[.[.[.[.[.[.[.[.[.[.[.[.[.[.[.[.[.[.[.[.[.[.[.> G m.m.m.S.m.m.m.'.[.[.[.[.[.[.[.[.[.[.[.[.[.[.[.[.[.[.[.[.[.[.[.[.[.[.[.[.",
"[.[.[.[.[.[.[.[.[.[.[.[.[.[.[.[.[.[.[.[.[.[.[.[.[.[.> G m.m.m.m.m.S.m.[.!.[.[.[.[.[.[.[.[.[.[.[.[.[.[.[.[.[.[.[.[.[.[.[.[.[.[.[.",
"[.[.[.[.[.[.[.[.[.[.[.[.[.[.[.[.[.[.[.[.[.[.[.[.[.[.> G m.m.m.m.m.m.m.[.[.[.[.[.[.[.[.[.[.[.[.[.[.[.[.[.[.[.[.[.[.[.[.[.[.[.[.[.",
"[.[.[.[.[.[.[.[.[.[.[.[.[.[.[.[.[.[.[.[.[.[.[.[.[.[.= G m.m.m.m.m.m.m.[.[.[.`.[.[.[.[.[.[.[.[.[.[.[.[.[.[.[.[.[.[.[.[.[.[.[.[.[.",
"[.[.[.[.[.[.[.[.[.[.[.[.[.[.[.[.[.[.[.[.[.[.[.[.[.[.> G m.m.m.m.m.S.@.[.[.[.[.[.[.[.[.[.[.[.[.[.[.[.[.[.[.[.[.[.[.[.[.[.[.[.[.[.",
"[.[.[.[.[.[.[.[.[.[.[.[.[.[.[.[.[.[.[.[.[.[.[.[.[.[.> G m.m.m.m.m.m.m.{ { P U [.[.[.[.[.[.[.[.[.[.[.[.[.[.[.[.[.[.[.[.[.[.[.[.[.",
"[.[.[.[.[.[.[.[.[.[.[.[.[.[.[.[.[.[.[.[.[.[.[.[.[.[.> G m.m.m.m.m.S.m.m.m.5.E [.[.[.[.[.[.[.[.[.[.[.[.[.[.[.[.[.[.[.[.[.[.[.[.[.",
"[.[.[.[.[.[.[.[.[.[.[.[.[.[.[.[.[.[.[.[.[.[.[.[.[.[.3 G m.m.m.J m.m.m.m.m.@.&.[.[.[.[.[.[.[.[.[.[.[.[.[.[.[.[.[.[.[.[.[.[.[.[.[.",
"[.[.[.[.[.[.[.[.[.[.[.[.[.[.[.[.[.`.[.'.[.[.[.[.) >._ m.m.m.m.m.m.m.m.m.m.S.5.>.>.I K Y K T i [.[.[.[.[.[.[.[.'.[.[.[.[.[.[.[.[.",
"[.[.[.[.[.[.[.[.[.[.[.[.[.[.[.[.[.[.[.[.[.[.[.[.a.0.0.m.m.m.m.m.m.m.m.m.m.S.0.0.m.m.m.m.m.B.0 [.[.[.[.[.[.[.[.`.[.[.[.[.[.[.[.[.",
"[.[.[.[.[.[.[.[.[.[.[.`.[.[.(.'.[.[.[.'.[.[.[.[.U.m.m.m.m.m.m.m.m.m.m.m.m.m.m.B.m.m.m.m.m.Z.q [.[.[.[.[.[.'.[.!.[.[.[.[.[.[.[.[.",
"[.[.[.[.[.[.[.[.[.[.[.[.[.[.[.[.[.(.[.!.# # + - S.m.m.m.0.m.m.m.0.m.m.m.m.m.m.m.m.m.m.m.m.m.S 7 5 t 6 r r t u e [.[.[.[.[.[.[.[.",
"[.[.[.[.[.[.[.[.[.[.!.[.[.[.[.[.[.!.!.[.H { { ..m.m.m.m.m.m.S.m.m.m.m.m.m.m.m.m.m.m.m.m.m.m.@.@...........@...&.[.[.[.[.[.[.[.[.",
"[.[.[.[.[.[.[.[.[.[.[.[.[.[.[.; m.m.m.S.m.0.m.m.m.m.m.m.m.m.m.m.m.m.m.m.m.m.m.m.m.m.S.m.S.m.m.m.m.m.m.m.m.m.m.U.[.[.[.[.[.[.[.[.",
"[.[.[.[.[.[.[.[.[.[.[.`.[.[.[.4 0.m.m.S.m.0.m.m.m.m.J m.m.S.m.m.m.m.m.m.m.m.m.m.m.m.m.m.m.m.;.t.L i.( i.( ( ( Q.[.[.[.[.[.[.[.[.",
"[.[.[.[.[.[.[.[.[.[.S.m.m.m.m...m.m.S.m.m.m.m.m.m.m.m.m.m.m.m.m.m.m.m.m.m.m.m.m.m.m.m.m.m.Z.w ^.[.[.[.[.[.[.[.[.[.[.[.[.[.[.[.[.",
"[.[.[.[.[.[.[.[.[.`.g.@.@.5.@.@.@.@.@.@.@.m.S.m.m.m.m.S.m.m.m.m.m.S.m.J m.m.m.m.m.@.@.@.@.m.0 [.[.[.[.[.[.[.[.[.[.[.[.[.[.[.[.[.",
"[.[.[.[.[.[.[.[.[.[.R.z b b z M b z m b N &.m.m.m.m.m.m.m.m.m.m.m.m.m.m.m.m.m.S.m.C n b b B 2 [.[.[.[.[.[.[.[.[.[.[.[.[.[.[.[.[.",
"[.[.[.[.[.[.[.[.[.[.[.[.[.[.[.[.[.[.[.[.[.( m.m.m.m.m.m.m.m.m.m.m.m.m.m.m.m.m.m.m.& [.[.[.[.[.`.[.[.[.[.[.[.[.[.[.[.[.[.[.[.[.[.",
"[.[.[.[.[.[.[.[.'.[.[.[.[.`.[.[.[.'.[.!.[.( m.S.m.g.S.S.m.m.S.m.m.m.m.m.m.m.r.m.m.$ [.[.[.[.'.[.[.[.[.[.[.[.[.[.[.[.[.[.[.[.[.[.",
"[.[.[.[.[.[.[.[.[.`.[.[.[.[.[.[.[.[.[.[.[.R r.m.m.S.S.S.m.m.m.m.m.m.m.m.0.m.m.0.S.% [.[.'.[.[.[.[.[.[.[.[.[.[.[.[.[.[.[.[.[.[.[.",
"[.[.[.[.[.[.[.[.[.[.[.[.[.[.[.!.[.[.[.[.[.[.!.[.[.[.^.m.m.m.m.m.m.m.m.m.J 0.;.^.[.[.[.[.[.[.[.[.[.[.[.[.[.[.[.[.[.[.[.[.[.[.[.[.",
"[.[.[.[.[.[.[.[.[.[.[.[.[.[.[.[.[.!.[.[.[.[.`.[.[.[.[.m.r.B.S.m.m.m.m.m.m.@.i.[.^.[.[.^.[.[.[.'.[.[.[.[.[.[.[.[.[.[.[.[.[.[.[.[.",
"[.[.[.[.[.[.[.[.[.[.!.[.'.`.[.[.[.[.[.[.[.[.[.[.[.[.[.5.S.m.m.m.m.m.m.m.m.@.( [.[.[.[.[.[.[.[.[.[.[.[.[.[.[.[.[.[.[.[.[.[.[.[.[.",
"[.[.[.[.[.[.[.[.[.[.[.[.[.[.[.[.[.[.[.[.[.[.[.[.[.[.[.E.E.W.0.m.m.m.m.m.m.5.( [.[.[.[.[.[.[.[.[.[.[.[.[.[.[.[.[.[.[.[.[.[.[.[.[.",
"[.[.[.[.[.[.[.[.[.[.[.[.[.[.[.[.[.[.[.[.[.[.[.[.[.[.[.[.[.[.S.S.m.m.m.m.m.5.I '.[.[.[.[.[.[.[.[.[.[.[.[.[.[.[.[.[.[.[.[.[.[.[.[.",
"[.[.[.[.[.[.[.[.[.[.[.[.[.[.[.[.[.[.[.[.[.[.[.[.!.[.[.[.[.[.S.m.m.m.m.m.m.5.( [.[.[.[.[.[.[.[.[.[.[.[.[.[.[.[.[.[.[.[.[.[.[.[.[.",
"[.[.[.[.[.[.[.[.[.[.[.[.[.[.[.[.[.[.[.[.[.[.[.[.[.[.[.[.[.[.S.m.m.m.m.r.m.@.( [.[.[.[.[.[.[.[.[.[.[.[.[.[.[.[.[.[.[.[.[.[.[.[.[.",
"[.[.[.[.[.[.[.[.[.[.[.[.[.[.[.[.[.[.[.[.[.[.[.[.[.[.[.[.[.[.S.m.m.m.m.m.m.@.( [.[.[.[.[.[.[.[.[.[.[.[.[.[.[.[.[.[.[.[.[.[.[.[.[.",
"[.[.[.[.[.[.[.[.[.[.[.[.[.[.[.[.[.[.[.[.[.[.[.[.[.[.[.[.[.[.5.m.m.m.m.m.S.5.( [.[.[.[.[.[.[.[.[.[.[.[.[.[.[.[.[.[.[.[.[.[.[.[.[.",
"[.[.[.[.[.[.[.[.[.[.[.[.[.[.[.[.[.[.[.[.[.[.[.[.[.[.`.[.^.[.g.m...@.m.m.m.5.i.[.[.[.[.[.[.[.[.[.[.[.[.[.[.[.[.[.[.[.[.[.[.[.[.[.",
"[.[.[.[.[.[.[.[.[.[.[.[.[.[.[.[.[.[.[.[.[.[.[.[.[.[.[.[.[.[.[.[.O f Z.!.[.[.[.[.[.[.[.[.[.[.[.[.[.[.[.[.[.[.[.[.[.[.[.[.[.[.[.[.",
"[.[.[.[.[.[.[.[.[.[.[.[.[.[.[.[.[.[.[.[.[.[.[.[.[.[.[.[.[.[.[.[.  p Z.[.[.^.[.[.[.[.[.[.[.[.[.[.[.[.[.[.[.[.[.[.[.[.[.[.[.[.[.[.",
"[.[.[.[.[.[.[.[.[.[.[.[.[.[.[.[.[.[.[.[.[.[.[.[.[.[.[.[.[.[.[.[.  p Z.[.[.[.`.[.[.[.[.[.[.[.[.[.[.[.[.[.[.[.[.[.[.[.[.[.[.[.[.[.",
"[.[.[.[.[.[.[.[.[.[.[.[.[.[.[.[.[.[.[.[.[.[.[.[.[.[.[.[.[.[.[.[.  p Z.[.[.[.[.[.[.[.[.[.[.[.[.[.[.[.[.[.[.[.[.[.[.[.[.[.[.[.[.[.",
"[.[.[.[.[.[.[.[.[.[.[.[.[.[.[.[.[.[.[.[.[.[.[.[.[.[.[.[.[.[.[.[.  s Z.[.[.[.[.[.[.[.[.[.[.[.[.[.[.[.[.[.[.[.[.[.[.[.[.[.[.[.[.[.",
"[.[.[.[.[.[.[.[.[.[.[.[.[.[.[.[.[.[.[.[.[.[.[.[.[.[.[.[.[.[.[.[.  s Z.!.[.[.[.[.[.[.[.[.[.[.[.[.[.[.[.[.[.[.[.[.[.[.[.[.[.[.[.[.",
"[.[.[.[.[.[.[.[.[.[.[.[.[.[.[.[.[.[.[.[.[.[.[.[.[.[.[.[.[.[.[.[.o 8 T.[.[.[.[.[.[.[.[.[.[.[.[.[.[.[.[.[.[.[.[.[.[.[.[.[.[.[.[.[.",
"[.[.[.[.[.[.[.[.[.[.[.[.[.[.[.[.[.[.[.[.[.[.[.[.[.[.[.[.[.[.[.[.[.[.[.!.[.[.[.!.[.[.[.[.[.[.[.[.[.[.[.[.[.[.[.[.[.[.[.[.[.[.[.[.",
"[.[.[.[.[.[.[.[.[.[.[.[.[.[.[.[.[.[.[.[.[.[.[.[.[.[.[.[.[.[.[.[.[.[.(.'.[.[.[.[.[.[.[.[.[.[.[.[.[.[.[.[.[.[.[.[.[.[.[.[.[.[.[.[.",
"[.[.[.[.[.[.[.[.[.[.[.[.[.[.[.[.[.[.[.[.[.[.[.[.[.[.[.[.[.[.[.[.[.[.[.[.[.[.[.[.[.[.[.[.[.[.[.[.[.[.[.[.[.[.[.[.[.[.[.[.[.[.[.[.",
"[.[.[.[.[.[.[.[.[.[.[.[.[.[.[.[.[.[.[.[.[.[.[.[.[.[.[.[.[.[.[.[.[.[.[.[.[.[.[.[.[.[.[.[.[.[.[.[.[.[.[.[.[.[.[.[.[.[.[.[.[.[.[.[.",
"[.[.[.[.[.[.[.[.[.[.[.[.[.[.[.[.[.[.[.[.[.[.[.[.[.[.[.[.[.[.[.[.[.[.[.[.[.[.[.[.[.[.[.[.[.[.[.[.[.[.[.[.[.[.[.[.[.[.[.[.[.[.[.[.",
"[.[.[.[.[.[.[.[.[.[.[.[.[.[.[.[.[.[.[.[.[.[.[.[.[.[.[.[.[.[.[.[.[.[.[.[.[.[.[.[.[.[.[.[.[.[.[.[.[.[.[.[.[.[.[.[.[.[.[.[.[.[.[.[.",
"[.[.[.[.[.[.[.[.[.[.[.[.[.[.[.[.[.[.[.[.[.[.[.[.[.[.[.[.[.[.[.[.[.[.[.[.[.[.[.[.[.[.[.[.[.[.[.[.[.[.[.[.[.[.[.[.[.[.[.[.[.[.[.[.",
"[.[.[.[.[.[.[.[.[.[.[.[.[.[.[.[.[.[.[.[.[.[.[.[.[.[.[.[.[.[.[.[.[.[.[.[.[.[.[.[.[.[.[.[.[.[.[.[.[.[.[.[.[.[.[.[.[.[.[.[.[.[.[.[.",
"[.[.[.[.[.[.[.[.[.[.[.[.[.[.[.[.[.[.[.[.[.[.[.[.[.[.[.[.[.[.[.[.[.[.[.[.[.[.[.[.[.[.[.[.[.[.[.[.[.[.[.[.[.[.[.[.[.[.[.[.[.[.[.[.",
"[.[.[.[.[.[.[.[.[.[.[.[.[.[.[.[.[.[.[.[.[.[.[.[.[.[.[.[.[.[.[.[.[.[.[.[.[.[.[.[.[.[.[.[.[.[.[.[.[.[.[.[.[.[.[.[.[.[.[.[.[.[.[.[."
};
